%TF.GenerationSoftware,KiCad,Pcbnew,(7.0.0)*%
%TF.CreationDate,2023-04-17T14:45:16+03:00*%
%TF.ProjectId,sensor_system,73656e73-6f72-45f7-9379-7374656d2e6b,rev?*%
%TF.SameCoordinates,Original*%
%TF.FileFunction,Legend,Top*%
%TF.FilePolarity,Positive*%
%FSLAX46Y46*%
G04 Gerber Fmt 4.6, Leading zero omitted, Abs format (unit mm)*
G04 Created by KiCad (PCBNEW (7.0.0)) date 2023-04-17 14:45:16*
%MOMM*%
%LPD*%
G01*
G04 APERTURE LIST*
%ADD10C,0.200000*%
%ADD11C,0.150000*%
%ADD12C,0.100000*%
%ADD13C,0.120000*%
%ADD14C,0.152400*%
G04 APERTURE END LIST*
D10*
X91612500Y-47825000D02*
X91612500Y-29825000D01*
D11*
%TO.C,TP1*%
X122188095Y-33207380D02*
X122759523Y-33207380D01*
X122473809Y-34207380D02*
X122473809Y-33207380D01*
X123092857Y-34207380D02*
X123092857Y-33207380D01*
X123092857Y-33207380D02*
X123473809Y-33207380D01*
X123473809Y-33207380D02*
X123569047Y-33255000D01*
X123569047Y-33255000D02*
X123616666Y-33302619D01*
X123616666Y-33302619D02*
X123664285Y-33397857D01*
X123664285Y-33397857D02*
X123664285Y-33540714D01*
X123664285Y-33540714D02*
X123616666Y-33635952D01*
X123616666Y-33635952D02*
X123569047Y-33683571D01*
X123569047Y-33683571D02*
X123473809Y-33731190D01*
X123473809Y-33731190D02*
X123092857Y-33731190D01*
X124616666Y-34207380D02*
X124045238Y-34207380D01*
X124330952Y-34207380D02*
X124330952Y-33207380D01*
X124330952Y-33207380D02*
X124235714Y-33350238D01*
X124235714Y-33350238D02*
X124140476Y-33445476D01*
X124140476Y-33445476D02*
X124045238Y-33493095D01*
%TO.C,R3*%
X108933333Y-33517380D02*
X108600000Y-33041190D01*
X108361905Y-33517380D02*
X108361905Y-32517380D01*
X108361905Y-32517380D02*
X108742857Y-32517380D01*
X108742857Y-32517380D02*
X108838095Y-32565000D01*
X108838095Y-32565000D02*
X108885714Y-32612619D01*
X108885714Y-32612619D02*
X108933333Y-32707857D01*
X108933333Y-32707857D02*
X108933333Y-32850714D01*
X108933333Y-32850714D02*
X108885714Y-32945952D01*
X108885714Y-32945952D02*
X108838095Y-32993571D01*
X108838095Y-32993571D02*
X108742857Y-33041190D01*
X108742857Y-33041190D02*
X108361905Y-33041190D01*
X109266667Y-32517380D02*
X109885714Y-32517380D01*
X109885714Y-32517380D02*
X109552381Y-32898333D01*
X109552381Y-32898333D02*
X109695238Y-32898333D01*
X109695238Y-32898333D02*
X109790476Y-32945952D01*
X109790476Y-32945952D02*
X109838095Y-32993571D01*
X109838095Y-32993571D02*
X109885714Y-33088809D01*
X109885714Y-33088809D02*
X109885714Y-33326904D01*
X109885714Y-33326904D02*
X109838095Y-33422142D01*
X109838095Y-33422142D02*
X109790476Y-33469761D01*
X109790476Y-33469761D02*
X109695238Y-33517380D01*
X109695238Y-33517380D02*
X109409524Y-33517380D01*
X109409524Y-33517380D02*
X109314286Y-33469761D01*
X109314286Y-33469761D02*
X109266667Y-33422142D01*
%TO.C,R17*%
X143467380Y-30242857D02*
X142991190Y-30576190D01*
X143467380Y-30814285D02*
X142467380Y-30814285D01*
X142467380Y-30814285D02*
X142467380Y-30433333D01*
X142467380Y-30433333D02*
X142515000Y-30338095D01*
X142515000Y-30338095D02*
X142562619Y-30290476D01*
X142562619Y-30290476D02*
X142657857Y-30242857D01*
X142657857Y-30242857D02*
X142800714Y-30242857D01*
X142800714Y-30242857D02*
X142895952Y-30290476D01*
X142895952Y-30290476D02*
X142943571Y-30338095D01*
X142943571Y-30338095D02*
X142991190Y-30433333D01*
X142991190Y-30433333D02*
X142991190Y-30814285D01*
X143467380Y-29290476D02*
X143467380Y-29861904D01*
X143467380Y-29576190D02*
X142467380Y-29576190D01*
X142467380Y-29576190D02*
X142610238Y-29671428D01*
X142610238Y-29671428D02*
X142705476Y-29766666D01*
X142705476Y-29766666D02*
X142753095Y-29861904D01*
X142467380Y-28957142D02*
X142467380Y-28290476D01*
X142467380Y-28290476D02*
X143467380Y-28719047D01*
D12*
%TO.C,U3*%
X137390476Y-44043904D02*
X137390476Y-44691523D01*
X137390476Y-44691523D02*
X137428571Y-44767714D01*
X137428571Y-44767714D02*
X137466666Y-44805809D01*
X137466666Y-44805809D02*
X137542857Y-44843904D01*
X137542857Y-44843904D02*
X137695238Y-44843904D01*
X137695238Y-44843904D02*
X137771428Y-44805809D01*
X137771428Y-44805809D02*
X137809523Y-44767714D01*
X137809523Y-44767714D02*
X137847619Y-44691523D01*
X137847619Y-44691523D02*
X137847619Y-44043904D01*
X138152380Y-44043904D02*
X138647618Y-44043904D01*
X138647618Y-44043904D02*
X138380952Y-44348666D01*
X138380952Y-44348666D02*
X138495237Y-44348666D01*
X138495237Y-44348666D02*
X138571428Y-44386761D01*
X138571428Y-44386761D02*
X138609523Y-44424857D01*
X138609523Y-44424857D02*
X138647618Y-44501047D01*
X138647618Y-44501047D02*
X138647618Y-44691523D01*
X138647618Y-44691523D02*
X138609523Y-44767714D01*
X138609523Y-44767714D02*
X138571428Y-44805809D01*
X138571428Y-44805809D02*
X138495237Y-44843904D01*
X138495237Y-44843904D02*
X138266666Y-44843904D01*
X138266666Y-44843904D02*
X138190475Y-44805809D01*
X138190475Y-44805809D02*
X138152380Y-44767714D01*
D11*
%TO.C,D3*%
X151311905Y-42967380D02*
X151311905Y-41967380D01*
X151311905Y-41967380D02*
X151550000Y-41967380D01*
X151550000Y-41967380D02*
X151692857Y-42015000D01*
X151692857Y-42015000D02*
X151788095Y-42110238D01*
X151788095Y-42110238D02*
X151835714Y-42205476D01*
X151835714Y-42205476D02*
X151883333Y-42395952D01*
X151883333Y-42395952D02*
X151883333Y-42538809D01*
X151883333Y-42538809D02*
X151835714Y-42729285D01*
X151835714Y-42729285D02*
X151788095Y-42824523D01*
X151788095Y-42824523D02*
X151692857Y-42919761D01*
X151692857Y-42919761D02*
X151550000Y-42967380D01*
X151550000Y-42967380D02*
X151311905Y-42967380D01*
X152216667Y-41967380D02*
X152835714Y-41967380D01*
X152835714Y-41967380D02*
X152502381Y-42348333D01*
X152502381Y-42348333D02*
X152645238Y-42348333D01*
X152645238Y-42348333D02*
X152740476Y-42395952D01*
X152740476Y-42395952D02*
X152788095Y-42443571D01*
X152788095Y-42443571D02*
X152835714Y-42538809D01*
X152835714Y-42538809D02*
X152835714Y-42776904D01*
X152835714Y-42776904D02*
X152788095Y-42872142D01*
X152788095Y-42872142D02*
X152740476Y-42919761D01*
X152740476Y-42919761D02*
X152645238Y-42967380D01*
X152645238Y-42967380D02*
X152359524Y-42967380D01*
X152359524Y-42967380D02*
X152264286Y-42919761D01*
X152264286Y-42919761D02*
X152216667Y-42872142D01*
%TO.C,C7*%
X115572142Y-39766666D02*
X115619761Y-39814285D01*
X115619761Y-39814285D02*
X115667380Y-39957142D01*
X115667380Y-39957142D02*
X115667380Y-40052380D01*
X115667380Y-40052380D02*
X115619761Y-40195237D01*
X115619761Y-40195237D02*
X115524523Y-40290475D01*
X115524523Y-40290475D02*
X115429285Y-40338094D01*
X115429285Y-40338094D02*
X115238809Y-40385713D01*
X115238809Y-40385713D02*
X115095952Y-40385713D01*
X115095952Y-40385713D02*
X114905476Y-40338094D01*
X114905476Y-40338094D02*
X114810238Y-40290475D01*
X114810238Y-40290475D02*
X114715000Y-40195237D01*
X114715000Y-40195237D02*
X114667380Y-40052380D01*
X114667380Y-40052380D02*
X114667380Y-39957142D01*
X114667380Y-39957142D02*
X114715000Y-39814285D01*
X114715000Y-39814285D02*
X114762619Y-39766666D01*
X114667380Y-39433332D02*
X114667380Y-38766666D01*
X114667380Y-38766666D02*
X115667380Y-39195237D01*
%TO.C,C11*%
X150807142Y-25972142D02*
X150759523Y-26019761D01*
X150759523Y-26019761D02*
X150616666Y-26067380D01*
X150616666Y-26067380D02*
X150521428Y-26067380D01*
X150521428Y-26067380D02*
X150378571Y-26019761D01*
X150378571Y-26019761D02*
X150283333Y-25924523D01*
X150283333Y-25924523D02*
X150235714Y-25829285D01*
X150235714Y-25829285D02*
X150188095Y-25638809D01*
X150188095Y-25638809D02*
X150188095Y-25495952D01*
X150188095Y-25495952D02*
X150235714Y-25305476D01*
X150235714Y-25305476D02*
X150283333Y-25210238D01*
X150283333Y-25210238D02*
X150378571Y-25115000D01*
X150378571Y-25115000D02*
X150521428Y-25067380D01*
X150521428Y-25067380D02*
X150616666Y-25067380D01*
X150616666Y-25067380D02*
X150759523Y-25115000D01*
X150759523Y-25115000D02*
X150807142Y-25162619D01*
X151759523Y-26067380D02*
X151188095Y-26067380D01*
X151473809Y-26067380D02*
X151473809Y-25067380D01*
X151473809Y-25067380D02*
X151378571Y-25210238D01*
X151378571Y-25210238D02*
X151283333Y-25305476D01*
X151283333Y-25305476D02*
X151188095Y-25353095D01*
X152711904Y-26067380D02*
X152140476Y-26067380D01*
X152426190Y-26067380D02*
X152426190Y-25067380D01*
X152426190Y-25067380D02*
X152330952Y-25210238D01*
X152330952Y-25210238D02*
X152235714Y-25305476D01*
X152235714Y-25305476D02*
X152140476Y-25353095D01*
%TO.C,R5*%
X141517380Y-36716666D02*
X141041190Y-37049999D01*
X141517380Y-37288094D02*
X140517380Y-37288094D01*
X140517380Y-37288094D02*
X140517380Y-36907142D01*
X140517380Y-36907142D02*
X140565000Y-36811904D01*
X140565000Y-36811904D02*
X140612619Y-36764285D01*
X140612619Y-36764285D02*
X140707857Y-36716666D01*
X140707857Y-36716666D02*
X140850714Y-36716666D01*
X140850714Y-36716666D02*
X140945952Y-36764285D01*
X140945952Y-36764285D02*
X140993571Y-36811904D01*
X140993571Y-36811904D02*
X141041190Y-36907142D01*
X141041190Y-36907142D02*
X141041190Y-37288094D01*
X140517380Y-35811904D02*
X140517380Y-36288094D01*
X140517380Y-36288094D02*
X140993571Y-36335713D01*
X140993571Y-36335713D02*
X140945952Y-36288094D01*
X140945952Y-36288094D02*
X140898333Y-36192856D01*
X140898333Y-36192856D02*
X140898333Y-35954761D01*
X140898333Y-35954761D02*
X140945952Y-35859523D01*
X140945952Y-35859523D02*
X140993571Y-35811904D01*
X140993571Y-35811904D02*
X141088809Y-35764285D01*
X141088809Y-35764285D02*
X141326904Y-35764285D01*
X141326904Y-35764285D02*
X141422142Y-35811904D01*
X141422142Y-35811904D02*
X141469761Y-35859523D01*
X141469761Y-35859523D02*
X141517380Y-35954761D01*
X141517380Y-35954761D02*
X141517380Y-36192856D01*
X141517380Y-36192856D02*
X141469761Y-36288094D01*
X141469761Y-36288094D02*
X141422142Y-36335713D01*
%TO.C,D4*%
X145767380Y-44388094D02*
X144767380Y-44388094D01*
X144767380Y-44388094D02*
X144767380Y-44149999D01*
X144767380Y-44149999D02*
X144815000Y-44007142D01*
X144815000Y-44007142D02*
X144910238Y-43911904D01*
X144910238Y-43911904D02*
X145005476Y-43864285D01*
X145005476Y-43864285D02*
X145195952Y-43816666D01*
X145195952Y-43816666D02*
X145338809Y-43816666D01*
X145338809Y-43816666D02*
X145529285Y-43864285D01*
X145529285Y-43864285D02*
X145624523Y-43911904D01*
X145624523Y-43911904D02*
X145719761Y-44007142D01*
X145719761Y-44007142D02*
X145767380Y-44149999D01*
X145767380Y-44149999D02*
X145767380Y-44388094D01*
X145100714Y-42959523D02*
X145767380Y-42959523D01*
X144719761Y-43197618D02*
X145434047Y-43435713D01*
X145434047Y-43435713D02*
X145434047Y-42816666D01*
%TO.C,C13*%
X117472142Y-38192857D02*
X117519761Y-38240476D01*
X117519761Y-38240476D02*
X117567380Y-38383333D01*
X117567380Y-38383333D02*
X117567380Y-38478571D01*
X117567380Y-38478571D02*
X117519761Y-38621428D01*
X117519761Y-38621428D02*
X117424523Y-38716666D01*
X117424523Y-38716666D02*
X117329285Y-38764285D01*
X117329285Y-38764285D02*
X117138809Y-38811904D01*
X117138809Y-38811904D02*
X116995952Y-38811904D01*
X116995952Y-38811904D02*
X116805476Y-38764285D01*
X116805476Y-38764285D02*
X116710238Y-38716666D01*
X116710238Y-38716666D02*
X116615000Y-38621428D01*
X116615000Y-38621428D02*
X116567380Y-38478571D01*
X116567380Y-38478571D02*
X116567380Y-38383333D01*
X116567380Y-38383333D02*
X116615000Y-38240476D01*
X116615000Y-38240476D02*
X116662619Y-38192857D01*
X117567380Y-37240476D02*
X117567380Y-37811904D01*
X117567380Y-37526190D02*
X116567380Y-37526190D01*
X116567380Y-37526190D02*
X116710238Y-37621428D01*
X116710238Y-37621428D02*
X116805476Y-37716666D01*
X116805476Y-37716666D02*
X116853095Y-37811904D01*
X116567380Y-36907142D02*
X116567380Y-36288095D01*
X116567380Y-36288095D02*
X116948333Y-36621428D01*
X116948333Y-36621428D02*
X116948333Y-36478571D01*
X116948333Y-36478571D02*
X116995952Y-36383333D01*
X116995952Y-36383333D02*
X117043571Y-36335714D01*
X117043571Y-36335714D02*
X117138809Y-36288095D01*
X117138809Y-36288095D02*
X117376904Y-36288095D01*
X117376904Y-36288095D02*
X117472142Y-36335714D01*
X117472142Y-36335714D02*
X117519761Y-36383333D01*
X117519761Y-36383333D02*
X117567380Y-36478571D01*
X117567380Y-36478571D02*
X117567380Y-36764285D01*
X117567380Y-36764285D02*
X117519761Y-36859523D01*
X117519761Y-36859523D02*
X117472142Y-36907142D01*
%TO.C,R12*%
X130567380Y-43542857D02*
X130091190Y-43876190D01*
X130567380Y-44114285D02*
X129567380Y-44114285D01*
X129567380Y-44114285D02*
X129567380Y-43733333D01*
X129567380Y-43733333D02*
X129615000Y-43638095D01*
X129615000Y-43638095D02*
X129662619Y-43590476D01*
X129662619Y-43590476D02*
X129757857Y-43542857D01*
X129757857Y-43542857D02*
X129900714Y-43542857D01*
X129900714Y-43542857D02*
X129995952Y-43590476D01*
X129995952Y-43590476D02*
X130043571Y-43638095D01*
X130043571Y-43638095D02*
X130091190Y-43733333D01*
X130091190Y-43733333D02*
X130091190Y-44114285D01*
X130567380Y-42590476D02*
X130567380Y-43161904D01*
X130567380Y-42876190D02*
X129567380Y-42876190D01*
X129567380Y-42876190D02*
X129710238Y-42971428D01*
X129710238Y-42971428D02*
X129805476Y-43066666D01*
X129805476Y-43066666D02*
X129853095Y-43161904D01*
X129662619Y-42209523D02*
X129615000Y-42161904D01*
X129615000Y-42161904D02*
X129567380Y-42066666D01*
X129567380Y-42066666D02*
X129567380Y-41828571D01*
X129567380Y-41828571D02*
X129615000Y-41733333D01*
X129615000Y-41733333D02*
X129662619Y-41685714D01*
X129662619Y-41685714D02*
X129757857Y-41638095D01*
X129757857Y-41638095D02*
X129853095Y-41638095D01*
X129853095Y-41638095D02*
X129995952Y-41685714D01*
X129995952Y-41685714D02*
X130567380Y-42257142D01*
X130567380Y-42257142D02*
X130567380Y-41638095D01*
%TO.C,*%
%TO.C,C15*%
X105307142Y-47772142D02*
X105259523Y-47819761D01*
X105259523Y-47819761D02*
X105116666Y-47867380D01*
X105116666Y-47867380D02*
X105021428Y-47867380D01*
X105021428Y-47867380D02*
X104878571Y-47819761D01*
X104878571Y-47819761D02*
X104783333Y-47724523D01*
X104783333Y-47724523D02*
X104735714Y-47629285D01*
X104735714Y-47629285D02*
X104688095Y-47438809D01*
X104688095Y-47438809D02*
X104688095Y-47295952D01*
X104688095Y-47295952D02*
X104735714Y-47105476D01*
X104735714Y-47105476D02*
X104783333Y-47010238D01*
X104783333Y-47010238D02*
X104878571Y-46915000D01*
X104878571Y-46915000D02*
X105021428Y-46867380D01*
X105021428Y-46867380D02*
X105116666Y-46867380D01*
X105116666Y-46867380D02*
X105259523Y-46915000D01*
X105259523Y-46915000D02*
X105307142Y-46962619D01*
X106259523Y-47867380D02*
X105688095Y-47867380D01*
X105973809Y-47867380D02*
X105973809Y-46867380D01*
X105973809Y-46867380D02*
X105878571Y-47010238D01*
X105878571Y-47010238D02*
X105783333Y-47105476D01*
X105783333Y-47105476D02*
X105688095Y-47153095D01*
X107164285Y-46867380D02*
X106688095Y-46867380D01*
X106688095Y-46867380D02*
X106640476Y-47343571D01*
X106640476Y-47343571D02*
X106688095Y-47295952D01*
X106688095Y-47295952D02*
X106783333Y-47248333D01*
X106783333Y-47248333D02*
X107021428Y-47248333D01*
X107021428Y-47248333D02*
X107116666Y-47295952D01*
X107116666Y-47295952D02*
X107164285Y-47343571D01*
X107164285Y-47343571D02*
X107211904Y-47438809D01*
X107211904Y-47438809D02*
X107211904Y-47676904D01*
X107211904Y-47676904D02*
X107164285Y-47772142D01*
X107164285Y-47772142D02*
X107116666Y-47819761D01*
X107116666Y-47819761D02*
X107021428Y-47867380D01*
X107021428Y-47867380D02*
X106783333Y-47867380D01*
X106783333Y-47867380D02*
X106688095Y-47819761D01*
X106688095Y-47819761D02*
X106640476Y-47772142D01*
%TO.C,U4*%
X147588095Y-25517380D02*
X147588095Y-26326904D01*
X147588095Y-26326904D02*
X147635714Y-26422142D01*
X147635714Y-26422142D02*
X147683333Y-26469761D01*
X147683333Y-26469761D02*
X147778571Y-26517380D01*
X147778571Y-26517380D02*
X147969047Y-26517380D01*
X147969047Y-26517380D02*
X148064285Y-26469761D01*
X148064285Y-26469761D02*
X148111904Y-26422142D01*
X148111904Y-26422142D02*
X148159523Y-26326904D01*
X148159523Y-26326904D02*
X148159523Y-25517380D01*
X149064285Y-25850714D02*
X149064285Y-26517380D01*
X148826190Y-25469761D02*
X148588095Y-26184047D01*
X148588095Y-26184047D02*
X149207142Y-26184047D01*
%TO.C,R2*%
X96445833Y-35617380D02*
X96112500Y-35141190D01*
X95874405Y-35617380D02*
X95874405Y-34617380D01*
X95874405Y-34617380D02*
X96255357Y-34617380D01*
X96255357Y-34617380D02*
X96350595Y-34665000D01*
X96350595Y-34665000D02*
X96398214Y-34712619D01*
X96398214Y-34712619D02*
X96445833Y-34807857D01*
X96445833Y-34807857D02*
X96445833Y-34950714D01*
X96445833Y-34950714D02*
X96398214Y-35045952D01*
X96398214Y-35045952D02*
X96350595Y-35093571D01*
X96350595Y-35093571D02*
X96255357Y-35141190D01*
X96255357Y-35141190D02*
X95874405Y-35141190D01*
X96826786Y-34712619D02*
X96874405Y-34665000D01*
X96874405Y-34665000D02*
X96969643Y-34617380D01*
X96969643Y-34617380D02*
X97207738Y-34617380D01*
X97207738Y-34617380D02*
X97302976Y-34665000D01*
X97302976Y-34665000D02*
X97350595Y-34712619D01*
X97350595Y-34712619D02*
X97398214Y-34807857D01*
X97398214Y-34807857D02*
X97398214Y-34903095D01*
X97398214Y-34903095D02*
X97350595Y-35045952D01*
X97350595Y-35045952D02*
X96779167Y-35617380D01*
X96779167Y-35617380D02*
X97398214Y-35617380D01*
%TO.C,SW1*%
X140669761Y-48383332D02*
X140717380Y-48240475D01*
X140717380Y-48240475D02*
X140717380Y-48002380D01*
X140717380Y-48002380D02*
X140669761Y-47907142D01*
X140669761Y-47907142D02*
X140622142Y-47859523D01*
X140622142Y-47859523D02*
X140526904Y-47811904D01*
X140526904Y-47811904D02*
X140431666Y-47811904D01*
X140431666Y-47811904D02*
X140336428Y-47859523D01*
X140336428Y-47859523D02*
X140288809Y-47907142D01*
X140288809Y-47907142D02*
X140241190Y-48002380D01*
X140241190Y-48002380D02*
X140193571Y-48192856D01*
X140193571Y-48192856D02*
X140145952Y-48288094D01*
X140145952Y-48288094D02*
X140098333Y-48335713D01*
X140098333Y-48335713D02*
X140003095Y-48383332D01*
X140003095Y-48383332D02*
X139907857Y-48383332D01*
X139907857Y-48383332D02*
X139812619Y-48335713D01*
X139812619Y-48335713D02*
X139765000Y-48288094D01*
X139765000Y-48288094D02*
X139717380Y-48192856D01*
X139717380Y-48192856D02*
X139717380Y-47954761D01*
X139717380Y-47954761D02*
X139765000Y-47811904D01*
X139717380Y-47478570D02*
X140717380Y-47240475D01*
X140717380Y-47240475D02*
X140003095Y-47049999D01*
X140003095Y-47049999D02*
X140717380Y-46859523D01*
X140717380Y-46859523D02*
X139717380Y-46621428D01*
X140717380Y-45716666D02*
X140717380Y-46288094D01*
X140717380Y-46002380D02*
X139717380Y-46002380D01*
X139717380Y-46002380D02*
X139860238Y-46097618D01*
X139860238Y-46097618D02*
X139955476Y-46192856D01*
X139955476Y-46192856D02*
X140003095Y-46288094D01*
%TO.C,D6*%
X150067380Y-39488094D02*
X149067380Y-39488094D01*
X149067380Y-39488094D02*
X149067380Y-39249999D01*
X149067380Y-39249999D02*
X149115000Y-39107142D01*
X149115000Y-39107142D02*
X149210238Y-39011904D01*
X149210238Y-39011904D02*
X149305476Y-38964285D01*
X149305476Y-38964285D02*
X149495952Y-38916666D01*
X149495952Y-38916666D02*
X149638809Y-38916666D01*
X149638809Y-38916666D02*
X149829285Y-38964285D01*
X149829285Y-38964285D02*
X149924523Y-39011904D01*
X149924523Y-39011904D02*
X150019761Y-39107142D01*
X150019761Y-39107142D02*
X150067380Y-39249999D01*
X150067380Y-39249999D02*
X150067380Y-39488094D01*
X149067380Y-38059523D02*
X149067380Y-38249999D01*
X149067380Y-38249999D02*
X149115000Y-38345237D01*
X149115000Y-38345237D02*
X149162619Y-38392856D01*
X149162619Y-38392856D02*
X149305476Y-38488094D01*
X149305476Y-38488094D02*
X149495952Y-38535713D01*
X149495952Y-38535713D02*
X149876904Y-38535713D01*
X149876904Y-38535713D02*
X149972142Y-38488094D01*
X149972142Y-38488094D02*
X150019761Y-38440475D01*
X150019761Y-38440475D02*
X150067380Y-38345237D01*
X150067380Y-38345237D02*
X150067380Y-38154761D01*
X150067380Y-38154761D02*
X150019761Y-38059523D01*
X150019761Y-38059523D02*
X149972142Y-38011904D01*
X149972142Y-38011904D02*
X149876904Y-37964285D01*
X149876904Y-37964285D02*
X149638809Y-37964285D01*
X149638809Y-37964285D02*
X149543571Y-38011904D01*
X149543571Y-38011904D02*
X149495952Y-38059523D01*
X149495952Y-38059523D02*
X149448333Y-38154761D01*
X149448333Y-38154761D02*
X149448333Y-38345237D01*
X149448333Y-38345237D02*
X149495952Y-38440475D01*
X149495952Y-38440475D02*
X149543571Y-38488094D01*
X149543571Y-38488094D02*
X149638809Y-38535713D01*
%TO.C,R9*%
X129333333Y-49217380D02*
X129000000Y-48741190D01*
X128761905Y-49217380D02*
X128761905Y-48217380D01*
X128761905Y-48217380D02*
X129142857Y-48217380D01*
X129142857Y-48217380D02*
X129238095Y-48265000D01*
X129238095Y-48265000D02*
X129285714Y-48312619D01*
X129285714Y-48312619D02*
X129333333Y-48407857D01*
X129333333Y-48407857D02*
X129333333Y-48550714D01*
X129333333Y-48550714D02*
X129285714Y-48645952D01*
X129285714Y-48645952D02*
X129238095Y-48693571D01*
X129238095Y-48693571D02*
X129142857Y-48741190D01*
X129142857Y-48741190D02*
X128761905Y-48741190D01*
X129809524Y-49217380D02*
X130000000Y-49217380D01*
X130000000Y-49217380D02*
X130095238Y-49169761D01*
X130095238Y-49169761D02*
X130142857Y-49122142D01*
X130142857Y-49122142D02*
X130238095Y-48979285D01*
X130238095Y-48979285D02*
X130285714Y-48788809D01*
X130285714Y-48788809D02*
X130285714Y-48407857D01*
X130285714Y-48407857D02*
X130238095Y-48312619D01*
X130238095Y-48312619D02*
X130190476Y-48265000D01*
X130190476Y-48265000D02*
X130095238Y-48217380D01*
X130095238Y-48217380D02*
X129904762Y-48217380D01*
X129904762Y-48217380D02*
X129809524Y-48265000D01*
X129809524Y-48265000D02*
X129761905Y-48312619D01*
X129761905Y-48312619D02*
X129714286Y-48407857D01*
X129714286Y-48407857D02*
X129714286Y-48645952D01*
X129714286Y-48645952D02*
X129761905Y-48741190D01*
X129761905Y-48741190D02*
X129809524Y-48788809D01*
X129809524Y-48788809D02*
X129904762Y-48836428D01*
X129904762Y-48836428D02*
X130095238Y-48836428D01*
X130095238Y-48836428D02*
X130190476Y-48788809D01*
X130190476Y-48788809D02*
X130238095Y-48741190D01*
X130238095Y-48741190D02*
X130285714Y-48645952D01*
%TO.C,R7*%
X143133333Y-43067380D02*
X142800000Y-42591190D01*
X142561905Y-43067380D02*
X142561905Y-42067380D01*
X142561905Y-42067380D02*
X142942857Y-42067380D01*
X142942857Y-42067380D02*
X143038095Y-42115000D01*
X143038095Y-42115000D02*
X143085714Y-42162619D01*
X143085714Y-42162619D02*
X143133333Y-42257857D01*
X143133333Y-42257857D02*
X143133333Y-42400714D01*
X143133333Y-42400714D02*
X143085714Y-42495952D01*
X143085714Y-42495952D02*
X143038095Y-42543571D01*
X143038095Y-42543571D02*
X142942857Y-42591190D01*
X142942857Y-42591190D02*
X142561905Y-42591190D01*
X143466667Y-42067380D02*
X144133333Y-42067380D01*
X144133333Y-42067380D02*
X143704762Y-43067380D01*
%TO.C,C10*%
X103384642Y-42642857D02*
X103432261Y-42690476D01*
X103432261Y-42690476D02*
X103479880Y-42833333D01*
X103479880Y-42833333D02*
X103479880Y-42928571D01*
X103479880Y-42928571D02*
X103432261Y-43071428D01*
X103432261Y-43071428D02*
X103337023Y-43166666D01*
X103337023Y-43166666D02*
X103241785Y-43214285D01*
X103241785Y-43214285D02*
X103051309Y-43261904D01*
X103051309Y-43261904D02*
X102908452Y-43261904D01*
X102908452Y-43261904D02*
X102717976Y-43214285D01*
X102717976Y-43214285D02*
X102622738Y-43166666D01*
X102622738Y-43166666D02*
X102527500Y-43071428D01*
X102527500Y-43071428D02*
X102479880Y-42928571D01*
X102479880Y-42928571D02*
X102479880Y-42833333D01*
X102479880Y-42833333D02*
X102527500Y-42690476D01*
X102527500Y-42690476D02*
X102575119Y-42642857D01*
X103479880Y-41690476D02*
X103479880Y-42261904D01*
X103479880Y-41976190D02*
X102479880Y-41976190D01*
X102479880Y-41976190D02*
X102622738Y-42071428D01*
X102622738Y-42071428D02*
X102717976Y-42166666D01*
X102717976Y-42166666D02*
X102765595Y-42261904D01*
X102479880Y-41071428D02*
X102479880Y-40976190D01*
X102479880Y-40976190D02*
X102527500Y-40880952D01*
X102527500Y-40880952D02*
X102575119Y-40833333D01*
X102575119Y-40833333D02*
X102670357Y-40785714D01*
X102670357Y-40785714D02*
X102860833Y-40738095D01*
X102860833Y-40738095D02*
X103098928Y-40738095D01*
X103098928Y-40738095D02*
X103289404Y-40785714D01*
X103289404Y-40785714D02*
X103384642Y-40833333D01*
X103384642Y-40833333D02*
X103432261Y-40880952D01*
X103432261Y-40880952D02*
X103479880Y-40976190D01*
X103479880Y-40976190D02*
X103479880Y-41071428D01*
X103479880Y-41071428D02*
X103432261Y-41166666D01*
X103432261Y-41166666D02*
X103384642Y-41214285D01*
X103384642Y-41214285D02*
X103289404Y-41261904D01*
X103289404Y-41261904D02*
X103098928Y-41309523D01*
X103098928Y-41309523D02*
X102860833Y-41309523D01*
X102860833Y-41309523D02*
X102670357Y-41261904D01*
X102670357Y-41261904D02*
X102575119Y-41214285D01*
X102575119Y-41214285D02*
X102527500Y-41166666D01*
X102527500Y-41166666D02*
X102479880Y-41071428D01*
%TO.C,TH1*%
X137014286Y-36867380D02*
X137585714Y-36867380D01*
X137300000Y-37867380D02*
X137300000Y-36867380D01*
X137919048Y-37867380D02*
X137919048Y-36867380D01*
X137919048Y-37343571D02*
X138490476Y-37343571D01*
X138490476Y-37867380D02*
X138490476Y-36867380D01*
X139490476Y-37867380D02*
X138919048Y-37867380D01*
X139204762Y-37867380D02*
X139204762Y-36867380D01*
X139204762Y-36867380D02*
X139109524Y-37010238D01*
X139109524Y-37010238D02*
X139014286Y-37105476D01*
X139014286Y-37105476D02*
X138919048Y-37153095D01*
%TO.C,R13*%
X153357142Y-47267380D02*
X153023809Y-46791190D01*
X152785714Y-47267380D02*
X152785714Y-46267380D01*
X152785714Y-46267380D02*
X153166666Y-46267380D01*
X153166666Y-46267380D02*
X153261904Y-46315000D01*
X153261904Y-46315000D02*
X153309523Y-46362619D01*
X153309523Y-46362619D02*
X153357142Y-46457857D01*
X153357142Y-46457857D02*
X153357142Y-46600714D01*
X153357142Y-46600714D02*
X153309523Y-46695952D01*
X153309523Y-46695952D02*
X153261904Y-46743571D01*
X153261904Y-46743571D02*
X153166666Y-46791190D01*
X153166666Y-46791190D02*
X152785714Y-46791190D01*
X154309523Y-47267380D02*
X153738095Y-47267380D01*
X154023809Y-47267380D02*
X154023809Y-46267380D01*
X154023809Y-46267380D02*
X153928571Y-46410238D01*
X153928571Y-46410238D02*
X153833333Y-46505476D01*
X153833333Y-46505476D02*
X153738095Y-46553095D01*
X154642857Y-46267380D02*
X155261904Y-46267380D01*
X155261904Y-46267380D02*
X154928571Y-46648333D01*
X154928571Y-46648333D02*
X155071428Y-46648333D01*
X155071428Y-46648333D02*
X155166666Y-46695952D01*
X155166666Y-46695952D02*
X155214285Y-46743571D01*
X155214285Y-46743571D02*
X155261904Y-46838809D01*
X155261904Y-46838809D02*
X155261904Y-47076904D01*
X155261904Y-47076904D02*
X155214285Y-47172142D01*
X155214285Y-47172142D02*
X155166666Y-47219761D01*
X155166666Y-47219761D02*
X155071428Y-47267380D01*
X155071428Y-47267380D02*
X154785714Y-47267380D01*
X154785714Y-47267380D02*
X154690476Y-47219761D01*
X154690476Y-47219761D02*
X154642857Y-47172142D01*
%TO.C,C6*%
X119683333Y-32272142D02*
X119635714Y-32319761D01*
X119635714Y-32319761D02*
X119492857Y-32367380D01*
X119492857Y-32367380D02*
X119397619Y-32367380D01*
X119397619Y-32367380D02*
X119254762Y-32319761D01*
X119254762Y-32319761D02*
X119159524Y-32224523D01*
X119159524Y-32224523D02*
X119111905Y-32129285D01*
X119111905Y-32129285D02*
X119064286Y-31938809D01*
X119064286Y-31938809D02*
X119064286Y-31795952D01*
X119064286Y-31795952D02*
X119111905Y-31605476D01*
X119111905Y-31605476D02*
X119159524Y-31510238D01*
X119159524Y-31510238D02*
X119254762Y-31415000D01*
X119254762Y-31415000D02*
X119397619Y-31367380D01*
X119397619Y-31367380D02*
X119492857Y-31367380D01*
X119492857Y-31367380D02*
X119635714Y-31415000D01*
X119635714Y-31415000D02*
X119683333Y-31462619D01*
X120540476Y-31367380D02*
X120350000Y-31367380D01*
X120350000Y-31367380D02*
X120254762Y-31415000D01*
X120254762Y-31415000D02*
X120207143Y-31462619D01*
X120207143Y-31462619D02*
X120111905Y-31605476D01*
X120111905Y-31605476D02*
X120064286Y-31795952D01*
X120064286Y-31795952D02*
X120064286Y-32176904D01*
X120064286Y-32176904D02*
X120111905Y-32272142D01*
X120111905Y-32272142D02*
X120159524Y-32319761D01*
X120159524Y-32319761D02*
X120254762Y-32367380D01*
X120254762Y-32367380D02*
X120445238Y-32367380D01*
X120445238Y-32367380D02*
X120540476Y-32319761D01*
X120540476Y-32319761D02*
X120588095Y-32272142D01*
X120588095Y-32272142D02*
X120635714Y-32176904D01*
X120635714Y-32176904D02*
X120635714Y-31938809D01*
X120635714Y-31938809D02*
X120588095Y-31843571D01*
X120588095Y-31843571D02*
X120540476Y-31795952D01*
X120540476Y-31795952D02*
X120445238Y-31748333D01*
X120445238Y-31748333D02*
X120254762Y-31748333D01*
X120254762Y-31748333D02*
X120159524Y-31795952D01*
X120159524Y-31795952D02*
X120111905Y-31843571D01*
X120111905Y-31843571D02*
X120064286Y-31938809D01*
%TO.C,C4*%
X109233333Y-29872142D02*
X109185714Y-29919761D01*
X109185714Y-29919761D02*
X109042857Y-29967380D01*
X109042857Y-29967380D02*
X108947619Y-29967380D01*
X108947619Y-29967380D02*
X108804762Y-29919761D01*
X108804762Y-29919761D02*
X108709524Y-29824523D01*
X108709524Y-29824523D02*
X108661905Y-29729285D01*
X108661905Y-29729285D02*
X108614286Y-29538809D01*
X108614286Y-29538809D02*
X108614286Y-29395952D01*
X108614286Y-29395952D02*
X108661905Y-29205476D01*
X108661905Y-29205476D02*
X108709524Y-29110238D01*
X108709524Y-29110238D02*
X108804762Y-29015000D01*
X108804762Y-29015000D02*
X108947619Y-28967380D01*
X108947619Y-28967380D02*
X109042857Y-28967380D01*
X109042857Y-28967380D02*
X109185714Y-29015000D01*
X109185714Y-29015000D02*
X109233333Y-29062619D01*
X110090476Y-29300714D02*
X110090476Y-29967380D01*
X109852381Y-28919761D02*
X109614286Y-29634047D01*
X109614286Y-29634047D02*
X110233333Y-29634047D01*
%TO.C,J2*%
X148617380Y-50883333D02*
X149331666Y-50883333D01*
X149331666Y-50883333D02*
X149474523Y-50930952D01*
X149474523Y-50930952D02*
X149569761Y-51026190D01*
X149569761Y-51026190D02*
X149617380Y-51169047D01*
X149617380Y-51169047D02*
X149617380Y-51264285D01*
X148712619Y-50454761D02*
X148665000Y-50407142D01*
X148665000Y-50407142D02*
X148617380Y-50311904D01*
X148617380Y-50311904D02*
X148617380Y-50073809D01*
X148617380Y-50073809D02*
X148665000Y-49978571D01*
X148665000Y-49978571D02*
X148712619Y-49930952D01*
X148712619Y-49930952D02*
X148807857Y-49883333D01*
X148807857Y-49883333D02*
X148903095Y-49883333D01*
X148903095Y-49883333D02*
X149045952Y-49930952D01*
X149045952Y-49930952D02*
X149617380Y-50502380D01*
X149617380Y-50502380D02*
X149617380Y-49883333D01*
%TO.C,C2*%
X115522142Y-37616666D02*
X115569761Y-37664285D01*
X115569761Y-37664285D02*
X115617380Y-37807142D01*
X115617380Y-37807142D02*
X115617380Y-37902380D01*
X115617380Y-37902380D02*
X115569761Y-38045237D01*
X115569761Y-38045237D02*
X115474523Y-38140475D01*
X115474523Y-38140475D02*
X115379285Y-38188094D01*
X115379285Y-38188094D02*
X115188809Y-38235713D01*
X115188809Y-38235713D02*
X115045952Y-38235713D01*
X115045952Y-38235713D02*
X114855476Y-38188094D01*
X114855476Y-38188094D02*
X114760238Y-38140475D01*
X114760238Y-38140475D02*
X114665000Y-38045237D01*
X114665000Y-38045237D02*
X114617380Y-37902380D01*
X114617380Y-37902380D02*
X114617380Y-37807142D01*
X114617380Y-37807142D02*
X114665000Y-37664285D01*
X114665000Y-37664285D02*
X114712619Y-37616666D01*
X114712619Y-37235713D02*
X114665000Y-37188094D01*
X114665000Y-37188094D02*
X114617380Y-37092856D01*
X114617380Y-37092856D02*
X114617380Y-36854761D01*
X114617380Y-36854761D02*
X114665000Y-36759523D01*
X114665000Y-36759523D02*
X114712619Y-36711904D01*
X114712619Y-36711904D02*
X114807857Y-36664285D01*
X114807857Y-36664285D02*
X114903095Y-36664285D01*
X114903095Y-36664285D02*
X115045952Y-36711904D01*
X115045952Y-36711904D02*
X115617380Y-37283332D01*
X115617380Y-37283332D02*
X115617380Y-36664285D01*
%TO.C,R6*%
X141467380Y-38866666D02*
X140991190Y-39199999D01*
X141467380Y-39438094D02*
X140467380Y-39438094D01*
X140467380Y-39438094D02*
X140467380Y-39057142D01*
X140467380Y-39057142D02*
X140515000Y-38961904D01*
X140515000Y-38961904D02*
X140562619Y-38914285D01*
X140562619Y-38914285D02*
X140657857Y-38866666D01*
X140657857Y-38866666D02*
X140800714Y-38866666D01*
X140800714Y-38866666D02*
X140895952Y-38914285D01*
X140895952Y-38914285D02*
X140943571Y-38961904D01*
X140943571Y-38961904D02*
X140991190Y-39057142D01*
X140991190Y-39057142D02*
X140991190Y-39438094D01*
X140467380Y-38009523D02*
X140467380Y-38199999D01*
X140467380Y-38199999D02*
X140515000Y-38295237D01*
X140515000Y-38295237D02*
X140562619Y-38342856D01*
X140562619Y-38342856D02*
X140705476Y-38438094D01*
X140705476Y-38438094D02*
X140895952Y-38485713D01*
X140895952Y-38485713D02*
X141276904Y-38485713D01*
X141276904Y-38485713D02*
X141372142Y-38438094D01*
X141372142Y-38438094D02*
X141419761Y-38390475D01*
X141419761Y-38390475D02*
X141467380Y-38295237D01*
X141467380Y-38295237D02*
X141467380Y-38104761D01*
X141467380Y-38104761D02*
X141419761Y-38009523D01*
X141419761Y-38009523D02*
X141372142Y-37961904D01*
X141372142Y-37961904D02*
X141276904Y-37914285D01*
X141276904Y-37914285D02*
X141038809Y-37914285D01*
X141038809Y-37914285D02*
X140943571Y-37961904D01*
X140943571Y-37961904D02*
X140895952Y-38009523D01*
X140895952Y-38009523D02*
X140848333Y-38104761D01*
X140848333Y-38104761D02*
X140848333Y-38295237D01*
X140848333Y-38295237D02*
X140895952Y-38390475D01*
X140895952Y-38390475D02*
X140943571Y-38438094D01*
X140943571Y-38438094D02*
X141038809Y-38485713D01*
%TO.C,R14*%
X143357142Y-48467380D02*
X143023809Y-47991190D01*
X142785714Y-48467380D02*
X142785714Y-47467380D01*
X142785714Y-47467380D02*
X143166666Y-47467380D01*
X143166666Y-47467380D02*
X143261904Y-47515000D01*
X143261904Y-47515000D02*
X143309523Y-47562619D01*
X143309523Y-47562619D02*
X143357142Y-47657857D01*
X143357142Y-47657857D02*
X143357142Y-47800714D01*
X143357142Y-47800714D02*
X143309523Y-47895952D01*
X143309523Y-47895952D02*
X143261904Y-47943571D01*
X143261904Y-47943571D02*
X143166666Y-47991190D01*
X143166666Y-47991190D02*
X142785714Y-47991190D01*
X144309523Y-48467380D02*
X143738095Y-48467380D01*
X144023809Y-48467380D02*
X144023809Y-47467380D01*
X144023809Y-47467380D02*
X143928571Y-47610238D01*
X143928571Y-47610238D02*
X143833333Y-47705476D01*
X143833333Y-47705476D02*
X143738095Y-47753095D01*
X145166666Y-47800714D02*
X145166666Y-48467380D01*
X144928571Y-47419761D02*
X144690476Y-48134047D01*
X144690476Y-48134047D02*
X145309523Y-48134047D01*
%TO.C,*%
%TO.C,R11*%
X131057142Y-36317380D02*
X130723809Y-35841190D01*
X130485714Y-36317380D02*
X130485714Y-35317380D01*
X130485714Y-35317380D02*
X130866666Y-35317380D01*
X130866666Y-35317380D02*
X130961904Y-35365000D01*
X130961904Y-35365000D02*
X131009523Y-35412619D01*
X131009523Y-35412619D02*
X131057142Y-35507857D01*
X131057142Y-35507857D02*
X131057142Y-35650714D01*
X131057142Y-35650714D02*
X131009523Y-35745952D01*
X131009523Y-35745952D02*
X130961904Y-35793571D01*
X130961904Y-35793571D02*
X130866666Y-35841190D01*
X130866666Y-35841190D02*
X130485714Y-35841190D01*
X132009523Y-36317380D02*
X131438095Y-36317380D01*
X131723809Y-36317380D02*
X131723809Y-35317380D01*
X131723809Y-35317380D02*
X131628571Y-35460238D01*
X131628571Y-35460238D02*
X131533333Y-35555476D01*
X131533333Y-35555476D02*
X131438095Y-35603095D01*
X132961904Y-36317380D02*
X132390476Y-36317380D01*
X132676190Y-36317380D02*
X132676190Y-35317380D01*
X132676190Y-35317380D02*
X132580952Y-35460238D01*
X132580952Y-35460238D02*
X132485714Y-35555476D01*
X132485714Y-35555476D02*
X132390476Y-35603095D01*
%TO.C,C14*%
X102357142Y-47772142D02*
X102309523Y-47819761D01*
X102309523Y-47819761D02*
X102166666Y-47867380D01*
X102166666Y-47867380D02*
X102071428Y-47867380D01*
X102071428Y-47867380D02*
X101928571Y-47819761D01*
X101928571Y-47819761D02*
X101833333Y-47724523D01*
X101833333Y-47724523D02*
X101785714Y-47629285D01*
X101785714Y-47629285D02*
X101738095Y-47438809D01*
X101738095Y-47438809D02*
X101738095Y-47295952D01*
X101738095Y-47295952D02*
X101785714Y-47105476D01*
X101785714Y-47105476D02*
X101833333Y-47010238D01*
X101833333Y-47010238D02*
X101928571Y-46915000D01*
X101928571Y-46915000D02*
X102071428Y-46867380D01*
X102071428Y-46867380D02*
X102166666Y-46867380D01*
X102166666Y-46867380D02*
X102309523Y-46915000D01*
X102309523Y-46915000D02*
X102357142Y-46962619D01*
X103309523Y-47867380D02*
X102738095Y-47867380D01*
X103023809Y-47867380D02*
X103023809Y-46867380D01*
X103023809Y-46867380D02*
X102928571Y-47010238D01*
X102928571Y-47010238D02*
X102833333Y-47105476D01*
X102833333Y-47105476D02*
X102738095Y-47153095D01*
X104166666Y-47200714D02*
X104166666Y-47867380D01*
X103928571Y-46819761D02*
X103690476Y-47534047D01*
X103690476Y-47534047D02*
X104309523Y-47534047D01*
%TO.C,U7*%
X108588095Y-47767380D02*
X108588095Y-48576904D01*
X108588095Y-48576904D02*
X108635714Y-48672142D01*
X108635714Y-48672142D02*
X108683333Y-48719761D01*
X108683333Y-48719761D02*
X108778571Y-48767380D01*
X108778571Y-48767380D02*
X108969047Y-48767380D01*
X108969047Y-48767380D02*
X109064285Y-48719761D01*
X109064285Y-48719761D02*
X109111904Y-48672142D01*
X109111904Y-48672142D02*
X109159523Y-48576904D01*
X109159523Y-48576904D02*
X109159523Y-47767380D01*
X109540476Y-47767380D02*
X110207142Y-47767380D01*
X110207142Y-47767380D02*
X109778571Y-48767380D01*
%TO.C,D7*%
X150067380Y-41638094D02*
X149067380Y-41638094D01*
X149067380Y-41638094D02*
X149067380Y-41399999D01*
X149067380Y-41399999D02*
X149115000Y-41257142D01*
X149115000Y-41257142D02*
X149210238Y-41161904D01*
X149210238Y-41161904D02*
X149305476Y-41114285D01*
X149305476Y-41114285D02*
X149495952Y-41066666D01*
X149495952Y-41066666D02*
X149638809Y-41066666D01*
X149638809Y-41066666D02*
X149829285Y-41114285D01*
X149829285Y-41114285D02*
X149924523Y-41161904D01*
X149924523Y-41161904D02*
X150019761Y-41257142D01*
X150019761Y-41257142D02*
X150067380Y-41399999D01*
X150067380Y-41399999D02*
X150067380Y-41638094D01*
X149067380Y-40733332D02*
X149067380Y-40066666D01*
X149067380Y-40066666D02*
X150067380Y-40495237D01*
%TO.C,L2*%
X114415833Y-48997380D02*
X113939643Y-48997380D01*
X113939643Y-48997380D02*
X113939643Y-47997380D01*
X114701548Y-48092619D02*
X114749167Y-48045000D01*
X114749167Y-48045000D02*
X114844405Y-47997380D01*
X114844405Y-47997380D02*
X115082500Y-47997380D01*
X115082500Y-47997380D02*
X115177738Y-48045000D01*
X115177738Y-48045000D02*
X115225357Y-48092619D01*
X115225357Y-48092619D02*
X115272976Y-48187857D01*
X115272976Y-48187857D02*
X115272976Y-48283095D01*
X115272976Y-48283095D02*
X115225357Y-48425952D01*
X115225357Y-48425952D02*
X114653929Y-48997380D01*
X114653929Y-48997380D02*
X115272976Y-48997380D01*
%TO.C,C12*%
X156172142Y-28742857D02*
X156219761Y-28790476D01*
X156219761Y-28790476D02*
X156267380Y-28933333D01*
X156267380Y-28933333D02*
X156267380Y-29028571D01*
X156267380Y-29028571D02*
X156219761Y-29171428D01*
X156219761Y-29171428D02*
X156124523Y-29266666D01*
X156124523Y-29266666D02*
X156029285Y-29314285D01*
X156029285Y-29314285D02*
X155838809Y-29361904D01*
X155838809Y-29361904D02*
X155695952Y-29361904D01*
X155695952Y-29361904D02*
X155505476Y-29314285D01*
X155505476Y-29314285D02*
X155410238Y-29266666D01*
X155410238Y-29266666D02*
X155315000Y-29171428D01*
X155315000Y-29171428D02*
X155267380Y-29028571D01*
X155267380Y-29028571D02*
X155267380Y-28933333D01*
X155267380Y-28933333D02*
X155315000Y-28790476D01*
X155315000Y-28790476D02*
X155362619Y-28742857D01*
X156267380Y-27790476D02*
X156267380Y-28361904D01*
X156267380Y-28076190D02*
X155267380Y-28076190D01*
X155267380Y-28076190D02*
X155410238Y-28171428D01*
X155410238Y-28171428D02*
X155505476Y-28266666D01*
X155505476Y-28266666D02*
X155553095Y-28361904D01*
X155362619Y-27409523D02*
X155315000Y-27361904D01*
X155315000Y-27361904D02*
X155267380Y-27266666D01*
X155267380Y-27266666D02*
X155267380Y-27028571D01*
X155267380Y-27028571D02*
X155315000Y-26933333D01*
X155315000Y-26933333D02*
X155362619Y-26885714D01*
X155362619Y-26885714D02*
X155457857Y-26838095D01*
X155457857Y-26838095D02*
X155553095Y-26838095D01*
X155553095Y-26838095D02*
X155695952Y-26885714D01*
X155695952Y-26885714D02*
X156267380Y-27457142D01*
X156267380Y-27457142D02*
X156267380Y-26838095D01*
%TO.C,Q2*%
X121854761Y-46662619D02*
X121759523Y-46615000D01*
X121759523Y-46615000D02*
X121664285Y-46519761D01*
X121664285Y-46519761D02*
X121521428Y-46376904D01*
X121521428Y-46376904D02*
X121426190Y-46329285D01*
X121426190Y-46329285D02*
X121330952Y-46329285D01*
X121378571Y-46567380D02*
X121283333Y-46519761D01*
X121283333Y-46519761D02*
X121188095Y-46424523D01*
X121188095Y-46424523D02*
X121140476Y-46234047D01*
X121140476Y-46234047D02*
X121140476Y-45900714D01*
X121140476Y-45900714D02*
X121188095Y-45710238D01*
X121188095Y-45710238D02*
X121283333Y-45615000D01*
X121283333Y-45615000D02*
X121378571Y-45567380D01*
X121378571Y-45567380D02*
X121569047Y-45567380D01*
X121569047Y-45567380D02*
X121664285Y-45615000D01*
X121664285Y-45615000D02*
X121759523Y-45710238D01*
X121759523Y-45710238D02*
X121807142Y-45900714D01*
X121807142Y-45900714D02*
X121807142Y-46234047D01*
X121807142Y-46234047D02*
X121759523Y-46424523D01*
X121759523Y-46424523D02*
X121664285Y-46519761D01*
X121664285Y-46519761D02*
X121569047Y-46567380D01*
X121569047Y-46567380D02*
X121378571Y-46567380D01*
X122188095Y-45662619D02*
X122235714Y-45615000D01*
X122235714Y-45615000D02*
X122330952Y-45567380D01*
X122330952Y-45567380D02*
X122569047Y-45567380D01*
X122569047Y-45567380D02*
X122664285Y-45615000D01*
X122664285Y-45615000D02*
X122711904Y-45662619D01*
X122711904Y-45662619D02*
X122759523Y-45757857D01*
X122759523Y-45757857D02*
X122759523Y-45853095D01*
X122759523Y-45853095D02*
X122711904Y-45995952D01*
X122711904Y-45995952D02*
X122140476Y-46567380D01*
X122140476Y-46567380D02*
X122759523Y-46567380D01*
%TO.C,U2*%
X112188095Y-29067380D02*
X112188095Y-29876904D01*
X112188095Y-29876904D02*
X112235714Y-29972142D01*
X112235714Y-29972142D02*
X112283333Y-30019761D01*
X112283333Y-30019761D02*
X112378571Y-30067380D01*
X112378571Y-30067380D02*
X112569047Y-30067380D01*
X112569047Y-30067380D02*
X112664285Y-30019761D01*
X112664285Y-30019761D02*
X112711904Y-29972142D01*
X112711904Y-29972142D02*
X112759523Y-29876904D01*
X112759523Y-29876904D02*
X112759523Y-29067380D01*
X113188095Y-29162619D02*
X113235714Y-29115000D01*
X113235714Y-29115000D02*
X113330952Y-29067380D01*
X113330952Y-29067380D02*
X113569047Y-29067380D01*
X113569047Y-29067380D02*
X113664285Y-29115000D01*
X113664285Y-29115000D02*
X113711904Y-29162619D01*
X113711904Y-29162619D02*
X113759523Y-29257857D01*
X113759523Y-29257857D02*
X113759523Y-29353095D01*
X113759523Y-29353095D02*
X113711904Y-29495952D01*
X113711904Y-29495952D02*
X113140476Y-30067380D01*
X113140476Y-30067380D02*
X113759523Y-30067380D01*
%TO.C,R4*%
X102433333Y-31617380D02*
X102100000Y-31141190D01*
X101861905Y-31617380D02*
X101861905Y-30617380D01*
X101861905Y-30617380D02*
X102242857Y-30617380D01*
X102242857Y-30617380D02*
X102338095Y-30665000D01*
X102338095Y-30665000D02*
X102385714Y-30712619D01*
X102385714Y-30712619D02*
X102433333Y-30807857D01*
X102433333Y-30807857D02*
X102433333Y-30950714D01*
X102433333Y-30950714D02*
X102385714Y-31045952D01*
X102385714Y-31045952D02*
X102338095Y-31093571D01*
X102338095Y-31093571D02*
X102242857Y-31141190D01*
X102242857Y-31141190D02*
X101861905Y-31141190D01*
X103290476Y-30950714D02*
X103290476Y-31617380D01*
X103052381Y-30569761D02*
X102814286Y-31284047D01*
X102814286Y-31284047D02*
X103433333Y-31284047D01*
%TO.C,D5*%
X150167380Y-37438094D02*
X149167380Y-37438094D01*
X149167380Y-37438094D02*
X149167380Y-37199999D01*
X149167380Y-37199999D02*
X149215000Y-37057142D01*
X149215000Y-37057142D02*
X149310238Y-36961904D01*
X149310238Y-36961904D02*
X149405476Y-36914285D01*
X149405476Y-36914285D02*
X149595952Y-36866666D01*
X149595952Y-36866666D02*
X149738809Y-36866666D01*
X149738809Y-36866666D02*
X149929285Y-36914285D01*
X149929285Y-36914285D02*
X150024523Y-36961904D01*
X150024523Y-36961904D02*
X150119761Y-37057142D01*
X150119761Y-37057142D02*
X150167380Y-37199999D01*
X150167380Y-37199999D02*
X150167380Y-37438094D01*
X149167380Y-35961904D02*
X149167380Y-36438094D01*
X149167380Y-36438094D02*
X149643571Y-36485713D01*
X149643571Y-36485713D02*
X149595952Y-36438094D01*
X149595952Y-36438094D02*
X149548333Y-36342856D01*
X149548333Y-36342856D02*
X149548333Y-36104761D01*
X149548333Y-36104761D02*
X149595952Y-36009523D01*
X149595952Y-36009523D02*
X149643571Y-35961904D01*
X149643571Y-35961904D02*
X149738809Y-35914285D01*
X149738809Y-35914285D02*
X149976904Y-35914285D01*
X149976904Y-35914285D02*
X150072142Y-35961904D01*
X150072142Y-35961904D02*
X150119761Y-36009523D01*
X150119761Y-36009523D02*
X150167380Y-36104761D01*
X150167380Y-36104761D02*
X150167380Y-36342856D01*
X150167380Y-36342856D02*
X150119761Y-36438094D01*
X150119761Y-36438094D02*
X150072142Y-36485713D01*
%TO.C,R15*%
X143567380Y-26480357D02*
X143091190Y-26813690D01*
X143567380Y-27051785D02*
X142567380Y-27051785D01*
X142567380Y-27051785D02*
X142567380Y-26670833D01*
X142567380Y-26670833D02*
X142615000Y-26575595D01*
X142615000Y-26575595D02*
X142662619Y-26527976D01*
X142662619Y-26527976D02*
X142757857Y-26480357D01*
X142757857Y-26480357D02*
X142900714Y-26480357D01*
X142900714Y-26480357D02*
X142995952Y-26527976D01*
X142995952Y-26527976D02*
X143043571Y-26575595D01*
X143043571Y-26575595D02*
X143091190Y-26670833D01*
X143091190Y-26670833D02*
X143091190Y-27051785D01*
X143567380Y-25527976D02*
X143567380Y-26099404D01*
X143567380Y-25813690D02*
X142567380Y-25813690D01*
X142567380Y-25813690D02*
X142710238Y-25908928D01*
X142710238Y-25908928D02*
X142805476Y-26004166D01*
X142805476Y-26004166D02*
X142853095Y-26099404D01*
X142567380Y-24623214D02*
X142567380Y-25099404D01*
X142567380Y-25099404D02*
X143043571Y-25147023D01*
X143043571Y-25147023D02*
X142995952Y-25099404D01*
X142995952Y-25099404D02*
X142948333Y-25004166D01*
X142948333Y-25004166D02*
X142948333Y-24766071D01*
X142948333Y-24766071D02*
X142995952Y-24670833D01*
X142995952Y-24670833D02*
X143043571Y-24623214D01*
X143043571Y-24623214D02*
X143138809Y-24575595D01*
X143138809Y-24575595D02*
X143376904Y-24575595D01*
X143376904Y-24575595D02*
X143472142Y-24623214D01*
X143472142Y-24623214D02*
X143519761Y-24670833D01*
X143519761Y-24670833D02*
X143567380Y-24766071D01*
X143567380Y-24766071D02*
X143567380Y-25004166D01*
X143567380Y-25004166D02*
X143519761Y-25099404D01*
X143519761Y-25099404D02*
X143472142Y-25147023D01*
%TO.C,C3*%
X99559642Y-46116666D02*
X99607261Y-46164285D01*
X99607261Y-46164285D02*
X99654880Y-46307142D01*
X99654880Y-46307142D02*
X99654880Y-46402380D01*
X99654880Y-46402380D02*
X99607261Y-46545237D01*
X99607261Y-46545237D02*
X99512023Y-46640475D01*
X99512023Y-46640475D02*
X99416785Y-46688094D01*
X99416785Y-46688094D02*
X99226309Y-46735713D01*
X99226309Y-46735713D02*
X99083452Y-46735713D01*
X99083452Y-46735713D02*
X98892976Y-46688094D01*
X98892976Y-46688094D02*
X98797738Y-46640475D01*
X98797738Y-46640475D02*
X98702500Y-46545237D01*
X98702500Y-46545237D02*
X98654880Y-46402380D01*
X98654880Y-46402380D02*
X98654880Y-46307142D01*
X98654880Y-46307142D02*
X98702500Y-46164285D01*
X98702500Y-46164285D02*
X98750119Y-46116666D01*
X98654880Y-45783332D02*
X98654880Y-45164285D01*
X98654880Y-45164285D02*
X99035833Y-45497618D01*
X99035833Y-45497618D02*
X99035833Y-45354761D01*
X99035833Y-45354761D02*
X99083452Y-45259523D01*
X99083452Y-45259523D02*
X99131071Y-45211904D01*
X99131071Y-45211904D02*
X99226309Y-45164285D01*
X99226309Y-45164285D02*
X99464404Y-45164285D01*
X99464404Y-45164285D02*
X99559642Y-45211904D01*
X99559642Y-45211904D02*
X99607261Y-45259523D01*
X99607261Y-45259523D02*
X99654880Y-45354761D01*
X99654880Y-45354761D02*
X99654880Y-45640475D01*
X99654880Y-45640475D02*
X99607261Y-45735713D01*
X99607261Y-45735713D02*
X99559642Y-45783332D01*
%TO.C,D8*%
X134317380Y-44538094D02*
X133317380Y-44538094D01*
X133317380Y-44538094D02*
X133317380Y-44299999D01*
X133317380Y-44299999D02*
X133365000Y-44157142D01*
X133365000Y-44157142D02*
X133460238Y-44061904D01*
X133460238Y-44061904D02*
X133555476Y-44014285D01*
X133555476Y-44014285D02*
X133745952Y-43966666D01*
X133745952Y-43966666D02*
X133888809Y-43966666D01*
X133888809Y-43966666D02*
X134079285Y-44014285D01*
X134079285Y-44014285D02*
X134174523Y-44061904D01*
X134174523Y-44061904D02*
X134269761Y-44157142D01*
X134269761Y-44157142D02*
X134317380Y-44299999D01*
X134317380Y-44299999D02*
X134317380Y-44538094D01*
X133745952Y-43395237D02*
X133698333Y-43490475D01*
X133698333Y-43490475D02*
X133650714Y-43538094D01*
X133650714Y-43538094D02*
X133555476Y-43585713D01*
X133555476Y-43585713D02*
X133507857Y-43585713D01*
X133507857Y-43585713D02*
X133412619Y-43538094D01*
X133412619Y-43538094D02*
X133365000Y-43490475D01*
X133365000Y-43490475D02*
X133317380Y-43395237D01*
X133317380Y-43395237D02*
X133317380Y-43204761D01*
X133317380Y-43204761D02*
X133365000Y-43109523D01*
X133365000Y-43109523D02*
X133412619Y-43061904D01*
X133412619Y-43061904D02*
X133507857Y-43014285D01*
X133507857Y-43014285D02*
X133555476Y-43014285D01*
X133555476Y-43014285D02*
X133650714Y-43061904D01*
X133650714Y-43061904D02*
X133698333Y-43109523D01*
X133698333Y-43109523D02*
X133745952Y-43204761D01*
X133745952Y-43204761D02*
X133745952Y-43395237D01*
X133745952Y-43395237D02*
X133793571Y-43490475D01*
X133793571Y-43490475D02*
X133841190Y-43538094D01*
X133841190Y-43538094D02*
X133936428Y-43585713D01*
X133936428Y-43585713D02*
X134126904Y-43585713D01*
X134126904Y-43585713D02*
X134222142Y-43538094D01*
X134222142Y-43538094D02*
X134269761Y-43490475D01*
X134269761Y-43490475D02*
X134317380Y-43395237D01*
X134317380Y-43395237D02*
X134317380Y-43204761D01*
X134317380Y-43204761D02*
X134269761Y-43109523D01*
X134269761Y-43109523D02*
X134222142Y-43061904D01*
X134222142Y-43061904D02*
X134126904Y-43014285D01*
X134126904Y-43014285D02*
X133936428Y-43014285D01*
X133936428Y-43014285D02*
X133841190Y-43061904D01*
X133841190Y-43061904D02*
X133793571Y-43109523D01*
X133793571Y-43109523D02*
X133745952Y-43204761D01*
%TO.C,*%
%TO.C,D9*%
X157211905Y-46667380D02*
X157211905Y-45667380D01*
X157211905Y-45667380D02*
X157450000Y-45667380D01*
X157450000Y-45667380D02*
X157592857Y-45715000D01*
X157592857Y-45715000D02*
X157688095Y-45810238D01*
X157688095Y-45810238D02*
X157735714Y-45905476D01*
X157735714Y-45905476D02*
X157783333Y-46095952D01*
X157783333Y-46095952D02*
X157783333Y-46238809D01*
X157783333Y-46238809D02*
X157735714Y-46429285D01*
X157735714Y-46429285D02*
X157688095Y-46524523D01*
X157688095Y-46524523D02*
X157592857Y-46619761D01*
X157592857Y-46619761D02*
X157450000Y-46667380D01*
X157450000Y-46667380D02*
X157211905Y-46667380D01*
X158259524Y-46667380D02*
X158450000Y-46667380D01*
X158450000Y-46667380D02*
X158545238Y-46619761D01*
X158545238Y-46619761D02*
X158592857Y-46572142D01*
X158592857Y-46572142D02*
X158688095Y-46429285D01*
X158688095Y-46429285D02*
X158735714Y-46238809D01*
X158735714Y-46238809D02*
X158735714Y-45857857D01*
X158735714Y-45857857D02*
X158688095Y-45762619D01*
X158688095Y-45762619D02*
X158640476Y-45715000D01*
X158640476Y-45715000D02*
X158545238Y-45667380D01*
X158545238Y-45667380D02*
X158354762Y-45667380D01*
X158354762Y-45667380D02*
X158259524Y-45715000D01*
X158259524Y-45715000D02*
X158211905Y-45762619D01*
X158211905Y-45762619D02*
X158164286Y-45857857D01*
X158164286Y-45857857D02*
X158164286Y-46095952D01*
X158164286Y-46095952D02*
X158211905Y-46191190D01*
X158211905Y-46191190D02*
X158259524Y-46238809D01*
X158259524Y-46238809D02*
X158354762Y-46286428D01*
X158354762Y-46286428D02*
X158545238Y-46286428D01*
X158545238Y-46286428D02*
X158640476Y-46238809D01*
X158640476Y-46238809D02*
X158688095Y-46191190D01*
X158688095Y-46191190D02*
X158735714Y-46095952D01*
%TO.C,R1*%
X99854880Y-43891666D02*
X99378690Y-44224999D01*
X99854880Y-44463094D02*
X98854880Y-44463094D01*
X98854880Y-44463094D02*
X98854880Y-44082142D01*
X98854880Y-44082142D02*
X98902500Y-43986904D01*
X98902500Y-43986904D02*
X98950119Y-43939285D01*
X98950119Y-43939285D02*
X99045357Y-43891666D01*
X99045357Y-43891666D02*
X99188214Y-43891666D01*
X99188214Y-43891666D02*
X99283452Y-43939285D01*
X99283452Y-43939285D02*
X99331071Y-43986904D01*
X99331071Y-43986904D02*
X99378690Y-44082142D01*
X99378690Y-44082142D02*
X99378690Y-44463094D01*
X99854880Y-42939285D02*
X99854880Y-43510713D01*
X99854880Y-43224999D02*
X98854880Y-43224999D01*
X98854880Y-43224999D02*
X98997738Y-43320237D01*
X98997738Y-43320237D02*
X99092976Y-43415475D01*
X99092976Y-43415475D02*
X99140595Y-43510713D01*
%TO.C,D1*%
X95874405Y-42042380D02*
X95874405Y-41042380D01*
X95874405Y-41042380D02*
X96112500Y-41042380D01*
X96112500Y-41042380D02*
X96255357Y-41090000D01*
X96255357Y-41090000D02*
X96350595Y-41185238D01*
X96350595Y-41185238D02*
X96398214Y-41280476D01*
X96398214Y-41280476D02*
X96445833Y-41470952D01*
X96445833Y-41470952D02*
X96445833Y-41613809D01*
X96445833Y-41613809D02*
X96398214Y-41804285D01*
X96398214Y-41804285D02*
X96350595Y-41899523D01*
X96350595Y-41899523D02*
X96255357Y-41994761D01*
X96255357Y-41994761D02*
X96112500Y-42042380D01*
X96112500Y-42042380D02*
X95874405Y-42042380D01*
X97398214Y-42042380D02*
X96826786Y-42042380D01*
X97112500Y-42042380D02*
X97112500Y-41042380D01*
X97112500Y-41042380D02*
X97017262Y-41185238D01*
X97017262Y-41185238D02*
X96922024Y-41280476D01*
X96922024Y-41280476D02*
X96826786Y-41328095D01*
%TO.C,R8*%
X139867380Y-39216666D02*
X139391190Y-39549999D01*
X139867380Y-39788094D02*
X138867380Y-39788094D01*
X138867380Y-39788094D02*
X138867380Y-39407142D01*
X138867380Y-39407142D02*
X138915000Y-39311904D01*
X138915000Y-39311904D02*
X138962619Y-39264285D01*
X138962619Y-39264285D02*
X139057857Y-39216666D01*
X139057857Y-39216666D02*
X139200714Y-39216666D01*
X139200714Y-39216666D02*
X139295952Y-39264285D01*
X139295952Y-39264285D02*
X139343571Y-39311904D01*
X139343571Y-39311904D02*
X139391190Y-39407142D01*
X139391190Y-39407142D02*
X139391190Y-39788094D01*
X139295952Y-38645237D02*
X139248333Y-38740475D01*
X139248333Y-38740475D02*
X139200714Y-38788094D01*
X139200714Y-38788094D02*
X139105476Y-38835713D01*
X139105476Y-38835713D02*
X139057857Y-38835713D01*
X139057857Y-38835713D02*
X138962619Y-38788094D01*
X138962619Y-38788094D02*
X138915000Y-38740475D01*
X138915000Y-38740475D02*
X138867380Y-38645237D01*
X138867380Y-38645237D02*
X138867380Y-38454761D01*
X138867380Y-38454761D02*
X138915000Y-38359523D01*
X138915000Y-38359523D02*
X138962619Y-38311904D01*
X138962619Y-38311904D02*
X139057857Y-38264285D01*
X139057857Y-38264285D02*
X139105476Y-38264285D01*
X139105476Y-38264285D02*
X139200714Y-38311904D01*
X139200714Y-38311904D02*
X139248333Y-38359523D01*
X139248333Y-38359523D02*
X139295952Y-38454761D01*
X139295952Y-38454761D02*
X139295952Y-38645237D01*
X139295952Y-38645237D02*
X139343571Y-38740475D01*
X139343571Y-38740475D02*
X139391190Y-38788094D01*
X139391190Y-38788094D02*
X139486428Y-38835713D01*
X139486428Y-38835713D02*
X139676904Y-38835713D01*
X139676904Y-38835713D02*
X139772142Y-38788094D01*
X139772142Y-38788094D02*
X139819761Y-38740475D01*
X139819761Y-38740475D02*
X139867380Y-38645237D01*
X139867380Y-38645237D02*
X139867380Y-38454761D01*
X139867380Y-38454761D02*
X139819761Y-38359523D01*
X139819761Y-38359523D02*
X139772142Y-38311904D01*
X139772142Y-38311904D02*
X139676904Y-38264285D01*
X139676904Y-38264285D02*
X139486428Y-38264285D01*
X139486428Y-38264285D02*
X139391190Y-38311904D01*
X139391190Y-38311904D02*
X139343571Y-38359523D01*
X139343571Y-38359523D02*
X139295952Y-38454761D01*
%TO.C,C9*%
X146383333Y-33722142D02*
X146335714Y-33769761D01*
X146335714Y-33769761D02*
X146192857Y-33817380D01*
X146192857Y-33817380D02*
X146097619Y-33817380D01*
X146097619Y-33817380D02*
X145954762Y-33769761D01*
X145954762Y-33769761D02*
X145859524Y-33674523D01*
X145859524Y-33674523D02*
X145811905Y-33579285D01*
X145811905Y-33579285D02*
X145764286Y-33388809D01*
X145764286Y-33388809D02*
X145764286Y-33245952D01*
X145764286Y-33245952D02*
X145811905Y-33055476D01*
X145811905Y-33055476D02*
X145859524Y-32960238D01*
X145859524Y-32960238D02*
X145954762Y-32865000D01*
X145954762Y-32865000D02*
X146097619Y-32817380D01*
X146097619Y-32817380D02*
X146192857Y-32817380D01*
X146192857Y-32817380D02*
X146335714Y-32865000D01*
X146335714Y-32865000D02*
X146383333Y-32912619D01*
X146859524Y-33817380D02*
X147050000Y-33817380D01*
X147050000Y-33817380D02*
X147145238Y-33769761D01*
X147145238Y-33769761D02*
X147192857Y-33722142D01*
X147192857Y-33722142D02*
X147288095Y-33579285D01*
X147288095Y-33579285D02*
X147335714Y-33388809D01*
X147335714Y-33388809D02*
X147335714Y-33007857D01*
X147335714Y-33007857D02*
X147288095Y-32912619D01*
X147288095Y-32912619D02*
X147240476Y-32865000D01*
X147240476Y-32865000D02*
X147145238Y-32817380D01*
X147145238Y-32817380D02*
X146954762Y-32817380D01*
X146954762Y-32817380D02*
X146859524Y-32865000D01*
X146859524Y-32865000D02*
X146811905Y-32912619D01*
X146811905Y-32912619D02*
X146764286Y-33007857D01*
X146764286Y-33007857D02*
X146764286Y-33245952D01*
X146764286Y-33245952D02*
X146811905Y-33341190D01*
X146811905Y-33341190D02*
X146859524Y-33388809D01*
X146859524Y-33388809D02*
X146954762Y-33436428D01*
X146954762Y-33436428D02*
X147145238Y-33436428D01*
X147145238Y-33436428D02*
X147240476Y-33388809D01*
X147240476Y-33388809D02*
X147288095Y-33341190D01*
X147288095Y-33341190D02*
X147335714Y-33245952D01*
%TO.C,R16*%
X112617380Y-42542857D02*
X112141190Y-42876190D01*
X112617380Y-43114285D02*
X111617380Y-43114285D01*
X111617380Y-43114285D02*
X111617380Y-42733333D01*
X111617380Y-42733333D02*
X111665000Y-42638095D01*
X111665000Y-42638095D02*
X111712619Y-42590476D01*
X111712619Y-42590476D02*
X111807857Y-42542857D01*
X111807857Y-42542857D02*
X111950714Y-42542857D01*
X111950714Y-42542857D02*
X112045952Y-42590476D01*
X112045952Y-42590476D02*
X112093571Y-42638095D01*
X112093571Y-42638095D02*
X112141190Y-42733333D01*
X112141190Y-42733333D02*
X112141190Y-43114285D01*
X112617380Y-41590476D02*
X112617380Y-42161904D01*
X112617380Y-41876190D02*
X111617380Y-41876190D01*
X111617380Y-41876190D02*
X111760238Y-41971428D01*
X111760238Y-41971428D02*
X111855476Y-42066666D01*
X111855476Y-42066666D02*
X111903095Y-42161904D01*
X111617380Y-40733333D02*
X111617380Y-40923809D01*
X111617380Y-40923809D02*
X111665000Y-41019047D01*
X111665000Y-41019047D02*
X111712619Y-41066666D01*
X111712619Y-41066666D02*
X111855476Y-41161904D01*
X111855476Y-41161904D02*
X112045952Y-41209523D01*
X112045952Y-41209523D02*
X112426904Y-41209523D01*
X112426904Y-41209523D02*
X112522142Y-41161904D01*
X112522142Y-41161904D02*
X112569761Y-41114285D01*
X112569761Y-41114285D02*
X112617380Y-41019047D01*
X112617380Y-41019047D02*
X112617380Y-40828571D01*
X112617380Y-40828571D02*
X112569761Y-40733333D01*
X112569761Y-40733333D02*
X112522142Y-40685714D01*
X112522142Y-40685714D02*
X112426904Y-40638095D01*
X112426904Y-40638095D02*
X112188809Y-40638095D01*
X112188809Y-40638095D02*
X112093571Y-40685714D01*
X112093571Y-40685714D02*
X112045952Y-40733333D01*
X112045952Y-40733333D02*
X111998333Y-40828571D01*
X111998333Y-40828571D02*
X111998333Y-41019047D01*
X111998333Y-41019047D02*
X112045952Y-41114285D01*
X112045952Y-41114285D02*
X112093571Y-41161904D01*
X112093571Y-41161904D02*
X112188809Y-41209523D01*
%TO.C,BT1*%
X132393571Y-33935714D02*
X132441190Y-33792857D01*
X132441190Y-33792857D02*
X132488809Y-33745238D01*
X132488809Y-33745238D02*
X132584047Y-33697619D01*
X132584047Y-33697619D02*
X132726904Y-33697619D01*
X132726904Y-33697619D02*
X132822142Y-33745238D01*
X132822142Y-33745238D02*
X132869761Y-33792857D01*
X132869761Y-33792857D02*
X132917380Y-33888095D01*
X132917380Y-33888095D02*
X132917380Y-34269047D01*
X132917380Y-34269047D02*
X131917380Y-34269047D01*
X131917380Y-34269047D02*
X131917380Y-33935714D01*
X131917380Y-33935714D02*
X131965000Y-33840476D01*
X131965000Y-33840476D02*
X132012619Y-33792857D01*
X132012619Y-33792857D02*
X132107857Y-33745238D01*
X132107857Y-33745238D02*
X132203095Y-33745238D01*
X132203095Y-33745238D02*
X132298333Y-33792857D01*
X132298333Y-33792857D02*
X132345952Y-33840476D01*
X132345952Y-33840476D02*
X132393571Y-33935714D01*
X132393571Y-33935714D02*
X132393571Y-34269047D01*
X131917380Y-33411904D02*
X131917380Y-32840476D01*
X132917380Y-33126190D02*
X131917380Y-33126190D01*
X132917380Y-31983333D02*
X132917380Y-32554761D01*
X132917380Y-32269047D02*
X131917380Y-32269047D01*
X131917380Y-32269047D02*
X132060238Y-32364285D01*
X132060238Y-32364285D02*
X132155476Y-32459523D01*
X132155476Y-32459523D02*
X132203095Y-32554761D01*
%TO.C,D10*%
X149335714Y-46467380D02*
X149335714Y-45467380D01*
X149335714Y-45467380D02*
X149573809Y-45467380D01*
X149573809Y-45467380D02*
X149716666Y-45515000D01*
X149716666Y-45515000D02*
X149811904Y-45610238D01*
X149811904Y-45610238D02*
X149859523Y-45705476D01*
X149859523Y-45705476D02*
X149907142Y-45895952D01*
X149907142Y-45895952D02*
X149907142Y-46038809D01*
X149907142Y-46038809D02*
X149859523Y-46229285D01*
X149859523Y-46229285D02*
X149811904Y-46324523D01*
X149811904Y-46324523D02*
X149716666Y-46419761D01*
X149716666Y-46419761D02*
X149573809Y-46467380D01*
X149573809Y-46467380D02*
X149335714Y-46467380D01*
X150859523Y-46467380D02*
X150288095Y-46467380D01*
X150573809Y-46467380D02*
X150573809Y-45467380D01*
X150573809Y-45467380D02*
X150478571Y-45610238D01*
X150478571Y-45610238D02*
X150383333Y-45705476D01*
X150383333Y-45705476D02*
X150288095Y-45753095D01*
X151478571Y-45467380D02*
X151573809Y-45467380D01*
X151573809Y-45467380D02*
X151669047Y-45515000D01*
X151669047Y-45515000D02*
X151716666Y-45562619D01*
X151716666Y-45562619D02*
X151764285Y-45657857D01*
X151764285Y-45657857D02*
X151811904Y-45848333D01*
X151811904Y-45848333D02*
X151811904Y-46086428D01*
X151811904Y-46086428D02*
X151764285Y-46276904D01*
X151764285Y-46276904D02*
X151716666Y-46372142D01*
X151716666Y-46372142D02*
X151669047Y-46419761D01*
X151669047Y-46419761D02*
X151573809Y-46467380D01*
X151573809Y-46467380D02*
X151478571Y-46467380D01*
X151478571Y-46467380D02*
X151383333Y-46419761D01*
X151383333Y-46419761D02*
X151335714Y-46372142D01*
X151335714Y-46372142D02*
X151288095Y-46276904D01*
X151288095Y-46276904D02*
X151240476Y-46086428D01*
X151240476Y-46086428D02*
X151240476Y-45848333D01*
X151240476Y-45848333D02*
X151288095Y-45657857D01*
X151288095Y-45657857D02*
X151335714Y-45562619D01*
X151335714Y-45562619D02*
X151383333Y-45515000D01*
X151383333Y-45515000D02*
X151478571Y-45467380D01*
%TO.C,C8*%
X119683333Y-34322142D02*
X119635714Y-34369761D01*
X119635714Y-34369761D02*
X119492857Y-34417380D01*
X119492857Y-34417380D02*
X119397619Y-34417380D01*
X119397619Y-34417380D02*
X119254762Y-34369761D01*
X119254762Y-34369761D02*
X119159524Y-34274523D01*
X119159524Y-34274523D02*
X119111905Y-34179285D01*
X119111905Y-34179285D02*
X119064286Y-33988809D01*
X119064286Y-33988809D02*
X119064286Y-33845952D01*
X119064286Y-33845952D02*
X119111905Y-33655476D01*
X119111905Y-33655476D02*
X119159524Y-33560238D01*
X119159524Y-33560238D02*
X119254762Y-33465000D01*
X119254762Y-33465000D02*
X119397619Y-33417380D01*
X119397619Y-33417380D02*
X119492857Y-33417380D01*
X119492857Y-33417380D02*
X119635714Y-33465000D01*
X119635714Y-33465000D02*
X119683333Y-33512619D01*
X120254762Y-33845952D02*
X120159524Y-33798333D01*
X120159524Y-33798333D02*
X120111905Y-33750714D01*
X120111905Y-33750714D02*
X120064286Y-33655476D01*
X120064286Y-33655476D02*
X120064286Y-33607857D01*
X120064286Y-33607857D02*
X120111905Y-33512619D01*
X120111905Y-33512619D02*
X120159524Y-33465000D01*
X120159524Y-33465000D02*
X120254762Y-33417380D01*
X120254762Y-33417380D02*
X120445238Y-33417380D01*
X120445238Y-33417380D02*
X120540476Y-33465000D01*
X120540476Y-33465000D02*
X120588095Y-33512619D01*
X120588095Y-33512619D02*
X120635714Y-33607857D01*
X120635714Y-33607857D02*
X120635714Y-33655476D01*
X120635714Y-33655476D02*
X120588095Y-33750714D01*
X120588095Y-33750714D02*
X120540476Y-33798333D01*
X120540476Y-33798333D02*
X120445238Y-33845952D01*
X120445238Y-33845952D02*
X120254762Y-33845952D01*
X120254762Y-33845952D02*
X120159524Y-33893571D01*
X120159524Y-33893571D02*
X120111905Y-33941190D01*
X120111905Y-33941190D02*
X120064286Y-34036428D01*
X120064286Y-34036428D02*
X120064286Y-34226904D01*
X120064286Y-34226904D02*
X120111905Y-34322142D01*
X120111905Y-34322142D02*
X120159524Y-34369761D01*
X120159524Y-34369761D02*
X120254762Y-34417380D01*
X120254762Y-34417380D02*
X120445238Y-34417380D01*
X120445238Y-34417380D02*
X120540476Y-34369761D01*
X120540476Y-34369761D02*
X120588095Y-34322142D01*
X120588095Y-34322142D02*
X120635714Y-34226904D01*
X120635714Y-34226904D02*
X120635714Y-34036428D01*
X120635714Y-34036428D02*
X120588095Y-33941190D01*
X120588095Y-33941190D02*
X120540476Y-33893571D01*
X120540476Y-33893571D02*
X120445238Y-33845952D01*
%TO.C,C5*%
X96783333Y-31322142D02*
X96735714Y-31369761D01*
X96735714Y-31369761D02*
X96592857Y-31417380D01*
X96592857Y-31417380D02*
X96497619Y-31417380D01*
X96497619Y-31417380D02*
X96354762Y-31369761D01*
X96354762Y-31369761D02*
X96259524Y-31274523D01*
X96259524Y-31274523D02*
X96211905Y-31179285D01*
X96211905Y-31179285D02*
X96164286Y-30988809D01*
X96164286Y-30988809D02*
X96164286Y-30845952D01*
X96164286Y-30845952D02*
X96211905Y-30655476D01*
X96211905Y-30655476D02*
X96259524Y-30560238D01*
X96259524Y-30560238D02*
X96354762Y-30465000D01*
X96354762Y-30465000D02*
X96497619Y-30417380D01*
X96497619Y-30417380D02*
X96592857Y-30417380D01*
X96592857Y-30417380D02*
X96735714Y-30465000D01*
X96735714Y-30465000D02*
X96783333Y-30512619D01*
X97688095Y-30417380D02*
X97211905Y-30417380D01*
X97211905Y-30417380D02*
X97164286Y-30893571D01*
X97164286Y-30893571D02*
X97211905Y-30845952D01*
X97211905Y-30845952D02*
X97307143Y-30798333D01*
X97307143Y-30798333D02*
X97545238Y-30798333D01*
X97545238Y-30798333D02*
X97640476Y-30845952D01*
X97640476Y-30845952D02*
X97688095Y-30893571D01*
X97688095Y-30893571D02*
X97735714Y-30988809D01*
X97735714Y-30988809D02*
X97735714Y-31226904D01*
X97735714Y-31226904D02*
X97688095Y-31322142D01*
X97688095Y-31322142D02*
X97640476Y-31369761D01*
X97640476Y-31369761D02*
X97545238Y-31417380D01*
X97545238Y-31417380D02*
X97307143Y-31417380D01*
X97307143Y-31417380D02*
X97211905Y-31369761D01*
X97211905Y-31369761D02*
X97164286Y-31322142D01*
%TO.C,Q1*%
X127904761Y-37362619D02*
X127809523Y-37315000D01*
X127809523Y-37315000D02*
X127714285Y-37219761D01*
X127714285Y-37219761D02*
X127571428Y-37076904D01*
X127571428Y-37076904D02*
X127476190Y-37029285D01*
X127476190Y-37029285D02*
X127380952Y-37029285D01*
X127428571Y-37267380D02*
X127333333Y-37219761D01*
X127333333Y-37219761D02*
X127238095Y-37124523D01*
X127238095Y-37124523D02*
X127190476Y-36934047D01*
X127190476Y-36934047D02*
X127190476Y-36600714D01*
X127190476Y-36600714D02*
X127238095Y-36410238D01*
X127238095Y-36410238D02*
X127333333Y-36315000D01*
X127333333Y-36315000D02*
X127428571Y-36267380D01*
X127428571Y-36267380D02*
X127619047Y-36267380D01*
X127619047Y-36267380D02*
X127714285Y-36315000D01*
X127714285Y-36315000D02*
X127809523Y-36410238D01*
X127809523Y-36410238D02*
X127857142Y-36600714D01*
X127857142Y-36600714D02*
X127857142Y-36934047D01*
X127857142Y-36934047D02*
X127809523Y-37124523D01*
X127809523Y-37124523D02*
X127714285Y-37219761D01*
X127714285Y-37219761D02*
X127619047Y-37267380D01*
X127619047Y-37267380D02*
X127428571Y-37267380D01*
X128809523Y-37267380D02*
X128238095Y-37267380D01*
X128523809Y-37267380D02*
X128523809Y-36267380D01*
X128523809Y-36267380D02*
X128428571Y-36410238D01*
X128428571Y-36410238D02*
X128333333Y-36505476D01*
X128333333Y-36505476D02*
X128238095Y-36553095D01*
%TO.C,R10*%
X126357142Y-49267380D02*
X126023809Y-48791190D01*
X125785714Y-49267380D02*
X125785714Y-48267380D01*
X125785714Y-48267380D02*
X126166666Y-48267380D01*
X126166666Y-48267380D02*
X126261904Y-48315000D01*
X126261904Y-48315000D02*
X126309523Y-48362619D01*
X126309523Y-48362619D02*
X126357142Y-48457857D01*
X126357142Y-48457857D02*
X126357142Y-48600714D01*
X126357142Y-48600714D02*
X126309523Y-48695952D01*
X126309523Y-48695952D02*
X126261904Y-48743571D01*
X126261904Y-48743571D02*
X126166666Y-48791190D01*
X126166666Y-48791190D02*
X125785714Y-48791190D01*
X127309523Y-49267380D02*
X126738095Y-49267380D01*
X127023809Y-49267380D02*
X127023809Y-48267380D01*
X127023809Y-48267380D02*
X126928571Y-48410238D01*
X126928571Y-48410238D02*
X126833333Y-48505476D01*
X126833333Y-48505476D02*
X126738095Y-48553095D01*
X127928571Y-48267380D02*
X128023809Y-48267380D01*
X128023809Y-48267380D02*
X128119047Y-48315000D01*
X128119047Y-48315000D02*
X128166666Y-48362619D01*
X128166666Y-48362619D02*
X128214285Y-48457857D01*
X128214285Y-48457857D02*
X128261904Y-48648333D01*
X128261904Y-48648333D02*
X128261904Y-48886428D01*
X128261904Y-48886428D02*
X128214285Y-49076904D01*
X128214285Y-49076904D02*
X128166666Y-49172142D01*
X128166666Y-49172142D02*
X128119047Y-49219761D01*
X128119047Y-49219761D02*
X128023809Y-49267380D01*
X128023809Y-49267380D02*
X127928571Y-49267380D01*
X127928571Y-49267380D02*
X127833333Y-49219761D01*
X127833333Y-49219761D02*
X127785714Y-49172142D01*
X127785714Y-49172142D02*
X127738095Y-49076904D01*
X127738095Y-49076904D02*
X127690476Y-48886428D01*
X127690476Y-48886428D02*
X127690476Y-48648333D01*
X127690476Y-48648333D02*
X127738095Y-48457857D01*
X127738095Y-48457857D02*
X127785714Y-48362619D01*
X127785714Y-48362619D02*
X127833333Y-48315000D01*
X127833333Y-48315000D02*
X127928571Y-48267380D01*
%TO.C,C1*%
X115522142Y-35766666D02*
X115569761Y-35814285D01*
X115569761Y-35814285D02*
X115617380Y-35957142D01*
X115617380Y-35957142D02*
X115617380Y-36052380D01*
X115617380Y-36052380D02*
X115569761Y-36195237D01*
X115569761Y-36195237D02*
X115474523Y-36290475D01*
X115474523Y-36290475D02*
X115379285Y-36338094D01*
X115379285Y-36338094D02*
X115188809Y-36385713D01*
X115188809Y-36385713D02*
X115045952Y-36385713D01*
X115045952Y-36385713D02*
X114855476Y-36338094D01*
X114855476Y-36338094D02*
X114760238Y-36290475D01*
X114760238Y-36290475D02*
X114665000Y-36195237D01*
X114665000Y-36195237D02*
X114617380Y-36052380D01*
X114617380Y-36052380D02*
X114617380Y-35957142D01*
X114617380Y-35957142D02*
X114665000Y-35814285D01*
X114665000Y-35814285D02*
X114712619Y-35766666D01*
X115617380Y-34814285D02*
X115617380Y-35385713D01*
X115617380Y-35099999D02*
X114617380Y-35099999D01*
X114617380Y-35099999D02*
X114760238Y-35195237D01*
X114760238Y-35195237D02*
X114855476Y-35290475D01*
X114855476Y-35290475D02*
X114903095Y-35385713D01*
%TO.C,U1*%
X100838095Y-35867380D02*
X100838095Y-36676904D01*
X100838095Y-36676904D02*
X100885714Y-36772142D01*
X100885714Y-36772142D02*
X100933333Y-36819761D01*
X100933333Y-36819761D02*
X101028571Y-36867380D01*
X101028571Y-36867380D02*
X101219047Y-36867380D01*
X101219047Y-36867380D02*
X101314285Y-36819761D01*
X101314285Y-36819761D02*
X101361904Y-36772142D01*
X101361904Y-36772142D02*
X101409523Y-36676904D01*
X101409523Y-36676904D02*
X101409523Y-35867380D01*
X102409523Y-36867380D02*
X101838095Y-36867380D01*
X102123809Y-36867380D02*
X102123809Y-35867380D01*
X102123809Y-35867380D02*
X102028571Y-36010238D01*
X102028571Y-36010238D02*
X101933333Y-36105476D01*
X101933333Y-36105476D02*
X101838095Y-36153095D01*
D13*
%TO.C,TP1*%
X124145000Y-36085000D02*
X124145000Y-35960000D01*
X122755000Y-36085000D02*
X122841724Y-36085000D01*
X122755000Y-34715000D02*
X123450000Y-34715000D01*
X122755000Y-36085000D02*
X122755000Y-35960000D01*
X124058276Y-36085000D02*
X124145000Y-36085000D01*
X122755000Y-36085000D02*
X124145000Y-36085000D01*
X122755000Y-35400000D02*
X122755000Y-34715000D01*
%TO.C,R3*%
X106627064Y-33635000D02*
X106172936Y-33635000D01*
X106627064Y-32165000D02*
X106172936Y-32165000D01*
%TO.C,R17*%
X145535000Y-29372936D02*
X145535000Y-29827064D01*
X144065000Y-29372936D02*
X144065000Y-29827064D01*
D14*
%TO.C,U3*%
X139548600Y-40451400D02*
X136551400Y-40451400D01*
X138354800Y-43448600D02*
X139548600Y-43448600D01*
X137745200Y-43448600D02*
X138354800Y-43448600D01*
X136551400Y-43448600D02*
X137745200Y-43448600D01*
D12*
X138354800Y-43448600D02*
G75*
G03*
X137745200Y-43448600I-304800J0D01*
G01*
D13*
%TO.C,D3*%
X150400000Y-41610000D02*
X152400000Y-41610000D01*
X150400000Y-41610000D02*
X150400000Y-37600000D01*
X152400000Y-41610000D02*
X152400000Y-37600000D01*
%TO.C,C7*%
X112472936Y-38715000D02*
X112927064Y-38715000D01*
X112472936Y-40185000D02*
X112927064Y-40185000D01*
%TO.C,C11*%
X150965000Y-28361252D02*
X150965000Y-27838748D01*
X152435000Y-28361252D02*
X152435000Y-27838748D01*
%TO.C,R5*%
X143677064Y-37185000D02*
X143222936Y-37185000D01*
X143677064Y-35715000D02*
X143222936Y-35715000D01*
%TO.C,D4*%
X145990000Y-42650000D02*
X145990000Y-44650000D01*
X145990000Y-42650000D02*
X150000000Y-42650000D01*
X145990000Y-44650000D02*
X150000000Y-44650000D01*
%TO.C,C13*%
X116390000Y-40640580D02*
X116390000Y-40359420D01*
X117410000Y-40640580D02*
X117410000Y-40359420D01*
%TO.C,R12*%
X127772936Y-41915000D02*
X128227064Y-41915000D01*
X127772936Y-43385000D02*
X128227064Y-43385000D01*
%TO.C,C15*%
X105390000Y-45340580D02*
X105390000Y-45059420D01*
X106410000Y-45340580D02*
X106410000Y-45059420D01*
D12*
%TO.C,U4*%
X147175000Y-29525000D02*
X146925000Y-29525000D01*
X149725000Y-29525000D02*
X149575000Y-29525000D01*
X149735000Y-29525000D02*
X149735000Y-29375000D01*
X147025000Y-26975000D02*
X147025000Y-26825000D01*
X147025000Y-26825000D02*
X147175000Y-26825000D01*
X149725000Y-26825000D02*
X149725000Y-26975000D01*
X149725000Y-26825000D02*
X149575000Y-26825000D01*
D13*
%TO.C,R2*%
X96385436Y-36090000D02*
X96839564Y-36090000D01*
X96385436Y-37560000D02*
X96839564Y-37560000D01*
%TO.C,D6*%
X145815000Y-37740000D02*
X145815000Y-39660000D01*
X145815000Y-39660000D02*
X148500000Y-39660000D01*
X148500000Y-37740000D02*
X145815000Y-37740000D01*
%TO.C,R9*%
X128815000Y-46427064D02*
X128815000Y-45972936D01*
X130285000Y-46427064D02*
X130285000Y-45972936D01*
%TO.C,R7*%
X143627064Y-41735000D02*
X143172936Y-41735000D01*
X143627064Y-40265000D02*
X143172936Y-40265000D01*
%TO.C,C10*%
X105761252Y-42735000D02*
X105238748Y-42735000D01*
X105761252Y-41265000D02*
X105238748Y-41265000D01*
%TO.C,TH1*%
X139060000Y-36110000D02*
X138000000Y-36110000D01*
X139060000Y-35050000D02*
X139060000Y-36110000D01*
X139060000Y-34050000D02*
X139060000Y-31990000D01*
X139060000Y-34050000D02*
X136940000Y-34050000D01*
X139060000Y-31990000D02*
X136940000Y-31990000D01*
X136940000Y-34050000D02*
X136940000Y-31990000D01*
%TO.C,R13*%
X154885000Y-49022936D02*
X154885000Y-49477064D01*
X153415000Y-49022936D02*
X153415000Y-49477064D01*
%TO.C,C6*%
X116872936Y-31065000D02*
X117327064Y-31065000D01*
X116872936Y-32535000D02*
X117327064Y-32535000D01*
%TO.C,C4*%
X110185000Y-31772936D02*
X110185000Y-32227064D01*
X108715000Y-31772936D02*
X108715000Y-32227064D01*
D11*
%TO.C,J2*%
X150650000Y-51880000D02*
X150150000Y-51380000D01*
X151450000Y-51880000D02*
X150650000Y-51880000D01*
X150150000Y-51380000D02*
X150150000Y-47780000D01*
X151950000Y-51380000D02*
X151450000Y-51880000D01*
X150150000Y-47780000D02*
X150650000Y-47280000D01*
X151950000Y-47780000D02*
X151950000Y-51380000D01*
X150650000Y-47280000D02*
X151450000Y-47280000D01*
X151450000Y-47280000D02*
X151950000Y-47780000D01*
D13*
%TO.C,C2*%
X112438748Y-36265000D02*
X112961252Y-36265000D01*
X112438748Y-37735000D02*
X112961252Y-37735000D01*
%TO.C,R6*%
X143677064Y-39435000D02*
X143222936Y-39435000D01*
X143677064Y-37965000D02*
X143222936Y-37965000D01*
%TO.C,R14*%
X147022936Y-47215000D02*
X147477064Y-47215000D01*
X147022936Y-48685000D02*
X147477064Y-48685000D01*
%TO.C,R11*%
X131165000Y-38577064D02*
X131165000Y-38122936D01*
X132635000Y-38577064D02*
X132635000Y-38122936D01*
%TO.C,C14*%
X103390000Y-45340580D02*
X103390000Y-45059420D01*
X104410000Y-45340580D02*
X104410000Y-45059420D01*
%TO.C,U7*%
X111040000Y-47160000D02*
X110035000Y-47160000D01*
X111010000Y-44170000D02*
X111010000Y-43940000D01*
X111010000Y-43940000D02*
X110035000Y-43940000D01*
X108765000Y-47160000D02*
X107790000Y-47160000D01*
X108765000Y-43940000D02*
X107790000Y-43940000D01*
X107790000Y-47160000D02*
X107790000Y-46930000D01*
X107790000Y-44170000D02*
X107790000Y-43940000D01*
%TO.C,D7*%
X146065000Y-40265000D02*
X146065000Y-41735000D01*
X146065000Y-41735000D02*
X148350000Y-41735000D01*
X148350000Y-40265000D02*
X146065000Y-40265000D01*
%TO.C,L2*%
X116510000Y-44795000D02*
X116510000Y-45935000D01*
X112390000Y-44795000D02*
X112390000Y-45935000D01*
%TO.C,C12*%
X153165000Y-28361252D02*
X153165000Y-27838748D01*
X154635000Y-28361252D02*
X154635000Y-27838748D01*
%TO.C,Q2*%
X118420000Y-45070000D02*
X118690000Y-45070000D01*
X118690000Y-45070000D02*
X118690000Y-47900000D01*
X125050000Y-45070000D02*
X125050000Y-46170000D01*
X125320000Y-45070000D02*
X125050000Y-45070000D01*
X118420000Y-38650000D02*
X118420000Y-45070000D01*
X125320000Y-38650000D02*
X125320000Y-45070000D01*
%TO.C,U2*%
X113000000Y-30440000D02*
X111200000Y-30440000D01*
X113000000Y-30440000D02*
X113800000Y-30440000D01*
X113000000Y-33560000D02*
X112200000Y-33560000D01*
X113000000Y-33560000D02*
X113800000Y-33560000D01*
%TO.C,R4*%
X102372936Y-32065000D02*
X102827064Y-32065000D01*
X102372936Y-33535000D02*
X102827064Y-33535000D01*
%TO.C,D5*%
X145815000Y-35490000D02*
X145815000Y-37410000D01*
X145815000Y-37410000D02*
X148500000Y-37410000D01*
X148500000Y-35490000D02*
X145815000Y-35490000D01*
%TO.C,R15*%
X144065000Y-26277064D02*
X144065000Y-25822936D01*
X145535000Y-26277064D02*
X145535000Y-25822936D01*
%TO.C,C3*%
X96759420Y-45315000D02*
X97040580Y-45315000D01*
X96759420Y-46335000D02*
X97040580Y-46335000D01*
%TO.C,D8*%
X130950000Y-44760000D02*
X132950000Y-44760000D01*
X130950000Y-44760000D02*
X130950000Y-40900000D01*
X132950000Y-44760000D02*
X132950000Y-40900000D01*
%TO.C,R1*%
X96772936Y-43015000D02*
X97227064Y-43015000D01*
X96772936Y-44485000D02*
X97227064Y-44485000D01*
%TO.C,D1*%
X98222500Y-40675000D02*
X98222500Y-38975000D01*
X98222500Y-40675000D02*
X95562500Y-40675000D01*
X98222500Y-38975000D02*
X95562500Y-38975000D01*
%TO.C,R8*%
X137227064Y-39685000D02*
X136772936Y-39685000D01*
X137227064Y-38215000D02*
X136772936Y-38215000D01*
%TO.C,C9*%
X148100000Y-31790000D02*
X148600000Y-31790000D01*
X148350000Y-31540000D02*
X148350000Y-32040000D01*
X148840000Y-32154437D02*
X148840000Y-32290000D01*
X148840000Y-32154437D02*
X149904437Y-31090000D01*
X148840000Y-34545563D02*
X148840000Y-34410000D01*
X148840000Y-34545563D02*
X149904437Y-35610000D01*
X149904437Y-31090000D02*
X153360000Y-31090000D01*
X149904437Y-35610000D02*
X153360000Y-35610000D01*
X153360000Y-31090000D02*
X153360000Y-32290000D01*
X153360000Y-35610000D02*
X153360000Y-34410000D01*
%TO.C,R16*%
X109864564Y-42685000D02*
X109410436Y-42685000D01*
X109864564Y-41215000D02*
X109410436Y-41215000D01*
%TO.C,BT1*%
X135810000Y-36110000D02*
X134750000Y-36110000D01*
X135810000Y-35050000D02*
X135810000Y-36110000D01*
X135810000Y-34050000D02*
X135810000Y-31990000D01*
X135810000Y-34050000D02*
X133690000Y-34050000D01*
X135810000Y-31990000D02*
X133690000Y-31990000D01*
X133690000Y-34050000D02*
X133690000Y-31990000D01*
%TO.C,D10*%
X148885000Y-46785000D02*
X148885000Y-45315000D01*
X148885000Y-45315000D02*
X146600000Y-45315000D01*
X146600000Y-46785000D02*
X148885000Y-46785000D01*
%TO.C,C8*%
X116838748Y-33165000D02*
X117361252Y-33165000D01*
X116838748Y-34635000D02*
X117361252Y-34635000D01*
%TO.C,C5*%
X96722936Y-31965000D02*
X97177064Y-31965000D01*
X96722936Y-33435000D02*
X97177064Y-33435000D01*
%TO.C,Q1*%
X128262500Y-40960000D02*
X130062500Y-40960000D01*
X128262500Y-40960000D02*
X127462500Y-40960000D01*
X128262500Y-37840000D02*
X129062500Y-37840000D01*
X128262500Y-37840000D02*
X127462500Y-37840000D01*
%TO.C,R10*%
X126365000Y-46427064D02*
X126365000Y-45972936D01*
X127835000Y-46427064D02*
X127835000Y-45972936D01*
%TO.C,C1*%
X112472936Y-34115000D02*
X112927064Y-34115000D01*
X112472936Y-35585000D02*
X112927064Y-35585000D01*
%TO.C,U1*%
X106375000Y-34985000D02*
X102925000Y-34985000D01*
X106375000Y-34985000D02*
X108325000Y-34985000D01*
X106375000Y-40105000D02*
X104425000Y-40105000D01*
X106375000Y-40105000D02*
X108325000Y-40105000D01*
%TD*%
M02*
