%TF.GenerationSoftware,KiCad,Pcbnew,(7.0.0)*%
%TF.CreationDate,2023-04-17T14:45:16+03:00*%
%TF.ProjectId,sensor_system,73656e73-6f72-45f7-9379-7374656d2e6b,rev?*%
%TF.SameCoordinates,Original*%
%TF.FileFunction,Soldermask,Bot*%
%TF.FilePolarity,Negative*%
%FSLAX46Y46*%
G04 Gerber Fmt 4.6, Leading zero omitted, Abs format (unit mm)*
G04 Created by KiCad (PCBNEW (7.0.0)) date 2023-04-17 14:45:16*
%MOMM*%
%LPD*%
G01*
G04 APERTURE LIST*
%ADD10R,0.850000X0.850000*%
%ADD11C,3.000000*%
%ADD12R,1.700000X1.700000*%
%ADD13O,1.700000X1.700000*%
%ADD14R,1.350000X1.350000*%
%ADD15O,1.350000X1.350000*%
%ADD16C,1.400000*%
%ADD17R,1.800000X1.800000*%
%ADD18C,1.800000*%
%ADD19R,2.000000X2.000000*%
%ADD20C,2.000000*%
%ADD21C,2.500000*%
G04 APERTURE END LIST*
D10*
%TO.C,TP1*%
X123449999Y-35399999D03*
%TD*%
D11*
%TO.C,*%
X97850000Y-50100000D03*
%TD*%
D12*
%TO.C,SW1*%
X132659999Y-47149999D03*
D13*
X135199999Y-47149999D03*
X137739999Y-47149999D03*
%TD*%
D14*
%TO.C,TH1*%
X137999999Y-35049999D03*
D15*
X137999999Y-33049999D03*
%TD*%
D16*
%TO.C,J2*%
X151050000Y-50850000D03*
X151050000Y-48310000D03*
%TD*%
D11*
%TO.C,*%
X97850000Y-26800000D03*
%TD*%
%TO.C,*%
X141900000Y-33150000D03*
%TD*%
D17*
%TO.C,D9*%
X157899999Y-48229999D03*
D18*
X157900000Y-50770000D03*
%TD*%
D14*
%TO.C,BT1*%
X134749999Y-35049999D03*
D15*
X134749999Y-33049999D03*
%TD*%
D19*
%TO.C,U5*%
X104609999Y-25629999D03*
D20*
X107150000Y-25630000D03*
X109690000Y-25630000D03*
X112230000Y-25630000D03*
X114770000Y-25630000D03*
X117310000Y-25630000D03*
X119850000Y-25630000D03*
X122390000Y-25630000D03*
X124930000Y-25630000D03*
X127470000Y-25630000D03*
X130010000Y-25630000D03*
X132550000Y-25630000D03*
X135090000Y-25630000D03*
X137630000Y-25630000D03*
X140170000Y-25630000D03*
X140170000Y-51030000D03*
X137630000Y-51030000D03*
X135090000Y-51030000D03*
X132550000Y-51030000D03*
X130010000Y-51030000D03*
X127470000Y-51030000D03*
X124930000Y-51030000D03*
X122390000Y-51030000D03*
X119850000Y-51030000D03*
X117310000Y-51030000D03*
X114770000Y-51030000D03*
X112230000Y-51030000D03*
X109690000Y-51030000D03*
X107150000Y-51030000D03*
X104610000Y-51030000D03*
%TD*%
D21*
%TO.C,J1*%
X156100000Y-38490000D03*
X156100000Y-35650000D03*
%TD*%
M02*
