%TF.GenerationSoftware,KiCad,Pcbnew,(7.0.0)*%
%TF.CreationDate,2023-04-17T14:45:23+03:00*%
%TF.ProjectId,sensor_system,73656e73-6f72-45f7-9379-7374656d2e6b,rev?*%
%TF.SameCoordinates,Original*%
%TF.FileFunction,Drillmap*%
%TF.FilePolarity,Positive*%
%FSLAX45Y45*%
G04 Gerber Fmt 4.5, Leading zero omitted, Abs format (unit mm)*
G04 Created by KiCad (PCBNEW (7.0.0)) date 2023-04-17 14:45:23*
%MOMM*%
%LPD*%
G01*
G04 APERTURE LIST*
%ADD10C,0.100000*%
%ADD11C,0.200000*%
%ADD12C,0.020000*%
%ADD13C,0.040000*%
%ADD14C,0.050000*%
%ADD15C,0.080000*%
%ADD16C,0.090000*%
%ADD17C,0.102000*%
%ADD18C,0.160000*%
G04 APERTURE END LIST*
D10*
X15970000Y-2390000D02*
X15970000Y-5270000D01*
X2260000Y-3830000D02*
X3260000Y-4985000D01*
X9460000Y-2390000D02*
X9175000Y-2685000D01*
X15970000Y-2390000D02*
X9460000Y-2390000D01*
X3260000Y-2680000D02*
X2260000Y-3830000D01*
X9175000Y-2685000D02*
X3260000Y-2680000D01*
X15970000Y-5270000D02*
X9465000Y-5270000D01*
X9185000Y-4980000D02*
X3260000Y-4985000D01*
X9465000Y-5270000D02*
X9185000Y-4980000D01*
D11*
D12*
X10872500Y-4545000D02*
X10892500Y-4565000D01*
X10892500Y-4545000D02*
X10872500Y-4565000D01*
X10930000Y-4450000D02*
X10950000Y-4470000D01*
X10950000Y-4450000D02*
X10930000Y-4470000D01*
X10930000Y-4640000D02*
X10950000Y-4660000D01*
X10950000Y-4640000D02*
X10930000Y-4660000D01*
X10987500Y-4545000D02*
X11007500Y-4565000D01*
X11007500Y-4545000D02*
X10987500Y-4565000D01*
D13*
X9620000Y-3425000D02*
G75*
G03*
X9620000Y-3425000I-20000J0D01*
G01*
X10010000Y-4450000D02*
G75*
G03*
X10010000Y-4450000I-20000J0D01*
G01*
X10010000Y-4590000D02*
G75*
G03*
X10010000Y-4590000I-20000J0D01*
G01*
X10270000Y-4440000D02*
G75*
G03*
X10270000Y-4440000I-20000J0D01*
G01*
X10330000Y-4200000D02*
G75*
G03*
X10330000Y-4200000I-20000J0D01*
G01*
X10405000Y-3435000D02*
G75*
G03*
X10405000Y-3435000I-20000J0D01*
G01*
X10655000Y-3955000D02*
G75*
G03*
X10655000Y-3955000I-20000J0D01*
G01*
X10810000Y-3110000D02*
G75*
G03*
X10810000Y-3110000I-20000J0D01*
G01*
X10905000Y-3435000D02*
G75*
G03*
X10905000Y-3435000I-20000J0D01*
G01*
X11535000Y-3695000D02*
G75*
G03*
X11535000Y-3695000I-20000J0D01*
G01*
X11710000Y-3835000D02*
G75*
G03*
X11710000Y-3835000I-20000J0D01*
G01*
X11965000Y-3180000D02*
G75*
G03*
X11965000Y-3180000I-20000J0D01*
G01*
X11970000Y-3390000D02*
G75*
G03*
X11970000Y-3390000I-20000J0D01*
G01*
X12230000Y-4080000D02*
G75*
G03*
X12230000Y-4080000I-20000J0D01*
G01*
X12445000Y-4890000D02*
G75*
G03*
X12445000Y-4890000I-20000J0D01*
G01*
X12715000Y-4890000D02*
G75*
G03*
X12715000Y-4890000I-20000J0D01*
G01*
X12975000Y-4880000D02*
G75*
G03*
X12975000Y-4880000I-20000J0D01*
G01*
X14510000Y-4610000D02*
G75*
G03*
X14510000Y-4610000I-20000J0D01*
G01*
X14510000Y-4775000D02*
G75*
G03*
X14510000Y-4775000I-20000J0D01*
G01*
X15190000Y-2585000D02*
G75*
G03*
X15190000Y-2585000I-20000J0D01*
G01*
X15410000Y-2585000D02*
G75*
G03*
X15410000Y-2585000I-20000J0D01*
G01*
X15520000Y-3335000D02*
G75*
G03*
X15520000Y-3335000I-20000J0D01*
G01*
D14*
X12345000Y-3515000D02*
X12345000Y-3565000D01*
X12320000Y-3540000D02*
X12370000Y-3540000D01*
D15*
X13503284Y-3333284D02*
X13503284Y-3276715D01*
X13446715Y-3276715D01*
X13446715Y-3333284D01*
X13503284Y-3333284D01*
X13503284Y-3533284D02*
X13503284Y-3476715D01*
X13446715Y-3476715D01*
X13446715Y-3533284D01*
X13503284Y-3533284D01*
X13828284Y-3333284D02*
X13828284Y-3276715D01*
X13771715Y-3276715D01*
X13771715Y-3333284D01*
X13828284Y-3333284D01*
X13828284Y-3533284D02*
X13828284Y-3476715D01*
X13771715Y-3476715D01*
X13771715Y-3533284D01*
X13828284Y-3533284D01*
X15133284Y-4859285D02*
X15133284Y-4802716D01*
X15076715Y-4802716D01*
X15076715Y-4859285D01*
X15133284Y-4859285D01*
X15133284Y-5113285D02*
X15133284Y-5056716D01*
X15076715Y-5056716D01*
X15076715Y-5113285D01*
X15133284Y-5113285D01*
D16*
X15790000Y-4868000D02*
X15835000Y-4823000D01*
X15790000Y-4778000D01*
X15745000Y-4823000D01*
X15790000Y-4868000D01*
X15790000Y-5122000D02*
X15835000Y-5077000D01*
X15790000Y-5032000D01*
X15745000Y-5077000D01*
X15790000Y-5122000D01*
D10*
X13216000Y-4665000D02*
X13316000Y-4765000D01*
X13316000Y-4665000D02*
X13216000Y-4765000D01*
X13316000Y-4715000D02*
G75*
G03*
X13316000Y-4715000I-50000J0D01*
G01*
X13470000Y-4665000D02*
X13570000Y-4765000D01*
X13570000Y-4665000D02*
X13470000Y-4765000D01*
X13570000Y-4715000D02*
G75*
G03*
X13570000Y-4715000I-50000J0D01*
G01*
X13724000Y-4665000D02*
X13824000Y-4765000D01*
X13824000Y-4665000D02*
X13724000Y-4765000D01*
X13824000Y-4715000D02*
G75*
G03*
X13824000Y-4715000I-50000J0D01*
G01*
D17*
X10410000Y-2512000D02*
X10512000Y-2614000D01*
X10512000Y-2512000D02*
X10410000Y-2614000D01*
X10461000Y-2512000D02*
X10461000Y-2614000D01*
X10410000Y-2563000D02*
X10512000Y-2563000D01*
X10410000Y-5052000D02*
X10512000Y-5154000D01*
X10512000Y-5052000D02*
X10410000Y-5154000D01*
X10461000Y-5052000D02*
X10461000Y-5154000D01*
X10410000Y-5103000D02*
X10512000Y-5103000D01*
X10664000Y-2512000D02*
X10766000Y-2614000D01*
X10766000Y-2512000D02*
X10664000Y-2614000D01*
X10715000Y-2512000D02*
X10715000Y-2614000D01*
X10664000Y-2563000D02*
X10766000Y-2563000D01*
X10664000Y-5052000D02*
X10766000Y-5154000D01*
X10766000Y-5052000D02*
X10664000Y-5154000D01*
X10715000Y-5052000D02*
X10715000Y-5154000D01*
X10664000Y-5103000D02*
X10766000Y-5103000D01*
X10918000Y-2512000D02*
X11020000Y-2614000D01*
X11020000Y-2512000D02*
X10918000Y-2614000D01*
X10969000Y-2512000D02*
X10969000Y-2614000D01*
X10918000Y-2563000D02*
X11020000Y-2563000D01*
X10918000Y-5052000D02*
X11020000Y-5154000D01*
X11020000Y-5052000D02*
X10918000Y-5154000D01*
X10969000Y-5052000D02*
X10969000Y-5154000D01*
X10918000Y-5103000D02*
X11020000Y-5103000D01*
X11172000Y-2512000D02*
X11274000Y-2614000D01*
X11274000Y-2512000D02*
X11172000Y-2614000D01*
X11223000Y-2512000D02*
X11223000Y-2614000D01*
X11172000Y-2563000D02*
X11274000Y-2563000D01*
X11172000Y-5052000D02*
X11274000Y-5154000D01*
X11274000Y-5052000D02*
X11172000Y-5154000D01*
X11223000Y-5052000D02*
X11223000Y-5154000D01*
X11172000Y-5103000D02*
X11274000Y-5103000D01*
X11426000Y-2512000D02*
X11528000Y-2614000D01*
X11528000Y-2512000D02*
X11426000Y-2614000D01*
X11477000Y-2512000D02*
X11477000Y-2614000D01*
X11426000Y-2563000D02*
X11528000Y-2563000D01*
X11426000Y-5052000D02*
X11528000Y-5154000D01*
X11528000Y-5052000D02*
X11426000Y-5154000D01*
X11477000Y-5052000D02*
X11477000Y-5154000D01*
X11426000Y-5103000D02*
X11528000Y-5103000D01*
X11680000Y-2512000D02*
X11782000Y-2614000D01*
X11782000Y-2512000D02*
X11680000Y-2614000D01*
X11731000Y-2512000D02*
X11731000Y-2614000D01*
X11680000Y-2563000D02*
X11782000Y-2563000D01*
X11680000Y-5052000D02*
X11782000Y-5154000D01*
X11782000Y-5052000D02*
X11680000Y-5154000D01*
X11731000Y-5052000D02*
X11731000Y-5154000D01*
X11680000Y-5103000D02*
X11782000Y-5103000D01*
X11934000Y-2512000D02*
X12036000Y-2614000D01*
X12036000Y-2512000D02*
X11934000Y-2614000D01*
X11985000Y-2512000D02*
X11985000Y-2614000D01*
X11934000Y-2563000D02*
X12036000Y-2563000D01*
X11934000Y-5052000D02*
X12036000Y-5154000D01*
X12036000Y-5052000D02*
X11934000Y-5154000D01*
X11985000Y-5052000D02*
X11985000Y-5154000D01*
X11934000Y-5103000D02*
X12036000Y-5103000D01*
X12188000Y-2512000D02*
X12290000Y-2614000D01*
X12290000Y-2512000D02*
X12188000Y-2614000D01*
X12239000Y-2512000D02*
X12239000Y-2614000D01*
X12188000Y-2563000D02*
X12290000Y-2563000D01*
X12188000Y-5052000D02*
X12290000Y-5154000D01*
X12290000Y-5052000D02*
X12188000Y-5154000D01*
X12239000Y-5052000D02*
X12239000Y-5154000D01*
X12188000Y-5103000D02*
X12290000Y-5103000D01*
X12442000Y-2512000D02*
X12544000Y-2614000D01*
X12544000Y-2512000D02*
X12442000Y-2614000D01*
X12493000Y-2512000D02*
X12493000Y-2614000D01*
X12442000Y-2563000D02*
X12544000Y-2563000D01*
X12442000Y-5052000D02*
X12544000Y-5154000D01*
X12544000Y-5052000D02*
X12442000Y-5154000D01*
X12493000Y-5052000D02*
X12493000Y-5154000D01*
X12442000Y-5103000D02*
X12544000Y-5103000D01*
X12696000Y-2512000D02*
X12798000Y-2614000D01*
X12798000Y-2512000D02*
X12696000Y-2614000D01*
X12747000Y-2512000D02*
X12747000Y-2614000D01*
X12696000Y-2563000D02*
X12798000Y-2563000D01*
X12696000Y-5052000D02*
X12798000Y-5154000D01*
X12798000Y-5052000D02*
X12696000Y-5154000D01*
X12747000Y-5052000D02*
X12747000Y-5154000D01*
X12696000Y-5103000D02*
X12798000Y-5103000D01*
X12950000Y-2512000D02*
X13052000Y-2614000D01*
X13052000Y-2512000D02*
X12950000Y-2614000D01*
X13001000Y-2512000D02*
X13001000Y-2614000D01*
X12950000Y-2563000D02*
X13052000Y-2563000D01*
X12950000Y-5052000D02*
X13052000Y-5154000D01*
X13052000Y-5052000D02*
X12950000Y-5154000D01*
X13001000Y-5052000D02*
X13001000Y-5154000D01*
X12950000Y-5103000D02*
X13052000Y-5103000D01*
X13204000Y-2512000D02*
X13306000Y-2614000D01*
X13306000Y-2512000D02*
X13204000Y-2614000D01*
X13255000Y-2512000D02*
X13255000Y-2614000D01*
X13204000Y-2563000D02*
X13306000Y-2563000D01*
X13204000Y-5052000D02*
X13306000Y-5154000D01*
X13306000Y-5052000D02*
X13204000Y-5154000D01*
X13255000Y-5052000D02*
X13255000Y-5154000D01*
X13204000Y-5103000D02*
X13306000Y-5103000D01*
X13458000Y-2512000D02*
X13560000Y-2614000D01*
X13560000Y-2512000D02*
X13458000Y-2614000D01*
X13509000Y-2512000D02*
X13509000Y-2614000D01*
X13458000Y-2563000D02*
X13560000Y-2563000D01*
X13458000Y-5052000D02*
X13560000Y-5154000D01*
X13560000Y-5052000D02*
X13458000Y-5154000D01*
X13509000Y-5052000D02*
X13509000Y-5154000D01*
X13458000Y-5103000D02*
X13560000Y-5103000D01*
X13712000Y-2512000D02*
X13814000Y-2614000D01*
X13814000Y-2512000D02*
X13712000Y-2614000D01*
X13763000Y-2512000D02*
X13763000Y-2614000D01*
X13712000Y-2563000D02*
X13814000Y-2563000D01*
X13712000Y-5052000D02*
X13814000Y-5154000D01*
X13814000Y-5052000D02*
X13712000Y-5154000D01*
X13763000Y-5052000D02*
X13763000Y-5154000D01*
X13712000Y-5103000D02*
X13814000Y-5103000D01*
X13966000Y-2512000D02*
X14068000Y-2614000D01*
X14068000Y-2512000D02*
X13966000Y-2614000D01*
X14017000Y-2512000D02*
X14017000Y-2614000D01*
X13966000Y-2563000D02*
X14068000Y-2563000D01*
X13966000Y-5052000D02*
X14068000Y-5154000D01*
X14068000Y-5052000D02*
X13966000Y-5154000D01*
X14017000Y-5052000D02*
X14017000Y-5154000D01*
X13966000Y-5103000D02*
X14068000Y-5103000D01*
D18*
X15530000Y-3485000D02*
X15690000Y-3645000D01*
X15690000Y-3485000D02*
X15530000Y-3645000D01*
X15666569Y-3621569D02*
X15666569Y-3508431D01*
X15553431Y-3508431D01*
X15553431Y-3621569D01*
X15666569Y-3621569D01*
X15530000Y-3769000D02*
X15690000Y-3929000D01*
X15690000Y-3769000D02*
X15530000Y-3929000D01*
X15666569Y-3905569D02*
X15666569Y-3792431D01*
X15553431Y-3792431D01*
X15553431Y-3905569D01*
X15666569Y-3905569D01*
D11*
X9685000Y-2580000D02*
X9885000Y-2780000D01*
X9885000Y-2580000D02*
X9685000Y-2780000D01*
X9785000Y-2780000D02*
X9885000Y-2680000D01*
X9785000Y-2580000D01*
X9685000Y-2680000D01*
X9785000Y-2780000D01*
X9685000Y-4910000D02*
X9885000Y-5110000D01*
X9885000Y-4910000D02*
X9685000Y-5110000D01*
X9785000Y-5110000D02*
X9885000Y-5010000D01*
X9785000Y-4910000D01*
X9685000Y-5010000D01*
X9785000Y-5110000D01*
X14090000Y-3215000D02*
X14290000Y-3415000D01*
X14290000Y-3215000D02*
X14090000Y-3415000D01*
X14190000Y-3415000D02*
X14290000Y-3315000D01*
X14190000Y-3215000D01*
X14090000Y-3315000D01*
X14190000Y-3415000D01*
X2502619Y-5568476D02*
X2502619Y-5368476D01*
X2502619Y-5368476D02*
X2550238Y-5368476D01*
X2550238Y-5368476D02*
X2578810Y-5378000D01*
X2578810Y-5378000D02*
X2597857Y-5397048D01*
X2597857Y-5397048D02*
X2607381Y-5416095D01*
X2607381Y-5416095D02*
X2616905Y-5454190D01*
X2616905Y-5454190D02*
X2616905Y-5482762D01*
X2616905Y-5482762D02*
X2607381Y-5520857D01*
X2607381Y-5520857D02*
X2597857Y-5539905D01*
X2597857Y-5539905D02*
X2578810Y-5558952D01*
X2578810Y-5558952D02*
X2550238Y-5568476D01*
X2550238Y-5568476D02*
X2502619Y-5568476D01*
X2702619Y-5568476D02*
X2702619Y-5435143D01*
X2702619Y-5473238D02*
X2712143Y-5454190D01*
X2712143Y-5454190D02*
X2721667Y-5444667D01*
X2721667Y-5444667D02*
X2740714Y-5435143D01*
X2740714Y-5435143D02*
X2759762Y-5435143D01*
X2826428Y-5568476D02*
X2826428Y-5435143D01*
X2826428Y-5368476D02*
X2816905Y-5378000D01*
X2816905Y-5378000D02*
X2826428Y-5387524D01*
X2826428Y-5387524D02*
X2835952Y-5378000D01*
X2835952Y-5378000D02*
X2826428Y-5368476D01*
X2826428Y-5368476D02*
X2826428Y-5387524D01*
X2950238Y-5568476D02*
X2931190Y-5558952D01*
X2931190Y-5558952D02*
X2921667Y-5539905D01*
X2921667Y-5539905D02*
X2921667Y-5368476D01*
X3055000Y-5568476D02*
X3035952Y-5558952D01*
X3035952Y-5558952D02*
X3026428Y-5539905D01*
X3026428Y-5539905D02*
X3026428Y-5368476D01*
X3251190Y-5568476D02*
X3251190Y-5368476D01*
X3251190Y-5368476D02*
X3317857Y-5511333D01*
X3317857Y-5511333D02*
X3384524Y-5368476D01*
X3384524Y-5368476D02*
X3384524Y-5568476D01*
X3565476Y-5568476D02*
X3565476Y-5463714D01*
X3565476Y-5463714D02*
X3555952Y-5444667D01*
X3555952Y-5444667D02*
X3536905Y-5435143D01*
X3536905Y-5435143D02*
X3498809Y-5435143D01*
X3498809Y-5435143D02*
X3479762Y-5444667D01*
X3565476Y-5558952D02*
X3546428Y-5568476D01*
X3546428Y-5568476D02*
X3498809Y-5568476D01*
X3498809Y-5568476D02*
X3479762Y-5558952D01*
X3479762Y-5558952D02*
X3470238Y-5539905D01*
X3470238Y-5539905D02*
X3470238Y-5520857D01*
X3470238Y-5520857D02*
X3479762Y-5501810D01*
X3479762Y-5501810D02*
X3498809Y-5492286D01*
X3498809Y-5492286D02*
X3546428Y-5492286D01*
X3546428Y-5492286D02*
X3565476Y-5482762D01*
X3660714Y-5435143D02*
X3660714Y-5635143D01*
X3660714Y-5444667D02*
X3679762Y-5435143D01*
X3679762Y-5435143D02*
X3717857Y-5435143D01*
X3717857Y-5435143D02*
X3736905Y-5444667D01*
X3736905Y-5444667D02*
X3746428Y-5454190D01*
X3746428Y-5454190D02*
X3755952Y-5473238D01*
X3755952Y-5473238D02*
X3755952Y-5530381D01*
X3755952Y-5530381D02*
X3746428Y-5549429D01*
X3746428Y-5549429D02*
X3736905Y-5558952D01*
X3736905Y-5558952D02*
X3717857Y-5568476D01*
X3717857Y-5568476D02*
X3679762Y-5568476D01*
X3679762Y-5568476D02*
X3660714Y-5558952D01*
X3841667Y-5549429D02*
X3851190Y-5558952D01*
X3851190Y-5558952D02*
X3841667Y-5568476D01*
X3841667Y-5568476D02*
X3832143Y-5558952D01*
X3832143Y-5558952D02*
X3841667Y-5549429D01*
X3841667Y-5549429D02*
X3841667Y-5568476D01*
X3841667Y-5444667D02*
X3851190Y-5454190D01*
X3851190Y-5454190D02*
X3841667Y-5463714D01*
X3841667Y-5463714D02*
X3832143Y-5454190D01*
X3832143Y-5454190D02*
X3841667Y-5444667D01*
X3841667Y-5444667D02*
X3841667Y-5463714D01*
D12*
X2235000Y-5905000D02*
X2255000Y-5925000D01*
X2255000Y-5905000D02*
X2235000Y-5925000D01*
D11*
X2540714Y-5788476D02*
X2559762Y-5788476D01*
X2559762Y-5788476D02*
X2578810Y-5798000D01*
X2578810Y-5798000D02*
X2588333Y-5807524D01*
X2588333Y-5807524D02*
X2597857Y-5826571D01*
X2597857Y-5826571D02*
X2607381Y-5864667D01*
X2607381Y-5864667D02*
X2607381Y-5912286D01*
X2607381Y-5912286D02*
X2597857Y-5950381D01*
X2597857Y-5950381D02*
X2588333Y-5969428D01*
X2588333Y-5969428D02*
X2578810Y-5978952D01*
X2578810Y-5978952D02*
X2559762Y-5988476D01*
X2559762Y-5988476D02*
X2540714Y-5988476D01*
X2540714Y-5988476D02*
X2521667Y-5978952D01*
X2521667Y-5978952D02*
X2512143Y-5969428D01*
X2512143Y-5969428D02*
X2502619Y-5950381D01*
X2502619Y-5950381D02*
X2493095Y-5912286D01*
X2493095Y-5912286D02*
X2493095Y-5864667D01*
X2493095Y-5864667D02*
X2502619Y-5826571D01*
X2502619Y-5826571D02*
X2512143Y-5807524D01*
X2512143Y-5807524D02*
X2521667Y-5798000D01*
X2521667Y-5798000D02*
X2540714Y-5788476D01*
X2693095Y-5969428D02*
X2702619Y-5978952D01*
X2702619Y-5978952D02*
X2693095Y-5988476D01*
X2693095Y-5988476D02*
X2683571Y-5978952D01*
X2683571Y-5978952D02*
X2693095Y-5969428D01*
X2693095Y-5969428D02*
X2693095Y-5988476D01*
X2778810Y-5807524D02*
X2788333Y-5798000D01*
X2788333Y-5798000D02*
X2807381Y-5788476D01*
X2807381Y-5788476D02*
X2855000Y-5788476D01*
X2855000Y-5788476D02*
X2874048Y-5798000D01*
X2874048Y-5798000D02*
X2883571Y-5807524D01*
X2883571Y-5807524D02*
X2893095Y-5826571D01*
X2893095Y-5826571D02*
X2893095Y-5845619D01*
X2893095Y-5845619D02*
X2883571Y-5874190D01*
X2883571Y-5874190D02*
X2769286Y-5988476D01*
X2769286Y-5988476D02*
X2893095Y-5988476D01*
X3016905Y-5788476D02*
X3035952Y-5788476D01*
X3035952Y-5788476D02*
X3055000Y-5798000D01*
X3055000Y-5798000D02*
X3064524Y-5807524D01*
X3064524Y-5807524D02*
X3074048Y-5826571D01*
X3074048Y-5826571D02*
X3083571Y-5864667D01*
X3083571Y-5864667D02*
X3083571Y-5912286D01*
X3083571Y-5912286D02*
X3074048Y-5950381D01*
X3074048Y-5950381D02*
X3064524Y-5969428D01*
X3064524Y-5969428D02*
X3055000Y-5978952D01*
X3055000Y-5978952D02*
X3035952Y-5988476D01*
X3035952Y-5988476D02*
X3016905Y-5988476D01*
X3016905Y-5988476D02*
X2997857Y-5978952D01*
X2997857Y-5978952D02*
X2988333Y-5969428D01*
X2988333Y-5969428D02*
X2978809Y-5950381D01*
X2978809Y-5950381D02*
X2969286Y-5912286D01*
X2969286Y-5912286D02*
X2969286Y-5864667D01*
X2969286Y-5864667D02*
X2978809Y-5826571D01*
X2978809Y-5826571D02*
X2988333Y-5807524D01*
X2988333Y-5807524D02*
X2997857Y-5798000D01*
X2997857Y-5798000D02*
X3016905Y-5788476D01*
X3207381Y-5788476D02*
X3226429Y-5788476D01*
X3226429Y-5788476D02*
X3245476Y-5798000D01*
X3245476Y-5798000D02*
X3255000Y-5807524D01*
X3255000Y-5807524D02*
X3264524Y-5826571D01*
X3264524Y-5826571D02*
X3274048Y-5864667D01*
X3274048Y-5864667D02*
X3274048Y-5912286D01*
X3274048Y-5912286D02*
X3264524Y-5950381D01*
X3264524Y-5950381D02*
X3255000Y-5969428D01*
X3255000Y-5969428D02*
X3245476Y-5978952D01*
X3245476Y-5978952D02*
X3226429Y-5988476D01*
X3226429Y-5988476D02*
X3207381Y-5988476D01*
X3207381Y-5988476D02*
X3188333Y-5978952D01*
X3188333Y-5978952D02*
X3178809Y-5969428D01*
X3178809Y-5969428D02*
X3169286Y-5950381D01*
X3169286Y-5950381D02*
X3159762Y-5912286D01*
X3159762Y-5912286D02*
X3159762Y-5864667D01*
X3159762Y-5864667D02*
X3169286Y-5826571D01*
X3169286Y-5826571D02*
X3178809Y-5807524D01*
X3178809Y-5807524D02*
X3188333Y-5798000D01*
X3188333Y-5798000D02*
X3207381Y-5788476D01*
X3359762Y-5988476D02*
X3359762Y-5855143D01*
X3359762Y-5874190D02*
X3369286Y-5864667D01*
X3369286Y-5864667D02*
X3388333Y-5855143D01*
X3388333Y-5855143D02*
X3416905Y-5855143D01*
X3416905Y-5855143D02*
X3435952Y-5864667D01*
X3435952Y-5864667D02*
X3445476Y-5883714D01*
X3445476Y-5883714D02*
X3445476Y-5988476D01*
X3445476Y-5883714D02*
X3455000Y-5864667D01*
X3455000Y-5864667D02*
X3474048Y-5855143D01*
X3474048Y-5855143D02*
X3502619Y-5855143D01*
X3502619Y-5855143D02*
X3521667Y-5864667D01*
X3521667Y-5864667D02*
X3531190Y-5883714D01*
X3531190Y-5883714D02*
X3531190Y-5988476D01*
X3626429Y-5988476D02*
X3626429Y-5855143D01*
X3626429Y-5874190D02*
X3635952Y-5864667D01*
X3635952Y-5864667D02*
X3655000Y-5855143D01*
X3655000Y-5855143D02*
X3683571Y-5855143D01*
X3683571Y-5855143D02*
X3702619Y-5864667D01*
X3702619Y-5864667D02*
X3712143Y-5883714D01*
X3712143Y-5883714D02*
X3712143Y-5988476D01*
X3712143Y-5883714D02*
X3721667Y-5864667D01*
X3721667Y-5864667D02*
X3740714Y-5855143D01*
X3740714Y-5855143D02*
X3769286Y-5855143D01*
X3769286Y-5855143D02*
X3788333Y-5864667D01*
X3788333Y-5864667D02*
X3797857Y-5883714D01*
X3797857Y-5883714D02*
X3797857Y-5988476D01*
X4155952Y-5778952D02*
X3984524Y-6036095D01*
X4380714Y-5788476D02*
X4399762Y-5788476D01*
X4399762Y-5788476D02*
X4418810Y-5798000D01*
X4418810Y-5798000D02*
X4428333Y-5807524D01*
X4428333Y-5807524D02*
X4437857Y-5826571D01*
X4437857Y-5826571D02*
X4447381Y-5864667D01*
X4447381Y-5864667D02*
X4447381Y-5912286D01*
X4447381Y-5912286D02*
X4437857Y-5950381D01*
X4437857Y-5950381D02*
X4428333Y-5969428D01*
X4428333Y-5969428D02*
X4418810Y-5978952D01*
X4418810Y-5978952D02*
X4399762Y-5988476D01*
X4399762Y-5988476D02*
X4380714Y-5988476D01*
X4380714Y-5988476D02*
X4361667Y-5978952D01*
X4361667Y-5978952D02*
X4352143Y-5969428D01*
X4352143Y-5969428D02*
X4342619Y-5950381D01*
X4342619Y-5950381D02*
X4333095Y-5912286D01*
X4333095Y-5912286D02*
X4333095Y-5864667D01*
X4333095Y-5864667D02*
X4342619Y-5826571D01*
X4342619Y-5826571D02*
X4352143Y-5807524D01*
X4352143Y-5807524D02*
X4361667Y-5798000D01*
X4361667Y-5798000D02*
X4380714Y-5788476D01*
X4533095Y-5969428D02*
X4542619Y-5978952D01*
X4542619Y-5978952D02*
X4533095Y-5988476D01*
X4533095Y-5988476D02*
X4523572Y-5978952D01*
X4523572Y-5978952D02*
X4533095Y-5969428D01*
X4533095Y-5969428D02*
X4533095Y-5988476D01*
X4666429Y-5788476D02*
X4685476Y-5788476D01*
X4685476Y-5788476D02*
X4704524Y-5798000D01*
X4704524Y-5798000D02*
X4714048Y-5807524D01*
X4714048Y-5807524D02*
X4723572Y-5826571D01*
X4723572Y-5826571D02*
X4733095Y-5864667D01*
X4733095Y-5864667D02*
X4733095Y-5912286D01*
X4733095Y-5912286D02*
X4723572Y-5950381D01*
X4723572Y-5950381D02*
X4714048Y-5969428D01*
X4714048Y-5969428D02*
X4704524Y-5978952D01*
X4704524Y-5978952D02*
X4685476Y-5988476D01*
X4685476Y-5988476D02*
X4666429Y-5988476D01*
X4666429Y-5988476D02*
X4647381Y-5978952D01*
X4647381Y-5978952D02*
X4637857Y-5969428D01*
X4637857Y-5969428D02*
X4628333Y-5950381D01*
X4628333Y-5950381D02*
X4618810Y-5912286D01*
X4618810Y-5912286D02*
X4618810Y-5864667D01*
X4618810Y-5864667D02*
X4628333Y-5826571D01*
X4628333Y-5826571D02*
X4637857Y-5807524D01*
X4637857Y-5807524D02*
X4647381Y-5798000D01*
X4647381Y-5798000D02*
X4666429Y-5788476D01*
X4856905Y-5788476D02*
X4875953Y-5788476D01*
X4875953Y-5788476D02*
X4895000Y-5798000D01*
X4895000Y-5798000D02*
X4904524Y-5807524D01*
X4904524Y-5807524D02*
X4914048Y-5826571D01*
X4914048Y-5826571D02*
X4923572Y-5864667D01*
X4923572Y-5864667D02*
X4923572Y-5912286D01*
X4923572Y-5912286D02*
X4914048Y-5950381D01*
X4914048Y-5950381D02*
X4904524Y-5969428D01*
X4904524Y-5969428D02*
X4895000Y-5978952D01*
X4895000Y-5978952D02*
X4875953Y-5988476D01*
X4875953Y-5988476D02*
X4856905Y-5988476D01*
X4856905Y-5988476D02*
X4837857Y-5978952D01*
X4837857Y-5978952D02*
X4828333Y-5969428D01*
X4828333Y-5969428D02*
X4818810Y-5950381D01*
X4818810Y-5950381D02*
X4809286Y-5912286D01*
X4809286Y-5912286D02*
X4809286Y-5864667D01*
X4809286Y-5864667D02*
X4818810Y-5826571D01*
X4818810Y-5826571D02*
X4828333Y-5807524D01*
X4828333Y-5807524D02*
X4837857Y-5798000D01*
X4837857Y-5798000D02*
X4856905Y-5788476D01*
X4990238Y-5788476D02*
X5123572Y-5788476D01*
X5123572Y-5788476D02*
X5037857Y-5988476D01*
X5209286Y-5988476D02*
X5247381Y-5988476D01*
X5247381Y-5988476D02*
X5266429Y-5978952D01*
X5266429Y-5978952D02*
X5275953Y-5969428D01*
X5275953Y-5969428D02*
X5295000Y-5940857D01*
X5295000Y-5940857D02*
X5304524Y-5902762D01*
X5304524Y-5902762D02*
X5304524Y-5826571D01*
X5304524Y-5826571D02*
X5295000Y-5807524D01*
X5295000Y-5807524D02*
X5285476Y-5798000D01*
X5285476Y-5798000D02*
X5266429Y-5788476D01*
X5266429Y-5788476D02*
X5228333Y-5788476D01*
X5228333Y-5788476D02*
X5209286Y-5798000D01*
X5209286Y-5798000D02*
X5199762Y-5807524D01*
X5199762Y-5807524D02*
X5190238Y-5826571D01*
X5190238Y-5826571D02*
X5190238Y-5874190D01*
X5190238Y-5874190D02*
X5199762Y-5893238D01*
X5199762Y-5893238D02*
X5209286Y-5902762D01*
X5209286Y-5902762D02*
X5228333Y-5912286D01*
X5228333Y-5912286D02*
X5266429Y-5912286D01*
X5266429Y-5912286D02*
X5285476Y-5902762D01*
X5285476Y-5902762D02*
X5295000Y-5893238D01*
X5295000Y-5893238D02*
X5304524Y-5874190D01*
X5380714Y-5788476D02*
X5380714Y-5826571D01*
X5456905Y-5788476D02*
X5456905Y-5826571D01*
X5719762Y-6064667D02*
X5710238Y-6055143D01*
X5710238Y-6055143D02*
X5691191Y-6026571D01*
X5691191Y-6026571D02*
X5681667Y-6007524D01*
X5681667Y-6007524D02*
X5672143Y-5978952D01*
X5672143Y-5978952D02*
X5662619Y-5931333D01*
X5662619Y-5931333D02*
X5662619Y-5893238D01*
X5662619Y-5893238D02*
X5672143Y-5845619D01*
X5672143Y-5845619D02*
X5681667Y-5817048D01*
X5681667Y-5817048D02*
X5691191Y-5798000D01*
X5691191Y-5798000D02*
X5710238Y-5769428D01*
X5710238Y-5769428D02*
X5719762Y-5759905D01*
X5881667Y-5855143D02*
X5881667Y-5988476D01*
X5834048Y-5778952D02*
X5786429Y-5921809D01*
X5786429Y-5921809D02*
X5910238Y-5921809D01*
X6106429Y-5988476D02*
X6106429Y-5788476D01*
X6192143Y-5988476D02*
X6192143Y-5883714D01*
X6192143Y-5883714D02*
X6182619Y-5864667D01*
X6182619Y-5864667D02*
X6163572Y-5855143D01*
X6163572Y-5855143D02*
X6135000Y-5855143D01*
X6135000Y-5855143D02*
X6115952Y-5864667D01*
X6115952Y-5864667D02*
X6106429Y-5874190D01*
X6315952Y-5988476D02*
X6296905Y-5978952D01*
X6296905Y-5978952D02*
X6287381Y-5969428D01*
X6287381Y-5969428D02*
X6277857Y-5950381D01*
X6277857Y-5950381D02*
X6277857Y-5893238D01*
X6277857Y-5893238D02*
X6287381Y-5874190D01*
X6287381Y-5874190D02*
X6296905Y-5864667D01*
X6296905Y-5864667D02*
X6315952Y-5855143D01*
X6315952Y-5855143D02*
X6344524Y-5855143D01*
X6344524Y-5855143D02*
X6363572Y-5864667D01*
X6363572Y-5864667D02*
X6373095Y-5874190D01*
X6373095Y-5874190D02*
X6382619Y-5893238D01*
X6382619Y-5893238D02*
X6382619Y-5950381D01*
X6382619Y-5950381D02*
X6373095Y-5969428D01*
X6373095Y-5969428D02*
X6363572Y-5978952D01*
X6363572Y-5978952D02*
X6344524Y-5988476D01*
X6344524Y-5988476D02*
X6315952Y-5988476D01*
X6496905Y-5988476D02*
X6477857Y-5978952D01*
X6477857Y-5978952D02*
X6468333Y-5959905D01*
X6468333Y-5959905D02*
X6468333Y-5788476D01*
X6649286Y-5978952D02*
X6630238Y-5988476D01*
X6630238Y-5988476D02*
X6592143Y-5988476D01*
X6592143Y-5988476D02*
X6573095Y-5978952D01*
X6573095Y-5978952D02*
X6563572Y-5959905D01*
X6563572Y-5959905D02*
X6563572Y-5883714D01*
X6563572Y-5883714D02*
X6573095Y-5864667D01*
X6573095Y-5864667D02*
X6592143Y-5855143D01*
X6592143Y-5855143D02*
X6630238Y-5855143D01*
X6630238Y-5855143D02*
X6649286Y-5864667D01*
X6649286Y-5864667D02*
X6658810Y-5883714D01*
X6658810Y-5883714D02*
X6658810Y-5902762D01*
X6658810Y-5902762D02*
X6563572Y-5921809D01*
X6735000Y-5978952D02*
X6754048Y-5988476D01*
X6754048Y-5988476D02*
X6792143Y-5988476D01*
X6792143Y-5988476D02*
X6811191Y-5978952D01*
X6811191Y-5978952D02*
X6820714Y-5959905D01*
X6820714Y-5959905D02*
X6820714Y-5950381D01*
X6820714Y-5950381D02*
X6811191Y-5931333D01*
X6811191Y-5931333D02*
X6792143Y-5921809D01*
X6792143Y-5921809D02*
X6763572Y-5921809D01*
X6763572Y-5921809D02*
X6744524Y-5912286D01*
X6744524Y-5912286D02*
X6735000Y-5893238D01*
X6735000Y-5893238D02*
X6735000Y-5883714D01*
X6735000Y-5883714D02*
X6744524Y-5864667D01*
X6744524Y-5864667D02*
X6763572Y-5855143D01*
X6763572Y-5855143D02*
X6792143Y-5855143D01*
X6792143Y-5855143D02*
X6811191Y-5864667D01*
X6887381Y-6064667D02*
X6896905Y-6055143D01*
X6896905Y-6055143D02*
X6915953Y-6026571D01*
X6915953Y-6026571D02*
X6925476Y-6007524D01*
X6925476Y-6007524D02*
X6935000Y-5978952D01*
X6935000Y-5978952D02*
X6944524Y-5931333D01*
X6944524Y-5931333D02*
X6944524Y-5893238D01*
X6944524Y-5893238D02*
X6935000Y-5845619D01*
X6935000Y-5845619D02*
X6925476Y-5817048D01*
X6925476Y-5817048D02*
X6915953Y-5798000D01*
X6915953Y-5798000D02*
X6896905Y-5769428D01*
X6896905Y-5769428D02*
X6887381Y-5759905D01*
D13*
X2255000Y-6179000D02*
G75*
G03*
X2255000Y-6179000I-20000J0D01*
G01*
D11*
X2540714Y-6052476D02*
X2559762Y-6052476D01*
X2559762Y-6052476D02*
X2578810Y-6062000D01*
X2578810Y-6062000D02*
X2588333Y-6071524D01*
X2588333Y-6071524D02*
X2597857Y-6090571D01*
X2597857Y-6090571D02*
X2607381Y-6128667D01*
X2607381Y-6128667D02*
X2607381Y-6176286D01*
X2607381Y-6176286D02*
X2597857Y-6214381D01*
X2597857Y-6214381D02*
X2588333Y-6233428D01*
X2588333Y-6233428D02*
X2578810Y-6242952D01*
X2578810Y-6242952D02*
X2559762Y-6252476D01*
X2559762Y-6252476D02*
X2540714Y-6252476D01*
X2540714Y-6252476D02*
X2521667Y-6242952D01*
X2521667Y-6242952D02*
X2512143Y-6233428D01*
X2512143Y-6233428D02*
X2502619Y-6214381D01*
X2502619Y-6214381D02*
X2493095Y-6176286D01*
X2493095Y-6176286D02*
X2493095Y-6128667D01*
X2493095Y-6128667D02*
X2502619Y-6090571D01*
X2502619Y-6090571D02*
X2512143Y-6071524D01*
X2512143Y-6071524D02*
X2521667Y-6062000D01*
X2521667Y-6062000D02*
X2540714Y-6052476D01*
X2693095Y-6233428D02*
X2702619Y-6242952D01*
X2702619Y-6242952D02*
X2693095Y-6252476D01*
X2693095Y-6252476D02*
X2683571Y-6242952D01*
X2683571Y-6242952D02*
X2693095Y-6233428D01*
X2693095Y-6233428D02*
X2693095Y-6252476D01*
X2874048Y-6119143D02*
X2874048Y-6252476D01*
X2826428Y-6042952D02*
X2778810Y-6185809D01*
X2778810Y-6185809D02*
X2902619Y-6185809D01*
X3016905Y-6052476D02*
X3035952Y-6052476D01*
X3035952Y-6052476D02*
X3055000Y-6062000D01*
X3055000Y-6062000D02*
X3064524Y-6071524D01*
X3064524Y-6071524D02*
X3074048Y-6090571D01*
X3074048Y-6090571D02*
X3083571Y-6128667D01*
X3083571Y-6128667D02*
X3083571Y-6176286D01*
X3083571Y-6176286D02*
X3074048Y-6214381D01*
X3074048Y-6214381D02*
X3064524Y-6233428D01*
X3064524Y-6233428D02*
X3055000Y-6242952D01*
X3055000Y-6242952D02*
X3035952Y-6252476D01*
X3035952Y-6252476D02*
X3016905Y-6252476D01*
X3016905Y-6252476D02*
X2997857Y-6242952D01*
X2997857Y-6242952D02*
X2988333Y-6233428D01*
X2988333Y-6233428D02*
X2978809Y-6214381D01*
X2978809Y-6214381D02*
X2969286Y-6176286D01*
X2969286Y-6176286D02*
X2969286Y-6128667D01*
X2969286Y-6128667D02*
X2978809Y-6090571D01*
X2978809Y-6090571D02*
X2988333Y-6071524D01*
X2988333Y-6071524D02*
X2997857Y-6062000D01*
X2997857Y-6062000D02*
X3016905Y-6052476D01*
X3207381Y-6052476D02*
X3226429Y-6052476D01*
X3226429Y-6052476D02*
X3245476Y-6062000D01*
X3245476Y-6062000D02*
X3255000Y-6071524D01*
X3255000Y-6071524D02*
X3264524Y-6090571D01*
X3264524Y-6090571D02*
X3274048Y-6128667D01*
X3274048Y-6128667D02*
X3274048Y-6176286D01*
X3274048Y-6176286D02*
X3264524Y-6214381D01*
X3264524Y-6214381D02*
X3255000Y-6233428D01*
X3255000Y-6233428D02*
X3245476Y-6242952D01*
X3245476Y-6242952D02*
X3226429Y-6252476D01*
X3226429Y-6252476D02*
X3207381Y-6252476D01*
X3207381Y-6252476D02*
X3188333Y-6242952D01*
X3188333Y-6242952D02*
X3178809Y-6233428D01*
X3178809Y-6233428D02*
X3169286Y-6214381D01*
X3169286Y-6214381D02*
X3159762Y-6176286D01*
X3159762Y-6176286D02*
X3159762Y-6128667D01*
X3159762Y-6128667D02*
X3169286Y-6090571D01*
X3169286Y-6090571D02*
X3178809Y-6071524D01*
X3178809Y-6071524D02*
X3188333Y-6062000D01*
X3188333Y-6062000D02*
X3207381Y-6052476D01*
X3359762Y-6252476D02*
X3359762Y-6119143D01*
X3359762Y-6138190D02*
X3369286Y-6128667D01*
X3369286Y-6128667D02*
X3388333Y-6119143D01*
X3388333Y-6119143D02*
X3416905Y-6119143D01*
X3416905Y-6119143D02*
X3435952Y-6128667D01*
X3435952Y-6128667D02*
X3445476Y-6147714D01*
X3445476Y-6147714D02*
X3445476Y-6252476D01*
X3445476Y-6147714D02*
X3455000Y-6128667D01*
X3455000Y-6128667D02*
X3474048Y-6119143D01*
X3474048Y-6119143D02*
X3502619Y-6119143D01*
X3502619Y-6119143D02*
X3521667Y-6128667D01*
X3521667Y-6128667D02*
X3531190Y-6147714D01*
X3531190Y-6147714D02*
X3531190Y-6252476D01*
X3626429Y-6252476D02*
X3626429Y-6119143D01*
X3626429Y-6138190D02*
X3635952Y-6128667D01*
X3635952Y-6128667D02*
X3655000Y-6119143D01*
X3655000Y-6119143D02*
X3683571Y-6119143D01*
X3683571Y-6119143D02*
X3702619Y-6128667D01*
X3702619Y-6128667D02*
X3712143Y-6147714D01*
X3712143Y-6147714D02*
X3712143Y-6252476D01*
X3712143Y-6147714D02*
X3721667Y-6128667D01*
X3721667Y-6128667D02*
X3740714Y-6119143D01*
X3740714Y-6119143D02*
X3769286Y-6119143D01*
X3769286Y-6119143D02*
X3788333Y-6128667D01*
X3788333Y-6128667D02*
X3797857Y-6147714D01*
X3797857Y-6147714D02*
X3797857Y-6252476D01*
X4155952Y-6042952D02*
X3984524Y-6300095D01*
X4380714Y-6052476D02*
X4399762Y-6052476D01*
X4399762Y-6052476D02*
X4418810Y-6062000D01*
X4418810Y-6062000D02*
X4428333Y-6071524D01*
X4428333Y-6071524D02*
X4437857Y-6090571D01*
X4437857Y-6090571D02*
X4447381Y-6128667D01*
X4447381Y-6128667D02*
X4447381Y-6176286D01*
X4447381Y-6176286D02*
X4437857Y-6214381D01*
X4437857Y-6214381D02*
X4428333Y-6233428D01*
X4428333Y-6233428D02*
X4418810Y-6242952D01*
X4418810Y-6242952D02*
X4399762Y-6252476D01*
X4399762Y-6252476D02*
X4380714Y-6252476D01*
X4380714Y-6252476D02*
X4361667Y-6242952D01*
X4361667Y-6242952D02*
X4352143Y-6233428D01*
X4352143Y-6233428D02*
X4342619Y-6214381D01*
X4342619Y-6214381D02*
X4333095Y-6176286D01*
X4333095Y-6176286D02*
X4333095Y-6128667D01*
X4333095Y-6128667D02*
X4342619Y-6090571D01*
X4342619Y-6090571D02*
X4352143Y-6071524D01*
X4352143Y-6071524D02*
X4361667Y-6062000D01*
X4361667Y-6062000D02*
X4380714Y-6052476D01*
X4533095Y-6233428D02*
X4542619Y-6242952D01*
X4542619Y-6242952D02*
X4533095Y-6252476D01*
X4533095Y-6252476D02*
X4523572Y-6242952D01*
X4523572Y-6242952D02*
X4533095Y-6233428D01*
X4533095Y-6233428D02*
X4533095Y-6252476D01*
X4666429Y-6052476D02*
X4685476Y-6052476D01*
X4685476Y-6052476D02*
X4704524Y-6062000D01*
X4704524Y-6062000D02*
X4714048Y-6071524D01*
X4714048Y-6071524D02*
X4723572Y-6090571D01*
X4723572Y-6090571D02*
X4733095Y-6128667D01*
X4733095Y-6128667D02*
X4733095Y-6176286D01*
X4733095Y-6176286D02*
X4723572Y-6214381D01*
X4723572Y-6214381D02*
X4714048Y-6233428D01*
X4714048Y-6233428D02*
X4704524Y-6242952D01*
X4704524Y-6242952D02*
X4685476Y-6252476D01*
X4685476Y-6252476D02*
X4666429Y-6252476D01*
X4666429Y-6252476D02*
X4647381Y-6242952D01*
X4647381Y-6242952D02*
X4637857Y-6233428D01*
X4637857Y-6233428D02*
X4628333Y-6214381D01*
X4628333Y-6214381D02*
X4618810Y-6176286D01*
X4618810Y-6176286D02*
X4618810Y-6128667D01*
X4618810Y-6128667D02*
X4628333Y-6090571D01*
X4628333Y-6090571D02*
X4637857Y-6071524D01*
X4637857Y-6071524D02*
X4647381Y-6062000D01*
X4647381Y-6062000D02*
X4666429Y-6052476D01*
X4923572Y-6252476D02*
X4809286Y-6252476D01*
X4866429Y-6252476D02*
X4866429Y-6052476D01*
X4866429Y-6052476D02*
X4847381Y-6081048D01*
X4847381Y-6081048D02*
X4828333Y-6100095D01*
X4828333Y-6100095D02*
X4809286Y-6109619D01*
X5104524Y-6052476D02*
X5009286Y-6052476D01*
X5009286Y-6052476D02*
X4999762Y-6147714D01*
X4999762Y-6147714D02*
X5009286Y-6138190D01*
X5009286Y-6138190D02*
X5028333Y-6128667D01*
X5028333Y-6128667D02*
X5075953Y-6128667D01*
X5075953Y-6128667D02*
X5095000Y-6138190D01*
X5095000Y-6138190D02*
X5104524Y-6147714D01*
X5104524Y-6147714D02*
X5114048Y-6166762D01*
X5114048Y-6166762D02*
X5114048Y-6214381D01*
X5114048Y-6214381D02*
X5104524Y-6233428D01*
X5104524Y-6233428D02*
X5095000Y-6242952D01*
X5095000Y-6242952D02*
X5075953Y-6252476D01*
X5075953Y-6252476D02*
X5028333Y-6252476D01*
X5028333Y-6252476D02*
X5009286Y-6242952D01*
X5009286Y-6242952D02*
X4999762Y-6233428D01*
X5180714Y-6052476D02*
X5314048Y-6052476D01*
X5314048Y-6052476D02*
X5228333Y-6252476D01*
X5380714Y-6052476D02*
X5380714Y-6090571D01*
X5456905Y-6052476D02*
X5456905Y-6090571D01*
X5719762Y-6328667D02*
X5710238Y-6319143D01*
X5710238Y-6319143D02*
X5691191Y-6290571D01*
X5691191Y-6290571D02*
X5681667Y-6271524D01*
X5681667Y-6271524D02*
X5672143Y-6242952D01*
X5672143Y-6242952D02*
X5662619Y-6195333D01*
X5662619Y-6195333D02*
X5662619Y-6157238D01*
X5662619Y-6157238D02*
X5672143Y-6109619D01*
X5672143Y-6109619D02*
X5681667Y-6081048D01*
X5681667Y-6081048D02*
X5691191Y-6062000D01*
X5691191Y-6062000D02*
X5710238Y-6033428D01*
X5710238Y-6033428D02*
X5719762Y-6023905D01*
X5786429Y-6071524D02*
X5795952Y-6062000D01*
X5795952Y-6062000D02*
X5815000Y-6052476D01*
X5815000Y-6052476D02*
X5862619Y-6052476D01*
X5862619Y-6052476D02*
X5881667Y-6062000D01*
X5881667Y-6062000D02*
X5891191Y-6071524D01*
X5891191Y-6071524D02*
X5900714Y-6090571D01*
X5900714Y-6090571D02*
X5900714Y-6109619D01*
X5900714Y-6109619D02*
X5891191Y-6138190D01*
X5891191Y-6138190D02*
X5776905Y-6252476D01*
X5776905Y-6252476D02*
X5900714Y-6252476D01*
X5976905Y-6071524D02*
X5986429Y-6062000D01*
X5986429Y-6062000D02*
X6005476Y-6052476D01*
X6005476Y-6052476D02*
X6053095Y-6052476D01*
X6053095Y-6052476D02*
X6072143Y-6062000D01*
X6072143Y-6062000D02*
X6081667Y-6071524D01*
X6081667Y-6071524D02*
X6091191Y-6090571D01*
X6091191Y-6090571D02*
X6091191Y-6109619D01*
X6091191Y-6109619D02*
X6081667Y-6138190D01*
X6081667Y-6138190D02*
X5967381Y-6252476D01*
X5967381Y-6252476D02*
X6091191Y-6252476D01*
X6296905Y-6252476D02*
X6296905Y-6052476D01*
X6382619Y-6252476D02*
X6382619Y-6147714D01*
X6382619Y-6147714D02*
X6373095Y-6128667D01*
X6373095Y-6128667D02*
X6354048Y-6119143D01*
X6354048Y-6119143D02*
X6325476Y-6119143D01*
X6325476Y-6119143D02*
X6306429Y-6128667D01*
X6306429Y-6128667D02*
X6296905Y-6138190D01*
X6506429Y-6252476D02*
X6487381Y-6242952D01*
X6487381Y-6242952D02*
X6477857Y-6233428D01*
X6477857Y-6233428D02*
X6468333Y-6214381D01*
X6468333Y-6214381D02*
X6468333Y-6157238D01*
X6468333Y-6157238D02*
X6477857Y-6138190D01*
X6477857Y-6138190D02*
X6487381Y-6128667D01*
X6487381Y-6128667D02*
X6506429Y-6119143D01*
X6506429Y-6119143D02*
X6535000Y-6119143D01*
X6535000Y-6119143D02*
X6554048Y-6128667D01*
X6554048Y-6128667D02*
X6563572Y-6138190D01*
X6563572Y-6138190D02*
X6573095Y-6157238D01*
X6573095Y-6157238D02*
X6573095Y-6214381D01*
X6573095Y-6214381D02*
X6563572Y-6233428D01*
X6563572Y-6233428D02*
X6554048Y-6242952D01*
X6554048Y-6242952D02*
X6535000Y-6252476D01*
X6535000Y-6252476D02*
X6506429Y-6252476D01*
X6687381Y-6252476D02*
X6668333Y-6242952D01*
X6668333Y-6242952D02*
X6658810Y-6223905D01*
X6658810Y-6223905D02*
X6658810Y-6052476D01*
X6839762Y-6242952D02*
X6820714Y-6252476D01*
X6820714Y-6252476D02*
X6782619Y-6252476D01*
X6782619Y-6252476D02*
X6763572Y-6242952D01*
X6763572Y-6242952D02*
X6754048Y-6223905D01*
X6754048Y-6223905D02*
X6754048Y-6147714D01*
X6754048Y-6147714D02*
X6763572Y-6128667D01*
X6763572Y-6128667D02*
X6782619Y-6119143D01*
X6782619Y-6119143D02*
X6820714Y-6119143D01*
X6820714Y-6119143D02*
X6839762Y-6128667D01*
X6839762Y-6128667D02*
X6849286Y-6147714D01*
X6849286Y-6147714D02*
X6849286Y-6166762D01*
X6849286Y-6166762D02*
X6754048Y-6185809D01*
X6925476Y-6242952D02*
X6944524Y-6252476D01*
X6944524Y-6252476D02*
X6982619Y-6252476D01*
X6982619Y-6252476D02*
X7001667Y-6242952D01*
X7001667Y-6242952D02*
X7011191Y-6223905D01*
X7011191Y-6223905D02*
X7011191Y-6214381D01*
X7011191Y-6214381D02*
X7001667Y-6195333D01*
X7001667Y-6195333D02*
X6982619Y-6185809D01*
X6982619Y-6185809D02*
X6954048Y-6185809D01*
X6954048Y-6185809D02*
X6935000Y-6176286D01*
X6935000Y-6176286D02*
X6925476Y-6157238D01*
X6925476Y-6157238D02*
X6925476Y-6147714D01*
X6925476Y-6147714D02*
X6935000Y-6128667D01*
X6935000Y-6128667D02*
X6954048Y-6119143D01*
X6954048Y-6119143D02*
X6982619Y-6119143D01*
X6982619Y-6119143D02*
X7001667Y-6128667D01*
X7077857Y-6328667D02*
X7087381Y-6319143D01*
X7087381Y-6319143D02*
X7106429Y-6290571D01*
X7106429Y-6290571D02*
X7115953Y-6271524D01*
X7115953Y-6271524D02*
X7125476Y-6242952D01*
X7125476Y-6242952D02*
X7135000Y-6195333D01*
X7135000Y-6195333D02*
X7135000Y-6157238D01*
X7135000Y-6157238D02*
X7125476Y-6109619D01*
X7125476Y-6109619D02*
X7115953Y-6081048D01*
X7115953Y-6081048D02*
X7106429Y-6062000D01*
X7106429Y-6062000D02*
X7087381Y-6033428D01*
X7087381Y-6033428D02*
X7077857Y-6023905D01*
D14*
X2230000Y-6418000D02*
X2230000Y-6468000D01*
X2205000Y-6443000D02*
X2255000Y-6443000D01*
D11*
X2540714Y-6316476D02*
X2559762Y-6316476D01*
X2559762Y-6316476D02*
X2578810Y-6326000D01*
X2578810Y-6326000D02*
X2588333Y-6335524D01*
X2588333Y-6335524D02*
X2597857Y-6354571D01*
X2597857Y-6354571D02*
X2607381Y-6392667D01*
X2607381Y-6392667D02*
X2607381Y-6440286D01*
X2607381Y-6440286D02*
X2597857Y-6478381D01*
X2597857Y-6478381D02*
X2588333Y-6497428D01*
X2588333Y-6497428D02*
X2578810Y-6506952D01*
X2578810Y-6506952D02*
X2559762Y-6516476D01*
X2559762Y-6516476D02*
X2540714Y-6516476D01*
X2540714Y-6516476D02*
X2521667Y-6506952D01*
X2521667Y-6506952D02*
X2512143Y-6497428D01*
X2512143Y-6497428D02*
X2502619Y-6478381D01*
X2502619Y-6478381D02*
X2493095Y-6440286D01*
X2493095Y-6440286D02*
X2493095Y-6392667D01*
X2493095Y-6392667D02*
X2502619Y-6354571D01*
X2502619Y-6354571D02*
X2512143Y-6335524D01*
X2512143Y-6335524D02*
X2521667Y-6326000D01*
X2521667Y-6326000D02*
X2540714Y-6316476D01*
X2693095Y-6497428D02*
X2702619Y-6506952D01*
X2702619Y-6506952D02*
X2693095Y-6516476D01*
X2693095Y-6516476D02*
X2683571Y-6506952D01*
X2683571Y-6506952D02*
X2693095Y-6497428D01*
X2693095Y-6497428D02*
X2693095Y-6516476D01*
X2883571Y-6316476D02*
X2788333Y-6316476D01*
X2788333Y-6316476D02*
X2778810Y-6411714D01*
X2778810Y-6411714D02*
X2788333Y-6402190D01*
X2788333Y-6402190D02*
X2807381Y-6392667D01*
X2807381Y-6392667D02*
X2855000Y-6392667D01*
X2855000Y-6392667D02*
X2874048Y-6402190D01*
X2874048Y-6402190D02*
X2883571Y-6411714D01*
X2883571Y-6411714D02*
X2893095Y-6430762D01*
X2893095Y-6430762D02*
X2893095Y-6478381D01*
X2893095Y-6478381D02*
X2883571Y-6497428D01*
X2883571Y-6497428D02*
X2874048Y-6506952D01*
X2874048Y-6506952D02*
X2855000Y-6516476D01*
X2855000Y-6516476D02*
X2807381Y-6516476D01*
X2807381Y-6516476D02*
X2788333Y-6506952D01*
X2788333Y-6506952D02*
X2778810Y-6497428D01*
X3016905Y-6316476D02*
X3035952Y-6316476D01*
X3035952Y-6316476D02*
X3055000Y-6326000D01*
X3055000Y-6326000D02*
X3064524Y-6335524D01*
X3064524Y-6335524D02*
X3074048Y-6354571D01*
X3074048Y-6354571D02*
X3083571Y-6392667D01*
X3083571Y-6392667D02*
X3083571Y-6440286D01*
X3083571Y-6440286D02*
X3074048Y-6478381D01*
X3074048Y-6478381D02*
X3064524Y-6497428D01*
X3064524Y-6497428D02*
X3055000Y-6506952D01*
X3055000Y-6506952D02*
X3035952Y-6516476D01*
X3035952Y-6516476D02*
X3016905Y-6516476D01*
X3016905Y-6516476D02*
X2997857Y-6506952D01*
X2997857Y-6506952D02*
X2988333Y-6497428D01*
X2988333Y-6497428D02*
X2978809Y-6478381D01*
X2978809Y-6478381D02*
X2969286Y-6440286D01*
X2969286Y-6440286D02*
X2969286Y-6392667D01*
X2969286Y-6392667D02*
X2978809Y-6354571D01*
X2978809Y-6354571D02*
X2988333Y-6335524D01*
X2988333Y-6335524D02*
X2997857Y-6326000D01*
X2997857Y-6326000D02*
X3016905Y-6316476D01*
X3207381Y-6316476D02*
X3226429Y-6316476D01*
X3226429Y-6316476D02*
X3245476Y-6326000D01*
X3245476Y-6326000D02*
X3255000Y-6335524D01*
X3255000Y-6335524D02*
X3264524Y-6354571D01*
X3264524Y-6354571D02*
X3274048Y-6392667D01*
X3274048Y-6392667D02*
X3274048Y-6440286D01*
X3274048Y-6440286D02*
X3264524Y-6478381D01*
X3264524Y-6478381D02*
X3255000Y-6497428D01*
X3255000Y-6497428D02*
X3245476Y-6506952D01*
X3245476Y-6506952D02*
X3226429Y-6516476D01*
X3226429Y-6516476D02*
X3207381Y-6516476D01*
X3207381Y-6516476D02*
X3188333Y-6506952D01*
X3188333Y-6506952D02*
X3178809Y-6497428D01*
X3178809Y-6497428D02*
X3169286Y-6478381D01*
X3169286Y-6478381D02*
X3159762Y-6440286D01*
X3159762Y-6440286D02*
X3159762Y-6392667D01*
X3159762Y-6392667D02*
X3169286Y-6354571D01*
X3169286Y-6354571D02*
X3178809Y-6335524D01*
X3178809Y-6335524D02*
X3188333Y-6326000D01*
X3188333Y-6326000D02*
X3207381Y-6316476D01*
X3359762Y-6516476D02*
X3359762Y-6383143D01*
X3359762Y-6402190D02*
X3369286Y-6392667D01*
X3369286Y-6392667D02*
X3388333Y-6383143D01*
X3388333Y-6383143D02*
X3416905Y-6383143D01*
X3416905Y-6383143D02*
X3435952Y-6392667D01*
X3435952Y-6392667D02*
X3445476Y-6411714D01*
X3445476Y-6411714D02*
X3445476Y-6516476D01*
X3445476Y-6411714D02*
X3455000Y-6392667D01*
X3455000Y-6392667D02*
X3474048Y-6383143D01*
X3474048Y-6383143D02*
X3502619Y-6383143D01*
X3502619Y-6383143D02*
X3521667Y-6392667D01*
X3521667Y-6392667D02*
X3531190Y-6411714D01*
X3531190Y-6411714D02*
X3531190Y-6516476D01*
X3626429Y-6516476D02*
X3626429Y-6383143D01*
X3626429Y-6402190D02*
X3635952Y-6392667D01*
X3635952Y-6392667D02*
X3655000Y-6383143D01*
X3655000Y-6383143D02*
X3683571Y-6383143D01*
X3683571Y-6383143D02*
X3702619Y-6392667D01*
X3702619Y-6392667D02*
X3712143Y-6411714D01*
X3712143Y-6411714D02*
X3712143Y-6516476D01*
X3712143Y-6411714D02*
X3721667Y-6392667D01*
X3721667Y-6392667D02*
X3740714Y-6383143D01*
X3740714Y-6383143D02*
X3769286Y-6383143D01*
X3769286Y-6383143D02*
X3788333Y-6392667D01*
X3788333Y-6392667D02*
X3797857Y-6411714D01*
X3797857Y-6411714D02*
X3797857Y-6516476D01*
X4155952Y-6306952D02*
X3984524Y-6564095D01*
X4380714Y-6316476D02*
X4399762Y-6316476D01*
X4399762Y-6316476D02*
X4418810Y-6326000D01*
X4418810Y-6326000D02*
X4428333Y-6335524D01*
X4428333Y-6335524D02*
X4437857Y-6354571D01*
X4437857Y-6354571D02*
X4447381Y-6392667D01*
X4447381Y-6392667D02*
X4447381Y-6440286D01*
X4447381Y-6440286D02*
X4437857Y-6478381D01*
X4437857Y-6478381D02*
X4428333Y-6497428D01*
X4428333Y-6497428D02*
X4418810Y-6506952D01*
X4418810Y-6506952D02*
X4399762Y-6516476D01*
X4399762Y-6516476D02*
X4380714Y-6516476D01*
X4380714Y-6516476D02*
X4361667Y-6506952D01*
X4361667Y-6506952D02*
X4352143Y-6497428D01*
X4352143Y-6497428D02*
X4342619Y-6478381D01*
X4342619Y-6478381D02*
X4333095Y-6440286D01*
X4333095Y-6440286D02*
X4333095Y-6392667D01*
X4333095Y-6392667D02*
X4342619Y-6354571D01*
X4342619Y-6354571D02*
X4352143Y-6335524D01*
X4352143Y-6335524D02*
X4361667Y-6326000D01*
X4361667Y-6326000D02*
X4380714Y-6316476D01*
X4533095Y-6497428D02*
X4542619Y-6506952D01*
X4542619Y-6506952D02*
X4533095Y-6516476D01*
X4533095Y-6516476D02*
X4523572Y-6506952D01*
X4523572Y-6506952D02*
X4533095Y-6497428D01*
X4533095Y-6497428D02*
X4533095Y-6516476D01*
X4666429Y-6316476D02*
X4685476Y-6316476D01*
X4685476Y-6316476D02*
X4704524Y-6326000D01*
X4704524Y-6326000D02*
X4714048Y-6335524D01*
X4714048Y-6335524D02*
X4723572Y-6354571D01*
X4723572Y-6354571D02*
X4733095Y-6392667D01*
X4733095Y-6392667D02*
X4733095Y-6440286D01*
X4733095Y-6440286D02*
X4723572Y-6478381D01*
X4723572Y-6478381D02*
X4714048Y-6497428D01*
X4714048Y-6497428D02*
X4704524Y-6506952D01*
X4704524Y-6506952D02*
X4685476Y-6516476D01*
X4685476Y-6516476D02*
X4666429Y-6516476D01*
X4666429Y-6516476D02*
X4647381Y-6506952D01*
X4647381Y-6506952D02*
X4637857Y-6497428D01*
X4637857Y-6497428D02*
X4628333Y-6478381D01*
X4628333Y-6478381D02*
X4618810Y-6440286D01*
X4618810Y-6440286D02*
X4618810Y-6392667D01*
X4618810Y-6392667D02*
X4628333Y-6354571D01*
X4628333Y-6354571D02*
X4637857Y-6335524D01*
X4637857Y-6335524D02*
X4647381Y-6326000D01*
X4647381Y-6326000D02*
X4666429Y-6316476D01*
X4923572Y-6516476D02*
X4809286Y-6516476D01*
X4866429Y-6516476D02*
X4866429Y-6316476D01*
X4866429Y-6316476D02*
X4847381Y-6345048D01*
X4847381Y-6345048D02*
X4828333Y-6364095D01*
X4828333Y-6364095D02*
X4809286Y-6373619D01*
X5018810Y-6516476D02*
X5056905Y-6516476D01*
X5056905Y-6516476D02*
X5075953Y-6506952D01*
X5075953Y-6506952D02*
X5085476Y-6497428D01*
X5085476Y-6497428D02*
X5104524Y-6468857D01*
X5104524Y-6468857D02*
X5114048Y-6430762D01*
X5114048Y-6430762D02*
X5114048Y-6354571D01*
X5114048Y-6354571D02*
X5104524Y-6335524D01*
X5104524Y-6335524D02*
X5095000Y-6326000D01*
X5095000Y-6326000D02*
X5075953Y-6316476D01*
X5075953Y-6316476D02*
X5037857Y-6316476D01*
X5037857Y-6316476D02*
X5018810Y-6326000D01*
X5018810Y-6326000D02*
X5009286Y-6335524D01*
X5009286Y-6335524D02*
X4999762Y-6354571D01*
X4999762Y-6354571D02*
X4999762Y-6402190D01*
X4999762Y-6402190D02*
X5009286Y-6421238D01*
X5009286Y-6421238D02*
X5018810Y-6430762D01*
X5018810Y-6430762D02*
X5037857Y-6440286D01*
X5037857Y-6440286D02*
X5075953Y-6440286D01*
X5075953Y-6440286D02*
X5095000Y-6430762D01*
X5095000Y-6430762D02*
X5104524Y-6421238D01*
X5104524Y-6421238D02*
X5114048Y-6402190D01*
X5180714Y-6316476D02*
X5314048Y-6316476D01*
X5314048Y-6316476D02*
X5228333Y-6516476D01*
X5380714Y-6316476D02*
X5380714Y-6354571D01*
X5456905Y-6316476D02*
X5456905Y-6354571D01*
X5719762Y-6592667D02*
X5710238Y-6583143D01*
X5710238Y-6583143D02*
X5691191Y-6554571D01*
X5691191Y-6554571D02*
X5681667Y-6535524D01*
X5681667Y-6535524D02*
X5672143Y-6506952D01*
X5672143Y-6506952D02*
X5662619Y-6459333D01*
X5662619Y-6459333D02*
X5662619Y-6421238D01*
X5662619Y-6421238D02*
X5672143Y-6373619D01*
X5672143Y-6373619D02*
X5681667Y-6345048D01*
X5681667Y-6345048D02*
X5691191Y-6326000D01*
X5691191Y-6326000D02*
X5710238Y-6297428D01*
X5710238Y-6297428D02*
X5719762Y-6287905D01*
X5900714Y-6516476D02*
X5786429Y-6516476D01*
X5843571Y-6516476D02*
X5843571Y-6316476D01*
X5843571Y-6316476D02*
X5824524Y-6345048D01*
X5824524Y-6345048D02*
X5805476Y-6364095D01*
X5805476Y-6364095D02*
X5786429Y-6373619D01*
X6106429Y-6516476D02*
X6106429Y-6316476D01*
X6192143Y-6516476D02*
X6192143Y-6411714D01*
X6192143Y-6411714D02*
X6182619Y-6392667D01*
X6182619Y-6392667D02*
X6163572Y-6383143D01*
X6163572Y-6383143D02*
X6135000Y-6383143D01*
X6135000Y-6383143D02*
X6115952Y-6392667D01*
X6115952Y-6392667D02*
X6106429Y-6402190D01*
X6315952Y-6516476D02*
X6296905Y-6506952D01*
X6296905Y-6506952D02*
X6287381Y-6497428D01*
X6287381Y-6497428D02*
X6277857Y-6478381D01*
X6277857Y-6478381D02*
X6277857Y-6421238D01*
X6277857Y-6421238D02*
X6287381Y-6402190D01*
X6287381Y-6402190D02*
X6296905Y-6392667D01*
X6296905Y-6392667D02*
X6315952Y-6383143D01*
X6315952Y-6383143D02*
X6344524Y-6383143D01*
X6344524Y-6383143D02*
X6363572Y-6392667D01*
X6363572Y-6392667D02*
X6373095Y-6402190D01*
X6373095Y-6402190D02*
X6382619Y-6421238D01*
X6382619Y-6421238D02*
X6382619Y-6478381D01*
X6382619Y-6478381D02*
X6373095Y-6497428D01*
X6373095Y-6497428D02*
X6363572Y-6506952D01*
X6363572Y-6506952D02*
X6344524Y-6516476D01*
X6344524Y-6516476D02*
X6315952Y-6516476D01*
X6496905Y-6516476D02*
X6477857Y-6506952D01*
X6477857Y-6506952D02*
X6468333Y-6487905D01*
X6468333Y-6487905D02*
X6468333Y-6316476D01*
X6649286Y-6506952D02*
X6630238Y-6516476D01*
X6630238Y-6516476D02*
X6592143Y-6516476D01*
X6592143Y-6516476D02*
X6573095Y-6506952D01*
X6573095Y-6506952D02*
X6563572Y-6487905D01*
X6563572Y-6487905D02*
X6563572Y-6411714D01*
X6563572Y-6411714D02*
X6573095Y-6392667D01*
X6573095Y-6392667D02*
X6592143Y-6383143D01*
X6592143Y-6383143D02*
X6630238Y-6383143D01*
X6630238Y-6383143D02*
X6649286Y-6392667D01*
X6649286Y-6392667D02*
X6658810Y-6411714D01*
X6658810Y-6411714D02*
X6658810Y-6430762D01*
X6658810Y-6430762D02*
X6563572Y-6449809D01*
X6725476Y-6592667D02*
X6735000Y-6583143D01*
X6735000Y-6583143D02*
X6754048Y-6554571D01*
X6754048Y-6554571D02*
X6763572Y-6535524D01*
X6763572Y-6535524D02*
X6773095Y-6506952D01*
X6773095Y-6506952D02*
X6782619Y-6459333D01*
X6782619Y-6459333D02*
X6782619Y-6421238D01*
X6782619Y-6421238D02*
X6773095Y-6373619D01*
X6773095Y-6373619D02*
X6763572Y-6345048D01*
X6763572Y-6345048D02*
X6754048Y-6326000D01*
X6754048Y-6326000D02*
X6735000Y-6297428D01*
X6735000Y-6297428D02*
X6725476Y-6287905D01*
D15*
X2243285Y-6735284D02*
X2243285Y-6678715D01*
X2186716Y-6678715D01*
X2186716Y-6735284D01*
X2243285Y-6735284D01*
D11*
X2540714Y-6580476D02*
X2559762Y-6580476D01*
X2559762Y-6580476D02*
X2578810Y-6590000D01*
X2578810Y-6590000D02*
X2588333Y-6599524D01*
X2588333Y-6599524D02*
X2597857Y-6618571D01*
X2597857Y-6618571D02*
X2607381Y-6656667D01*
X2607381Y-6656667D02*
X2607381Y-6704286D01*
X2607381Y-6704286D02*
X2597857Y-6742381D01*
X2597857Y-6742381D02*
X2588333Y-6761428D01*
X2588333Y-6761428D02*
X2578810Y-6770952D01*
X2578810Y-6770952D02*
X2559762Y-6780476D01*
X2559762Y-6780476D02*
X2540714Y-6780476D01*
X2540714Y-6780476D02*
X2521667Y-6770952D01*
X2521667Y-6770952D02*
X2512143Y-6761428D01*
X2512143Y-6761428D02*
X2502619Y-6742381D01*
X2502619Y-6742381D02*
X2493095Y-6704286D01*
X2493095Y-6704286D02*
X2493095Y-6656667D01*
X2493095Y-6656667D02*
X2502619Y-6618571D01*
X2502619Y-6618571D02*
X2512143Y-6599524D01*
X2512143Y-6599524D02*
X2521667Y-6590000D01*
X2521667Y-6590000D02*
X2540714Y-6580476D01*
X2693095Y-6761428D02*
X2702619Y-6770952D01*
X2702619Y-6770952D02*
X2693095Y-6780476D01*
X2693095Y-6780476D02*
X2683571Y-6770952D01*
X2683571Y-6770952D02*
X2693095Y-6761428D01*
X2693095Y-6761428D02*
X2693095Y-6780476D01*
X2816905Y-6666190D02*
X2797857Y-6656667D01*
X2797857Y-6656667D02*
X2788333Y-6647143D01*
X2788333Y-6647143D02*
X2778810Y-6628095D01*
X2778810Y-6628095D02*
X2778810Y-6618571D01*
X2778810Y-6618571D02*
X2788333Y-6599524D01*
X2788333Y-6599524D02*
X2797857Y-6590000D01*
X2797857Y-6590000D02*
X2816905Y-6580476D01*
X2816905Y-6580476D02*
X2855000Y-6580476D01*
X2855000Y-6580476D02*
X2874048Y-6590000D01*
X2874048Y-6590000D02*
X2883571Y-6599524D01*
X2883571Y-6599524D02*
X2893095Y-6618571D01*
X2893095Y-6618571D02*
X2893095Y-6628095D01*
X2893095Y-6628095D02*
X2883571Y-6647143D01*
X2883571Y-6647143D02*
X2874048Y-6656667D01*
X2874048Y-6656667D02*
X2855000Y-6666190D01*
X2855000Y-6666190D02*
X2816905Y-6666190D01*
X2816905Y-6666190D02*
X2797857Y-6675714D01*
X2797857Y-6675714D02*
X2788333Y-6685238D01*
X2788333Y-6685238D02*
X2778810Y-6704286D01*
X2778810Y-6704286D02*
X2778810Y-6742381D01*
X2778810Y-6742381D02*
X2788333Y-6761428D01*
X2788333Y-6761428D02*
X2797857Y-6770952D01*
X2797857Y-6770952D02*
X2816905Y-6780476D01*
X2816905Y-6780476D02*
X2855000Y-6780476D01*
X2855000Y-6780476D02*
X2874048Y-6770952D01*
X2874048Y-6770952D02*
X2883571Y-6761428D01*
X2883571Y-6761428D02*
X2893095Y-6742381D01*
X2893095Y-6742381D02*
X2893095Y-6704286D01*
X2893095Y-6704286D02*
X2883571Y-6685238D01*
X2883571Y-6685238D02*
X2874048Y-6675714D01*
X2874048Y-6675714D02*
X2855000Y-6666190D01*
X3016905Y-6580476D02*
X3035952Y-6580476D01*
X3035952Y-6580476D02*
X3055000Y-6590000D01*
X3055000Y-6590000D02*
X3064524Y-6599524D01*
X3064524Y-6599524D02*
X3074048Y-6618571D01*
X3074048Y-6618571D02*
X3083571Y-6656667D01*
X3083571Y-6656667D02*
X3083571Y-6704286D01*
X3083571Y-6704286D02*
X3074048Y-6742381D01*
X3074048Y-6742381D02*
X3064524Y-6761428D01*
X3064524Y-6761428D02*
X3055000Y-6770952D01*
X3055000Y-6770952D02*
X3035952Y-6780476D01*
X3035952Y-6780476D02*
X3016905Y-6780476D01*
X3016905Y-6780476D02*
X2997857Y-6770952D01*
X2997857Y-6770952D02*
X2988333Y-6761428D01*
X2988333Y-6761428D02*
X2978809Y-6742381D01*
X2978809Y-6742381D02*
X2969286Y-6704286D01*
X2969286Y-6704286D02*
X2969286Y-6656667D01*
X2969286Y-6656667D02*
X2978809Y-6618571D01*
X2978809Y-6618571D02*
X2988333Y-6599524D01*
X2988333Y-6599524D02*
X2997857Y-6590000D01*
X2997857Y-6590000D02*
X3016905Y-6580476D01*
X3207381Y-6580476D02*
X3226429Y-6580476D01*
X3226429Y-6580476D02*
X3245476Y-6590000D01*
X3245476Y-6590000D02*
X3255000Y-6599524D01*
X3255000Y-6599524D02*
X3264524Y-6618571D01*
X3264524Y-6618571D02*
X3274048Y-6656667D01*
X3274048Y-6656667D02*
X3274048Y-6704286D01*
X3274048Y-6704286D02*
X3264524Y-6742381D01*
X3264524Y-6742381D02*
X3255000Y-6761428D01*
X3255000Y-6761428D02*
X3245476Y-6770952D01*
X3245476Y-6770952D02*
X3226429Y-6780476D01*
X3226429Y-6780476D02*
X3207381Y-6780476D01*
X3207381Y-6780476D02*
X3188333Y-6770952D01*
X3188333Y-6770952D02*
X3178809Y-6761428D01*
X3178809Y-6761428D02*
X3169286Y-6742381D01*
X3169286Y-6742381D02*
X3159762Y-6704286D01*
X3159762Y-6704286D02*
X3159762Y-6656667D01*
X3159762Y-6656667D02*
X3169286Y-6618571D01*
X3169286Y-6618571D02*
X3178809Y-6599524D01*
X3178809Y-6599524D02*
X3188333Y-6590000D01*
X3188333Y-6590000D02*
X3207381Y-6580476D01*
X3359762Y-6780476D02*
X3359762Y-6647143D01*
X3359762Y-6666190D02*
X3369286Y-6656667D01*
X3369286Y-6656667D02*
X3388333Y-6647143D01*
X3388333Y-6647143D02*
X3416905Y-6647143D01*
X3416905Y-6647143D02*
X3435952Y-6656667D01*
X3435952Y-6656667D02*
X3445476Y-6675714D01*
X3445476Y-6675714D02*
X3445476Y-6780476D01*
X3445476Y-6675714D02*
X3455000Y-6656667D01*
X3455000Y-6656667D02*
X3474048Y-6647143D01*
X3474048Y-6647143D02*
X3502619Y-6647143D01*
X3502619Y-6647143D02*
X3521667Y-6656667D01*
X3521667Y-6656667D02*
X3531190Y-6675714D01*
X3531190Y-6675714D02*
X3531190Y-6780476D01*
X3626429Y-6780476D02*
X3626429Y-6647143D01*
X3626429Y-6666190D02*
X3635952Y-6656667D01*
X3635952Y-6656667D02*
X3655000Y-6647143D01*
X3655000Y-6647143D02*
X3683571Y-6647143D01*
X3683571Y-6647143D02*
X3702619Y-6656667D01*
X3702619Y-6656667D02*
X3712143Y-6675714D01*
X3712143Y-6675714D02*
X3712143Y-6780476D01*
X3712143Y-6675714D02*
X3721667Y-6656667D01*
X3721667Y-6656667D02*
X3740714Y-6647143D01*
X3740714Y-6647143D02*
X3769286Y-6647143D01*
X3769286Y-6647143D02*
X3788333Y-6656667D01*
X3788333Y-6656667D02*
X3797857Y-6675714D01*
X3797857Y-6675714D02*
X3797857Y-6780476D01*
X4155952Y-6570952D02*
X3984524Y-6828095D01*
X4380714Y-6580476D02*
X4399762Y-6580476D01*
X4399762Y-6580476D02*
X4418810Y-6590000D01*
X4418810Y-6590000D02*
X4428333Y-6599524D01*
X4428333Y-6599524D02*
X4437857Y-6618571D01*
X4437857Y-6618571D02*
X4447381Y-6656667D01*
X4447381Y-6656667D02*
X4447381Y-6704286D01*
X4447381Y-6704286D02*
X4437857Y-6742381D01*
X4437857Y-6742381D02*
X4428333Y-6761428D01*
X4428333Y-6761428D02*
X4418810Y-6770952D01*
X4418810Y-6770952D02*
X4399762Y-6780476D01*
X4399762Y-6780476D02*
X4380714Y-6780476D01*
X4380714Y-6780476D02*
X4361667Y-6770952D01*
X4361667Y-6770952D02*
X4352143Y-6761428D01*
X4352143Y-6761428D02*
X4342619Y-6742381D01*
X4342619Y-6742381D02*
X4333095Y-6704286D01*
X4333095Y-6704286D02*
X4333095Y-6656667D01*
X4333095Y-6656667D02*
X4342619Y-6618571D01*
X4342619Y-6618571D02*
X4352143Y-6599524D01*
X4352143Y-6599524D02*
X4361667Y-6590000D01*
X4361667Y-6590000D02*
X4380714Y-6580476D01*
X4533095Y-6761428D02*
X4542619Y-6770952D01*
X4542619Y-6770952D02*
X4533095Y-6780476D01*
X4533095Y-6780476D02*
X4523572Y-6770952D01*
X4523572Y-6770952D02*
X4533095Y-6761428D01*
X4533095Y-6761428D02*
X4533095Y-6780476D01*
X4666429Y-6580476D02*
X4685476Y-6580476D01*
X4685476Y-6580476D02*
X4704524Y-6590000D01*
X4704524Y-6590000D02*
X4714048Y-6599524D01*
X4714048Y-6599524D02*
X4723572Y-6618571D01*
X4723572Y-6618571D02*
X4733095Y-6656667D01*
X4733095Y-6656667D02*
X4733095Y-6704286D01*
X4733095Y-6704286D02*
X4723572Y-6742381D01*
X4723572Y-6742381D02*
X4714048Y-6761428D01*
X4714048Y-6761428D02*
X4704524Y-6770952D01*
X4704524Y-6770952D02*
X4685476Y-6780476D01*
X4685476Y-6780476D02*
X4666429Y-6780476D01*
X4666429Y-6780476D02*
X4647381Y-6770952D01*
X4647381Y-6770952D02*
X4637857Y-6761428D01*
X4637857Y-6761428D02*
X4628333Y-6742381D01*
X4628333Y-6742381D02*
X4618810Y-6704286D01*
X4618810Y-6704286D02*
X4618810Y-6656667D01*
X4618810Y-6656667D02*
X4628333Y-6618571D01*
X4628333Y-6618571D02*
X4637857Y-6599524D01*
X4637857Y-6599524D02*
X4647381Y-6590000D01*
X4647381Y-6590000D02*
X4666429Y-6580476D01*
X4799762Y-6580476D02*
X4923572Y-6580476D01*
X4923572Y-6580476D02*
X4856905Y-6656667D01*
X4856905Y-6656667D02*
X4885476Y-6656667D01*
X4885476Y-6656667D02*
X4904524Y-6666190D01*
X4904524Y-6666190D02*
X4914048Y-6675714D01*
X4914048Y-6675714D02*
X4923572Y-6694762D01*
X4923572Y-6694762D02*
X4923572Y-6742381D01*
X4923572Y-6742381D02*
X4914048Y-6761428D01*
X4914048Y-6761428D02*
X4904524Y-6770952D01*
X4904524Y-6770952D02*
X4885476Y-6780476D01*
X4885476Y-6780476D02*
X4828333Y-6780476D01*
X4828333Y-6780476D02*
X4809286Y-6770952D01*
X4809286Y-6770952D02*
X4799762Y-6761428D01*
X5114048Y-6780476D02*
X4999762Y-6780476D01*
X5056905Y-6780476D02*
X5056905Y-6580476D01*
X5056905Y-6580476D02*
X5037857Y-6609048D01*
X5037857Y-6609048D02*
X5018810Y-6628095D01*
X5018810Y-6628095D02*
X4999762Y-6637619D01*
X5295000Y-6580476D02*
X5199762Y-6580476D01*
X5199762Y-6580476D02*
X5190238Y-6675714D01*
X5190238Y-6675714D02*
X5199762Y-6666190D01*
X5199762Y-6666190D02*
X5218810Y-6656667D01*
X5218810Y-6656667D02*
X5266429Y-6656667D01*
X5266429Y-6656667D02*
X5285476Y-6666190D01*
X5285476Y-6666190D02*
X5295000Y-6675714D01*
X5295000Y-6675714D02*
X5304524Y-6694762D01*
X5304524Y-6694762D02*
X5304524Y-6742381D01*
X5304524Y-6742381D02*
X5295000Y-6761428D01*
X5295000Y-6761428D02*
X5285476Y-6770952D01*
X5285476Y-6770952D02*
X5266429Y-6780476D01*
X5266429Y-6780476D02*
X5218810Y-6780476D01*
X5218810Y-6780476D02*
X5199762Y-6770952D01*
X5199762Y-6770952D02*
X5190238Y-6761428D01*
X5380714Y-6580476D02*
X5380714Y-6618571D01*
X5456905Y-6580476D02*
X5456905Y-6618571D01*
X5719762Y-6856667D02*
X5710238Y-6847143D01*
X5710238Y-6847143D02*
X5691191Y-6818571D01*
X5691191Y-6818571D02*
X5681667Y-6799524D01*
X5681667Y-6799524D02*
X5672143Y-6770952D01*
X5672143Y-6770952D02*
X5662619Y-6723333D01*
X5662619Y-6723333D02*
X5662619Y-6685238D01*
X5662619Y-6685238D02*
X5672143Y-6637619D01*
X5672143Y-6637619D02*
X5681667Y-6609048D01*
X5681667Y-6609048D02*
X5691191Y-6590000D01*
X5691191Y-6590000D02*
X5710238Y-6561428D01*
X5710238Y-6561428D02*
X5719762Y-6551905D01*
X5881667Y-6580476D02*
X5843571Y-6580476D01*
X5843571Y-6580476D02*
X5824524Y-6590000D01*
X5824524Y-6590000D02*
X5815000Y-6599524D01*
X5815000Y-6599524D02*
X5795952Y-6628095D01*
X5795952Y-6628095D02*
X5786429Y-6666190D01*
X5786429Y-6666190D02*
X5786429Y-6742381D01*
X5786429Y-6742381D02*
X5795952Y-6761428D01*
X5795952Y-6761428D02*
X5805476Y-6770952D01*
X5805476Y-6770952D02*
X5824524Y-6780476D01*
X5824524Y-6780476D02*
X5862619Y-6780476D01*
X5862619Y-6780476D02*
X5881667Y-6770952D01*
X5881667Y-6770952D02*
X5891191Y-6761428D01*
X5891191Y-6761428D02*
X5900714Y-6742381D01*
X5900714Y-6742381D02*
X5900714Y-6694762D01*
X5900714Y-6694762D02*
X5891191Y-6675714D01*
X5891191Y-6675714D02*
X5881667Y-6666190D01*
X5881667Y-6666190D02*
X5862619Y-6656667D01*
X5862619Y-6656667D02*
X5824524Y-6656667D01*
X5824524Y-6656667D02*
X5805476Y-6666190D01*
X5805476Y-6666190D02*
X5795952Y-6675714D01*
X5795952Y-6675714D02*
X5786429Y-6694762D01*
X6106429Y-6780476D02*
X6106429Y-6580476D01*
X6192143Y-6780476D02*
X6192143Y-6675714D01*
X6192143Y-6675714D02*
X6182619Y-6656667D01*
X6182619Y-6656667D02*
X6163572Y-6647143D01*
X6163572Y-6647143D02*
X6135000Y-6647143D01*
X6135000Y-6647143D02*
X6115952Y-6656667D01*
X6115952Y-6656667D02*
X6106429Y-6666190D01*
X6315952Y-6780476D02*
X6296905Y-6770952D01*
X6296905Y-6770952D02*
X6287381Y-6761428D01*
X6287381Y-6761428D02*
X6277857Y-6742381D01*
X6277857Y-6742381D02*
X6277857Y-6685238D01*
X6277857Y-6685238D02*
X6287381Y-6666190D01*
X6287381Y-6666190D02*
X6296905Y-6656667D01*
X6296905Y-6656667D02*
X6315952Y-6647143D01*
X6315952Y-6647143D02*
X6344524Y-6647143D01*
X6344524Y-6647143D02*
X6363572Y-6656667D01*
X6363572Y-6656667D02*
X6373095Y-6666190D01*
X6373095Y-6666190D02*
X6382619Y-6685238D01*
X6382619Y-6685238D02*
X6382619Y-6742381D01*
X6382619Y-6742381D02*
X6373095Y-6761428D01*
X6373095Y-6761428D02*
X6363572Y-6770952D01*
X6363572Y-6770952D02*
X6344524Y-6780476D01*
X6344524Y-6780476D02*
X6315952Y-6780476D01*
X6496905Y-6780476D02*
X6477857Y-6770952D01*
X6477857Y-6770952D02*
X6468333Y-6751905D01*
X6468333Y-6751905D02*
X6468333Y-6580476D01*
X6649286Y-6770952D02*
X6630238Y-6780476D01*
X6630238Y-6780476D02*
X6592143Y-6780476D01*
X6592143Y-6780476D02*
X6573095Y-6770952D01*
X6573095Y-6770952D02*
X6563572Y-6751905D01*
X6563572Y-6751905D02*
X6563572Y-6675714D01*
X6563572Y-6675714D02*
X6573095Y-6656667D01*
X6573095Y-6656667D02*
X6592143Y-6647143D01*
X6592143Y-6647143D02*
X6630238Y-6647143D01*
X6630238Y-6647143D02*
X6649286Y-6656667D01*
X6649286Y-6656667D02*
X6658810Y-6675714D01*
X6658810Y-6675714D02*
X6658810Y-6694762D01*
X6658810Y-6694762D02*
X6563572Y-6713809D01*
X6735000Y-6770952D02*
X6754048Y-6780476D01*
X6754048Y-6780476D02*
X6792143Y-6780476D01*
X6792143Y-6780476D02*
X6811191Y-6770952D01*
X6811191Y-6770952D02*
X6820714Y-6751905D01*
X6820714Y-6751905D02*
X6820714Y-6742381D01*
X6820714Y-6742381D02*
X6811191Y-6723333D01*
X6811191Y-6723333D02*
X6792143Y-6713809D01*
X6792143Y-6713809D02*
X6763572Y-6713809D01*
X6763572Y-6713809D02*
X6744524Y-6704286D01*
X6744524Y-6704286D02*
X6735000Y-6685238D01*
X6735000Y-6685238D02*
X6735000Y-6675714D01*
X6735000Y-6675714D02*
X6744524Y-6656667D01*
X6744524Y-6656667D02*
X6763572Y-6647143D01*
X6763572Y-6647143D02*
X6792143Y-6647143D01*
X6792143Y-6647143D02*
X6811191Y-6656667D01*
X6887381Y-6856667D02*
X6896905Y-6847143D01*
X6896905Y-6847143D02*
X6915953Y-6818571D01*
X6915953Y-6818571D02*
X6925476Y-6799524D01*
X6925476Y-6799524D02*
X6935000Y-6770952D01*
X6935000Y-6770952D02*
X6944524Y-6723333D01*
X6944524Y-6723333D02*
X6944524Y-6685238D01*
X6944524Y-6685238D02*
X6935000Y-6637619D01*
X6935000Y-6637619D02*
X6925476Y-6609048D01*
X6925476Y-6609048D02*
X6915953Y-6590000D01*
X6915953Y-6590000D02*
X6896905Y-6561428D01*
X6896905Y-6561428D02*
X6887381Y-6551905D01*
D16*
X2210000Y-7016000D02*
X2255000Y-6971000D01*
X2210000Y-6926000D01*
X2165000Y-6971000D01*
X2210000Y-7016000D01*
D11*
X2540714Y-6844476D02*
X2559762Y-6844476D01*
X2559762Y-6844476D02*
X2578810Y-6854000D01*
X2578810Y-6854000D02*
X2588333Y-6863524D01*
X2588333Y-6863524D02*
X2597857Y-6882571D01*
X2597857Y-6882571D02*
X2607381Y-6920667D01*
X2607381Y-6920667D02*
X2607381Y-6968286D01*
X2607381Y-6968286D02*
X2597857Y-7006381D01*
X2597857Y-7006381D02*
X2588333Y-7025428D01*
X2588333Y-7025428D02*
X2578810Y-7034952D01*
X2578810Y-7034952D02*
X2559762Y-7044476D01*
X2559762Y-7044476D02*
X2540714Y-7044476D01*
X2540714Y-7044476D02*
X2521667Y-7034952D01*
X2521667Y-7034952D02*
X2512143Y-7025428D01*
X2512143Y-7025428D02*
X2502619Y-7006381D01*
X2502619Y-7006381D02*
X2493095Y-6968286D01*
X2493095Y-6968286D02*
X2493095Y-6920667D01*
X2493095Y-6920667D02*
X2502619Y-6882571D01*
X2502619Y-6882571D02*
X2512143Y-6863524D01*
X2512143Y-6863524D02*
X2521667Y-6854000D01*
X2521667Y-6854000D02*
X2540714Y-6844476D01*
X2693095Y-7025428D02*
X2702619Y-7034952D01*
X2702619Y-7034952D02*
X2693095Y-7044476D01*
X2693095Y-7044476D02*
X2683571Y-7034952D01*
X2683571Y-7034952D02*
X2693095Y-7025428D01*
X2693095Y-7025428D02*
X2693095Y-7044476D01*
X2797857Y-7044476D02*
X2835952Y-7044476D01*
X2835952Y-7044476D02*
X2855000Y-7034952D01*
X2855000Y-7034952D02*
X2864524Y-7025428D01*
X2864524Y-7025428D02*
X2883571Y-6996857D01*
X2883571Y-6996857D02*
X2893095Y-6958762D01*
X2893095Y-6958762D02*
X2893095Y-6882571D01*
X2893095Y-6882571D02*
X2883571Y-6863524D01*
X2883571Y-6863524D02*
X2874048Y-6854000D01*
X2874048Y-6854000D02*
X2855000Y-6844476D01*
X2855000Y-6844476D02*
X2816905Y-6844476D01*
X2816905Y-6844476D02*
X2797857Y-6854000D01*
X2797857Y-6854000D02*
X2788333Y-6863524D01*
X2788333Y-6863524D02*
X2778810Y-6882571D01*
X2778810Y-6882571D02*
X2778810Y-6930190D01*
X2778810Y-6930190D02*
X2788333Y-6949238D01*
X2788333Y-6949238D02*
X2797857Y-6958762D01*
X2797857Y-6958762D02*
X2816905Y-6968286D01*
X2816905Y-6968286D02*
X2855000Y-6968286D01*
X2855000Y-6968286D02*
X2874048Y-6958762D01*
X2874048Y-6958762D02*
X2883571Y-6949238D01*
X2883571Y-6949238D02*
X2893095Y-6930190D01*
X3016905Y-6844476D02*
X3035952Y-6844476D01*
X3035952Y-6844476D02*
X3055000Y-6854000D01*
X3055000Y-6854000D02*
X3064524Y-6863524D01*
X3064524Y-6863524D02*
X3074048Y-6882571D01*
X3074048Y-6882571D02*
X3083571Y-6920667D01*
X3083571Y-6920667D02*
X3083571Y-6968286D01*
X3083571Y-6968286D02*
X3074048Y-7006381D01*
X3074048Y-7006381D02*
X3064524Y-7025428D01*
X3064524Y-7025428D02*
X3055000Y-7034952D01*
X3055000Y-7034952D02*
X3035952Y-7044476D01*
X3035952Y-7044476D02*
X3016905Y-7044476D01*
X3016905Y-7044476D02*
X2997857Y-7034952D01*
X2997857Y-7034952D02*
X2988333Y-7025428D01*
X2988333Y-7025428D02*
X2978809Y-7006381D01*
X2978809Y-7006381D02*
X2969286Y-6968286D01*
X2969286Y-6968286D02*
X2969286Y-6920667D01*
X2969286Y-6920667D02*
X2978809Y-6882571D01*
X2978809Y-6882571D02*
X2988333Y-6863524D01*
X2988333Y-6863524D02*
X2997857Y-6854000D01*
X2997857Y-6854000D02*
X3016905Y-6844476D01*
X3207381Y-6844476D02*
X3226429Y-6844476D01*
X3226429Y-6844476D02*
X3245476Y-6854000D01*
X3245476Y-6854000D02*
X3255000Y-6863524D01*
X3255000Y-6863524D02*
X3264524Y-6882571D01*
X3264524Y-6882571D02*
X3274048Y-6920667D01*
X3274048Y-6920667D02*
X3274048Y-6968286D01*
X3274048Y-6968286D02*
X3264524Y-7006381D01*
X3264524Y-7006381D02*
X3255000Y-7025428D01*
X3255000Y-7025428D02*
X3245476Y-7034952D01*
X3245476Y-7034952D02*
X3226429Y-7044476D01*
X3226429Y-7044476D02*
X3207381Y-7044476D01*
X3207381Y-7044476D02*
X3188333Y-7034952D01*
X3188333Y-7034952D02*
X3178809Y-7025428D01*
X3178809Y-7025428D02*
X3169286Y-7006381D01*
X3169286Y-7006381D02*
X3159762Y-6968286D01*
X3159762Y-6968286D02*
X3159762Y-6920667D01*
X3159762Y-6920667D02*
X3169286Y-6882571D01*
X3169286Y-6882571D02*
X3178809Y-6863524D01*
X3178809Y-6863524D02*
X3188333Y-6854000D01*
X3188333Y-6854000D02*
X3207381Y-6844476D01*
X3359762Y-7044476D02*
X3359762Y-6911143D01*
X3359762Y-6930190D02*
X3369286Y-6920667D01*
X3369286Y-6920667D02*
X3388333Y-6911143D01*
X3388333Y-6911143D02*
X3416905Y-6911143D01*
X3416905Y-6911143D02*
X3435952Y-6920667D01*
X3435952Y-6920667D02*
X3445476Y-6939714D01*
X3445476Y-6939714D02*
X3445476Y-7044476D01*
X3445476Y-6939714D02*
X3455000Y-6920667D01*
X3455000Y-6920667D02*
X3474048Y-6911143D01*
X3474048Y-6911143D02*
X3502619Y-6911143D01*
X3502619Y-6911143D02*
X3521667Y-6920667D01*
X3521667Y-6920667D02*
X3531190Y-6939714D01*
X3531190Y-6939714D02*
X3531190Y-7044476D01*
X3626429Y-7044476D02*
X3626429Y-6911143D01*
X3626429Y-6930190D02*
X3635952Y-6920667D01*
X3635952Y-6920667D02*
X3655000Y-6911143D01*
X3655000Y-6911143D02*
X3683571Y-6911143D01*
X3683571Y-6911143D02*
X3702619Y-6920667D01*
X3702619Y-6920667D02*
X3712143Y-6939714D01*
X3712143Y-6939714D02*
X3712143Y-7044476D01*
X3712143Y-6939714D02*
X3721667Y-6920667D01*
X3721667Y-6920667D02*
X3740714Y-6911143D01*
X3740714Y-6911143D02*
X3769286Y-6911143D01*
X3769286Y-6911143D02*
X3788333Y-6920667D01*
X3788333Y-6920667D02*
X3797857Y-6939714D01*
X3797857Y-6939714D02*
X3797857Y-7044476D01*
X4155952Y-6834952D02*
X3984524Y-7092095D01*
X4380714Y-6844476D02*
X4399762Y-6844476D01*
X4399762Y-6844476D02*
X4418810Y-6854000D01*
X4418810Y-6854000D02*
X4428333Y-6863524D01*
X4428333Y-6863524D02*
X4437857Y-6882571D01*
X4437857Y-6882571D02*
X4447381Y-6920667D01*
X4447381Y-6920667D02*
X4447381Y-6968286D01*
X4447381Y-6968286D02*
X4437857Y-7006381D01*
X4437857Y-7006381D02*
X4428333Y-7025428D01*
X4428333Y-7025428D02*
X4418810Y-7034952D01*
X4418810Y-7034952D02*
X4399762Y-7044476D01*
X4399762Y-7044476D02*
X4380714Y-7044476D01*
X4380714Y-7044476D02*
X4361667Y-7034952D01*
X4361667Y-7034952D02*
X4352143Y-7025428D01*
X4352143Y-7025428D02*
X4342619Y-7006381D01*
X4342619Y-7006381D02*
X4333095Y-6968286D01*
X4333095Y-6968286D02*
X4333095Y-6920667D01*
X4333095Y-6920667D02*
X4342619Y-6882571D01*
X4342619Y-6882571D02*
X4352143Y-6863524D01*
X4352143Y-6863524D02*
X4361667Y-6854000D01*
X4361667Y-6854000D02*
X4380714Y-6844476D01*
X4533095Y-7025428D02*
X4542619Y-7034952D01*
X4542619Y-7034952D02*
X4533095Y-7044476D01*
X4533095Y-7044476D02*
X4523572Y-7034952D01*
X4523572Y-7034952D02*
X4533095Y-7025428D01*
X4533095Y-7025428D02*
X4533095Y-7044476D01*
X4666429Y-6844476D02*
X4685476Y-6844476D01*
X4685476Y-6844476D02*
X4704524Y-6854000D01*
X4704524Y-6854000D02*
X4714048Y-6863524D01*
X4714048Y-6863524D02*
X4723572Y-6882571D01*
X4723572Y-6882571D02*
X4733095Y-6920667D01*
X4733095Y-6920667D02*
X4733095Y-6968286D01*
X4733095Y-6968286D02*
X4723572Y-7006381D01*
X4723572Y-7006381D02*
X4714048Y-7025428D01*
X4714048Y-7025428D02*
X4704524Y-7034952D01*
X4704524Y-7034952D02*
X4685476Y-7044476D01*
X4685476Y-7044476D02*
X4666429Y-7044476D01*
X4666429Y-7044476D02*
X4647381Y-7034952D01*
X4647381Y-7034952D02*
X4637857Y-7025428D01*
X4637857Y-7025428D02*
X4628333Y-7006381D01*
X4628333Y-7006381D02*
X4618810Y-6968286D01*
X4618810Y-6968286D02*
X4618810Y-6920667D01*
X4618810Y-6920667D02*
X4628333Y-6882571D01*
X4628333Y-6882571D02*
X4637857Y-6863524D01*
X4637857Y-6863524D02*
X4647381Y-6854000D01*
X4647381Y-6854000D02*
X4666429Y-6844476D01*
X4799762Y-6844476D02*
X4923572Y-6844476D01*
X4923572Y-6844476D02*
X4856905Y-6920667D01*
X4856905Y-6920667D02*
X4885476Y-6920667D01*
X4885476Y-6920667D02*
X4904524Y-6930190D01*
X4904524Y-6930190D02*
X4914048Y-6939714D01*
X4914048Y-6939714D02*
X4923572Y-6958762D01*
X4923572Y-6958762D02*
X4923572Y-7006381D01*
X4923572Y-7006381D02*
X4914048Y-7025428D01*
X4914048Y-7025428D02*
X4904524Y-7034952D01*
X4904524Y-7034952D02*
X4885476Y-7044476D01*
X4885476Y-7044476D02*
X4828333Y-7044476D01*
X4828333Y-7044476D02*
X4809286Y-7034952D01*
X4809286Y-7034952D02*
X4799762Y-7025428D01*
X5104524Y-6844476D02*
X5009286Y-6844476D01*
X5009286Y-6844476D02*
X4999762Y-6939714D01*
X4999762Y-6939714D02*
X5009286Y-6930190D01*
X5009286Y-6930190D02*
X5028333Y-6920667D01*
X5028333Y-6920667D02*
X5075953Y-6920667D01*
X5075953Y-6920667D02*
X5095000Y-6930190D01*
X5095000Y-6930190D02*
X5104524Y-6939714D01*
X5104524Y-6939714D02*
X5114048Y-6958762D01*
X5114048Y-6958762D02*
X5114048Y-7006381D01*
X5114048Y-7006381D02*
X5104524Y-7025428D01*
X5104524Y-7025428D02*
X5095000Y-7034952D01*
X5095000Y-7034952D02*
X5075953Y-7044476D01*
X5075953Y-7044476D02*
X5028333Y-7044476D01*
X5028333Y-7044476D02*
X5009286Y-7034952D01*
X5009286Y-7034952D02*
X4999762Y-7025428D01*
X5285476Y-6911143D02*
X5285476Y-7044476D01*
X5237857Y-6834952D02*
X5190238Y-6977809D01*
X5190238Y-6977809D02*
X5314048Y-6977809D01*
X5380714Y-6844476D02*
X5380714Y-6882571D01*
X5456905Y-6844476D02*
X5456905Y-6882571D01*
X5719762Y-7120667D02*
X5710238Y-7111143D01*
X5710238Y-7111143D02*
X5691191Y-7082571D01*
X5691191Y-7082571D02*
X5681667Y-7063524D01*
X5681667Y-7063524D02*
X5672143Y-7034952D01*
X5672143Y-7034952D02*
X5662619Y-6987333D01*
X5662619Y-6987333D02*
X5662619Y-6949238D01*
X5662619Y-6949238D02*
X5672143Y-6901619D01*
X5672143Y-6901619D02*
X5681667Y-6873048D01*
X5681667Y-6873048D02*
X5691191Y-6854000D01*
X5691191Y-6854000D02*
X5710238Y-6825428D01*
X5710238Y-6825428D02*
X5719762Y-6815905D01*
X5786429Y-6863524D02*
X5795952Y-6854000D01*
X5795952Y-6854000D02*
X5815000Y-6844476D01*
X5815000Y-6844476D02*
X5862619Y-6844476D01*
X5862619Y-6844476D02*
X5881667Y-6854000D01*
X5881667Y-6854000D02*
X5891191Y-6863524D01*
X5891191Y-6863524D02*
X5900714Y-6882571D01*
X5900714Y-6882571D02*
X5900714Y-6901619D01*
X5900714Y-6901619D02*
X5891191Y-6930190D01*
X5891191Y-6930190D02*
X5776905Y-7044476D01*
X5776905Y-7044476D02*
X5900714Y-7044476D01*
X6106429Y-7044476D02*
X6106429Y-6844476D01*
X6192143Y-7044476D02*
X6192143Y-6939714D01*
X6192143Y-6939714D02*
X6182619Y-6920667D01*
X6182619Y-6920667D02*
X6163572Y-6911143D01*
X6163572Y-6911143D02*
X6135000Y-6911143D01*
X6135000Y-6911143D02*
X6115952Y-6920667D01*
X6115952Y-6920667D02*
X6106429Y-6930190D01*
X6315952Y-7044476D02*
X6296905Y-7034952D01*
X6296905Y-7034952D02*
X6287381Y-7025428D01*
X6287381Y-7025428D02*
X6277857Y-7006381D01*
X6277857Y-7006381D02*
X6277857Y-6949238D01*
X6277857Y-6949238D02*
X6287381Y-6930190D01*
X6287381Y-6930190D02*
X6296905Y-6920667D01*
X6296905Y-6920667D02*
X6315952Y-6911143D01*
X6315952Y-6911143D02*
X6344524Y-6911143D01*
X6344524Y-6911143D02*
X6363572Y-6920667D01*
X6363572Y-6920667D02*
X6373095Y-6930190D01*
X6373095Y-6930190D02*
X6382619Y-6949238D01*
X6382619Y-6949238D02*
X6382619Y-7006381D01*
X6382619Y-7006381D02*
X6373095Y-7025428D01*
X6373095Y-7025428D02*
X6363572Y-7034952D01*
X6363572Y-7034952D02*
X6344524Y-7044476D01*
X6344524Y-7044476D02*
X6315952Y-7044476D01*
X6496905Y-7044476D02*
X6477857Y-7034952D01*
X6477857Y-7034952D02*
X6468333Y-7015905D01*
X6468333Y-7015905D02*
X6468333Y-6844476D01*
X6649286Y-7034952D02*
X6630238Y-7044476D01*
X6630238Y-7044476D02*
X6592143Y-7044476D01*
X6592143Y-7044476D02*
X6573095Y-7034952D01*
X6573095Y-7034952D02*
X6563572Y-7015905D01*
X6563572Y-7015905D02*
X6563572Y-6939714D01*
X6563572Y-6939714D02*
X6573095Y-6920667D01*
X6573095Y-6920667D02*
X6592143Y-6911143D01*
X6592143Y-6911143D02*
X6630238Y-6911143D01*
X6630238Y-6911143D02*
X6649286Y-6920667D01*
X6649286Y-6920667D02*
X6658810Y-6939714D01*
X6658810Y-6939714D02*
X6658810Y-6958762D01*
X6658810Y-6958762D02*
X6563572Y-6977809D01*
X6735000Y-7034952D02*
X6754048Y-7044476D01*
X6754048Y-7044476D02*
X6792143Y-7044476D01*
X6792143Y-7044476D02*
X6811191Y-7034952D01*
X6811191Y-7034952D02*
X6820714Y-7015905D01*
X6820714Y-7015905D02*
X6820714Y-7006381D01*
X6820714Y-7006381D02*
X6811191Y-6987333D01*
X6811191Y-6987333D02*
X6792143Y-6977809D01*
X6792143Y-6977809D02*
X6763572Y-6977809D01*
X6763572Y-6977809D02*
X6744524Y-6968286D01*
X6744524Y-6968286D02*
X6735000Y-6949238D01*
X6735000Y-6949238D02*
X6735000Y-6939714D01*
X6735000Y-6939714D02*
X6744524Y-6920667D01*
X6744524Y-6920667D02*
X6763572Y-6911143D01*
X6763572Y-6911143D02*
X6792143Y-6911143D01*
X6792143Y-6911143D02*
X6811191Y-6920667D01*
X6887381Y-7120667D02*
X6896905Y-7111143D01*
X6896905Y-7111143D02*
X6915953Y-7082571D01*
X6915953Y-7082571D02*
X6925476Y-7063524D01*
X6925476Y-7063524D02*
X6935000Y-7034952D01*
X6935000Y-7034952D02*
X6944524Y-6987333D01*
X6944524Y-6987333D02*
X6944524Y-6949238D01*
X6944524Y-6949238D02*
X6935000Y-6901619D01*
X6935000Y-6901619D02*
X6925476Y-6873048D01*
X6925476Y-6873048D02*
X6915953Y-6854000D01*
X6915953Y-6854000D02*
X6896905Y-6825428D01*
X6896905Y-6825428D02*
X6887381Y-6815905D01*
D10*
X2155000Y-7185000D02*
X2255000Y-7285000D01*
X2255000Y-7185000D02*
X2155000Y-7285000D01*
X2255000Y-7235000D02*
G75*
G03*
X2255000Y-7235000I-50000J0D01*
G01*
D11*
X2607381Y-7308476D02*
X2493095Y-7308476D01*
X2550238Y-7308476D02*
X2550238Y-7108476D01*
X2550238Y-7108476D02*
X2531190Y-7137048D01*
X2531190Y-7137048D02*
X2512143Y-7156095D01*
X2512143Y-7156095D02*
X2493095Y-7165619D01*
X2693095Y-7289428D02*
X2702619Y-7298952D01*
X2702619Y-7298952D02*
X2693095Y-7308476D01*
X2693095Y-7308476D02*
X2683571Y-7298952D01*
X2683571Y-7298952D02*
X2693095Y-7289428D01*
X2693095Y-7289428D02*
X2693095Y-7308476D01*
X2826428Y-7108476D02*
X2845476Y-7108476D01*
X2845476Y-7108476D02*
X2864524Y-7118000D01*
X2864524Y-7118000D02*
X2874048Y-7127524D01*
X2874048Y-7127524D02*
X2883571Y-7146571D01*
X2883571Y-7146571D02*
X2893095Y-7184667D01*
X2893095Y-7184667D02*
X2893095Y-7232286D01*
X2893095Y-7232286D02*
X2883571Y-7270381D01*
X2883571Y-7270381D02*
X2874048Y-7289428D01*
X2874048Y-7289428D02*
X2864524Y-7298952D01*
X2864524Y-7298952D02*
X2845476Y-7308476D01*
X2845476Y-7308476D02*
X2826428Y-7308476D01*
X2826428Y-7308476D02*
X2807381Y-7298952D01*
X2807381Y-7298952D02*
X2797857Y-7289428D01*
X2797857Y-7289428D02*
X2788333Y-7270381D01*
X2788333Y-7270381D02*
X2778810Y-7232286D01*
X2778810Y-7232286D02*
X2778810Y-7184667D01*
X2778810Y-7184667D02*
X2788333Y-7146571D01*
X2788333Y-7146571D02*
X2797857Y-7127524D01*
X2797857Y-7127524D02*
X2807381Y-7118000D01*
X2807381Y-7118000D02*
X2826428Y-7108476D01*
X3016905Y-7108476D02*
X3035952Y-7108476D01*
X3035952Y-7108476D02*
X3055000Y-7118000D01*
X3055000Y-7118000D02*
X3064524Y-7127524D01*
X3064524Y-7127524D02*
X3074048Y-7146571D01*
X3074048Y-7146571D02*
X3083571Y-7184667D01*
X3083571Y-7184667D02*
X3083571Y-7232286D01*
X3083571Y-7232286D02*
X3074048Y-7270381D01*
X3074048Y-7270381D02*
X3064524Y-7289428D01*
X3064524Y-7289428D02*
X3055000Y-7298952D01*
X3055000Y-7298952D02*
X3035952Y-7308476D01*
X3035952Y-7308476D02*
X3016905Y-7308476D01*
X3016905Y-7308476D02*
X2997857Y-7298952D01*
X2997857Y-7298952D02*
X2988333Y-7289428D01*
X2988333Y-7289428D02*
X2978809Y-7270381D01*
X2978809Y-7270381D02*
X2969286Y-7232286D01*
X2969286Y-7232286D02*
X2969286Y-7184667D01*
X2969286Y-7184667D02*
X2978809Y-7146571D01*
X2978809Y-7146571D02*
X2988333Y-7127524D01*
X2988333Y-7127524D02*
X2997857Y-7118000D01*
X2997857Y-7118000D02*
X3016905Y-7108476D01*
X3207381Y-7108476D02*
X3226429Y-7108476D01*
X3226429Y-7108476D02*
X3245476Y-7118000D01*
X3245476Y-7118000D02*
X3255000Y-7127524D01*
X3255000Y-7127524D02*
X3264524Y-7146571D01*
X3264524Y-7146571D02*
X3274048Y-7184667D01*
X3274048Y-7184667D02*
X3274048Y-7232286D01*
X3274048Y-7232286D02*
X3264524Y-7270381D01*
X3264524Y-7270381D02*
X3255000Y-7289428D01*
X3255000Y-7289428D02*
X3245476Y-7298952D01*
X3245476Y-7298952D02*
X3226429Y-7308476D01*
X3226429Y-7308476D02*
X3207381Y-7308476D01*
X3207381Y-7308476D02*
X3188333Y-7298952D01*
X3188333Y-7298952D02*
X3178809Y-7289428D01*
X3178809Y-7289428D02*
X3169286Y-7270381D01*
X3169286Y-7270381D02*
X3159762Y-7232286D01*
X3159762Y-7232286D02*
X3159762Y-7184667D01*
X3159762Y-7184667D02*
X3169286Y-7146571D01*
X3169286Y-7146571D02*
X3178809Y-7127524D01*
X3178809Y-7127524D02*
X3188333Y-7118000D01*
X3188333Y-7118000D02*
X3207381Y-7108476D01*
X3359762Y-7308476D02*
X3359762Y-7175143D01*
X3359762Y-7194190D02*
X3369286Y-7184667D01*
X3369286Y-7184667D02*
X3388333Y-7175143D01*
X3388333Y-7175143D02*
X3416905Y-7175143D01*
X3416905Y-7175143D02*
X3435952Y-7184667D01*
X3435952Y-7184667D02*
X3445476Y-7203714D01*
X3445476Y-7203714D02*
X3445476Y-7308476D01*
X3445476Y-7203714D02*
X3455000Y-7184667D01*
X3455000Y-7184667D02*
X3474048Y-7175143D01*
X3474048Y-7175143D02*
X3502619Y-7175143D01*
X3502619Y-7175143D02*
X3521667Y-7184667D01*
X3521667Y-7184667D02*
X3531190Y-7203714D01*
X3531190Y-7203714D02*
X3531190Y-7308476D01*
X3626429Y-7308476D02*
X3626429Y-7175143D01*
X3626429Y-7194190D02*
X3635952Y-7184667D01*
X3635952Y-7184667D02*
X3655000Y-7175143D01*
X3655000Y-7175143D02*
X3683571Y-7175143D01*
X3683571Y-7175143D02*
X3702619Y-7184667D01*
X3702619Y-7184667D02*
X3712143Y-7203714D01*
X3712143Y-7203714D02*
X3712143Y-7308476D01*
X3712143Y-7203714D02*
X3721667Y-7184667D01*
X3721667Y-7184667D02*
X3740714Y-7175143D01*
X3740714Y-7175143D02*
X3769286Y-7175143D01*
X3769286Y-7175143D02*
X3788333Y-7184667D01*
X3788333Y-7184667D02*
X3797857Y-7203714D01*
X3797857Y-7203714D02*
X3797857Y-7308476D01*
X4155952Y-7098952D02*
X3984524Y-7356095D01*
X4380714Y-7108476D02*
X4399762Y-7108476D01*
X4399762Y-7108476D02*
X4418810Y-7118000D01*
X4418810Y-7118000D02*
X4428333Y-7127524D01*
X4428333Y-7127524D02*
X4437857Y-7146571D01*
X4437857Y-7146571D02*
X4447381Y-7184667D01*
X4447381Y-7184667D02*
X4447381Y-7232286D01*
X4447381Y-7232286D02*
X4437857Y-7270381D01*
X4437857Y-7270381D02*
X4428333Y-7289428D01*
X4428333Y-7289428D02*
X4418810Y-7298952D01*
X4418810Y-7298952D02*
X4399762Y-7308476D01*
X4399762Y-7308476D02*
X4380714Y-7308476D01*
X4380714Y-7308476D02*
X4361667Y-7298952D01*
X4361667Y-7298952D02*
X4352143Y-7289428D01*
X4352143Y-7289428D02*
X4342619Y-7270381D01*
X4342619Y-7270381D02*
X4333095Y-7232286D01*
X4333095Y-7232286D02*
X4333095Y-7184667D01*
X4333095Y-7184667D02*
X4342619Y-7146571D01*
X4342619Y-7146571D02*
X4352143Y-7127524D01*
X4352143Y-7127524D02*
X4361667Y-7118000D01*
X4361667Y-7118000D02*
X4380714Y-7108476D01*
X4533095Y-7289428D02*
X4542619Y-7298952D01*
X4542619Y-7298952D02*
X4533095Y-7308476D01*
X4533095Y-7308476D02*
X4523572Y-7298952D01*
X4523572Y-7298952D02*
X4533095Y-7289428D01*
X4533095Y-7289428D02*
X4533095Y-7308476D01*
X4666429Y-7108476D02*
X4685476Y-7108476D01*
X4685476Y-7108476D02*
X4704524Y-7118000D01*
X4704524Y-7118000D02*
X4714048Y-7127524D01*
X4714048Y-7127524D02*
X4723572Y-7146571D01*
X4723572Y-7146571D02*
X4733095Y-7184667D01*
X4733095Y-7184667D02*
X4733095Y-7232286D01*
X4733095Y-7232286D02*
X4723572Y-7270381D01*
X4723572Y-7270381D02*
X4714048Y-7289428D01*
X4714048Y-7289428D02*
X4704524Y-7298952D01*
X4704524Y-7298952D02*
X4685476Y-7308476D01*
X4685476Y-7308476D02*
X4666429Y-7308476D01*
X4666429Y-7308476D02*
X4647381Y-7298952D01*
X4647381Y-7298952D02*
X4637857Y-7289428D01*
X4637857Y-7289428D02*
X4628333Y-7270381D01*
X4628333Y-7270381D02*
X4618810Y-7232286D01*
X4618810Y-7232286D02*
X4618810Y-7184667D01*
X4618810Y-7184667D02*
X4628333Y-7146571D01*
X4628333Y-7146571D02*
X4637857Y-7127524D01*
X4637857Y-7127524D02*
X4647381Y-7118000D01*
X4647381Y-7118000D02*
X4666429Y-7108476D01*
X4799762Y-7108476D02*
X4923572Y-7108476D01*
X4923572Y-7108476D02*
X4856905Y-7184667D01*
X4856905Y-7184667D02*
X4885476Y-7184667D01*
X4885476Y-7184667D02*
X4904524Y-7194190D01*
X4904524Y-7194190D02*
X4914048Y-7203714D01*
X4914048Y-7203714D02*
X4923572Y-7222762D01*
X4923572Y-7222762D02*
X4923572Y-7270381D01*
X4923572Y-7270381D02*
X4914048Y-7289428D01*
X4914048Y-7289428D02*
X4904524Y-7298952D01*
X4904524Y-7298952D02*
X4885476Y-7308476D01*
X4885476Y-7308476D02*
X4828333Y-7308476D01*
X4828333Y-7308476D02*
X4809286Y-7298952D01*
X4809286Y-7298952D02*
X4799762Y-7289428D01*
X5018810Y-7308476D02*
X5056905Y-7308476D01*
X5056905Y-7308476D02*
X5075953Y-7298952D01*
X5075953Y-7298952D02*
X5085476Y-7289428D01*
X5085476Y-7289428D02*
X5104524Y-7260857D01*
X5104524Y-7260857D02*
X5114048Y-7222762D01*
X5114048Y-7222762D02*
X5114048Y-7146571D01*
X5114048Y-7146571D02*
X5104524Y-7127524D01*
X5104524Y-7127524D02*
X5095000Y-7118000D01*
X5095000Y-7118000D02*
X5075953Y-7108476D01*
X5075953Y-7108476D02*
X5037857Y-7108476D01*
X5037857Y-7108476D02*
X5018810Y-7118000D01*
X5018810Y-7118000D02*
X5009286Y-7127524D01*
X5009286Y-7127524D02*
X4999762Y-7146571D01*
X4999762Y-7146571D02*
X4999762Y-7194190D01*
X4999762Y-7194190D02*
X5009286Y-7213238D01*
X5009286Y-7213238D02*
X5018810Y-7222762D01*
X5018810Y-7222762D02*
X5037857Y-7232286D01*
X5037857Y-7232286D02*
X5075953Y-7232286D01*
X5075953Y-7232286D02*
X5095000Y-7222762D01*
X5095000Y-7222762D02*
X5104524Y-7213238D01*
X5104524Y-7213238D02*
X5114048Y-7194190D01*
X5285476Y-7175143D02*
X5285476Y-7308476D01*
X5237857Y-7098952D02*
X5190238Y-7241809D01*
X5190238Y-7241809D02*
X5314048Y-7241809D01*
X5380714Y-7108476D02*
X5380714Y-7146571D01*
X5456905Y-7108476D02*
X5456905Y-7146571D01*
X5719762Y-7384667D02*
X5710238Y-7375143D01*
X5710238Y-7375143D02*
X5691191Y-7346571D01*
X5691191Y-7346571D02*
X5681667Y-7327524D01*
X5681667Y-7327524D02*
X5672143Y-7298952D01*
X5672143Y-7298952D02*
X5662619Y-7251333D01*
X5662619Y-7251333D02*
X5662619Y-7213238D01*
X5662619Y-7213238D02*
X5672143Y-7165619D01*
X5672143Y-7165619D02*
X5681667Y-7137048D01*
X5681667Y-7137048D02*
X5691191Y-7118000D01*
X5691191Y-7118000D02*
X5710238Y-7089428D01*
X5710238Y-7089428D02*
X5719762Y-7079905D01*
X5776905Y-7108476D02*
X5900714Y-7108476D01*
X5900714Y-7108476D02*
X5834048Y-7184667D01*
X5834048Y-7184667D02*
X5862619Y-7184667D01*
X5862619Y-7184667D02*
X5881667Y-7194190D01*
X5881667Y-7194190D02*
X5891191Y-7203714D01*
X5891191Y-7203714D02*
X5900714Y-7222762D01*
X5900714Y-7222762D02*
X5900714Y-7270381D01*
X5900714Y-7270381D02*
X5891191Y-7289428D01*
X5891191Y-7289428D02*
X5881667Y-7298952D01*
X5881667Y-7298952D02*
X5862619Y-7308476D01*
X5862619Y-7308476D02*
X5805476Y-7308476D01*
X5805476Y-7308476D02*
X5786429Y-7298952D01*
X5786429Y-7298952D02*
X5776905Y-7289428D01*
X6106429Y-7308476D02*
X6106429Y-7108476D01*
X6192143Y-7308476D02*
X6192143Y-7203714D01*
X6192143Y-7203714D02*
X6182619Y-7184667D01*
X6182619Y-7184667D02*
X6163572Y-7175143D01*
X6163572Y-7175143D02*
X6135000Y-7175143D01*
X6135000Y-7175143D02*
X6115952Y-7184667D01*
X6115952Y-7184667D02*
X6106429Y-7194190D01*
X6315952Y-7308476D02*
X6296905Y-7298952D01*
X6296905Y-7298952D02*
X6287381Y-7289428D01*
X6287381Y-7289428D02*
X6277857Y-7270381D01*
X6277857Y-7270381D02*
X6277857Y-7213238D01*
X6277857Y-7213238D02*
X6287381Y-7194190D01*
X6287381Y-7194190D02*
X6296905Y-7184667D01*
X6296905Y-7184667D02*
X6315952Y-7175143D01*
X6315952Y-7175143D02*
X6344524Y-7175143D01*
X6344524Y-7175143D02*
X6363572Y-7184667D01*
X6363572Y-7184667D02*
X6373095Y-7194190D01*
X6373095Y-7194190D02*
X6382619Y-7213238D01*
X6382619Y-7213238D02*
X6382619Y-7270381D01*
X6382619Y-7270381D02*
X6373095Y-7289428D01*
X6373095Y-7289428D02*
X6363572Y-7298952D01*
X6363572Y-7298952D02*
X6344524Y-7308476D01*
X6344524Y-7308476D02*
X6315952Y-7308476D01*
X6496905Y-7308476D02*
X6477857Y-7298952D01*
X6477857Y-7298952D02*
X6468333Y-7279905D01*
X6468333Y-7279905D02*
X6468333Y-7108476D01*
X6649286Y-7298952D02*
X6630238Y-7308476D01*
X6630238Y-7308476D02*
X6592143Y-7308476D01*
X6592143Y-7308476D02*
X6573095Y-7298952D01*
X6573095Y-7298952D02*
X6563572Y-7279905D01*
X6563572Y-7279905D02*
X6563572Y-7203714D01*
X6563572Y-7203714D02*
X6573095Y-7184667D01*
X6573095Y-7184667D02*
X6592143Y-7175143D01*
X6592143Y-7175143D02*
X6630238Y-7175143D01*
X6630238Y-7175143D02*
X6649286Y-7184667D01*
X6649286Y-7184667D02*
X6658810Y-7203714D01*
X6658810Y-7203714D02*
X6658810Y-7222762D01*
X6658810Y-7222762D02*
X6563572Y-7241809D01*
X6735000Y-7298952D02*
X6754048Y-7308476D01*
X6754048Y-7308476D02*
X6792143Y-7308476D01*
X6792143Y-7308476D02*
X6811191Y-7298952D01*
X6811191Y-7298952D02*
X6820714Y-7279905D01*
X6820714Y-7279905D02*
X6820714Y-7270381D01*
X6820714Y-7270381D02*
X6811191Y-7251333D01*
X6811191Y-7251333D02*
X6792143Y-7241809D01*
X6792143Y-7241809D02*
X6763572Y-7241809D01*
X6763572Y-7241809D02*
X6744524Y-7232286D01*
X6744524Y-7232286D02*
X6735000Y-7213238D01*
X6735000Y-7213238D02*
X6735000Y-7203714D01*
X6735000Y-7203714D02*
X6744524Y-7184667D01*
X6744524Y-7184667D02*
X6763572Y-7175143D01*
X6763572Y-7175143D02*
X6792143Y-7175143D01*
X6792143Y-7175143D02*
X6811191Y-7184667D01*
X6887381Y-7384667D02*
X6896905Y-7375143D01*
X6896905Y-7375143D02*
X6915953Y-7346571D01*
X6915953Y-7346571D02*
X6925476Y-7327524D01*
X6925476Y-7327524D02*
X6935000Y-7298952D01*
X6935000Y-7298952D02*
X6944524Y-7251333D01*
X6944524Y-7251333D02*
X6944524Y-7213238D01*
X6944524Y-7213238D02*
X6935000Y-7165619D01*
X6935000Y-7165619D02*
X6925476Y-7137048D01*
X6925476Y-7137048D02*
X6915953Y-7118000D01*
X6915953Y-7118000D02*
X6896905Y-7089428D01*
X6896905Y-7089428D02*
X6887381Y-7079905D01*
D17*
X2153000Y-7448000D02*
X2255000Y-7550000D01*
X2255000Y-7448000D02*
X2153000Y-7550000D01*
X2204000Y-7448000D02*
X2204000Y-7550000D01*
X2153000Y-7499000D02*
X2255000Y-7499000D01*
D11*
X2607381Y-7572476D02*
X2493095Y-7572476D01*
X2550238Y-7572476D02*
X2550238Y-7372476D01*
X2550238Y-7372476D02*
X2531190Y-7401048D01*
X2531190Y-7401048D02*
X2512143Y-7420095D01*
X2512143Y-7420095D02*
X2493095Y-7429619D01*
X2693095Y-7553428D02*
X2702619Y-7562952D01*
X2702619Y-7562952D02*
X2693095Y-7572476D01*
X2693095Y-7572476D02*
X2683571Y-7562952D01*
X2683571Y-7562952D02*
X2693095Y-7553428D01*
X2693095Y-7553428D02*
X2693095Y-7572476D01*
X2826428Y-7372476D02*
X2845476Y-7372476D01*
X2845476Y-7372476D02*
X2864524Y-7382000D01*
X2864524Y-7382000D02*
X2874048Y-7391524D01*
X2874048Y-7391524D02*
X2883571Y-7410571D01*
X2883571Y-7410571D02*
X2893095Y-7448667D01*
X2893095Y-7448667D02*
X2893095Y-7496286D01*
X2893095Y-7496286D02*
X2883571Y-7534381D01*
X2883571Y-7534381D02*
X2874048Y-7553428D01*
X2874048Y-7553428D02*
X2864524Y-7562952D01*
X2864524Y-7562952D02*
X2845476Y-7572476D01*
X2845476Y-7572476D02*
X2826428Y-7572476D01*
X2826428Y-7572476D02*
X2807381Y-7562952D01*
X2807381Y-7562952D02*
X2797857Y-7553428D01*
X2797857Y-7553428D02*
X2788333Y-7534381D01*
X2788333Y-7534381D02*
X2778810Y-7496286D01*
X2778810Y-7496286D02*
X2778810Y-7448667D01*
X2778810Y-7448667D02*
X2788333Y-7410571D01*
X2788333Y-7410571D02*
X2797857Y-7391524D01*
X2797857Y-7391524D02*
X2807381Y-7382000D01*
X2807381Y-7382000D02*
X2826428Y-7372476D01*
X2969286Y-7391524D02*
X2978809Y-7382000D01*
X2978809Y-7382000D02*
X2997857Y-7372476D01*
X2997857Y-7372476D02*
X3045476Y-7372476D01*
X3045476Y-7372476D02*
X3064524Y-7382000D01*
X3064524Y-7382000D02*
X3074048Y-7391524D01*
X3074048Y-7391524D02*
X3083571Y-7410571D01*
X3083571Y-7410571D02*
X3083571Y-7429619D01*
X3083571Y-7429619D02*
X3074048Y-7458190D01*
X3074048Y-7458190D02*
X2959762Y-7572476D01*
X2959762Y-7572476D02*
X3083571Y-7572476D01*
X3207381Y-7372476D02*
X3226429Y-7372476D01*
X3226429Y-7372476D02*
X3245476Y-7382000D01*
X3245476Y-7382000D02*
X3255000Y-7391524D01*
X3255000Y-7391524D02*
X3264524Y-7410571D01*
X3264524Y-7410571D02*
X3274048Y-7448667D01*
X3274048Y-7448667D02*
X3274048Y-7496286D01*
X3274048Y-7496286D02*
X3264524Y-7534381D01*
X3264524Y-7534381D02*
X3255000Y-7553428D01*
X3255000Y-7553428D02*
X3245476Y-7562952D01*
X3245476Y-7562952D02*
X3226429Y-7572476D01*
X3226429Y-7572476D02*
X3207381Y-7572476D01*
X3207381Y-7572476D02*
X3188333Y-7562952D01*
X3188333Y-7562952D02*
X3178809Y-7553428D01*
X3178809Y-7553428D02*
X3169286Y-7534381D01*
X3169286Y-7534381D02*
X3159762Y-7496286D01*
X3159762Y-7496286D02*
X3159762Y-7448667D01*
X3159762Y-7448667D02*
X3169286Y-7410571D01*
X3169286Y-7410571D02*
X3178809Y-7391524D01*
X3178809Y-7391524D02*
X3188333Y-7382000D01*
X3188333Y-7382000D02*
X3207381Y-7372476D01*
X3359762Y-7572476D02*
X3359762Y-7439143D01*
X3359762Y-7458190D02*
X3369286Y-7448667D01*
X3369286Y-7448667D02*
X3388333Y-7439143D01*
X3388333Y-7439143D02*
X3416905Y-7439143D01*
X3416905Y-7439143D02*
X3435952Y-7448667D01*
X3435952Y-7448667D02*
X3445476Y-7467714D01*
X3445476Y-7467714D02*
X3445476Y-7572476D01*
X3445476Y-7467714D02*
X3455000Y-7448667D01*
X3455000Y-7448667D02*
X3474048Y-7439143D01*
X3474048Y-7439143D02*
X3502619Y-7439143D01*
X3502619Y-7439143D02*
X3521667Y-7448667D01*
X3521667Y-7448667D02*
X3531190Y-7467714D01*
X3531190Y-7467714D02*
X3531190Y-7572476D01*
X3626429Y-7572476D02*
X3626429Y-7439143D01*
X3626429Y-7458190D02*
X3635952Y-7448667D01*
X3635952Y-7448667D02*
X3655000Y-7439143D01*
X3655000Y-7439143D02*
X3683571Y-7439143D01*
X3683571Y-7439143D02*
X3702619Y-7448667D01*
X3702619Y-7448667D02*
X3712143Y-7467714D01*
X3712143Y-7467714D02*
X3712143Y-7572476D01*
X3712143Y-7467714D02*
X3721667Y-7448667D01*
X3721667Y-7448667D02*
X3740714Y-7439143D01*
X3740714Y-7439143D02*
X3769286Y-7439143D01*
X3769286Y-7439143D02*
X3788333Y-7448667D01*
X3788333Y-7448667D02*
X3797857Y-7467714D01*
X3797857Y-7467714D02*
X3797857Y-7572476D01*
X4155952Y-7362952D02*
X3984524Y-7620095D01*
X4380714Y-7372476D02*
X4399762Y-7372476D01*
X4399762Y-7372476D02*
X4418810Y-7382000D01*
X4418810Y-7382000D02*
X4428333Y-7391524D01*
X4428333Y-7391524D02*
X4437857Y-7410571D01*
X4437857Y-7410571D02*
X4447381Y-7448667D01*
X4447381Y-7448667D02*
X4447381Y-7496286D01*
X4447381Y-7496286D02*
X4437857Y-7534381D01*
X4437857Y-7534381D02*
X4428333Y-7553428D01*
X4428333Y-7553428D02*
X4418810Y-7562952D01*
X4418810Y-7562952D02*
X4399762Y-7572476D01*
X4399762Y-7572476D02*
X4380714Y-7572476D01*
X4380714Y-7572476D02*
X4361667Y-7562952D01*
X4361667Y-7562952D02*
X4352143Y-7553428D01*
X4352143Y-7553428D02*
X4342619Y-7534381D01*
X4342619Y-7534381D02*
X4333095Y-7496286D01*
X4333095Y-7496286D02*
X4333095Y-7448667D01*
X4333095Y-7448667D02*
X4342619Y-7410571D01*
X4342619Y-7410571D02*
X4352143Y-7391524D01*
X4352143Y-7391524D02*
X4361667Y-7382000D01*
X4361667Y-7382000D02*
X4380714Y-7372476D01*
X4533095Y-7553428D02*
X4542619Y-7562952D01*
X4542619Y-7562952D02*
X4533095Y-7572476D01*
X4533095Y-7572476D02*
X4523572Y-7562952D01*
X4523572Y-7562952D02*
X4533095Y-7553428D01*
X4533095Y-7553428D02*
X4533095Y-7572476D01*
X4666429Y-7372476D02*
X4685476Y-7372476D01*
X4685476Y-7372476D02*
X4704524Y-7382000D01*
X4704524Y-7382000D02*
X4714048Y-7391524D01*
X4714048Y-7391524D02*
X4723572Y-7410571D01*
X4723572Y-7410571D02*
X4733095Y-7448667D01*
X4733095Y-7448667D02*
X4733095Y-7496286D01*
X4733095Y-7496286D02*
X4723572Y-7534381D01*
X4723572Y-7534381D02*
X4714048Y-7553428D01*
X4714048Y-7553428D02*
X4704524Y-7562952D01*
X4704524Y-7562952D02*
X4685476Y-7572476D01*
X4685476Y-7572476D02*
X4666429Y-7572476D01*
X4666429Y-7572476D02*
X4647381Y-7562952D01*
X4647381Y-7562952D02*
X4637857Y-7553428D01*
X4637857Y-7553428D02*
X4628333Y-7534381D01*
X4628333Y-7534381D02*
X4618810Y-7496286D01*
X4618810Y-7496286D02*
X4618810Y-7448667D01*
X4618810Y-7448667D02*
X4628333Y-7410571D01*
X4628333Y-7410571D02*
X4637857Y-7391524D01*
X4637857Y-7391524D02*
X4647381Y-7382000D01*
X4647381Y-7382000D02*
X4666429Y-7372476D01*
X4904524Y-7439143D02*
X4904524Y-7572476D01*
X4856905Y-7362952D02*
X4809286Y-7505809D01*
X4809286Y-7505809D02*
X4933095Y-7505809D01*
X5047381Y-7372476D02*
X5066429Y-7372476D01*
X5066429Y-7372476D02*
X5085476Y-7382000D01*
X5085476Y-7382000D02*
X5095000Y-7391524D01*
X5095000Y-7391524D02*
X5104524Y-7410571D01*
X5104524Y-7410571D02*
X5114048Y-7448667D01*
X5114048Y-7448667D02*
X5114048Y-7496286D01*
X5114048Y-7496286D02*
X5104524Y-7534381D01*
X5104524Y-7534381D02*
X5095000Y-7553428D01*
X5095000Y-7553428D02*
X5085476Y-7562952D01*
X5085476Y-7562952D02*
X5066429Y-7572476D01*
X5066429Y-7572476D02*
X5047381Y-7572476D01*
X5047381Y-7572476D02*
X5028333Y-7562952D01*
X5028333Y-7562952D02*
X5018810Y-7553428D01*
X5018810Y-7553428D02*
X5009286Y-7534381D01*
X5009286Y-7534381D02*
X4999762Y-7496286D01*
X4999762Y-7496286D02*
X4999762Y-7448667D01*
X4999762Y-7448667D02*
X5009286Y-7410571D01*
X5009286Y-7410571D02*
X5018810Y-7391524D01*
X5018810Y-7391524D02*
X5028333Y-7382000D01*
X5028333Y-7382000D02*
X5047381Y-7372476D01*
X5190238Y-7391524D02*
X5199762Y-7382000D01*
X5199762Y-7382000D02*
X5218810Y-7372476D01*
X5218810Y-7372476D02*
X5266429Y-7372476D01*
X5266429Y-7372476D02*
X5285476Y-7382000D01*
X5285476Y-7382000D02*
X5295000Y-7391524D01*
X5295000Y-7391524D02*
X5304524Y-7410571D01*
X5304524Y-7410571D02*
X5304524Y-7429619D01*
X5304524Y-7429619D02*
X5295000Y-7458190D01*
X5295000Y-7458190D02*
X5180714Y-7572476D01*
X5180714Y-7572476D02*
X5304524Y-7572476D01*
X5380714Y-7372476D02*
X5380714Y-7410571D01*
X5456905Y-7372476D02*
X5456905Y-7410571D01*
X5719762Y-7648667D02*
X5710238Y-7639143D01*
X5710238Y-7639143D02*
X5691191Y-7610571D01*
X5691191Y-7610571D02*
X5681667Y-7591524D01*
X5681667Y-7591524D02*
X5672143Y-7562952D01*
X5672143Y-7562952D02*
X5662619Y-7515333D01*
X5662619Y-7515333D02*
X5662619Y-7477238D01*
X5662619Y-7477238D02*
X5672143Y-7429619D01*
X5672143Y-7429619D02*
X5681667Y-7401048D01*
X5681667Y-7401048D02*
X5691191Y-7382000D01*
X5691191Y-7382000D02*
X5710238Y-7353428D01*
X5710238Y-7353428D02*
X5719762Y-7343905D01*
X5776905Y-7372476D02*
X5900714Y-7372476D01*
X5900714Y-7372476D02*
X5834048Y-7448667D01*
X5834048Y-7448667D02*
X5862619Y-7448667D01*
X5862619Y-7448667D02*
X5881667Y-7458190D01*
X5881667Y-7458190D02*
X5891191Y-7467714D01*
X5891191Y-7467714D02*
X5900714Y-7486762D01*
X5900714Y-7486762D02*
X5900714Y-7534381D01*
X5900714Y-7534381D02*
X5891191Y-7553428D01*
X5891191Y-7553428D02*
X5881667Y-7562952D01*
X5881667Y-7562952D02*
X5862619Y-7572476D01*
X5862619Y-7572476D02*
X5805476Y-7572476D01*
X5805476Y-7572476D02*
X5786429Y-7562952D01*
X5786429Y-7562952D02*
X5776905Y-7553428D01*
X6024524Y-7372476D02*
X6043572Y-7372476D01*
X6043572Y-7372476D02*
X6062619Y-7382000D01*
X6062619Y-7382000D02*
X6072143Y-7391524D01*
X6072143Y-7391524D02*
X6081667Y-7410571D01*
X6081667Y-7410571D02*
X6091191Y-7448667D01*
X6091191Y-7448667D02*
X6091191Y-7496286D01*
X6091191Y-7496286D02*
X6081667Y-7534381D01*
X6081667Y-7534381D02*
X6072143Y-7553428D01*
X6072143Y-7553428D02*
X6062619Y-7562952D01*
X6062619Y-7562952D02*
X6043572Y-7572476D01*
X6043572Y-7572476D02*
X6024524Y-7572476D01*
X6024524Y-7572476D02*
X6005476Y-7562952D01*
X6005476Y-7562952D02*
X5995952Y-7553428D01*
X5995952Y-7553428D02*
X5986429Y-7534381D01*
X5986429Y-7534381D02*
X5976905Y-7496286D01*
X5976905Y-7496286D02*
X5976905Y-7448667D01*
X5976905Y-7448667D02*
X5986429Y-7410571D01*
X5986429Y-7410571D02*
X5995952Y-7391524D01*
X5995952Y-7391524D02*
X6005476Y-7382000D01*
X6005476Y-7382000D02*
X6024524Y-7372476D01*
X6296905Y-7572476D02*
X6296905Y-7372476D01*
X6382619Y-7572476D02*
X6382619Y-7467714D01*
X6382619Y-7467714D02*
X6373095Y-7448667D01*
X6373095Y-7448667D02*
X6354048Y-7439143D01*
X6354048Y-7439143D02*
X6325476Y-7439143D01*
X6325476Y-7439143D02*
X6306429Y-7448667D01*
X6306429Y-7448667D02*
X6296905Y-7458190D01*
X6506429Y-7572476D02*
X6487381Y-7562952D01*
X6487381Y-7562952D02*
X6477857Y-7553428D01*
X6477857Y-7553428D02*
X6468333Y-7534381D01*
X6468333Y-7534381D02*
X6468333Y-7477238D01*
X6468333Y-7477238D02*
X6477857Y-7458190D01*
X6477857Y-7458190D02*
X6487381Y-7448667D01*
X6487381Y-7448667D02*
X6506429Y-7439143D01*
X6506429Y-7439143D02*
X6535000Y-7439143D01*
X6535000Y-7439143D02*
X6554048Y-7448667D01*
X6554048Y-7448667D02*
X6563572Y-7458190D01*
X6563572Y-7458190D02*
X6573095Y-7477238D01*
X6573095Y-7477238D02*
X6573095Y-7534381D01*
X6573095Y-7534381D02*
X6563572Y-7553428D01*
X6563572Y-7553428D02*
X6554048Y-7562952D01*
X6554048Y-7562952D02*
X6535000Y-7572476D01*
X6535000Y-7572476D02*
X6506429Y-7572476D01*
X6687381Y-7572476D02*
X6668333Y-7562952D01*
X6668333Y-7562952D02*
X6658810Y-7543905D01*
X6658810Y-7543905D02*
X6658810Y-7372476D01*
X6839762Y-7562952D02*
X6820714Y-7572476D01*
X6820714Y-7572476D02*
X6782619Y-7572476D01*
X6782619Y-7572476D02*
X6763572Y-7562952D01*
X6763572Y-7562952D02*
X6754048Y-7543905D01*
X6754048Y-7543905D02*
X6754048Y-7467714D01*
X6754048Y-7467714D02*
X6763572Y-7448667D01*
X6763572Y-7448667D02*
X6782619Y-7439143D01*
X6782619Y-7439143D02*
X6820714Y-7439143D01*
X6820714Y-7439143D02*
X6839762Y-7448667D01*
X6839762Y-7448667D02*
X6849286Y-7467714D01*
X6849286Y-7467714D02*
X6849286Y-7486762D01*
X6849286Y-7486762D02*
X6754048Y-7505809D01*
X6925476Y-7562952D02*
X6944524Y-7572476D01*
X6944524Y-7572476D02*
X6982619Y-7572476D01*
X6982619Y-7572476D02*
X7001667Y-7562952D01*
X7001667Y-7562952D02*
X7011191Y-7543905D01*
X7011191Y-7543905D02*
X7011191Y-7534381D01*
X7011191Y-7534381D02*
X7001667Y-7515333D01*
X7001667Y-7515333D02*
X6982619Y-7505809D01*
X6982619Y-7505809D02*
X6954048Y-7505809D01*
X6954048Y-7505809D02*
X6935000Y-7496286D01*
X6935000Y-7496286D02*
X6925476Y-7477238D01*
X6925476Y-7477238D02*
X6925476Y-7467714D01*
X6925476Y-7467714D02*
X6935000Y-7448667D01*
X6935000Y-7448667D02*
X6954048Y-7439143D01*
X6954048Y-7439143D02*
X6982619Y-7439143D01*
X6982619Y-7439143D02*
X7001667Y-7448667D01*
X7077857Y-7648667D02*
X7087381Y-7639143D01*
X7087381Y-7639143D02*
X7106429Y-7610571D01*
X7106429Y-7610571D02*
X7115953Y-7591524D01*
X7115953Y-7591524D02*
X7125476Y-7562952D01*
X7125476Y-7562952D02*
X7135000Y-7515333D01*
X7135000Y-7515333D02*
X7135000Y-7477238D01*
X7135000Y-7477238D02*
X7125476Y-7429619D01*
X7125476Y-7429619D02*
X7115953Y-7401048D01*
X7115953Y-7401048D02*
X7106429Y-7382000D01*
X7106429Y-7382000D02*
X7087381Y-7353428D01*
X7087381Y-7353428D02*
X7077857Y-7343905D01*
D18*
X2095000Y-7683000D02*
X2255000Y-7843000D01*
X2255000Y-7683000D02*
X2095000Y-7843000D01*
X2231569Y-7819569D02*
X2231569Y-7706431D01*
X2118431Y-7706431D01*
X2118431Y-7819569D01*
X2231569Y-7819569D01*
D11*
X2607381Y-7836476D02*
X2493095Y-7836476D01*
X2550238Y-7836476D02*
X2550238Y-7636476D01*
X2550238Y-7636476D02*
X2531190Y-7665048D01*
X2531190Y-7665048D02*
X2512143Y-7684095D01*
X2512143Y-7684095D02*
X2493095Y-7693619D01*
X2693095Y-7817428D02*
X2702619Y-7826952D01*
X2702619Y-7826952D02*
X2693095Y-7836476D01*
X2693095Y-7836476D02*
X2683571Y-7826952D01*
X2683571Y-7826952D02*
X2693095Y-7817428D01*
X2693095Y-7817428D02*
X2693095Y-7836476D01*
X2874048Y-7636476D02*
X2835952Y-7636476D01*
X2835952Y-7636476D02*
X2816905Y-7646000D01*
X2816905Y-7646000D02*
X2807381Y-7655524D01*
X2807381Y-7655524D02*
X2788333Y-7684095D01*
X2788333Y-7684095D02*
X2778810Y-7722190D01*
X2778810Y-7722190D02*
X2778810Y-7798381D01*
X2778810Y-7798381D02*
X2788333Y-7817428D01*
X2788333Y-7817428D02*
X2797857Y-7826952D01*
X2797857Y-7826952D02*
X2816905Y-7836476D01*
X2816905Y-7836476D02*
X2855000Y-7836476D01*
X2855000Y-7836476D02*
X2874048Y-7826952D01*
X2874048Y-7826952D02*
X2883571Y-7817428D01*
X2883571Y-7817428D02*
X2893095Y-7798381D01*
X2893095Y-7798381D02*
X2893095Y-7750762D01*
X2893095Y-7750762D02*
X2883571Y-7731714D01*
X2883571Y-7731714D02*
X2874048Y-7722190D01*
X2874048Y-7722190D02*
X2855000Y-7712667D01*
X2855000Y-7712667D02*
X2816905Y-7712667D01*
X2816905Y-7712667D02*
X2797857Y-7722190D01*
X2797857Y-7722190D02*
X2788333Y-7731714D01*
X2788333Y-7731714D02*
X2778810Y-7750762D01*
X3016905Y-7636476D02*
X3035952Y-7636476D01*
X3035952Y-7636476D02*
X3055000Y-7646000D01*
X3055000Y-7646000D02*
X3064524Y-7655524D01*
X3064524Y-7655524D02*
X3074048Y-7674571D01*
X3074048Y-7674571D02*
X3083571Y-7712667D01*
X3083571Y-7712667D02*
X3083571Y-7760286D01*
X3083571Y-7760286D02*
X3074048Y-7798381D01*
X3074048Y-7798381D02*
X3064524Y-7817428D01*
X3064524Y-7817428D02*
X3055000Y-7826952D01*
X3055000Y-7826952D02*
X3035952Y-7836476D01*
X3035952Y-7836476D02*
X3016905Y-7836476D01*
X3016905Y-7836476D02*
X2997857Y-7826952D01*
X2997857Y-7826952D02*
X2988333Y-7817428D01*
X2988333Y-7817428D02*
X2978809Y-7798381D01*
X2978809Y-7798381D02*
X2969286Y-7760286D01*
X2969286Y-7760286D02*
X2969286Y-7712667D01*
X2969286Y-7712667D02*
X2978809Y-7674571D01*
X2978809Y-7674571D02*
X2988333Y-7655524D01*
X2988333Y-7655524D02*
X2997857Y-7646000D01*
X2997857Y-7646000D02*
X3016905Y-7636476D01*
X3207381Y-7636476D02*
X3226429Y-7636476D01*
X3226429Y-7636476D02*
X3245476Y-7646000D01*
X3245476Y-7646000D02*
X3255000Y-7655524D01*
X3255000Y-7655524D02*
X3264524Y-7674571D01*
X3264524Y-7674571D02*
X3274048Y-7712667D01*
X3274048Y-7712667D02*
X3274048Y-7760286D01*
X3274048Y-7760286D02*
X3264524Y-7798381D01*
X3264524Y-7798381D02*
X3255000Y-7817428D01*
X3255000Y-7817428D02*
X3245476Y-7826952D01*
X3245476Y-7826952D02*
X3226429Y-7836476D01*
X3226429Y-7836476D02*
X3207381Y-7836476D01*
X3207381Y-7836476D02*
X3188333Y-7826952D01*
X3188333Y-7826952D02*
X3178809Y-7817428D01*
X3178809Y-7817428D02*
X3169286Y-7798381D01*
X3169286Y-7798381D02*
X3159762Y-7760286D01*
X3159762Y-7760286D02*
X3159762Y-7712667D01*
X3159762Y-7712667D02*
X3169286Y-7674571D01*
X3169286Y-7674571D02*
X3178809Y-7655524D01*
X3178809Y-7655524D02*
X3188333Y-7646000D01*
X3188333Y-7646000D02*
X3207381Y-7636476D01*
X3359762Y-7836476D02*
X3359762Y-7703143D01*
X3359762Y-7722190D02*
X3369286Y-7712667D01*
X3369286Y-7712667D02*
X3388333Y-7703143D01*
X3388333Y-7703143D02*
X3416905Y-7703143D01*
X3416905Y-7703143D02*
X3435952Y-7712667D01*
X3435952Y-7712667D02*
X3445476Y-7731714D01*
X3445476Y-7731714D02*
X3445476Y-7836476D01*
X3445476Y-7731714D02*
X3455000Y-7712667D01*
X3455000Y-7712667D02*
X3474048Y-7703143D01*
X3474048Y-7703143D02*
X3502619Y-7703143D01*
X3502619Y-7703143D02*
X3521667Y-7712667D01*
X3521667Y-7712667D02*
X3531190Y-7731714D01*
X3531190Y-7731714D02*
X3531190Y-7836476D01*
X3626429Y-7836476D02*
X3626429Y-7703143D01*
X3626429Y-7722190D02*
X3635952Y-7712667D01*
X3635952Y-7712667D02*
X3655000Y-7703143D01*
X3655000Y-7703143D02*
X3683571Y-7703143D01*
X3683571Y-7703143D02*
X3702619Y-7712667D01*
X3702619Y-7712667D02*
X3712143Y-7731714D01*
X3712143Y-7731714D02*
X3712143Y-7836476D01*
X3712143Y-7731714D02*
X3721667Y-7712667D01*
X3721667Y-7712667D02*
X3740714Y-7703143D01*
X3740714Y-7703143D02*
X3769286Y-7703143D01*
X3769286Y-7703143D02*
X3788333Y-7712667D01*
X3788333Y-7712667D02*
X3797857Y-7731714D01*
X3797857Y-7731714D02*
X3797857Y-7836476D01*
X4155952Y-7626952D02*
X3984524Y-7884095D01*
X4380714Y-7636476D02*
X4399762Y-7636476D01*
X4399762Y-7636476D02*
X4418810Y-7646000D01*
X4418810Y-7646000D02*
X4428333Y-7655524D01*
X4428333Y-7655524D02*
X4437857Y-7674571D01*
X4437857Y-7674571D02*
X4447381Y-7712667D01*
X4447381Y-7712667D02*
X4447381Y-7760286D01*
X4447381Y-7760286D02*
X4437857Y-7798381D01*
X4437857Y-7798381D02*
X4428333Y-7817428D01*
X4428333Y-7817428D02*
X4418810Y-7826952D01*
X4418810Y-7826952D02*
X4399762Y-7836476D01*
X4399762Y-7836476D02*
X4380714Y-7836476D01*
X4380714Y-7836476D02*
X4361667Y-7826952D01*
X4361667Y-7826952D02*
X4352143Y-7817428D01*
X4352143Y-7817428D02*
X4342619Y-7798381D01*
X4342619Y-7798381D02*
X4333095Y-7760286D01*
X4333095Y-7760286D02*
X4333095Y-7712667D01*
X4333095Y-7712667D02*
X4342619Y-7674571D01*
X4342619Y-7674571D02*
X4352143Y-7655524D01*
X4352143Y-7655524D02*
X4361667Y-7646000D01*
X4361667Y-7646000D02*
X4380714Y-7636476D01*
X4533095Y-7817428D02*
X4542619Y-7826952D01*
X4542619Y-7826952D02*
X4533095Y-7836476D01*
X4533095Y-7836476D02*
X4523572Y-7826952D01*
X4523572Y-7826952D02*
X4533095Y-7817428D01*
X4533095Y-7817428D02*
X4533095Y-7836476D01*
X4666429Y-7636476D02*
X4685476Y-7636476D01*
X4685476Y-7636476D02*
X4704524Y-7646000D01*
X4704524Y-7646000D02*
X4714048Y-7655524D01*
X4714048Y-7655524D02*
X4723572Y-7674571D01*
X4723572Y-7674571D02*
X4733095Y-7712667D01*
X4733095Y-7712667D02*
X4733095Y-7760286D01*
X4733095Y-7760286D02*
X4723572Y-7798381D01*
X4723572Y-7798381D02*
X4714048Y-7817428D01*
X4714048Y-7817428D02*
X4704524Y-7826952D01*
X4704524Y-7826952D02*
X4685476Y-7836476D01*
X4685476Y-7836476D02*
X4666429Y-7836476D01*
X4666429Y-7836476D02*
X4647381Y-7826952D01*
X4647381Y-7826952D02*
X4637857Y-7817428D01*
X4637857Y-7817428D02*
X4628333Y-7798381D01*
X4628333Y-7798381D02*
X4618810Y-7760286D01*
X4618810Y-7760286D02*
X4618810Y-7712667D01*
X4618810Y-7712667D02*
X4628333Y-7674571D01*
X4628333Y-7674571D02*
X4637857Y-7655524D01*
X4637857Y-7655524D02*
X4647381Y-7646000D01*
X4647381Y-7646000D02*
X4666429Y-7636476D01*
X4904524Y-7636476D02*
X4866429Y-7636476D01*
X4866429Y-7636476D02*
X4847381Y-7646000D01*
X4847381Y-7646000D02*
X4837857Y-7655524D01*
X4837857Y-7655524D02*
X4818810Y-7684095D01*
X4818810Y-7684095D02*
X4809286Y-7722190D01*
X4809286Y-7722190D02*
X4809286Y-7798381D01*
X4809286Y-7798381D02*
X4818810Y-7817428D01*
X4818810Y-7817428D02*
X4828333Y-7826952D01*
X4828333Y-7826952D02*
X4847381Y-7836476D01*
X4847381Y-7836476D02*
X4885476Y-7836476D01*
X4885476Y-7836476D02*
X4904524Y-7826952D01*
X4904524Y-7826952D02*
X4914048Y-7817428D01*
X4914048Y-7817428D02*
X4923572Y-7798381D01*
X4923572Y-7798381D02*
X4923572Y-7750762D01*
X4923572Y-7750762D02*
X4914048Y-7731714D01*
X4914048Y-7731714D02*
X4904524Y-7722190D01*
X4904524Y-7722190D02*
X4885476Y-7712667D01*
X4885476Y-7712667D02*
X4847381Y-7712667D01*
X4847381Y-7712667D02*
X4828333Y-7722190D01*
X4828333Y-7722190D02*
X4818810Y-7731714D01*
X4818810Y-7731714D02*
X4809286Y-7750762D01*
X4990238Y-7636476D02*
X5114048Y-7636476D01*
X5114048Y-7636476D02*
X5047381Y-7712667D01*
X5047381Y-7712667D02*
X5075953Y-7712667D01*
X5075953Y-7712667D02*
X5095000Y-7722190D01*
X5095000Y-7722190D02*
X5104524Y-7731714D01*
X5104524Y-7731714D02*
X5114048Y-7750762D01*
X5114048Y-7750762D02*
X5114048Y-7798381D01*
X5114048Y-7798381D02*
X5104524Y-7817428D01*
X5104524Y-7817428D02*
X5095000Y-7826952D01*
X5095000Y-7826952D02*
X5075953Y-7836476D01*
X5075953Y-7836476D02*
X5018810Y-7836476D01*
X5018810Y-7836476D02*
X4999762Y-7826952D01*
X4999762Y-7826952D02*
X4990238Y-7817428D01*
X5237857Y-7636476D02*
X5256905Y-7636476D01*
X5256905Y-7636476D02*
X5275953Y-7646000D01*
X5275953Y-7646000D02*
X5285476Y-7655524D01*
X5285476Y-7655524D02*
X5295000Y-7674571D01*
X5295000Y-7674571D02*
X5304524Y-7712667D01*
X5304524Y-7712667D02*
X5304524Y-7760286D01*
X5304524Y-7760286D02*
X5295000Y-7798381D01*
X5295000Y-7798381D02*
X5285476Y-7817428D01*
X5285476Y-7817428D02*
X5275953Y-7826952D01*
X5275953Y-7826952D02*
X5256905Y-7836476D01*
X5256905Y-7836476D02*
X5237857Y-7836476D01*
X5237857Y-7836476D02*
X5218810Y-7826952D01*
X5218810Y-7826952D02*
X5209286Y-7817428D01*
X5209286Y-7817428D02*
X5199762Y-7798381D01*
X5199762Y-7798381D02*
X5190238Y-7760286D01*
X5190238Y-7760286D02*
X5190238Y-7712667D01*
X5190238Y-7712667D02*
X5199762Y-7674571D01*
X5199762Y-7674571D02*
X5209286Y-7655524D01*
X5209286Y-7655524D02*
X5218810Y-7646000D01*
X5218810Y-7646000D02*
X5237857Y-7636476D01*
X5380714Y-7636476D02*
X5380714Y-7674571D01*
X5456905Y-7636476D02*
X5456905Y-7674571D01*
X5719762Y-7912667D02*
X5710238Y-7903143D01*
X5710238Y-7903143D02*
X5691191Y-7874571D01*
X5691191Y-7874571D02*
X5681667Y-7855524D01*
X5681667Y-7855524D02*
X5672143Y-7826952D01*
X5672143Y-7826952D02*
X5662619Y-7779333D01*
X5662619Y-7779333D02*
X5662619Y-7741238D01*
X5662619Y-7741238D02*
X5672143Y-7693619D01*
X5672143Y-7693619D02*
X5681667Y-7665048D01*
X5681667Y-7665048D02*
X5691191Y-7646000D01*
X5691191Y-7646000D02*
X5710238Y-7617428D01*
X5710238Y-7617428D02*
X5719762Y-7607905D01*
X5786429Y-7655524D02*
X5795952Y-7646000D01*
X5795952Y-7646000D02*
X5815000Y-7636476D01*
X5815000Y-7636476D02*
X5862619Y-7636476D01*
X5862619Y-7636476D02*
X5881667Y-7646000D01*
X5881667Y-7646000D02*
X5891191Y-7655524D01*
X5891191Y-7655524D02*
X5900714Y-7674571D01*
X5900714Y-7674571D02*
X5900714Y-7693619D01*
X5900714Y-7693619D02*
X5891191Y-7722190D01*
X5891191Y-7722190D02*
X5776905Y-7836476D01*
X5776905Y-7836476D02*
X5900714Y-7836476D01*
X6106429Y-7836476D02*
X6106429Y-7636476D01*
X6192143Y-7836476D02*
X6192143Y-7731714D01*
X6192143Y-7731714D02*
X6182619Y-7712667D01*
X6182619Y-7712667D02*
X6163572Y-7703143D01*
X6163572Y-7703143D02*
X6135000Y-7703143D01*
X6135000Y-7703143D02*
X6115952Y-7712667D01*
X6115952Y-7712667D02*
X6106429Y-7722190D01*
X6315952Y-7836476D02*
X6296905Y-7826952D01*
X6296905Y-7826952D02*
X6287381Y-7817428D01*
X6287381Y-7817428D02*
X6277857Y-7798381D01*
X6277857Y-7798381D02*
X6277857Y-7741238D01*
X6277857Y-7741238D02*
X6287381Y-7722190D01*
X6287381Y-7722190D02*
X6296905Y-7712667D01*
X6296905Y-7712667D02*
X6315952Y-7703143D01*
X6315952Y-7703143D02*
X6344524Y-7703143D01*
X6344524Y-7703143D02*
X6363572Y-7712667D01*
X6363572Y-7712667D02*
X6373095Y-7722190D01*
X6373095Y-7722190D02*
X6382619Y-7741238D01*
X6382619Y-7741238D02*
X6382619Y-7798381D01*
X6382619Y-7798381D02*
X6373095Y-7817428D01*
X6373095Y-7817428D02*
X6363572Y-7826952D01*
X6363572Y-7826952D02*
X6344524Y-7836476D01*
X6344524Y-7836476D02*
X6315952Y-7836476D01*
X6496905Y-7836476D02*
X6477857Y-7826952D01*
X6477857Y-7826952D02*
X6468333Y-7807905D01*
X6468333Y-7807905D02*
X6468333Y-7636476D01*
X6649286Y-7826952D02*
X6630238Y-7836476D01*
X6630238Y-7836476D02*
X6592143Y-7836476D01*
X6592143Y-7836476D02*
X6573095Y-7826952D01*
X6573095Y-7826952D02*
X6563572Y-7807905D01*
X6563572Y-7807905D02*
X6563572Y-7731714D01*
X6563572Y-7731714D02*
X6573095Y-7712667D01*
X6573095Y-7712667D02*
X6592143Y-7703143D01*
X6592143Y-7703143D02*
X6630238Y-7703143D01*
X6630238Y-7703143D02*
X6649286Y-7712667D01*
X6649286Y-7712667D02*
X6658810Y-7731714D01*
X6658810Y-7731714D02*
X6658810Y-7750762D01*
X6658810Y-7750762D02*
X6563572Y-7769809D01*
X6735000Y-7826952D02*
X6754048Y-7836476D01*
X6754048Y-7836476D02*
X6792143Y-7836476D01*
X6792143Y-7836476D02*
X6811191Y-7826952D01*
X6811191Y-7826952D02*
X6820714Y-7807905D01*
X6820714Y-7807905D02*
X6820714Y-7798381D01*
X6820714Y-7798381D02*
X6811191Y-7779333D01*
X6811191Y-7779333D02*
X6792143Y-7769809D01*
X6792143Y-7769809D02*
X6763572Y-7769809D01*
X6763572Y-7769809D02*
X6744524Y-7760286D01*
X6744524Y-7760286D02*
X6735000Y-7741238D01*
X6735000Y-7741238D02*
X6735000Y-7731714D01*
X6735000Y-7731714D02*
X6744524Y-7712667D01*
X6744524Y-7712667D02*
X6763572Y-7703143D01*
X6763572Y-7703143D02*
X6792143Y-7703143D01*
X6792143Y-7703143D02*
X6811191Y-7712667D01*
X6887381Y-7912667D02*
X6896905Y-7903143D01*
X6896905Y-7903143D02*
X6915953Y-7874571D01*
X6915953Y-7874571D02*
X6925476Y-7855524D01*
X6925476Y-7855524D02*
X6935000Y-7826952D01*
X6935000Y-7826952D02*
X6944524Y-7779333D01*
X6944524Y-7779333D02*
X6944524Y-7741238D01*
X6944524Y-7741238D02*
X6935000Y-7693619D01*
X6935000Y-7693619D02*
X6925476Y-7665048D01*
X6925476Y-7665048D02*
X6915953Y-7646000D01*
X6915953Y-7646000D02*
X6896905Y-7617428D01*
X6896905Y-7617428D02*
X6887381Y-7607905D01*
X2055000Y-7943000D02*
X2255000Y-8143000D01*
X2255000Y-7943000D02*
X2055000Y-8143000D01*
X2155000Y-8143000D02*
X2255000Y-8043000D01*
X2155000Y-7943000D01*
X2055000Y-8043000D01*
X2155000Y-8143000D01*
X2493095Y-7935524D02*
X2502619Y-7926000D01*
X2502619Y-7926000D02*
X2521667Y-7916476D01*
X2521667Y-7916476D02*
X2569286Y-7916476D01*
X2569286Y-7916476D02*
X2588333Y-7926000D01*
X2588333Y-7926000D02*
X2597857Y-7935524D01*
X2597857Y-7935524D02*
X2607381Y-7954571D01*
X2607381Y-7954571D02*
X2607381Y-7973619D01*
X2607381Y-7973619D02*
X2597857Y-8002190D01*
X2597857Y-8002190D02*
X2483571Y-8116476D01*
X2483571Y-8116476D02*
X2607381Y-8116476D01*
X2693095Y-8097428D02*
X2702619Y-8106952D01*
X2702619Y-8106952D02*
X2693095Y-8116476D01*
X2693095Y-8116476D02*
X2683571Y-8106952D01*
X2683571Y-8106952D02*
X2693095Y-8097428D01*
X2693095Y-8097428D02*
X2693095Y-8116476D01*
X2826428Y-7916476D02*
X2845476Y-7916476D01*
X2845476Y-7916476D02*
X2864524Y-7926000D01*
X2864524Y-7926000D02*
X2874048Y-7935524D01*
X2874048Y-7935524D02*
X2883571Y-7954571D01*
X2883571Y-7954571D02*
X2893095Y-7992667D01*
X2893095Y-7992667D02*
X2893095Y-8040286D01*
X2893095Y-8040286D02*
X2883571Y-8078381D01*
X2883571Y-8078381D02*
X2874048Y-8097428D01*
X2874048Y-8097428D02*
X2864524Y-8106952D01*
X2864524Y-8106952D02*
X2845476Y-8116476D01*
X2845476Y-8116476D02*
X2826428Y-8116476D01*
X2826428Y-8116476D02*
X2807381Y-8106952D01*
X2807381Y-8106952D02*
X2797857Y-8097428D01*
X2797857Y-8097428D02*
X2788333Y-8078381D01*
X2788333Y-8078381D02*
X2778810Y-8040286D01*
X2778810Y-8040286D02*
X2778810Y-7992667D01*
X2778810Y-7992667D02*
X2788333Y-7954571D01*
X2788333Y-7954571D02*
X2797857Y-7935524D01*
X2797857Y-7935524D02*
X2807381Y-7926000D01*
X2807381Y-7926000D02*
X2826428Y-7916476D01*
X3016905Y-7916476D02*
X3035952Y-7916476D01*
X3035952Y-7916476D02*
X3055000Y-7926000D01*
X3055000Y-7926000D02*
X3064524Y-7935524D01*
X3064524Y-7935524D02*
X3074048Y-7954571D01*
X3074048Y-7954571D02*
X3083571Y-7992667D01*
X3083571Y-7992667D02*
X3083571Y-8040286D01*
X3083571Y-8040286D02*
X3074048Y-8078381D01*
X3074048Y-8078381D02*
X3064524Y-8097428D01*
X3064524Y-8097428D02*
X3055000Y-8106952D01*
X3055000Y-8106952D02*
X3035952Y-8116476D01*
X3035952Y-8116476D02*
X3016905Y-8116476D01*
X3016905Y-8116476D02*
X2997857Y-8106952D01*
X2997857Y-8106952D02*
X2988333Y-8097428D01*
X2988333Y-8097428D02*
X2978809Y-8078381D01*
X2978809Y-8078381D02*
X2969286Y-8040286D01*
X2969286Y-8040286D02*
X2969286Y-7992667D01*
X2969286Y-7992667D02*
X2978809Y-7954571D01*
X2978809Y-7954571D02*
X2988333Y-7935524D01*
X2988333Y-7935524D02*
X2997857Y-7926000D01*
X2997857Y-7926000D02*
X3016905Y-7916476D01*
X3207381Y-7916476D02*
X3226429Y-7916476D01*
X3226429Y-7916476D02*
X3245476Y-7926000D01*
X3245476Y-7926000D02*
X3255000Y-7935524D01*
X3255000Y-7935524D02*
X3264524Y-7954571D01*
X3264524Y-7954571D02*
X3274048Y-7992667D01*
X3274048Y-7992667D02*
X3274048Y-8040286D01*
X3274048Y-8040286D02*
X3264524Y-8078381D01*
X3264524Y-8078381D02*
X3255000Y-8097428D01*
X3255000Y-8097428D02*
X3245476Y-8106952D01*
X3245476Y-8106952D02*
X3226429Y-8116476D01*
X3226429Y-8116476D02*
X3207381Y-8116476D01*
X3207381Y-8116476D02*
X3188333Y-8106952D01*
X3188333Y-8106952D02*
X3178809Y-8097428D01*
X3178809Y-8097428D02*
X3169286Y-8078381D01*
X3169286Y-8078381D02*
X3159762Y-8040286D01*
X3159762Y-8040286D02*
X3159762Y-7992667D01*
X3159762Y-7992667D02*
X3169286Y-7954571D01*
X3169286Y-7954571D02*
X3178809Y-7935524D01*
X3178809Y-7935524D02*
X3188333Y-7926000D01*
X3188333Y-7926000D02*
X3207381Y-7916476D01*
X3359762Y-8116476D02*
X3359762Y-7983143D01*
X3359762Y-8002190D02*
X3369286Y-7992667D01*
X3369286Y-7992667D02*
X3388333Y-7983143D01*
X3388333Y-7983143D02*
X3416905Y-7983143D01*
X3416905Y-7983143D02*
X3435952Y-7992667D01*
X3435952Y-7992667D02*
X3445476Y-8011714D01*
X3445476Y-8011714D02*
X3445476Y-8116476D01*
X3445476Y-8011714D02*
X3455000Y-7992667D01*
X3455000Y-7992667D02*
X3474048Y-7983143D01*
X3474048Y-7983143D02*
X3502619Y-7983143D01*
X3502619Y-7983143D02*
X3521667Y-7992667D01*
X3521667Y-7992667D02*
X3531190Y-8011714D01*
X3531190Y-8011714D02*
X3531190Y-8116476D01*
X3626429Y-8116476D02*
X3626429Y-7983143D01*
X3626429Y-8002190D02*
X3635952Y-7992667D01*
X3635952Y-7992667D02*
X3655000Y-7983143D01*
X3655000Y-7983143D02*
X3683571Y-7983143D01*
X3683571Y-7983143D02*
X3702619Y-7992667D01*
X3702619Y-7992667D02*
X3712143Y-8011714D01*
X3712143Y-8011714D02*
X3712143Y-8116476D01*
X3712143Y-8011714D02*
X3721667Y-7992667D01*
X3721667Y-7992667D02*
X3740714Y-7983143D01*
X3740714Y-7983143D02*
X3769286Y-7983143D01*
X3769286Y-7983143D02*
X3788333Y-7992667D01*
X3788333Y-7992667D02*
X3797857Y-8011714D01*
X3797857Y-8011714D02*
X3797857Y-8116476D01*
X4155952Y-7906952D02*
X3984524Y-8164095D01*
X4380714Y-7916476D02*
X4399762Y-7916476D01*
X4399762Y-7916476D02*
X4418810Y-7926000D01*
X4418810Y-7926000D02*
X4428333Y-7935524D01*
X4428333Y-7935524D02*
X4437857Y-7954571D01*
X4437857Y-7954571D02*
X4447381Y-7992667D01*
X4447381Y-7992667D02*
X4447381Y-8040286D01*
X4447381Y-8040286D02*
X4437857Y-8078381D01*
X4437857Y-8078381D02*
X4428333Y-8097428D01*
X4428333Y-8097428D02*
X4418810Y-8106952D01*
X4418810Y-8106952D02*
X4399762Y-8116476D01*
X4399762Y-8116476D02*
X4380714Y-8116476D01*
X4380714Y-8116476D02*
X4361667Y-8106952D01*
X4361667Y-8106952D02*
X4352143Y-8097428D01*
X4352143Y-8097428D02*
X4342619Y-8078381D01*
X4342619Y-8078381D02*
X4333095Y-8040286D01*
X4333095Y-8040286D02*
X4333095Y-7992667D01*
X4333095Y-7992667D02*
X4342619Y-7954571D01*
X4342619Y-7954571D02*
X4352143Y-7935524D01*
X4352143Y-7935524D02*
X4361667Y-7926000D01*
X4361667Y-7926000D02*
X4380714Y-7916476D01*
X4533095Y-8097428D02*
X4542619Y-8106952D01*
X4542619Y-8106952D02*
X4533095Y-8116476D01*
X4533095Y-8116476D02*
X4523572Y-8106952D01*
X4523572Y-8106952D02*
X4533095Y-8097428D01*
X4533095Y-8097428D02*
X4533095Y-8116476D01*
X4666429Y-7916476D02*
X4685476Y-7916476D01*
X4685476Y-7916476D02*
X4704524Y-7926000D01*
X4704524Y-7926000D02*
X4714048Y-7935524D01*
X4714048Y-7935524D02*
X4723572Y-7954571D01*
X4723572Y-7954571D02*
X4733095Y-7992667D01*
X4733095Y-7992667D02*
X4733095Y-8040286D01*
X4733095Y-8040286D02*
X4723572Y-8078381D01*
X4723572Y-8078381D02*
X4714048Y-8097428D01*
X4714048Y-8097428D02*
X4704524Y-8106952D01*
X4704524Y-8106952D02*
X4685476Y-8116476D01*
X4685476Y-8116476D02*
X4666429Y-8116476D01*
X4666429Y-8116476D02*
X4647381Y-8106952D01*
X4647381Y-8106952D02*
X4637857Y-8097428D01*
X4637857Y-8097428D02*
X4628333Y-8078381D01*
X4628333Y-8078381D02*
X4618810Y-8040286D01*
X4618810Y-8040286D02*
X4618810Y-7992667D01*
X4618810Y-7992667D02*
X4628333Y-7954571D01*
X4628333Y-7954571D02*
X4637857Y-7935524D01*
X4637857Y-7935524D02*
X4647381Y-7926000D01*
X4647381Y-7926000D02*
X4666429Y-7916476D01*
X4799762Y-7916476D02*
X4933095Y-7916476D01*
X4933095Y-7916476D02*
X4847381Y-8116476D01*
X5037857Y-8002190D02*
X5018810Y-7992667D01*
X5018810Y-7992667D02*
X5009286Y-7983143D01*
X5009286Y-7983143D02*
X4999762Y-7964095D01*
X4999762Y-7964095D02*
X4999762Y-7954571D01*
X4999762Y-7954571D02*
X5009286Y-7935524D01*
X5009286Y-7935524D02*
X5018810Y-7926000D01*
X5018810Y-7926000D02*
X5037857Y-7916476D01*
X5037857Y-7916476D02*
X5075953Y-7916476D01*
X5075953Y-7916476D02*
X5095000Y-7926000D01*
X5095000Y-7926000D02*
X5104524Y-7935524D01*
X5104524Y-7935524D02*
X5114048Y-7954571D01*
X5114048Y-7954571D02*
X5114048Y-7964095D01*
X5114048Y-7964095D02*
X5104524Y-7983143D01*
X5104524Y-7983143D02*
X5095000Y-7992667D01*
X5095000Y-7992667D02*
X5075953Y-8002190D01*
X5075953Y-8002190D02*
X5037857Y-8002190D01*
X5037857Y-8002190D02*
X5018810Y-8011714D01*
X5018810Y-8011714D02*
X5009286Y-8021238D01*
X5009286Y-8021238D02*
X4999762Y-8040286D01*
X4999762Y-8040286D02*
X4999762Y-8078381D01*
X4999762Y-8078381D02*
X5009286Y-8097428D01*
X5009286Y-8097428D02*
X5018810Y-8106952D01*
X5018810Y-8106952D02*
X5037857Y-8116476D01*
X5037857Y-8116476D02*
X5075953Y-8116476D01*
X5075953Y-8116476D02*
X5095000Y-8106952D01*
X5095000Y-8106952D02*
X5104524Y-8097428D01*
X5104524Y-8097428D02*
X5114048Y-8078381D01*
X5114048Y-8078381D02*
X5114048Y-8040286D01*
X5114048Y-8040286D02*
X5104524Y-8021238D01*
X5104524Y-8021238D02*
X5095000Y-8011714D01*
X5095000Y-8011714D02*
X5075953Y-8002190D01*
X5180714Y-7916476D02*
X5314048Y-7916476D01*
X5314048Y-7916476D02*
X5228333Y-8116476D01*
X5380714Y-7916476D02*
X5380714Y-7954571D01*
X5456905Y-7916476D02*
X5456905Y-7954571D01*
X5719762Y-8192667D02*
X5710238Y-8183143D01*
X5710238Y-8183143D02*
X5691191Y-8154571D01*
X5691191Y-8154571D02*
X5681667Y-8135524D01*
X5681667Y-8135524D02*
X5672143Y-8106952D01*
X5672143Y-8106952D02*
X5662619Y-8059333D01*
X5662619Y-8059333D02*
X5662619Y-8021238D01*
X5662619Y-8021238D02*
X5672143Y-7973619D01*
X5672143Y-7973619D02*
X5681667Y-7945048D01*
X5681667Y-7945048D02*
X5691191Y-7926000D01*
X5691191Y-7926000D02*
X5710238Y-7897428D01*
X5710238Y-7897428D02*
X5719762Y-7887905D01*
X5776905Y-7916476D02*
X5900714Y-7916476D01*
X5900714Y-7916476D02*
X5834048Y-7992667D01*
X5834048Y-7992667D02*
X5862619Y-7992667D01*
X5862619Y-7992667D02*
X5881667Y-8002190D01*
X5881667Y-8002190D02*
X5891191Y-8011714D01*
X5891191Y-8011714D02*
X5900714Y-8030762D01*
X5900714Y-8030762D02*
X5900714Y-8078381D01*
X5900714Y-8078381D02*
X5891191Y-8097428D01*
X5891191Y-8097428D02*
X5881667Y-8106952D01*
X5881667Y-8106952D02*
X5862619Y-8116476D01*
X5862619Y-8116476D02*
X5805476Y-8116476D01*
X5805476Y-8116476D02*
X5786429Y-8106952D01*
X5786429Y-8106952D02*
X5776905Y-8097428D01*
X6106429Y-8116476D02*
X6106429Y-7916476D01*
X6192143Y-8116476D02*
X6192143Y-8011714D01*
X6192143Y-8011714D02*
X6182619Y-7992667D01*
X6182619Y-7992667D02*
X6163572Y-7983143D01*
X6163572Y-7983143D02*
X6135000Y-7983143D01*
X6135000Y-7983143D02*
X6115952Y-7992667D01*
X6115952Y-7992667D02*
X6106429Y-8002190D01*
X6315952Y-8116476D02*
X6296905Y-8106952D01*
X6296905Y-8106952D02*
X6287381Y-8097428D01*
X6287381Y-8097428D02*
X6277857Y-8078381D01*
X6277857Y-8078381D02*
X6277857Y-8021238D01*
X6277857Y-8021238D02*
X6287381Y-8002190D01*
X6287381Y-8002190D02*
X6296905Y-7992667D01*
X6296905Y-7992667D02*
X6315952Y-7983143D01*
X6315952Y-7983143D02*
X6344524Y-7983143D01*
X6344524Y-7983143D02*
X6363572Y-7992667D01*
X6363572Y-7992667D02*
X6373095Y-8002190D01*
X6373095Y-8002190D02*
X6382619Y-8021238D01*
X6382619Y-8021238D02*
X6382619Y-8078381D01*
X6382619Y-8078381D02*
X6373095Y-8097428D01*
X6373095Y-8097428D02*
X6363572Y-8106952D01*
X6363572Y-8106952D02*
X6344524Y-8116476D01*
X6344524Y-8116476D02*
X6315952Y-8116476D01*
X6496905Y-8116476D02*
X6477857Y-8106952D01*
X6477857Y-8106952D02*
X6468333Y-8087905D01*
X6468333Y-8087905D02*
X6468333Y-7916476D01*
X6649286Y-8106952D02*
X6630238Y-8116476D01*
X6630238Y-8116476D02*
X6592143Y-8116476D01*
X6592143Y-8116476D02*
X6573095Y-8106952D01*
X6573095Y-8106952D02*
X6563572Y-8087905D01*
X6563572Y-8087905D02*
X6563572Y-8011714D01*
X6563572Y-8011714D02*
X6573095Y-7992667D01*
X6573095Y-7992667D02*
X6592143Y-7983143D01*
X6592143Y-7983143D02*
X6630238Y-7983143D01*
X6630238Y-7983143D02*
X6649286Y-7992667D01*
X6649286Y-7992667D02*
X6658810Y-8011714D01*
X6658810Y-8011714D02*
X6658810Y-8030762D01*
X6658810Y-8030762D02*
X6563572Y-8049809D01*
X6735000Y-8106952D02*
X6754048Y-8116476D01*
X6754048Y-8116476D02*
X6792143Y-8116476D01*
X6792143Y-8116476D02*
X6811191Y-8106952D01*
X6811191Y-8106952D02*
X6820714Y-8087905D01*
X6820714Y-8087905D02*
X6820714Y-8078381D01*
X6820714Y-8078381D02*
X6811191Y-8059333D01*
X6811191Y-8059333D02*
X6792143Y-8049809D01*
X6792143Y-8049809D02*
X6763572Y-8049809D01*
X6763572Y-8049809D02*
X6744524Y-8040286D01*
X6744524Y-8040286D02*
X6735000Y-8021238D01*
X6735000Y-8021238D02*
X6735000Y-8011714D01*
X6735000Y-8011714D02*
X6744524Y-7992667D01*
X6744524Y-7992667D02*
X6763572Y-7983143D01*
X6763572Y-7983143D02*
X6792143Y-7983143D01*
X6792143Y-7983143D02*
X6811191Y-7992667D01*
X6887381Y-8192667D02*
X6896905Y-8183143D01*
X6896905Y-8183143D02*
X6915953Y-8154571D01*
X6915953Y-8154571D02*
X6925476Y-8135524D01*
X6925476Y-8135524D02*
X6935000Y-8106952D01*
X6935000Y-8106952D02*
X6944524Y-8059333D01*
X6944524Y-8059333D02*
X6944524Y-8021238D01*
X6944524Y-8021238D02*
X6935000Y-7973619D01*
X6935000Y-7973619D02*
X6925476Y-7945048D01*
X6925476Y-7945048D02*
X6915953Y-7926000D01*
X6915953Y-7926000D02*
X6896905Y-7897428D01*
X6896905Y-7897428D02*
X6887381Y-7887905D01*
M02*
