%TF.GenerationSoftware,KiCad,Pcbnew,(7.0.0)*%
%TF.CreationDate,2023-04-17T14:45:16+03:00*%
%TF.ProjectId,sensor_system,73656e73-6f72-45f7-9379-7374656d2e6b,rev?*%
%TF.SameCoordinates,Original*%
%TF.FileFunction,Legend,Bot*%
%TF.FilePolarity,Positive*%
%FSLAX46Y46*%
G04 Gerber Fmt 4.6, Leading zero omitted, Abs format (unit mm)*
G04 Created by KiCad (PCBNEW (7.0.0)) date 2023-04-17 14:45:16*
%MOMM*%
%LPD*%
G01*
G04 APERTURE LIST*
%ADD10C,0.150000*%
%ADD11C,0.100000*%
%ADD12C,0.127000*%
G04 APERTURE END LIST*
D10*
%TO.C,U5*%
X124471904Y-39297380D02*
X124471904Y-40106904D01*
X124471904Y-40106904D02*
X124424285Y-40202142D01*
X124424285Y-40202142D02*
X124376666Y-40249761D01*
X124376666Y-40249761D02*
X124281428Y-40297380D01*
X124281428Y-40297380D02*
X124090952Y-40297380D01*
X124090952Y-40297380D02*
X123995714Y-40249761D01*
X123995714Y-40249761D02*
X123948095Y-40202142D01*
X123948095Y-40202142D02*
X123900476Y-40106904D01*
X123900476Y-40106904D02*
X123900476Y-39297380D01*
X122948095Y-39297380D02*
X123424285Y-39297380D01*
X123424285Y-39297380D02*
X123471904Y-39773571D01*
X123471904Y-39773571D02*
X123424285Y-39725952D01*
X123424285Y-39725952D02*
X123329047Y-39678333D01*
X123329047Y-39678333D02*
X123090952Y-39678333D01*
X123090952Y-39678333D02*
X122995714Y-39725952D01*
X122995714Y-39725952D02*
X122948095Y-39773571D01*
X122948095Y-39773571D02*
X122900476Y-39868809D01*
X122900476Y-39868809D02*
X122900476Y-40106904D01*
X122900476Y-40106904D02*
X122948095Y-40202142D01*
X122948095Y-40202142D02*
X122995714Y-40249761D01*
X122995714Y-40249761D02*
X123090952Y-40297380D01*
X123090952Y-40297380D02*
X123329047Y-40297380D01*
X123329047Y-40297380D02*
X123424285Y-40249761D01*
X123424285Y-40249761D02*
X123471904Y-40202142D01*
D11*
%TO.C,J1*%
X157517380Y-36916666D02*
X158231666Y-36916666D01*
X158231666Y-36916666D02*
X158374523Y-36869047D01*
X158374523Y-36869047D02*
X158469761Y-36773809D01*
X158469761Y-36773809D02*
X158517380Y-36630952D01*
X158517380Y-36630952D02*
X158517380Y-36535714D01*
X158517380Y-37916666D02*
X158517380Y-37345238D01*
X158517380Y-37630952D02*
X157517380Y-37630952D01*
X157517380Y-37630952D02*
X157660238Y-37535714D01*
X157660238Y-37535714D02*
X157755476Y-37440476D01*
X157755476Y-37440476D02*
X157803095Y-37345238D01*
D12*
%TO.C,U5*%
X145600000Y-24050000D02*
X94650000Y-24050000D01*
X145600000Y-24050000D02*
X94650000Y-24050000D01*
X145600000Y-24050000D02*
X145600000Y-29420000D01*
X94650000Y-24050000D02*
X94650000Y-35119000D01*
X94650000Y-24050000D02*
X94650000Y-52560000D01*
X145600000Y-29420000D02*
X145600000Y-47110000D01*
X94650000Y-35119000D02*
X94650000Y-41830000D01*
X94650000Y-41830000D02*
X94650000Y-52560000D01*
X145600000Y-47110000D02*
X145600000Y-52560000D01*
X145600000Y-52560000D02*
X145600000Y-24050000D01*
X94650000Y-52560000D02*
X145600000Y-52560000D01*
X94650000Y-52560000D02*
X145600000Y-52560000D01*
D11*
%TO.C,J1*%
X159500000Y-30570000D02*
X159500000Y-43570000D01*
X152700000Y-30570000D02*
X152700000Y-43570000D01*
X158750000Y-33130000D02*
X158750000Y-41010000D01*
X153450000Y-33130000D02*
X153450000Y-41010000D01*
X157300000Y-35650000D02*
X154900000Y-35650000D01*
X157300000Y-35650000D02*
X157300000Y-38490000D01*
X156100000Y-35650000D02*
X156100000Y-38490000D01*
X154900000Y-35650000D02*
X154900000Y-38490000D01*
X154900000Y-38490000D02*
X157300000Y-38490000D01*
X156100000Y-43660000D02*
X156089962Y-30480000D01*
X159500000Y-30570000D02*
G75*
G03*
X152700000Y-30570000I-3400000J0D01*
G01*
X158749999Y-33130019D02*
G75*
G03*
X153450000Y-33150019I-2650037J0D01*
G01*
X153450001Y-40999981D02*
G75*
G03*
X158749999Y-40999981I2649999J-9999D01*
G01*
X152700000Y-43570000D02*
G75*
G03*
X159500000Y-43570000I3400000J0D01*
G01*
%TD*%
M02*
