M48
; DRILL file {KiCad (7.0.0)} date Mon Apr 17 14:45:22 2023
; FORMAT={-:-/ absolute / metric / decimal}
; #@! TF.CreationDate,2023-04-17T14:45:22+03:00
; #@! TF.GenerationSoftware,Kicad,Pcbnew,(7.0.0)
; #@! TF.FileFunction,Plated,1,2,PTH
FMAT,2
METRIC
; #@! TA.AperFunction,Plated,PTH,ComponentDrill
T1C0.200
; #@! TA.AperFunction,Plated,PTH,ViaDrill
T2C0.400
; #@! TA.AperFunction,Plated,PTH,ComponentDrill
T3C0.500
; #@! TA.AperFunction,Plated,PTH,ComponentDrill
T4C0.800
; #@! TA.AperFunction,Plated,PTH,ComponentDrill
T5C0.900
; #@! TA.AperFunction,Plated,PTH,ComponentDrill
T6C1.000
; #@! TA.AperFunction,Plated,PTH,ComponentDrill
T7C1.020
; #@! TA.AperFunction,Plated,PTH,ComponentDrill
T8C1.600
; #@! TA.AperFunction,Plated,PTH,ComponentDrill
T9C2.000
%
G90
G05
T1
X108.825Y-45.55
X109.4Y-44.6
X109.4Y-46.5
X109.975Y-45.55
T2
X96.0Y-34.25
X99.9Y-44.5
X99.9Y-45.9
X102.5Y-44.4
X103.1Y-42.0
X103.85Y-34.35
X106.35Y-39.55
X107.9Y-31.1
X108.85Y-34.35
X115.15Y-36.95
X116.9Y-38.35
X119.45Y-31.8
X119.5Y-33.9
X122.1Y-40.8
X124.25Y-48.9
X126.95Y-48.9
X129.55Y-48.8
X144.9Y-46.1
X144.9Y-47.75
X151.7Y-25.85
X153.9Y-25.85
X155.0Y-33.35
T3
X123.45Y-35.4
T4
X134.75Y-33.05
X134.75Y-35.05
X138.0Y-33.05
X138.0Y-35.05
X151.05Y-48.31
X151.05Y-50.85
T5
X157.9Y-48.23
X157.9Y-50.77
T6
X132.66Y-47.15
X135.2Y-47.15
X137.74Y-47.15
T7
X104.61Y-25.63
X104.61Y-51.03
X107.15Y-25.63
X107.15Y-51.03
X109.69Y-25.63
X109.69Y-51.03
X112.23Y-25.63
X112.23Y-51.03
X114.77Y-25.63
X114.77Y-51.03
X117.31Y-25.63
X117.31Y-51.03
X119.85Y-25.63
X119.85Y-51.03
X122.39Y-25.63
X122.39Y-51.03
X124.93Y-25.63
X124.93Y-51.03
X127.47Y-25.63
X127.47Y-51.03
X130.01Y-25.63
X130.01Y-51.03
X132.55Y-25.63
X132.55Y-51.03
X135.09Y-25.63
X135.09Y-51.03
X137.63Y-25.63
X137.63Y-51.03
X140.17Y-25.63
X140.17Y-51.03
T8
X156.1Y-35.65
X156.1Y-38.49
T9
X97.85Y-26.8
X97.85Y-50.1
X141.9Y-33.15
T0
M30
