%TF.GenerationSoftware,KiCad,Pcbnew,(7.0.0)*%
%TF.CreationDate,2023-04-17T14:45:16+03:00*%
%TF.ProjectId,sensor_system,73656e73-6f72-45f7-9379-7374656d2e6b,rev?*%
%TF.SameCoordinates,Original*%
%TF.FileFunction,Copper,L2,Bot*%
%TF.FilePolarity,Positive*%
%FSLAX46Y46*%
G04 Gerber Fmt 4.6, Leading zero omitted, Abs format (unit mm)*
G04 Created by KiCad (PCBNEW (7.0.0)) date 2023-04-17 14:45:16*
%MOMM*%
%LPD*%
G01*
G04 APERTURE LIST*
%TA.AperFunction,ComponentPad*%
%ADD10R,0.850000X0.850000*%
%TD*%
%TA.AperFunction,ComponentPad*%
%ADD11C,3.000000*%
%TD*%
%TA.AperFunction,ComponentPad*%
%ADD12R,1.700000X1.700000*%
%TD*%
%TA.AperFunction,ComponentPad*%
%ADD13O,1.700000X1.700000*%
%TD*%
%TA.AperFunction,ComponentPad*%
%ADD14R,1.350000X1.350000*%
%TD*%
%TA.AperFunction,ComponentPad*%
%ADD15O,1.350000X1.350000*%
%TD*%
%TA.AperFunction,ComponentPad*%
%ADD16C,1.400000*%
%TD*%
%TA.AperFunction,ComponentPad*%
%ADD17C,0.500000*%
%TD*%
%TA.AperFunction,ComponentPad*%
%ADD18R,1.800000X1.800000*%
%TD*%
%TA.AperFunction,ComponentPad*%
%ADD19C,1.800000*%
%TD*%
%TA.AperFunction,ComponentPad*%
%ADD20R,2.000000X2.000000*%
%TD*%
%TA.AperFunction,ComponentPad*%
%ADD21C,2.000000*%
%TD*%
%TA.AperFunction,ComponentPad*%
%ADD22C,2.500000*%
%TD*%
%TA.AperFunction,ViaPad*%
%ADD23C,0.800000*%
%TD*%
%TA.AperFunction,Conductor*%
%ADD24C,0.500000*%
%TD*%
G04 APERTURE END LIST*
D10*
%TO.P,TP1,1,1*%
%TO.N,Net-(D10-A)*%
X123449999Y-35399999D03*
%TD*%
D11*
%TO.P,,*%
%TO.N,Earth*%
X97850000Y-50100000D03*
%TD*%
D12*
%TO.P,SW1,1,A*%
%TO.N,Net-(Q2-E)*%
X132659999Y-47149999D03*
D13*
%TO.P,SW1,2,B*%
%TO.N,Net-(BT1-+)*%
X135199999Y-47149999D03*
%TO.P,SW1,3,C*%
%TO.N,unconnected-(SW1A-C-Pad3)*%
X137739999Y-47149999D03*
%TD*%
D14*
%TO.P,TH1,1*%
%TO.N,Net-(U3-THERM)*%
X137999999Y-35049999D03*
D15*
%TO.P,TH1,2*%
%TO.N,Earth*%
X137999999Y-33049999D03*
%TD*%
D16*
%TO.P,J2,1,Pin_1*%
%TO.N,Earth*%
X151050000Y-50850000D03*
%TO.P,J2,2,Pin_2*%
%TO.N,Net-(D4-A)*%
X151050000Y-48310000D03*
%TD*%
D11*
%TO.P,,*%
%TO.N,Earth*%
X97850000Y-26800000D03*
%TD*%
D17*
%TO.P,U7,11,PGND*%
%TO.N,Earth*%
X109975000Y-45550000D03*
X109400000Y-46500000D03*
X109400000Y-44600000D03*
X108825000Y-45550000D03*
%TD*%
D11*
%TO.P,,*%
%TO.N,Earth*%
X141900000Y-33150000D03*
%TD*%
D18*
%TO.P,D9,1,K*%
%TO.N,Net-(D9-K)*%
X157899999Y-48229999D03*
D19*
%TO.P,D9,2,A*%
%TO.N,3V3*%
X157900000Y-50770000D03*
%TD*%
D14*
%TO.P,BT1,1,+*%
%TO.N,Net-(BT1-+)*%
X134749999Y-35049999D03*
D15*
%TO.P,BT1,2,-*%
%TO.N,Earth*%
X134749999Y-33049999D03*
%TD*%
D20*
%TO.P,U5,1,3V3*%
%TO.N,3V3*%
X104609999Y-25629999D03*
D21*
%TO.P,U5,2,GND*%
%TO.N,Earth*%
X107150000Y-25630000D03*
%TO.P,U5,3,D15*%
%TO.N,unconnected-(U5-D15-Pad3)*%
X109690000Y-25630000D03*
%TO.P,U5,4,D2*%
%TO.N,unconnected-(U5-D2-Pad4)*%
X112230000Y-25630000D03*
%TO.P,U5,5,D4*%
%TO.N,unconnected-(U5-D4-Pad5)*%
X114770000Y-25630000D03*
%TO.P,U5,6,RX2*%
%TO.N,unconnected-(U5-RX2-Pad6)*%
X117310000Y-25630000D03*
%TO.P,U5,7,TX2*%
%TO.N,unconnected-(U5-TX2-Pad7)*%
X119850000Y-25630000D03*
%TO.P,U5,8,D5*%
%TO.N,unconnected-(U5-D5-Pad8)*%
X122390000Y-25630000D03*
%TO.P,U5,9,D18*%
%TO.N,unconnected-(U5-D18-Pad9)*%
X124930000Y-25630000D03*
%TO.P,U5,10,D19*%
%TO.N,unconnected-(U5-D19-Pad10)*%
X127470000Y-25630000D03*
%TO.P,U5,11,D21*%
%TO.N,SDA*%
X130010000Y-25630000D03*
%TO.P,U5,12,RX0*%
%TO.N,unconnected-(U5-RX0-Pad12)*%
X132550000Y-25630000D03*
%TO.P,U5,13,TX0*%
%TO.N,unconnected-(U5-TX0-Pad13)*%
X135090000Y-25630000D03*
%TO.P,U5,14,D22*%
%TO.N,SCL*%
X137630000Y-25630000D03*
%TO.P,U5,15,D23*%
%TO.N,unconnected-(U5-D23-Pad15)*%
X140170000Y-25630000D03*
%TO.P,U5,16,EN*%
%TO.N,unconnected-(U5-EN-Pad16)*%
X140170000Y-51030000D03*
%TO.P,U5,17,VP*%
%TO.N,unconnected-(U5-VP-Pad17)*%
X137630000Y-51030000D03*
%TO.P,U5,18,VN*%
%TO.N,unconnected-(U5-VN-Pad18)*%
X135090000Y-51030000D03*
%TO.P,U5,19,D34*%
%TO.N,Net-(D9-K)*%
X132550000Y-51030000D03*
%TO.P,U5,20,D35*%
%TO.N,unconnected-(U5-D35-Pad20)*%
X130010000Y-51030000D03*
%TO.P,U5,21,D32*%
%TO.N,unconnected-(U5-D32-Pad21)*%
X127470000Y-51030000D03*
%TO.P,U5,22,D33*%
%TO.N,unconnected-(U5-D33-Pad22)*%
X124930000Y-51030000D03*
%TO.P,U5,23,D25*%
%TO.N,unconnected-(U5-D25-Pad23)*%
X122390000Y-51030000D03*
%TO.P,U5,24,D26*%
%TO.N,unconnected-(U5-D26-Pad24)*%
X119850000Y-51030000D03*
%TO.P,U5,25,D27*%
%TO.N,unconnected-(U5-D27-Pad25)*%
X117310000Y-51030000D03*
%TO.P,U5,26,D14*%
%TO.N,unconnected-(U5-D14-Pad26)*%
X114770000Y-51030000D03*
%TO.P,U5,27,D12*%
%TO.N,unconnected-(U5-D12-Pad27)*%
X112230000Y-51030000D03*
%TO.P,U5,28,D13*%
%TO.N,Soil*%
X109690000Y-51030000D03*
%TO.P,U5,29,GND*%
%TO.N,Earth*%
X107150000Y-51030000D03*
%TO.P,U5,30,VIN*%
%TO.N,/power_supply/5V*%
X104610000Y-51030000D03*
%TD*%
D22*
%TO.P,J1,1,Pin_1*%
%TO.N,Earth*%
X156100000Y-38490000D03*
%TO.P,J1,2,Pin_2*%
%TO.N,Net-(D3-A)*%
X156100000Y-35650000D03*
%TD*%
D23*
%TO.N,3V*%
X108850000Y-34350000D03*
X106350000Y-39550000D03*
%TO.N,Earth*%
X103100000Y-42000000D03*
X124250000Y-48900000D03*
X129550000Y-48800000D03*
X99900000Y-44500000D03*
X107900000Y-31100000D03*
X119500000Y-33900000D03*
X126950000Y-48900000D03*
X116900000Y-38350000D03*
X153900000Y-25850000D03*
X115150000Y-36950000D03*
X103850000Y-34350000D03*
X144900000Y-47750000D03*
X119450000Y-31800000D03*
X96000000Y-34250000D03*
X151700000Y-25850000D03*
X155000000Y-33350000D03*
X102500000Y-44400000D03*
%TO.N,Soil*%
X99900000Y-45900000D03*
%TO.N,Net-(D10-A)*%
X122100000Y-40800000D03*
X144900000Y-46100000D03*
%TD*%
D24*
%TO.N,Soil*%
X99950000Y-45900000D02*
X102400000Y-48350000D01*
X102400000Y-48350000D02*
X107065000Y-48350000D01*
X107065000Y-48350000D02*
X109615000Y-50900000D01*
%TO.N,Net-(D10-A)*%
X135650000Y-40800000D02*
X122100000Y-40800000D01*
X122100000Y-40800000D02*
X122050000Y-40800000D01*
X144900000Y-46100000D02*
X140950000Y-46100000D01*
X140950000Y-46100000D02*
X135650000Y-40800000D01*
%TO.N,Net-(D9-K)*%
X133450000Y-49100000D02*
X146700000Y-49100000D01*
X156120000Y-46450000D02*
X157900000Y-48230000D01*
X132550000Y-50000000D02*
X133450000Y-49100000D01*
X149350000Y-46450000D02*
X156120000Y-46450000D01*
X157930000Y-48230000D02*
X157900000Y-48230000D01*
X132550000Y-51030000D02*
X132550000Y-50000000D01*
X146700000Y-49100000D02*
X149350000Y-46450000D01*
X157900000Y-48230000D02*
X157800000Y-48330000D01*
%TD*%
%TA.AperFunction,Conductor*%
%TO.N,3V*%
G36*
X112388516Y-32066491D02*
G01*
X112433870Y-32111579D01*
X112450725Y-32173271D01*
X112499266Y-40425271D01*
X112482897Y-40487578D01*
X112437478Y-40533265D01*
X112375268Y-40550000D01*
X102870507Y-40550000D01*
X102809532Y-40533973D01*
X102764320Y-40490034D01*
X102746558Y-40429541D01*
X102703644Y-38927541D01*
X102719045Y-38864056D01*
X102764573Y-38817208D01*
X102827593Y-38800000D01*
X105283674Y-38800000D01*
X105300000Y-38800000D01*
X105300000Y-32174000D01*
X105316613Y-32112000D01*
X105362000Y-32066613D01*
X105424000Y-32050000D01*
X112326727Y-32050000D01*
X112388516Y-32066491D01*
G37*
%TD.AperFunction*%
%TD*%
%TA.AperFunction,Conductor*%
%TO.N,Earth*%
G36*
X103511930Y-23919238D02*
G01*
X103557665Y-23969789D01*
X103569768Y-24036875D01*
X103544583Y-24100221D01*
X103489720Y-24140682D01*
X103375980Y-24183104D01*
X103375978Y-24183104D01*
X103367669Y-24186204D01*
X103360572Y-24191516D01*
X103360568Y-24191519D01*
X103259550Y-24267141D01*
X103259546Y-24267144D01*
X103252454Y-24272454D01*
X103247144Y-24279546D01*
X103247141Y-24279550D01*
X103171519Y-24380568D01*
X103171518Y-24380570D01*
X103166204Y-24387669D01*
X103163104Y-24395978D01*
X103163104Y-24395980D01*
X103118620Y-24515247D01*
X103118619Y-24515250D01*
X103115909Y-24522517D01*
X103115079Y-24530227D01*
X103115079Y-24530232D01*
X103109855Y-24578819D01*
X103109854Y-24578831D01*
X103109500Y-24582127D01*
X103109500Y-24585448D01*
X103109500Y-24585449D01*
X103109500Y-26674560D01*
X103109500Y-26674578D01*
X103109501Y-26677872D01*
X103109853Y-26681150D01*
X103109854Y-26681161D01*
X103115079Y-26729768D01*
X103115080Y-26729773D01*
X103115909Y-26737483D01*
X103118619Y-26744749D01*
X103118620Y-26744753D01*
X103140874Y-26804418D01*
X103166204Y-26872331D01*
X103171518Y-26879429D01*
X103171519Y-26879431D01*
X103177425Y-26887321D01*
X103252454Y-26987546D01*
X103367669Y-27073796D01*
X103502517Y-27124091D01*
X103562127Y-27130500D01*
X105657872Y-27130499D01*
X105717483Y-27124091D01*
X105852331Y-27073796D01*
X105967546Y-26987546D01*
X106053796Y-26872331D01*
X106056896Y-26864017D01*
X106057507Y-26862900D01*
X106092495Y-26822710D01*
X106141120Y-26800915D01*
X106194403Y-26801540D01*
X106242504Y-26824470D01*
X106322718Y-26886903D01*
X106331276Y-26892495D01*
X106540885Y-27005929D01*
X106550239Y-27010032D01*
X106775656Y-27087417D01*
X106785568Y-27089928D01*
X107020643Y-27129155D01*
X107030839Y-27130000D01*
X107269161Y-27130000D01*
X107279356Y-27129155D01*
X107514431Y-27089928D01*
X107524343Y-27087417D01*
X107749760Y-27010032D01*
X107759114Y-27005929D01*
X107968723Y-26892495D01*
X107977281Y-26886903D01*
X108006146Y-26864437D01*
X108014250Y-26853250D01*
X108007589Y-26841142D01*
X106884128Y-25717681D01*
X106852034Y-25662094D01*
X106852034Y-25597906D01*
X106884128Y-25542319D01*
X107150000Y-25276447D01*
X108007590Y-24418855D01*
X108014250Y-24406749D01*
X108006143Y-24395559D01*
X107977286Y-24373099D01*
X107968719Y-24367503D01*
X107759114Y-24254070D01*
X107749760Y-24249967D01*
X107524343Y-24172582D01*
X107514431Y-24170071D01*
X107375025Y-24146809D01*
X107319273Y-24122353D01*
X107281879Y-24074310D01*
X107271859Y-24014260D01*
X107291626Y-23956678D01*
X107336418Y-23915445D01*
X107395435Y-23900500D01*
X109441527Y-23900500D01*
X109500545Y-23915445D01*
X109545336Y-23956679D01*
X109565103Y-24014260D01*
X109555083Y-24074311D01*
X109517689Y-24122354D01*
X109461936Y-24146809D01*
X109325443Y-24169585D01*
X109325441Y-24169585D01*
X109320386Y-24170429D01*
X109315541Y-24172092D01*
X109315534Y-24172094D01*
X109090037Y-24249507D01*
X109090026Y-24249511D01*
X109085190Y-24251172D01*
X109080693Y-24253605D01*
X109080683Y-24253610D01*
X108871002Y-24367084D01*
X108870995Y-24367088D01*
X108866491Y-24369526D01*
X108862448Y-24372672D01*
X108862440Y-24372678D01*
X108674304Y-24519111D01*
X108670256Y-24522262D01*
X108666793Y-24526023D01*
X108666784Y-24526032D01*
X108505306Y-24701444D01*
X108505298Y-24701454D01*
X108501836Y-24705215D01*
X108499033Y-24709503D01*
X108495883Y-24713553D01*
X108495013Y-24712876D01*
X108461317Y-24745693D01*
X108410279Y-24763353D01*
X108390051Y-24761201D01*
X108374481Y-24763061D01*
X108363653Y-24769898D01*
X107515095Y-25618457D01*
X107508431Y-25630000D01*
X107515095Y-25641542D01*
X108363653Y-26490100D01*
X108374481Y-26496937D01*
X108390056Y-26498797D01*
X108410282Y-26496646D01*
X108461336Y-26514317D01*
X108495003Y-26547124D01*
X108495879Y-26546443D01*
X108499036Y-26550499D01*
X108501836Y-26554785D01*
X108505301Y-26558549D01*
X108505305Y-26558554D01*
X108666784Y-26733967D01*
X108666787Y-26733970D01*
X108670256Y-26737738D01*
X108866491Y-26890474D01*
X109085190Y-27008828D01*
X109320386Y-27089571D01*
X109565665Y-27130500D01*
X109809201Y-27130500D01*
X109814335Y-27130500D01*
X110059614Y-27089571D01*
X110294810Y-27008828D01*
X110513509Y-26890474D01*
X110709744Y-26737738D01*
X110868771Y-26564988D01*
X110926259Y-26529651D01*
X110993741Y-26529651D01*
X111051228Y-26564988D01*
X111129696Y-26650226D01*
X111206784Y-26733967D01*
X111206787Y-26733970D01*
X111210256Y-26737738D01*
X111406491Y-26890474D01*
X111625190Y-27008828D01*
X111860386Y-27089571D01*
X112105665Y-27130500D01*
X112349201Y-27130500D01*
X112354335Y-27130500D01*
X112599614Y-27089571D01*
X112834810Y-27008828D01*
X113053509Y-26890474D01*
X113249744Y-26737738D01*
X113408771Y-26564988D01*
X113466259Y-26529651D01*
X113533741Y-26529651D01*
X113591228Y-26564988D01*
X113669696Y-26650226D01*
X113746784Y-26733967D01*
X113746787Y-26733970D01*
X113750256Y-26737738D01*
X113946491Y-26890474D01*
X114165190Y-27008828D01*
X114400386Y-27089571D01*
X114645665Y-27130500D01*
X114889201Y-27130500D01*
X114894335Y-27130500D01*
X115139614Y-27089571D01*
X115374810Y-27008828D01*
X115593509Y-26890474D01*
X115789744Y-26737738D01*
X115948771Y-26564988D01*
X116006259Y-26529651D01*
X116073741Y-26529651D01*
X116131228Y-26564988D01*
X116209696Y-26650226D01*
X116286784Y-26733967D01*
X116286787Y-26733970D01*
X116290256Y-26737738D01*
X116486491Y-26890474D01*
X116705190Y-27008828D01*
X116940386Y-27089571D01*
X117185665Y-27130500D01*
X117429201Y-27130500D01*
X117434335Y-27130500D01*
X117679614Y-27089571D01*
X117914810Y-27008828D01*
X118133509Y-26890474D01*
X118329744Y-26737738D01*
X118488771Y-26564988D01*
X118546259Y-26529651D01*
X118613741Y-26529651D01*
X118671228Y-26564988D01*
X118749696Y-26650226D01*
X118826784Y-26733967D01*
X118826787Y-26733970D01*
X118830256Y-26737738D01*
X119026491Y-26890474D01*
X119245190Y-27008828D01*
X119480386Y-27089571D01*
X119725665Y-27130500D01*
X119969201Y-27130500D01*
X119974335Y-27130500D01*
X120219614Y-27089571D01*
X120454810Y-27008828D01*
X120673509Y-26890474D01*
X120869744Y-26737738D01*
X121028771Y-26564988D01*
X121086259Y-26529651D01*
X121153741Y-26529651D01*
X121211228Y-26564988D01*
X121289696Y-26650226D01*
X121366784Y-26733967D01*
X121366787Y-26733970D01*
X121370256Y-26737738D01*
X121566491Y-26890474D01*
X121785190Y-27008828D01*
X122020386Y-27089571D01*
X122265665Y-27130500D01*
X122509201Y-27130500D01*
X122514335Y-27130500D01*
X122759614Y-27089571D01*
X122994810Y-27008828D01*
X123213509Y-26890474D01*
X123409744Y-26737738D01*
X123568771Y-26564988D01*
X123626259Y-26529651D01*
X123693741Y-26529651D01*
X123751228Y-26564988D01*
X123829696Y-26650226D01*
X123906784Y-26733967D01*
X123906787Y-26733970D01*
X123910256Y-26737738D01*
X124106491Y-26890474D01*
X124325190Y-27008828D01*
X124560386Y-27089571D01*
X124805665Y-27130500D01*
X125049201Y-27130500D01*
X125054335Y-27130500D01*
X125299614Y-27089571D01*
X125534810Y-27008828D01*
X125753509Y-26890474D01*
X125949744Y-26737738D01*
X126108771Y-26564988D01*
X126166259Y-26529651D01*
X126233741Y-26529651D01*
X126291228Y-26564988D01*
X126369696Y-26650226D01*
X126446784Y-26733967D01*
X126446787Y-26733970D01*
X126450256Y-26737738D01*
X126646491Y-26890474D01*
X126865190Y-27008828D01*
X127100386Y-27089571D01*
X127345665Y-27130500D01*
X127589201Y-27130500D01*
X127594335Y-27130500D01*
X127839614Y-27089571D01*
X128074810Y-27008828D01*
X128293509Y-26890474D01*
X128489744Y-26737738D01*
X128648771Y-26564988D01*
X128706259Y-26529651D01*
X128773741Y-26529651D01*
X128831228Y-26564988D01*
X128909696Y-26650226D01*
X128986784Y-26733967D01*
X128986787Y-26733970D01*
X128990256Y-26737738D01*
X129186491Y-26890474D01*
X129405190Y-27008828D01*
X129640386Y-27089571D01*
X129885665Y-27130500D01*
X130129201Y-27130500D01*
X130134335Y-27130500D01*
X130379614Y-27089571D01*
X130614810Y-27008828D01*
X130833509Y-26890474D01*
X131029744Y-26737738D01*
X131188771Y-26564988D01*
X131246259Y-26529651D01*
X131313741Y-26529651D01*
X131371228Y-26564988D01*
X131449696Y-26650226D01*
X131526784Y-26733967D01*
X131526787Y-26733970D01*
X131530256Y-26737738D01*
X131726491Y-26890474D01*
X131945190Y-27008828D01*
X132180386Y-27089571D01*
X132425665Y-27130500D01*
X132669201Y-27130500D01*
X132674335Y-27130500D01*
X132919614Y-27089571D01*
X133154810Y-27008828D01*
X133373509Y-26890474D01*
X133569744Y-26737738D01*
X133728771Y-26564988D01*
X133786259Y-26529651D01*
X133853741Y-26529651D01*
X133911228Y-26564988D01*
X133989696Y-26650226D01*
X134066784Y-26733967D01*
X134066787Y-26733970D01*
X134070256Y-26737738D01*
X134266491Y-26890474D01*
X134485190Y-27008828D01*
X134720386Y-27089571D01*
X134965665Y-27130500D01*
X135209201Y-27130500D01*
X135214335Y-27130500D01*
X135459614Y-27089571D01*
X135694810Y-27008828D01*
X135913509Y-26890474D01*
X136109744Y-26737738D01*
X136268771Y-26564988D01*
X136326259Y-26529651D01*
X136393741Y-26529651D01*
X136451228Y-26564988D01*
X136529696Y-26650226D01*
X136606784Y-26733967D01*
X136606787Y-26733970D01*
X136610256Y-26737738D01*
X136806491Y-26890474D01*
X137025190Y-27008828D01*
X137260386Y-27089571D01*
X137505665Y-27130500D01*
X137749201Y-27130500D01*
X137754335Y-27130500D01*
X137999614Y-27089571D01*
X138234810Y-27008828D01*
X138453509Y-26890474D01*
X138649744Y-26737738D01*
X138808771Y-26564988D01*
X138866259Y-26529651D01*
X138933741Y-26529651D01*
X138991228Y-26564988D01*
X139069696Y-26650226D01*
X139146784Y-26733967D01*
X139146787Y-26733970D01*
X139150256Y-26737738D01*
X139346491Y-26890474D01*
X139565190Y-27008828D01*
X139800386Y-27089571D01*
X140045665Y-27130500D01*
X140289201Y-27130500D01*
X140294335Y-27130500D01*
X140539614Y-27089571D01*
X140774810Y-27008828D01*
X140993509Y-26890474D01*
X141189744Y-26737738D01*
X141358164Y-26554785D01*
X141494173Y-26346607D01*
X141594063Y-26118881D01*
X141655108Y-25877821D01*
X141675643Y-25630000D01*
X141655108Y-25382179D01*
X141594063Y-25141119D01*
X141494173Y-24913393D01*
X141469201Y-24875171D01*
X141422740Y-24804057D01*
X141358164Y-24705215D01*
X141244854Y-24582127D01*
X141193215Y-24526032D01*
X141193211Y-24526029D01*
X141189744Y-24522262D01*
X141016819Y-24387669D01*
X140997559Y-24372678D01*
X140997557Y-24372676D01*
X140993509Y-24369526D01*
X140988997Y-24367084D01*
X140779316Y-24253610D01*
X140779310Y-24253607D01*
X140774810Y-24251172D01*
X140769969Y-24249510D01*
X140769962Y-24249507D01*
X140544465Y-24172094D01*
X140544461Y-24172093D01*
X140539614Y-24170429D01*
X140398063Y-24146808D01*
X140342311Y-24122354D01*
X140304917Y-24074311D01*
X140294897Y-24014260D01*
X140314664Y-23956679D01*
X140359455Y-23915445D01*
X140418473Y-23900500D01*
X159575500Y-23900500D01*
X159637500Y-23917113D01*
X159682887Y-23962500D01*
X159699500Y-24024500D01*
X159699500Y-24187500D01*
X159669293Y-41556569D01*
X159650215Y-52526311D01*
X159633546Y-52588192D01*
X159588208Y-52633486D01*
X159526310Y-52650095D01*
X140773188Y-52664520D01*
X140707061Y-52645476D01*
X140661270Y-52594108D01*
X140649918Y-52526237D01*
X140676501Y-52462764D01*
X140732828Y-52423240D01*
X140774810Y-52408828D01*
X140993509Y-52290474D01*
X141189744Y-52137738D01*
X141358164Y-51954785D01*
X141422431Y-51856417D01*
X150400658Y-51856417D01*
X150408595Y-51864263D01*
X150507951Y-51925782D01*
X150518163Y-51930867D01*
X150714851Y-52007064D01*
X150725834Y-52010189D01*
X150933173Y-52048947D01*
X150944533Y-52050000D01*
X151155467Y-52050000D01*
X151166826Y-52048947D01*
X151374165Y-52010189D01*
X151385148Y-52007064D01*
X151581830Y-51930869D01*
X151592055Y-51925777D01*
X151691402Y-51864263D01*
X151699340Y-51856417D01*
X151693410Y-51846963D01*
X151061542Y-51215095D01*
X151050000Y-51208431D01*
X151038457Y-51215095D01*
X150406588Y-51846963D01*
X150400658Y-51856417D01*
X141422431Y-51856417D01*
X141494173Y-51746607D01*
X141594063Y-51518881D01*
X141655108Y-51277821D01*
X141675643Y-51030000D01*
X141661201Y-50855709D01*
X149845388Y-50855709D01*
X149864850Y-51065736D01*
X149866948Y-51076958D01*
X149924670Y-51279832D01*
X149928793Y-51290477D01*
X150022813Y-51479295D01*
X150028822Y-51489000D01*
X150030419Y-51491113D01*
X150041549Y-51499385D01*
X150053713Y-51492732D01*
X150684904Y-50861542D01*
X150691568Y-50849999D01*
X151408431Y-50849999D01*
X151415095Y-50861542D01*
X152046285Y-51492732D01*
X152058450Y-51499386D01*
X152069578Y-51491116D01*
X152071177Y-51488999D01*
X152077186Y-51479295D01*
X152171206Y-51290477D01*
X152175329Y-51279832D01*
X152233051Y-51076958D01*
X152235149Y-51065736D01*
X152254612Y-50855709D01*
X152254612Y-50844291D01*
X152235149Y-50634263D01*
X152233051Y-50623041D01*
X152175329Y-50420167D01*
X152171206Y-50409522D01*
X152077186Y-50220704D01*
X152071179Y-50211002D01*
X152069579Y-50208884D01*
X152058449Y-50200613D01*
X152046285Y-50207266D01*
X151415095Y-50838457D01*
X151408431Y-50849999D01*
X150691568Y-50849999D01*
X150684904Y-50838457D01*
X150053715Y-50207268D01*
X150041548Y-50200613D01*
X150030420Y-50208884D01*
X150028821Y-50211001D01*
X150022814Y-50220703D01*
X149928793Y-50409522D01*
X149924670Y-50420167D01*
X149866948Y-50623041D01*
X149864850Y-50634263D01*
X149845388Y-50844291D01*
X149845388Y-50855709D01*
X141661201Y-50855709D01*
X141655108Y-50782179D01*
X141594063Y-50541119D01*
X141494173Y-50313393D01*
X141433616Y-50220704D01*
X141396146Y-50163351D01*
X141358164Y-50105215D01*
X141315143Y-50058482D01*
X141287241Y-50008898D01*
X141284419Y-49952071D01*
X141307275Y-49899966D01*
X141350994Y-49863554D01*
X141406374Y-49850500D01*
X146636293Y-49850500D01*
X146654264Y-49851809D01*
X146658160Y-49852379D01*
X146678023Y-49855289D01*
X146727368Y-49850972D01*
X146738176Y-49850500D01*
X146740100Y-49850500D01*
X146743709Y-49850500D01*
X146774550Y-49846894D01*
X146778031Y-49846539D01*
X146852797Y-49839999D01*
X146859653Y-49837726D01*
X146863043Y-49837027D01*
X146863375Y-49836973D01*
X146863728Y-49836873D01*
X146867071Y-49836080D01*
X146874255Y-49835241D01*
X146944760Y-49809579D01*
X146948118Y-49808412D01*
X147019334Y-49784814D01*
X147025486Y-49781018D01*
X147028607Y-49779564D01*
X147028929Y-49779430D01*
X147029238Y-49779258D01*
X147032315Y-49777712D01*
X147039117Y-49775237D01*
X147101837Y-49733984D01*
X147104732Y-49732140D01*
X147168656Y-49692712D01*
X147173763Y-49687603D01*
X147176476Y-49685459D01*
X147176758Y-49685254D01*
X147177029Y-49685007D01*
X147179659Y-49682799D01*
X147185696Y-49678830D01*
X147237185Y-49624253D01*
X147239629Y-49621737D01*
X149624548Y-47236819D01*
X149664777Y-47209939D01*
X149712230Y-47200500D01*
X150165021Y-47200500D01*
X150222334Y-47214540D01*
X150266669Y-47253481D01*
X150287985Y-47308504D01*
X150281456Y-47367149D01*
X150248560Y-47416135D01*
X150159019Y-47497764D01*
X150155570Y-47502330D01*
X150155561Y-47502341D01*
X150028394Y-47670738D01*
X150028387Y-47670748D01*
X150024942Y-47675311D01*
X150022392Y-47680431D01*
X150022387Y-47680440D01*
X149928325Y-47869341D01*
X149928321Y-47869349D01*
X149925771Y-47874472D01*
X149924205Y-47879975D01*
X149924201Y-47879986D01*
X149866454Y-48082949D01*
X149864885Y-48088464D01*
X149864356Y-48094169D01*
X149864356Y-48094171D01*
X149850627Y-48242331D01*
X149844357Y-48310000D01*
X149844886Y-48315709D01*
X149863828Y-48520135D01*
X149864885Y-48531536D01*
X149866454Y-48537050D01*
X149924201Y-48740013D01*
X149924204Y-48740021D01*
X149925771Y-48745528D01*
X149928323Y-48750653D01*
X149928325Y-48750658D01*
X150022387Y-48939559D01*
X150022389Y-48939563D01*
X150024942Y-48944689D01*
X150028391Y-48949256D01*
X150028394Y-48949261D01*
X150155561Y-49117658D01*
X150155566Y-49117663D01*
X150159019Y-49122236D01*
X150163255Y-49126097D01*
X150163259Y-49126102D01*
X150223677Y-49181180D01*
X150323438Y-49272124D01*
X150512599Y-49389247D01*
X150707214Y-49464641D01*
X150755583Y-49498436D01*
X150782857Y-49550763D01*
X150782857Y-49609771D01*
X150755583Y-49662097D01*
X150707212Y-49695893D01*
X150518173Y-49769127D01*
X150507950Y-49774218D01*
X150408594Y-49835736D01*
X150400659Y-49843581D01*
X150406589Y-49853036D01*
X151038457Y-50484904D01*
X151050000Y-50491568D01*
X151061542Y-50484904D01*
X151693409Y-49853036D01*
X151699339Y-49843581D01*
X151691403Y-49835736D01*
X151592049Y-49774218D01*
X151581827Y-49769128D01*
X151392787Y-49695893D01*
X151344416Y-49662097D01*
X151317142Y-49609771D01*
X151317142Y-49550763D01*
X151344416Y-49498436D01*
X151392783Y-49464642D01*
X151587401Y-49389247D01*
X151776562Y-49272124D01*
X151940981Y-49122236D01*
X152075058Y-48944689D01*
X152174229Y-48745528D01*
X152235115Y-48531536D01*
X152255643Y-48310000D01*
X152235115Y-48088464D01*
X152174229Y-47874472D01*
X152075058Y-47675311D01*
X152050809Y-47643200D01*
X151944438Y-47502341D01*
X151944434Y-47502337D01*
X151940981Y-47497764D01*
X151851439Y-47416135D01*
X151818544Y-47367149D01*
X151812015Y-47308504D01*
X151833331Y-47253481D01*
X151877666Y-47214540D01*
X151934979Y-47200500D01*
X155757770Y-47200500D01*
X155805223Y-47209939D01*
X155845451Y-47236819D01*
X156463181Y-47854548D01*
X156490061Y-47894776D01*
X156499500Y-47942229D01*
X156499500Y-49174560D01*
X156499500Y-49174578D01*
X156499501Y-49177872D01*
X156499853Y-49181150D01*
X156499854Y-49181161D01*
X156505079Y-49229768D01*
X156505080Y-49229773D01*
X156505909Y-49237483D01*
X156508619Y-49244749D01*
X156508620Y-49244753D01*
X156515485Y-49263158D01*
X156556204Y-49372331D01*
X156561518Y-49379430D01*
X156561519Y-49379431D01*
X156625306Y-49464640D01*
X156642454Y-49487546D01*
X156757669Y-49573796D01*
X156812225Y-49594144D01*
X156837904Y-49603722D01*
X156887440Y-49637737D01*
X156915166Y-49691047D01*
X156914574Y-49751133D01*
X156885801Y-49803886D01*
X156794496Y-49903070D01*
X156794485Y-49903083D01*
X156791021Y-49906847D01*
X156788226Y-49911124D01*
X156788219Y-49911134D01*
X156691952Y-50058483D01*
X156664076Y-50101151D01*
X156662021Y-50105835D01*
X156662016Y-50105845D01*
X156607349Y-50230474D01*
X156570843Y-50313700D01*
X156569585Y-50318665D01*
X156569584Y-50318670D01*
X156515125Y-50533720D01*
X156515123Y-50533729D01*
X156513866Y-50538695D01*
X156513442Y-50543802D01*
X156513441Y-50543813D01*
X156503065Y-50669047D01*
X156494700Y-50770000D01*
X156495124Y-50775117D01*
X156513441Y-50996186D01*
X156513442Y-50996195D01*
X156513866Y-51001305D01*
X156515123Y-51006272D01*
X156515125Y-51006279D01*
X156522428Y-51035117D01*
X156570843Y-51226300D01*
X156572903Y-51230996D01*
X156662016Y-51434154D01*
X156662019Y-51434159D01*
X156664076Y-51438849D01*
X156719432Y-51523577D01*
X156788219Y-51628865D01*
X156788222Y-51628869D01*
X156791021Y-51633153D01*
X156948216Y-51803913D01*
X157131374Y-51946470D01*
X157335497Y-52056936D01*
X157555019Y-52132298D01*
X157783951Y-52170500D01*
X158010916Y-52170500D01*
X158016049Y-52170500D01*
X158244981Y-52132298D01*
X158464503Y-52056936D01*
X158668626Y-51946470D01*
X158851784Y-51803913D01*
X159008979Y-51633153D01*
X159135924Y-51438849D01*
X159229157Y-51226300D01*
X159286134Y-51001305D01*
X159305300Y-50770000D01*
X159286134Y-50538695D01*
X159229157Y-50313700D01*
X159135924Y-50101151D01*
X159019050Y-49922262D01*
X159011780Y-49911134D01*
X159011778Y-49911132D01*
X159008979Y-49906847D01*
X158914197Y-49803886D01*
X158885425Y-49751134D01*
X158884833Y-49691047D01*
X158912560Y-49637737D01*
X158962095Y-49603722D01*
X158963165Y-49603323D01*
X159042331Y-49573796D01*
X159157546Y-49487546D01*
X159243796Y-49372331D01*
X159294091Y-49237483D01*
X159300500Y-49177873D01*
X159300499Y-47282128D01*
X159294091Y-47222517D01*
X159243796Y-47087669D01*
X159157546Y-46972454D01*
X159080252Y-46914592D01*
X159049431Y-46891519D01*
X159049430Y-46891518D01*
X159042331Y-46886204D01*
X158952593Y-46852734D01*
X158914752Y-46838620D01*
X158914750Y-46838619D01*
X158907483Y-46835909D01*
X158899770Y-46835079D01*
X158899767Y-46835079D01*
X158851180Y-46829855D01*
X158851169Y-46829854D01*
X158847873Y-46829500D01*
X158844551Y-46829500D01*
X157612230Y-46829500D01*
X157564777Y-46820061D01*
X157524549Y-46793181D01*
X156695729Y-45964361D01*
X156683947Y-45950727D01*
X156673925Y-45937265D01*
X156673921Y-45937261D01*
X156669610Y-45931470D01*
X156631667Y-45899631D01*
X156623691Y-45892323D01*
X156622329Y-45890961D01*
X156619777Y-45888409D01*
X156616953Y-45886176D01*
X156616944Y-45886168D01*
X156595445Y-45869170D01*
X156592674Y-45866913D01*
X156535214Y-45818698D01*
X156528760Y-45815456D01*
X156525859Y-45813548D01*
X156525588Y-45813352D01*
X156525292Y-45813187D01*
X156522339Y-45811366D01*
X156516677Y-45806889D01*
X156510134Y-45803838D01*
X156510131Y-45803836D01*
X156448692Y-45775186D01*
X156445446Y-45773615D01*
X156440205Y-45770983D01*
X156378433Y-45739960D01*
X156371409Y-45738295D01*
X156368151Y-45737109D01*
X156367832Y-45736977D01*
X156367504Y-45736884D01*
X156364218Y-45735795D01*
X156357673Y-45732743D01*
X156350604Y-45731283D01*
X156350600Y-45731282D01*
X156284212Y-45717574D01*
X156280691Y-45716794D01*
X156214741Y-45701163D01*
X156214734Y-45701162D01*
X156207721Y-45699500D01*
X156200510Y-45699500D01*
X156197061Y-45699097D01*
X156196727Y-45699043D01*
X156196374Y-45699028D01*
X156192929Y-45698726D01*
X156185856Y-45697266D01*
X156178638Y-45697476D01*
X156110870Y-45699448D01*
X156107263Y-45699500D01*
X149413707Y-45699500D01*
X149395736Y-45698191D01*
X149379126Y-45695758D01*
X149379124Y-45695757D01*
X149371977Y-45694711D01*
X149364784Y-45695340D01*
X149364778Y-45695340D01*
X149322631Y-45699028D01*
X149311824Y-45699500D01*
X149306291Y-45699500D01*
X149302730Y-45699916D01*
X149302715Y-45699917D01*
X149275501Y-45703098D01*
X149271916Y-45703464D01*
X149204393Y-45709371D01*
X149204385Y-45709372D01*
X149197203Y-45710001D01*
X149190352Y-45712270D01*
X149186935Y-45712976D01*
X149186619Y-45713027D01*
X149186295Y-45713119D01*
X149182913Y-45713920D01*
X149175745Y-45714759D01*
X149168968Y-45717225D01*
X149168957Y-45717228D01*
X149105231Y-45740421D01*
X149101831Y-45741603D01*
X149071863Y-45751533D01*
X149030666Y-45765186D01*
X149024528Y-45768971D01*
X149021367Y-45770445D01*
X149021061Y-45770571D01*
X149020781Y-45770728D01*
X149017659Y-45772296D01*
X149010883Y-45774763D01*
X149004855Y-45778727D01*
X149004854Y-45778728D01*
X148948220Y-45815976D01*
X148945182Y-45817911D01*
X148887492Y-45853495D01*
X148887483Y-45853501D01*
X148881345Y-45857288D01*
X148876243Y-45862389D01*
X148873504Y-45864555D01*
X148873239Y-45864745D01*
X148872995Y-45864970D01*
X148870331Y-45867205D01*
X148864304Y-45871170D01*
X148859355Y-45876414D01*
X148859353Y-45876417D01*
X148812832Y-45925726D01*
X148810320Y-45928311D01*
X146425451Y-48313181D01*
X146385223Y-48340061D01*
X146337770Y-48349500D01*
X138749758Y-48349500D01*
X138693463Y-48335985D01*
X138649440Y-48298385D01*
X138627285Y-48244898D01*
X138631827Y-48187182D01*
X138662077Y-48137819D01*
X138716947Y-48082949D01*
X138778495Y-48021401D01*
X138914035Y-47827830D01*
X139013903Y-47613663D01*
X139075063Y-47385408D01*
X139095659Y-47150000D01*
X139075063Y-46914592D01*
X139013903Y-46686337D01*
X138914035Y-46472171D01*
X138778495Y-46278599D01*
X138611401Y-46111505D01*
X138606970Y-46108402D01*
X138606966Y-46108399D01*
X138422259Y-45979066D01*
X138422257Y-45979064D01*
X138417830Y-45975965D01*
X138412933Y-45973681D01*
X138412927Y-45973678D01*
X138208572Y-45878386D01*
X138208570Y-45878385D01*
X138203663Y-45876097D01*
X138198438Y-45874697D01*
X138198430Y-45874694D01*
X137980634Y-45816337D01*
X137980630Y-45816336D01*
X137975408Y-45814937D01*
X137970020Y-45814465D01*
X137970017Y-45814465D01*
X137745395Y-45794813D01*
X137740000Y-45794341D01*
X137734605Y-45794813D01*
X137509982Y-45814465D01*
X137509977Y-45814465D01*
X137504592Y-45814937D01*
X137499371Y-45816335D01*
X137499365Y-45816337D01*
X137281569Y-45874694D01*
X137281557Y-45874698D01*
X137276337Y-45876097D01*
X137271432Y-45878383D01*
X137271427Y-45878386D01*
X137067081Y-45973675D01*
X137067077Y-45973677D01*
X137062171Y-45975965D01*
X137057738Y-45979068D01*
X137057731Y-45979073D01*
X136873034Y-46108399D01*
X136873029Y-46108402D01*
X136868599Y-46111505D01*
X136864775Y-46115328D01*
X136864769Y-46115334D01*
X136705334Y-46274769D01*
X136705328Y-46274775D01*
X136701505Y-46278599D01*
X136698402Y-46283029D01*
X136698399Y-46283034D01*
X136571575Y-46464159D01*
X136527257Y-46503025D01*
X136470000Y-46517036D01*
X136412743Y-46503025D01*
X136368425Y-46464159D01*
X136315265Y-46388238D01*
X136238495Y-46278599D01*
X136071401Y-46111505D01*
X136066970Y-46108402D01*
X136066966Y-46108399D01*
X135882259Y-45979066D01*
X135882257Y-45979064D01*
X135877830Y-45975965D01*
X135872933Y-45973681D01*
X135872927Y-45973678D01*
X135668572Y-45878386D01*
X135668570Y-45878385D01*
X135663663Y-45876097D01*
X135658438Y-45874697D01*
X135658430Y-45874694D01*
X135440634Y-45816337D01*
X135440630Y-45816336D01*
X135435408Y-45814937D01*
X135430020Y-45814465D01*
X135430017Y-45814465D01*
X135205395Y-45794813D01*
X135200000Y-45794341D01*
X135194605Y-45794813D01*
X134969982Y-45814465D01*
X134969977Y-45814465D01*
X134964592Y-45814937D01*
X134959371Y-45816335D01*
X134959365Y-45816337D01*
X134741569Y-45874694D01*
X134741557Y-45874698D01*
X134736337Y-45876097D01*
X134731432Y-45878383D01*
X134731427Y-45878386D01*
X134527081Y-45973675D01*
X134527077Y-45973677D01*
X134522171Y-45975965D01*
X134517738Y-45979068D01*
X134517731Y-45979073D01*
X134333034Y-46108399D01*
X134333029Y-46108402D01*
X134328599Y-46111505D01*
X134324774Y-46115329D01*
X134324775Y-46115329D01*
X134206673Y-46233431D01*
X134153926Y-46264726D01*
X134092633Y-46266915D01*
X134037789Y-46239462D01*
X134002810Y-46189082D01*
X133975304Y-46115336D01*
X133953796Y-46057669D01*
X133867546Y-45942454D01*
X133852873Y-45931470D01*
X133759431Y-45861519D01*
X133759430Y-45861518D01*
X133752331Y-45856204D01*
X133644474Y-45815976D01*
X133624752Y-45808620D01*
X133624750Y-45808619D01*
X133617483Y-45805909D01*
X133609770Y-45805079D01*
X133609767Y-45805079D01*
X133561180Y-45799855D01*
X133561169Y-45799854D01*
X133557873Y-45799500D01*
X133554550Y-45799500D01*
X131765439Y-45799500D01*
X131765420Y-45799500D01*
X131762128Y-45799501D01*
X131758850Y-45799853D01*
X131758838Y-45799854D01*
X131710231Y-45805079D01*
X131710225Y-45805080D01*
X131702517Y-45805909D01*
X131695252Y-45808618D01*
X131695246Y-45808620D01*
X131575980Y-45853104D01*
X131575978Y-45853104D01*
X131567669Y-45856204D01*
X131560572Y-45861516D01*
X131560568Y-45861519D01*
X131459550Y-45937141D01*
X131459546Y-45937144D01*
X131452454Y-45942454D01*
X131447144Y-45949546D01*
X131447141Y-45949550D01*
X131371519Y-46050568D01*
X131371516Y-46050572D01*
X131366204Y-46057669D01*
X131363104Y-46065978D01*
X131363104Y-46065980D01*
X131318620Y-46185247D01*
X131318619Y-46185250D01*
X131315909Y-46192517D01*
X131315079Y-46200227D01*
X131315079Y-46200232D01*
X131309855Y-46248819D01*
X131309854Y-46248831D01*
X131309500Y-46252127D01*
X131309500Y-46255448D01*
X131309500Y-46255449D01*
X131309500Y-48044560D01*
X131309500Y-48044578D01*
X131309501Y-48047872D01*
X131309853Y-48051150D01*
X131309854Y-48051161D01*
X131315079Y-48099768D01*
X131315080Y-48099773D01*
X131315909Y-48107483D01*
X131318619Y-48114749D01*
X131318620Y-48114753D01*
X131341155Y-48175171D01*
X131366204Y-48242331D01*
X131371518Y-48249430D01*
X131371519Y-48249431D01*
X131427367Y-48324035D01*
X131452454Y-48357546D01*
X131567669Y-48443796D01*
X131702517Y-48494091D01*
X131762127Y-48500500D01*
X132688770Y-48500499D01*
X132745064Y-48514014D01*
X132789087Y-48551614D01*
X132811242Y-48605101D01*
X132806700Y-48662817D01*
X132776450Y-48712180D01*
X132064358Y-49424272D01*
X132050730Y-49436050D01*
X132037263Y-49446076D01*
X132037257Y-49446081D01*
X132031470Y-49450390D01*
X132026832Y-49455916D01*
X132026830Y-49455919D01*
X131999633Y-49488330D01*
X131992350Y-49496280D01*
X131990969Y-49497661D01*
X131990955Y-49497676D01*
X131988409Y-49500223D01*
X131986173Y-49503050D01*
X131986171Y-49503053D01*
X131969176Y-49524546D01*
X131966902Y-49527337D01*
X131923336Y-49579257D01*
X131923331Y-49579264D01*
X131918698Y-49584786D01*
X131915459Y-49591233D01*
X131913545Y-49594144D01*
X131913352Y-49594410D01*
X131913192Y-49594698D01*
X131911363Y-49597663D01*
X131906889Y-49603323D01*
X131903839Y-49609862D01*
X131903838Y-49609865D01*
X131881437Y-49657903D01*
X131859315Y-49690521D01*
X131828074Y-49714550D01*
X131731007Y-49767080D01*
X131730988Y-49767091D01*
X131726491Y-49769526D01*
X131722450Y-49772670D01*
X131722441Y-49772677D01*
X131550061Y-49906847D01*
X131530256Y-49922262D01*
X131526793Y-49926023D01*
X131526784Y-49926032D01*
X131371230Y-50095010D01*
X131313741Y-50130348D01*
X131246259Y-50130348D01*
X131188770Y-50095010D01*
X131033215Y-49926032D01*
X131033211Y-49926029D01*
X131029744Y-49922262D01*
X130871966Y-49799458D01*
X130837559Y-49772678D01*
X130837557Y-49772676D01*
X130833509Y-49769526D01*
X130828997Y-49767084D01*
X130619316Y-49653610D01*
X130619310Y-49653607D01*
X130614810Y-49651172D01*
X130609969Y-49649510D01*
X130609962Y-49649507D01*
X130384465Y-49572094D01*
X130384461Y-49572093D01*
X130379614Y-49570429D01*
X130367934Y-49568480D01*
X130139398Y-49530344D01*
X130139387Y-49530343D01*
X130134335Y-49529500D01*
X129885665Y-49529500D01*
X129880613Y-49530343D01*
X129880601Y-49530344D01*
X129645443Y-49569585D01*
X129645441Y-49569585D01*
X129640386Y-49570429D01*
X129635541Y-49572092D01*
X129635534Y-49572094D01*
X129410037Y-49649507D01*
X129410026Y-49649511D01*
X129405190Y-49651172D01*
X129400693Y-49653605D01*
X129400683Y-49653610D01*
X129191002Y-49767084D01*
X129190995Y-49767088D01*
X129186491Y-49769526D01*
X129182448Y-49772672D01*
X129182440Y-49772678D01*
X129010061Y-49906847D01*
X128990256Y-49922262D01*
X128986793Y-49926023D01*
X128986784Y-49926032D01*
X128831230Y-50095010D01*
X128773741Y-50130348D01*
X128706259Y-50130348D01*
X128648770Y-50095010D01*
X128493215Y-49926032D01*
X128493211Y-49926029D01*
X128489744Y-49922262D01*
X128331966Y-49799458D01*
X128297559Y-49772678D01*
X128297557Y-49772676D01*
X128293509Y-49769526D01*
X128288997Y-49767084D01*
X128079316Y-49653610D01*
X128079310Y-49653607D01*
X128074810Y-49651172D01*
X128069969Y-49649510D01*
X128069962Y-49649507D01*
X127844465Y-49572094D01*
X127844461Y-49572093D01*
X127839614Y-49570429D01*
X127827934Y-49568480D01*
X127599398Y-49530344D01*
X127599387Y-49530343D01*
X127594335Y-49529500D01*
X127345665Y-49529500D01*
X127340613Y-49530343D01*
X127340601Y-49530344D01*
X127105443Y-49569585D01*
X127105441Y-49569585D01*
X127100386Y-49570429D01*
X127095541Y-49572092D01*
X127095534Y-49572094D01*
X126870037Y-49649507D01*
X126870026Y-49649511D01*
X126865190Y-49651172D01*
X126860693Y-49653605D01*
X126860683Y-49653610D01*
X126651002Y-49767084D01*
X126650995Y-49767088D01*
X126646491Y-49769526D01*
X126642448Y-49772672D01*
X126642440Y-49772678D01*
X126470061Y-49906847D01*
X126450256Y-49922262D01*
X126446793Y-49926023D01*
X126446784Y-49926032D01*
X126291230Y-50095010D01*
X126233741Y-50130348D01*
X126166259Y-50130348D01*
X126108770Y-50095010D01*
X125953215Y-49926032D01*
X125953211Y-49926029D01*
X125949744Y-49922262D01*
X125791966Y-49799458D01*
X125757559Y-49772678D01*
X125757557Y-49772676D01*
X125753509Y-49769526D01*
X125748997Y-49767084D01*
X125539316Y-49653610D01*
X125539310Y-49653607D01*
X125534810Y-49651172D01*
X125529969Y-49649510D01*
X125529962Y-49649507D01*
X125304465Y-49572094D01*
X125304461Y-49572093D01*
X125299614Y-49570429D01*
X125287934Y-49568480D01*
X125059398Y-49530344D01*
X125059387Y-49530343D01*
X125054335Y-49529500D01*
X124805665Y-49529500D01*
X124800613Y-49530343D01*
X124800601Y-49530344D01*
X124565443Y-49569585D01*
X124565441Y-49569585D01*
X124560386Y-49570429D01*
X124555541Y-49572092D01*
X124555534Y-49572094D01*
X124330037Y-49649507D01*
X124330026Y-49649511D01*
X124325190Y-49651172D01*
X124320693Y-49653605D01*
X124320683Y-49653610D01*
X124111002Y-49767084D01*
X124110995Y-49767088D01*
X124106491Y-49769526D01*
X124102448Y-49772672D01*
X124102440Y-49772678D01*
X123930061Y-49906847D01*
X123910256Y-49922262D01*
X123906793Y-49926023D01*
X123906784Y-49926032D01*
X123751230Y-50095010D01*
X123693741Y-50130348D01*
X123626259Y-50130348D01*
X123568770Y-50095010D01*
X123413215Y-49926032D01*
X123413211Y-49926029D01*
X123409744Y-49922262D01*
X123251966Y-49799458D01*
X123217559Y-49772678D01*
X123217557Y-49772676D01*
X123213509Y-49769526D01*
X123208997Y-49767084D01*
X122999316Y-49653610D01*
X122999310Y-49653607D01*
X122994810Y-49651172D01*
X122989969Y-49649510D01*
X122989962Y-49649507D01*
X122764465Y-49572094D01*
X122764461Y-49572093D01*
X122759614Y-49570429D01*
X122747934Y-49568480D01*
X122519398Y-49530344D01*
X122519387Y-49530343D01*
X122514335Y-49529500D01*
X122265665Y-49529500D01*
X122260613Y-49530343D01*
X122260601Y-49530344D01*
X122025443Y-49569585D01*
X122025441Y-49569585D01*
X122020386Y-49570429D01*
X122015541Y-49572092D01*
X122015534Y-49572094D01*
X121790037Y-49649507D01*
X121790026Y-49649511D01*
X121785190Y-49651172D01*
X121780693Y-49653605D01*
X121780683Y-49653610D01*
X121571002Y-49767084D01*
X121570995Y-49767088D01*
X121566491Y-49769526D01*
X121562448Y-49772672D01*
X121562440Y-49772678D01*
X121390061Y-49906847D01*
X121370256Y-49922262D01*
X121366793Y-49926023D01*
X121366784Y-49926032D01*
X121211230Y-50095010D01*
X121153741Y-50130348D01*
X121086259Y-50130348D01*
X121028770Y-50095010D01*
X120873215Y-49926032D01*
X120873211Y-49926029D01*
X120869744Y-49922262D01*
X120711966Y-49799458D01*
X120677559Y-49772678D01*
X120677557Y-49772676D01*
X120673509Y-49769526D01*
X120668997Y-49767084D01*
X120459316Y-49653610D01*
X120459310Y-49653607D01*
X120454810Y-49651172D01*
X120449969Y-49649510D01*
X120449962Y-49649507D01*
X120224465Y-49572094D01*
X120224461Y-49572093D01*
X120219614Y-49570429D01*
X120207934Y-49568480D01*
X119979398Y-49530344D01*
X119979387Y-49530343D01*
X119974335Y-49529500D01*
X119725665Y-49529500D01*
X119720613Y-49530343D01*
X119720601Y-49530344D01*
X119485443Y-49569585D01*
X119485441Y-49569585D01*
X119480386Y-49570429D01*
X119475541Y-49572092D01*
X119475534Y-49572094D01*
X119250037Y-49649507D01*
X119250026Y-49649511D01*
X119245190Y-49651172D01*
X119240693Y-49653605D01*
X119240683Y-49653610D01*
X119031002Y-49767084D01*
X119030995Y-49767088D01*
X119026491Y-49769526D01*
X119022448Y-49772672D01*
X119022440Y-49772678D01*
X118850061Y-49906847D01*
X118830256Y-49922262D01*
X118826793Y-49926023D01*
X118826784Y-49926032D01*
X118671230Y-50095010D01*
X118613741Y-50130348D01*
X118546259Y-50130348D01*
X118488770Y-50095010D01*
X118333215Y-49926032D01*
X118333211Y-49926029D01*
X118329744Y-49922262D01*
X118171966Y-49799458D01*
X118137559Y-49772678D01*
X118137557Y-49772676D01*
X118133509Y-49769526D01*
X118128997Y-49767084D01*
X117919316Y-49653610D01*
X117919310Y-49653607D01*
X117914810Y-49651172D01*
X117909969Y-49649510D01*
X117909962Y-49649507D01*
X117684465Y-49572094D01*
X117684461Y-49572093D01*
X117679614Y-49570429D01*
X117667934Y-49568480D01*
X117439398Y-49530344D01*
X117439387Y-49530343D01*
X117434335Y-49529500D01*
X117185665Y-49529500D01*
X117180613Y-49530343D01*
X117180601Y-49530344D01*
X116945443Y-49569585D01*
X116945441Y-49569585D01*
X116940386Y-49570429D01*
X116935541Y-49572092D01*
X116935534Y-49572094D01*
X116710037Y-49649507D01*
X116710026Y-49649511D01*
X116705190Y-49651172D01*
X116700693Y-49653605D01*
X116700683Y-49653610D01*
X116491002Y-49767084D01*
X116490995Y-49767088D01*
X116486491Y-49769526D01*
X116482448Y-49772672D01*
X116482440Y-49772678D01*
X116310061Y-49906847D01*
X116290256Y-49922262D01*
X116286793Y-49926023D01*
X116286784Y-49926032D01*
X116131230Y-50095010D01*
X116073741Y-50130348D01*
X116006259Y-50130348D01*
X115948770Y-50095010D01*
X115793215Y-49926032D01*
X115793211Y-49926029D01*
X115789744Y-49922262D01*
X115631966Y-49799458D01*
X115597559Y-49772678D01*
X115597557Y-49772676D01*
X115593509Y-49769526D01*
X115588997Y-49767084D01*
X115379316Y-49653610D01*
X115379310Y-49653607D01*
X115374810Y-49651172D01*
X115369969Y-49649510D01*
X115369962Y-49649507D01*
X115144465Y-49572094D01*
X115144461Y-49572093D01*
X115139614Y-49570429D01*
X115127934Y-49568480D01*
X114899398Y-49530344D01*
X114899387Y-49530343D01*
X114894335Y-49529500D01*
X114645665Y-49529500D01*
X114640613Y-49530343D01*
X114640601Y-49530344D01*
X114405443Y-49569585D01*
X114405441Y-49569585D01*
X114400386Y-49570429D01*
X114395541Y-49572092D01*
X114395534Y-49572094D01*
X114170037Y-49649507D01*
X114170026Y-49649511D01*
X114165190Y-49651172D01*
X114160693Y-49653605D01*
X114160683Y-49653610D01*
X113951002Y-49767084D01*
X113950995Y-49767088D01*
X113946491Y-49769526D01*
X113942448Y-49772672D01*
X113942440Y-49772678D01*
X113770061Y-49906847D01*
X113750256Y-49922262D01*
X113746793Y-49926023D01*
X113746784Y-49926032D01*
X113591230Y-50095010D01*
X113533741Y-50130348D01*
X113466259Y-50130348D01*
X113408770Y-50095010D01*
X113253215Y-49926032D01*
X113253211Y-49926029D01*
X113249744Y-49922262D01*
X113091966Y-49799458D01*
X113057559Y-49772678D01*
X113057557Y-49772676D01*
X113053509Y-49769526D01*
X113048997Y-49767084D01*
X112839316Y-49653610D01*
X112839310Y-49653607D01*
X112834810Y-49651172D01*
X112829969Y-49649510D01*
X112829962Y-49649507D01*
X112604465Y-49572094D01*
X112604461Y-49572093D01*
X112599614Y-49570429D01*
X112587934Y-49568480D01*
X112359398Y-49530344D01*
X112359387Y-49530343D01*
X112354335Y-49529500D01*
X112105665Y-49529500D01*
X112100613Y-49530343D01*
X112100601Y-49530344D01*
X111865443Y-49569585D01*
X111865441Y-49569585D01*
X111860386Y-49570429D01*
X111855541Y-49572092D01*
X111855534Y-49572094D01*
X111630037Y-49649507D01*
X111630026Y-49649511D01*
X111625190Y-49651172D01*
X111620693Y-49653605D01*
X111620683Y-49653610D01*
X111411002Y-49767084D01*
X111410995Y-49767088D01*
X111406491Y-49769526D01*
X111402448Y-49772672D01*
X111402440Y-49772678D01*
X111230061Y-49906847D01*
X111210256Y-49922262D01*
X111206793Y-49926023D01*
X111206784Y-49926032D01*
X111051230Y-50095010D01*
X110993741Y-50130348D01*
X110926259Y-50130348D01*
X110868770Y-50095010D01*
X110713215Y-49926032D01*
X110713211Y-49926029D01*
X110709744Y-49922262D01*
X110551966Y-49799458D01*
X110517559Y-49772678D01*
X110517557Y-49772676D01*
X110513509Y-49769526D01*
X110508997Y-49767084D01*
X110299316Y-49653610D01*
X110299310Y-49653607D01*
X110294810Y-49651172D01*
X110289969Y-49649510D01*
X110289962Y-49649507D01*
X110064465Y-49572094D01*
X110064461Y-49572093D01*
X110059614Y-49570429D01*
X110047934Y-49568480D01*
X109819398Y-49530344D01*
X109819387Y-49530343D01*
X109814335Y-49529500D01*
X109565665Y-49529500D01*
X109560612Y-49530343D01*
X109560601Y-49530344D01*
X109405975Y-49556146D01*
X109347735Y-49551925D01*
X109297885Y-49521518D01*
X108488547Y-48712180D01*
X107640729Y-47864361D01*
X107628947Y-47850727D01*
X107618925Y-47837265D01*
X107618921Y-47837261D01*
X107614610Y-47831470D01*
X107576667Y-47799631D01*
X107568691Y-47792323D01*
X107567329Y-47790961D01*
X107564777Y-47788409D01*
X107561953Y-47786176D01*
X107561944Y-47786168D01*
X107540445Y-47769170D01*
X107537674Y-47766913D01*
X107480214Y-47718698D01*
X107473760Y-47715456D01*
X107470859Y-47713548D01*
X107470588Y-47713352D01*
X107470292Y-47713187D01*
X107467339Y-47711366D01*
X107461677Y-47706889D01*
X107455134Y-47703838D01*
X107455131Y-47703836D01*
X107393692Y-47675186D01*
X107390446Y-47673615D01*
X107323433Y-47639960D01*
X107316409Y-47638295D01*
X107313151Y-47637109D01*
X107312832Y-47636977D01*
X107312504Y-47636884D01*
X107309218Y-47635795D01*
X107302673Y-47632743D01*
X107295604Y-47631283D01*
X107295600Y-47631282D01*
X107229212Y-47617574D01*
X107225691Y-47616794D01*
X107159741Y-47601163D01*
X107159734Y-47601162D01*
X107152721Y-47599500D01*
X107145510Y-47599500D01*
X107142061Y-47599097D01*
X107141727Y-47599043D01*
X107141374Y-47599028D01*
X107137929Y-47598726D01*
X107130856Y-47597266D01*
X107123638Y-47597476D01*
X107055870Y-47599448D01*
X107052263Y-47599500D01*
X102762230Y-47599500D01*
X102714777Y-47590061D01*
X102674549Y-47563181D01*
X102290431Y-47179063D01*
X109078558Y-47179063D01*
X109088139Y-47185464D01*
X109225475Y-47233521D01*
X109238977Y-47236603D01*
X109393077Y-47253966D01*
X109406923Y-47253966D01*
X109561022Y-47236603D01*
X109574524Y-47233521D01*
X109711859Y-47185464D01*
X109721440Y-47179063D01*
X109715586Y-47169139D01*
X109411542Y-46865095D01*
X109400000Y-46858431D01*
X109388456Y-46865096D01*
X109084412Y-47169139D01*
X109078558Y-47179063D01*
X102290431Y-47179063D01*
X100788704Y-45677336D01*
X100758454Y-45627972D01*
X100735369Y-45556923D01*
X108071034Y-45556923D01*
X108088397Y-45711025D01*
X108091476Y-45724517D01*
X108139535Y-45861863D01*
X108145934Y-45871440D01*
X108155861Y-45865584D01*
X108459904Y-45561542D01*
X108466568Y-45550000D01*
X108459904Y-45538457D01*
X108155859Y-45234412D01*
X108145934Y-45228557D01*
X108139535Y-45238134D01*
X108091477Y-45375478D01*
X108088396Y-45388976D01*
X108071034Y-45543077D01*
X108071034Y-45556923D01*
X100735369Y-45556923D01*
X100729187Y-45537896D01*
X100729186Y-45537894D01*
X100727179Y-45531716D01*
X100632533Y-45367784D01*
X100610605Y-45343431D01*
X100510220Y-45231942D01*
X100510219Y-45231941D01*
X100505871Y-45227112D01*
X100500613Y-45223292D01*
X100500611Y-45223290D01*
X100357988Y-45119669D01*
X100357987Y-45119668D01*
X100352730Y-45115849D01*
X100346792Y-45113205D01*
X100185745Y-45041501D01*
X100185740Y-45041499D01*
X100179803Y-45038856D01*
X100173444Y-45037504D01*
X100173440Y-45037503D01*
X100001008Y-45000852D01*
X100001005Y-45000851D01*
X99994646Y-44999500D01*
X99805354Y-44999500D01*
X99798995Y-45000851D01*
X99798991Y-45000852D01*
X99626559Y-45037503D01*
X99626552Y-45037505D01*
X99620197Y-45038856D01*
X99614262Y-45041498D01*
X99614254Y-45041501D01*
X99453207Y-45113205D01*
X99453202Y-45113207D01*
X99447270Y-45115849D01*
X99442016Y-45119665D01*
X99442011Y-45119669D01*
X99299388Y-45223290D01*
X99299381Y-45223295D01*
X99294129Y-45227112D01*
X99289784Y-45231937D01*
X99289779Y-45231942D01*
X99171813Y-45362956D01*
X99171808Y-45362962D01*
X99167467Y-45367784D01*
X99164222Y-45373404D01*
X99164218Y-45373410D01*
X99076069Y-45526089D01*
X99076066Y-45526094D01*
X99072821Y-45531716D01*
X99070815Y-45537888D01*
X99070813Y-45537894D01*
X99016333Y-45705564D01*
X99016331Y-45705573D01*
X99014326Y-45711744D01*
X99013648Y-45718194D01*
X99013646Y-45718204D01*
X99003085Y-45818698D01*
X98994540Y-45900000D01*
X98995219Y-45906460D01*
X99013646Y-46081795D01*
X99013647Y-46081803D01*
X99014326Y-46088256D01*
X99016331Y-46094428D01*
X99016333Y-46094435D01*
X99069256Y-46257313D01*
X99072821Y-46268284D01*
X99076068Y-46273908D01*
X99076069Y-46273910D01*
X99110415Y-46333400D01*
X99167467Y-46432216D01*
X99171811Y-46437041D01*
X99171813Y-46437043D01*
X99243839Y-46517036D01*
X99294129Y-46572888D01*
X99447270Y-46684151D01*
X99620197Y-46761144D01*
X99748824Y-46788484D01*
X99782211Y-46800801D01*
X99810725Y-46822093D01*
X101824267Y-48835634D01*
X101836049Y-48849267D01*
X101846077Y-48862738D01*
X101846081Y-48862742D01*
X101850390Y-48868530D01*
X101888352Y-48900384D01*
X101896313Y-48907680D01*
X101900223Y-48911590D01*
X101903055Y-48913829D01*
X101903065Y-48913838D01*
X101924542Y-48930819D01*
X101927298Y-48933063D01*
X101984786Y-48981302D01*
X101991245Y-48984546D01*
X101994134Y-48986446D01*
X101994417Y-48986650D01*
X101994710Y-48986814D01*
X101997659Y-48988632D01*
X102003323Y-48993111D01*
X102071357Y-49024835D01*
X102074483Y-49026348D01*
X102141567Y-49060040D01*
X102148597Y-49061705D01*
X102151831Y-49062883D01*
X102152163Y-49063020D01*
X102152493Y-49063114D01*
X102155781Y-49064203D01*
X102162327Y-49067256D01*
X102235862Y-49082439D01*
X102239223Y-49083184D01*
X102312279Y-49100500D01*
X102319509Y-49100500D01*
X102322949Y-49100902D01*
X102323286Y-49100956D01*
X102323640Y-49100972D01*
X102327066Y-49101271D01*
X102334144Y-49102733D01*
X102409110Y-49100552D01*
X102412717Y-49100500D01*
X106702770Y-49100500D01*
X106750223Y-49109939D01*
X106790451Y-49136819D01*
X106990707Y-49337075D01*
X107023540Y-49395559D01*
X107021115Y-49462586D01*
X106984141Y-49518545D01*
X106923436Y-49547065D01*
X106785568Y-49570071D01*
X106775656Y-49572582D01*
X106550239Y-49649967D01*
X106540885Y-49654070D01*
X106331276Y-49767504D01*
X106322717Y-49773096D01*
X106293854Y-49795560D01*
X106285748Y-49806749D01*
X106292408Y-49818855D01*
X108363653Y-51890100D01*
X108374481Y-51896937D01*
X108390056Y-51898797D01*
X108410282Y-51896646D01*
X108461336Y-51914317D01*
X108495003Y-51947124D01*
X108495879Y-51946443D01*
X108499036Y-51950499D01*
X108501836Y-51954785D01*
X108505301Y-51958549D01*
X108505305Y-51958554D01*
X108666784Y-52133967D01*
X108666787Y-52133970D01*
X108670256Y-52137738D01*
X108866491Y-52290474D01*
X109085190Y-52408828D01*
X109090036Y-52410491D01*
X109090037Y-52410492D01*
X109198009Y-52447559D01*
X109254315Y-52487055D01*
X109280912Y-52550482D01*
X109269618Y-52618326D01*
X109223906Y-52669715D01*
X109157841Y-52688840D01*
X107677488Y-52689978D01*
X107611361Y-52670934D01*
X107565571Y-52619567D01*
X107554218Y-52551695D01*
X107580801Y-52488222D01*
X107637131Y-52448696D01*
X107749767Y-52410029D01*
X107759114Y-52405929D01*
X107968723Y-52292495D01*
X107977281Y-52286903D01*
X108006146Y-52264437D01*
X108014250Y-52253250D01*
X108007589Y-52241142D01*
X107161542Y-51395095D01*
X107150000Y-51388431D01*
X107138457Y-51395095D01*
X106292408Y-52241143D01*
X106285749Y-52253248D01*
X106293855Y-52264439D01*
X106322717Y-52286903D01*
X106331279Y-52292496D01*
X106540885Y-52405929D01*
X106550243Y-52410033D01*
X106665226Y-52449507D01*
X106721533Y-52489003D01*
X106748130Y-52552430D01*
X106736836Y-52620274D01*
X106691125Y-52671663D01*
X106625059Y-52690788D01*
X105133330Y-52691935D01*
X105067203Y-52672891D01*
X105021413Y-52621524D01*
X105010060Y-52553652D01*
X105036643Y-52490179D01*
X105092968Y-52450656D01*
X105214810Y-52408828D01*
X105433509Y-52290474D01*
X105629744Y-52137738D01*
X105798164Y-51954785D01*
X105800973Y-51950485D01*
X105804118Y-51946445D01*
X105804998Y-51947130D01*
X105838637Y-51914333D01*
X105889699Y-51896647D01*
X105909937Y-51898798D01*
X105925517Y-51896937D01*
X105936345Y-51890100D01*
X106784904Y-51041542D01*
X106791568Y-51029999D01*
X106784904Y-51018457D01*
X105936345Y-50169898D01*
X105925517Y-50163061D01*
X105909937Y-50161200D01*
X105889706Y-50163351D01*
X105838658Y-50145678D01*
X105804993Y-50112873D01*
X105804118Y-50113555D01*
X105800971Y-50109512D01*
X105798164Y-50105215D01*
X105686956Y-49984411D01*
X105633215Y-49926032D01*
X105633211Y-49926029D01*
X105629744Y-49922262D01*
X105471966Y-49799458D01*
X105437559Y-49772678D01*
X105437557Y-49772676D01*
X105433509Y-49769526D01*
X105428997Y-49767084D01*
X105219316Y-49653610D01*
X105219310Y-49653607D01*
X105214810Y-49651172D01*
X105209969Y-49649510D01*
X105209962Y-49649507D01*
X104984465Y-49572094D01*
X104984461Y-49572093D01*
X104979614Y-49570429D01*
X104967934Y-49568480D01*
X104739398Y-49530344D01*
X104739387Y-49530343D01*
X104734335Y-49529500D01*
X104485665Y-49529500D01*
X104480613Y-49530343D01*
X104480601Y-49530344D01*
X104245443Y-49569585D01*
X104245441Y-49569585D01*
X104240386Y-49570429D01*
X104235541Y-49572092D01*
X104235534Y-49572094D01*
X104010037Y-49649507D01*
X104010026Y-49649511D01*
X104005190Y-49651172D01*
X104000693Y-49653605D01*
X104000683Y-49653610D01*
X103791002Y-49767084D01*
X103790995Y-49767088D01*
X103786491Y-49769526D01*
X103782448Y-49772672D01*
X103782440Y-49772678D01*
X103610061Y-49906847D01*
X103590256Y-49922262D01*
X103586793Y-49926023D01*
X103586784Y-49926032D01*
X103425311Y-50101439D01*
X103425305Y-50101446D01*
X103421836Y-50105215D01*
X103419031Y-50109506D01*
X103419028Y-50109512D01*
X103288631Y-50309099D01*
X103288624Y-50309111D01*
X103285827Y-50313393D01*
X103283772Y-50318077D01*
X103283766Y-50318089D01*
X103187997Y-50536422D01*
X103185937Y-50541119D01*
X103184679Y-50546084D01*
X103184678Y-50546089D01*
X103126151Y-50777204D01*
X103126149Y-50777213D01*
X103124892Y-50782179D01*
X103124468Y-50787288D01*
X103124467Y-50787298D01*
X103112742Y-50928803D01*
X103104357Y-51030000D01*
X103104781Y-51035117D01*
X103124467Y-51272701D01*
X103124468Y-51272709D01*
X103124892Y-51277821D01*
X103126149Y-51282788D01*
X103126151Y-51282795D01*
X103152902Y-51388431D01*
X103185937Y-51518881D01*
X103187997Y-51523577D01*
X103283766Y-51741910D01*
X103283769Y-51741916D01*
X103285827Y-51746607D01*
X103288627Y-51750893D01*
X103288631Y-51750900D01*
X103384042Y-51896937D01*
X103421836Y-51954785D01*
X103425306Y-51958554D01*
X103425311Y-51958560D01*
X103586784Y-52133967D01*
X103586787Y-52133970D01*
X103590256Y-52137738D01*
X103786491Y-52290474D01*
X104005190Y-52408828D01*
X104121321Y-52448696D01*
X104129367Y-52451458D01*
X104185673Y-52490954D01*
X104212270Y-52554381D01*
X104200976Y-52622225D01*
X104155264Y-52673614D01*
X104089199Y-52692739D01*
X95300000Y-52699500D01*
X94773783Y-52699500D01*
X94711845Y-52682923D01*
X94666468Y-52637624D01*
X94649784Y-52575719D01*
X94648229Y-51679689D01*
X96629392Y-51679689D01*
X96637710Y-51690800D01*
X96762406Y-51784147D01*
X96769849Y-51788931D01*
X97013158Y-51921787D01*
X97021196Y-51925458D01*
X97280952Y-52022342D01*
X97289421Y-52024828D01*
X97560309Y-52083757D01*
X97569065Y-52085016D01*
X97845582Y-52104793D01*
X97854418Y-52104793D01*
X98130934Y-52085016D01*
X98139690Y-52083757D01*
X98410578Y-52024828D01*
X98419047Y-52022342D01*
X98678803Y-51925458D01*
X98686841Y-51921787D01*
X98930150Y-51788931D01*
X98937593Y-51784147D01*
X99062288Y-51690800D01*
X99070606Y-51679689D01*
X99063954Y-51667508D01*
X97861542Y-50465095D01*
X97849999Y-50458431D01*
X97838457Y-50465095D01*
X96636044Y-51667508D01*
X96629392Y-51679689D01*
X94648229Y-51679689D01*
X94645494Y-50104418D01*
X95845207Y-50104418D01*
X95864983Y-50380934D01*
X95866242Y-50389690D01*
X95925171Y-50660578D01*
X95927657Y-50669047D01*
X96024541Y-50928803D01*
X96028212Y-50936841D01*
X96161068Y-51180150D01*
X96165852Y-51187593D01*
X96259198Y-51312288D01*
X96270309Y-51320606D01*
X96282490Y-51313954D01*
X97484903Y-50111542D01*
X97491567Y-50099999D01*
X97491566Y-50099998D01*
X98208431Y-50099998D01*
X98215095Y-50111541D01*
X99417508Y-51313954D01*
X99429689Y-51320606D01*
X99440800Y-51312288D01*
X99534147Y-51187593D01*
X99538931Y-51180150D01*
X99671787Y-50936841D01*
X99675458Y-50928803D01*
X99772342Y-50669047D01*
X99774828Y-50660578D01*
X99833757Y-50389690D01*
X99835016Y-50380934D01*
X99854793Y-50104418D01*
X99854793Y-50095582D01*
X99835016Y-49819065D01*
X99833757Y-49810309D01*
X99774828Y-49539421D01*
X99772342Y-49530952D01*
X99675458Y-49271196D01*
X99671787Y-49263158D01*
X99538931Y-49019849D01*
X99534147Y-49012406D01*
X99440800Y-48887710D01*
X99429689Y-48879392D01*
X99417508Y-48886044D01*
X98215095Y-50088456D01*
X98208431Y-50099998D01*
X97491566Y-50099998D01*
X97484903Y-50088457D01*
X96279308Y-48882862D01*
X96270135Y-48876967D01*
X96261894Y-48884108D01*
X96165855Y-49012402D01*
X96161068Y-49019850D01*
X96028212Y-49263158D01*
X96024541Y-49271196D01*
X95927657Y-49530952D01*
X95925171Y-49539421D01*
X95866242Y-49810309D01*
X95864983Y-49819065D01*
X95845207Y-50095582D01*
X95845207Y-50104418D01*
X94645494Y-50104418D01*
X94642743Y-48520135D01*
X96626967Y-48520135D01*
X96632862Y-48529308D01*
X97838457Y-49734903D01*
X97850000Y-49741567D01*
X97861542Y-49734903D01*
X99063954Y-48532490D01*
X99070606Y-48520309D01*
X99062288Y-48509198D01*
X98937593Y-48415852D01*
X98930150Y-48411068D01*
X98686841Y-48278212D01*
X98678803Y-48274541D01*
X98419047Y-48177657D01*
X98410578Y-48175171D01*
X98139690Y-48116242D01*
X98130934Y-48114983D01*
X97854418Y-48095207D01*
X97845582Y-48095207D01*
X97569065Y-48114983D01*
X97560309Y-48116242D01*
X97289421Y-48175171D01*
X97280952Y-48177657D01*
X97021196Y-48274541D01*
X97013158Y-48278212D01*
X96769850Y-48411068D01*
X96762402Y-48415855D01*
X96634108Y-48511894D01*
X96626967Y-48520135D01*
X94642743Y-48520135D01*
X94636407Y-44870934D01*
X108503557Y-44870934D01*
X108509412Y-44880859D01*
X109090871Y-45462318D01*
X109122965Y-45517905D01*
X109122965Y-45582092D01*
X109090871Y-45637680D01*
X108509412Y-46219139D01*
X108503558Y-46229063D01*
X108513135Y-46235462D01*
X108575581Y-46257313D01*
X108622307Y-46286674D01*
X108651667Y-46333400D01*
X108657846Y-46388238D01*
X108646034Y-46493076D01*
X108646034Y-46506923D01*
X108663397Y-46661025D01*
X108666476Y-46674517D01*
X108714535Y-46811863D01*
X108720935Y-46821440D01*
X108730859Y-46815586D01*
X109312318Y-46234127D01*
X109367905Y-46202033D01*
X109432093Y-46202033D01*
X109487680Y-46234127D01*
X110069139Y-46815586D01*
X110079063Y-46821440D01*
X110085464Y-46811859D01*
X110133521Y-46674524D01*
X110136603Y-46661022D01*
X110153966Y-46506923D01*
X110153966Y-46493078D01*
X110142153Y-46388239D01*
X110148331Y-46333401D01*
X110177692Y-46286674D01*
X110224418Y-46257313D01*
X110286863Y-46235462D01*
X110296440Y-46229063D01*
X110290586Y-46219139D01*
X109709128Y-45637681D01*
X109677034Y-45582094D01*
X109677034Y-45550000D01*
X110333431Y-45550000D01*
X110340095Y-45561542D01*
X110644139Y-45865586D01*
X110654063Y-45871440D01*
X110660464Y-45861859D01*
X110708521Y-45724524D01*
X110711603Y-45711022D01*
X110728966Y-45556923D01*
X110728966Y-45543077D01*
X110711603Y-45388977D01*
X110708521Y-45375475D01*
X110660464Y-45238139D01*
X110654063Y-45228558D01*
X110644139Y-45234412D01*
X110340096Y-45538456D01*
X110333431Y-45550000D01*
X109677034Y-45550000D01*
X109677034Y-45517906D01*
X109709128Y-45462319D01*
X109975000Y-45196447D01*
X110290584Y-44880861D01*
X110296440Y-44870934D01*
X110286863Y-44864535D01*
X110224418Y-44842685D01*
X110177692Y-44813324D01*
X110148331Y-44766597D01*
X110142153Y-44711759D01*
X110153966Y-44606922D01*
X110153966Y-44593077D01*
X110136603Y-44438977D01*
X110133521Y-44425475D01*
X110085464Y-44288139D01*
X110079063Y-44278558D01*
X110069139Y-44284412D01*
X109487680Y-44865871D01*
X109432092Y-44897965D01*
X109367905Y-44897965D01*
X109312318Y-44865871D01*
X108730859Y-44284412D01*
X108720934Y-44278557D01*
X108714535Y-44288134D01*
X108666477Y-44425478D01*
X108663396Y-44438976D01*
X108646034Y-44593077D01*
X108646034Y-44606924D01*
X108657846Y-44711760D01*
X108651668Y-44766598D01*
X108622307Y-44813324D01*
X108575581Y-44842684D01*
X108513137Y-44864534D01*
X108503557Y-44870934D01*
X94636407Y-44870934D01*
X94634758Y-43920934D01*
X109078557Y-43920934D01*
X109084412Y-43930859D01*
X109388457Y-44234904D01*
X109400000Y-44241568D01*
X109411542Y-44234904D01*
X109715584Y-43930861D01*
X109721440Y-43920934D01*
X109711863Y-43914535D01*
X109574517Y-43866476D01*
X109561025Y-43863397D01*
X109406923Y-43846034D01*
X109393077Y-43846034D01*
X109238976Y-43863396D01*
X109225478Y-43866477D01*
X109088134Y-43914535D01*
X109078557Y-43920934D01*
X94634758Y-43920934D01*
X94626114Y-38941978D01*
X102198350Y-38941978D01*
X102198467Y-38946108D01*
X102198468Y-38946108D01*
X102240644Y-40422298D01*
X102241264Y-40443978D01*
X102241886Y-40447907D01*
X102241887Y-40447914D01*
X102260909Y-40568013D01*
X102260911Y-40568024D01*
X102261534Y-40571954D01*
X102262658Y-40575782D01*
X102278173Y-40628625D01*
X102278177Y-40628635D01*
X102279296Y-40632447D01*
X102331435Y-40751071D01*
X102336398Y-40757320D01*
X102405206Y-40843967D01*
X102412017Y-40852543D01*
X102457229Y-40896482D01*
X102560962Y-40974136D01*
X102681029Y-41022867D01*
X102742004Y-41038894D01*
X102870507Y-41055500D01*
X112371199Y-41055500D01*
X112375268Y-41055500D01*
X112506583Y-41038146D01*
X112568793Y-41021411D01*
X112691088Y-40970543D01*
X112795970Y-40889654D01*
X112841389Y-40843967D01*
X112874887Y-40800000D01*
X121194540Y-40800000D01*
X121195219Y-40806460D01*
X121213646Y-40981795D01*
X121213647Y-40981803D01*
X121214326Y-40988256D01*
X121216331Y-40994428D01*
X121216333Y-40994435D01*
X121270813Y-41162105D01*
X121272821Y-41168284D01*
X121367467Y-41332216D01*
X121494129Y-41472888D01*
X121647270Y-41584151D01*
X121820197Y-41661144D01*
X122005354Y-41700500D01*
X122188143Y-41700500D01*
X122194646Y-41700500D01*
X122379803Y-41661144D01*
X122552730Y-41584151D01*
X122566454Y-41574179D01*
X122601018Y-41556569D01*
X122639336Y-41550500D01*
X135287770Y-41550500D01*
X135335223Y-41559939D01*
X135375451Y-41586819D01*
X140374270Y-46585638D01*
X140386052Y-46599271D01*
X140400390Y-46618530D01*
X140405917Y-46623167D01*
X140405922Y-46623173D01*
X140438337Y-46650372D01*
X140446312Y-46657680D01*
X140450223Y-46661591D01*
X140474556Y-46680831D01*
X140477310Y-46683073D01*
X140534786Y-46731302D01*
X140541245Y-46734546D01*
X140544134Y-46736446D01*
X140544413Y-46736648D01*
X140544713Y-46736815D01*
X140547654Y-46738629D01*
X140553323Y-46743111D01*
X140606820Y-46768057D01*
X140621321Y-46774819D01*
X140624534Y-46776374D01*
X140691567Y-46810040D01*
X140698594Y-46811705D01*
X140701835Y-46812885D01*
X140702164Y-46813021D01*
X140702498Y-46813116D01*
X140705778Y-46814202D01*
X140712327Y-46817257D01*
X140785894Y-46832447D01*
X140789257Y-46833193D01*
X140862279Y-46850500D01*
X140869510Y-46850500D01*
X140872933Y-46850900D01*
X140873285Y-46850957D01*
X140873626Y-46850972D01*
X140877069Y-46851273D01*
X140884144Y-46852734D01*
X140959129Y-46850552D01*
X140962737Y-46850500D01*
X144360664Y-46850500D01*
X144398982Y-46856569D01*
X144433545Y-46874179D01*
X144447270Y-46884151D01*
X144620197Y-46961144D01*
X144805354Y-47000500D01*
X144988143Y-47000500D01*
X144994646Y-47000500D01*
X145179803Y-46961144D01*
X145352730Y-46884151D01*
X145505871Y-46772888D01*
X145632533Y-46632216D01*
X145727179Y-46468284D01*
X145785674Y-46288256D01*
X145805460Y-46100000D01*
X145785674Y-45911744D01*
X145727179Y-45731716D01*
X145632533Y-45567784D01*
X145505871Y-45427112D01*
X145500613Y-45423292D01*
X145500611Y-45423290D01*
X145357988Y-45319669D01*
X145357987Y-45319668D01*
X145352730Y-45315849D01*
X145346738Y-45313181D01*
X145185745Y-45241501D01*
X145185740Y-45241499D01*
X145179803Y-45238856D01*
X145173444Y-45237504D01*
X145173440Y-45237503D01*
X145001008Y-45200852D01*
X145001005Y-45200851D01*
X144994646Y-45199500D01*
X144805354Y-45199500D01*
X144798995Y-45200851D01*
X144798991Y-45200852D01*
X144626559Y-45237503D01*
X144626552Y-45237505D01*
X144620197Y-45238856D01*
X144614262Y-45241498D01*
X144614254Y-45241501D01*
X144453207Y-45313205D01*
X144453202Y-45313207D01*
X144447270Y-45315849D01*
X144433545Y-45325820D01*
X144398982Y-45343431D01*
X144360664Y-45349500D01*
X141312229Y-45349500D01*
X141264776Y-45340061D01*
X141224548Y-45313181D01*
X136225729Y-40314361D01*
X136213947Y-40300727D01*
X136203925Y-40287265D01*
X136203921Y-40287261D01*
X136199610Y-40281470D01*
X136161667Y-40249631D01*
X136153691Y-40242323D01*
X136152329Y-40240961D01*
X136152329Y-40240960D01*
X136149777Y-40238409D01*
X136146953Y-40236176D01*
X136146944Y-40236168D01*
X136125445Y-40219170D01*
X136122674Y-40216913D01*
X136065214Y-40168698D01*
X136058760Y-40165456D01*
X136055859Y-40163548D01*
X136055588Y-40163352D01*
X136055292Y-40163187D01*
X136052339Y-40161366D01*
X136046677Y-40156889D01*
X136040134Y-40153838D01*
X136040131Y-40153836D01*
X135978692Y-40125186D01*
X135975446Y-40123615D01*
X135914884Y-40093200D01*
X135914885Y-40093200D01*
X135908433Y-40089960D01*
X135901409Y-40088295D01*
X135898151Y-40087109D01*
X135897832Y-40086977D01*
X135897504Y-40086884D01*
X135894218Y-40085795D01*
X135887673Y-40082743D01*
X135880604Y-40081283D01*
X135880600Y-40081282D01*
X135814212Y-40067574D01*
X135810691Y-40066794D01*
X135744741Y-40051163D01*
X135744734Y-40051162D01*
X135737721Y-40049500D01*
X135730510Y-40049500D01*
X135727061Y-40049097D01*
X135726727Y-40049043D01*
X135726374Y-40049028D01*
X135722929Y-40048726D01*
X135715856Y-40047266D01*
X135708638Y-40047476D01*
X135640870Y-40049448D01*
X135637263Y-40049500D01*
X122639336Y-40049500D01*
X122601018Y-40043431D01*
X122566454Y-40025820D01*
X122552730Y-40015849D01*
X122546792Y-40013205D01*
X122385745Y-39941501D01*
X122385740Y-39941499D01*
X122379803Y-39938856D01*
X122373444Y-39937504D01*
X122373440Y-39937503D01*
X122201008Y-39900852D01*
X122201005Y-39900851D01*
X122194646Y-39899500D01*
X122005354Y-39899500D01*
X121998995Y-39900851D01*
X121998991Y-39900852D01*
X121826559Y-39937503D01*
X121826552Y-39937505D01*
X121820197Y-39938856D01*
X121814262Y-39941498D01*
X121814254Y-39941501D01*
X121653207Y-40013205D01*
X121653202Y-40013207D01*
X121647270Y-40015849D01*
X121642016Y-40019665D01*
X121642011Y-40019669D01*
X121499388Y-40123290D01*
X121499381Y-40123295D01*
X121494129Y-40127112D01*
X121489784Y-40131937D01*
X121489779Y-40131942D01*
X121371813Y-40262956D01*
X121371808Y-40262962D01*
X121367467Y-40267784D01*
X121364222Y-40273404D01*
X121364218Y-40273410D01*
X121276069Y-40426089D01*
X121276066Y-40426094D01*
X121272821Y-40431716D01*
X121270815Y-40437888D01*
X121270813Y-40437894D01*
X121216333Y-40605564D01*
X121216331Y-40605573D01*
X121214326Y-40611744D01*
X121213648Y-40618194D01*
X121213646Y-40618204D01*
X121199026Y-40757320D01*
X121194540Y-40800000D01*
X112874887Y-40800000D01*
X112921659Y-40738612D01*
X112971806Y-40616022D01*
X112988175Y-40553715D01*
X113004757Y-40422298D01*
X113001640Y-39892368D01*
X155054586Y-39892368D01*
X155062133Y-39900425D01*
X155218711Y-40007178D01*
X155226732Y-40011809D01*
X155454681Y-40121584D01*
X155463291Y-40124964D01*
X155705065Y-40199541D01*
X155714081Y-40201599D01*
X155964270Y-40239308D01*
X155973493Y-40240000D01*
X156226507Y-40240000D01*
X156235729Y-40239308D01*
X156485918Y-40201599D01*
X156494934Y-40199541D01*
X156736708Y-40124964D01*
X156745318Y-40121584D01*
X156973267Y-40011810D01*
X156981295Y-40007174D01*
X157137863Y-39900427D01*
X157145411Y-39892368D01*
X157139494Y-39883048D01*
X156111542Y-38855095D01*
X156100000Y-38848431D01*
X156088457Y-38855095D01*
X155060502Y-39883050D01*
X155054586Y-39892368D01*
X113001640Y-39892368D01*
X112993418Y-38494630D01*
X154345440Y-38494630D01*
X154364347Y-38746928D01*
X154365725Y-38756076D01*
X154422026Y-39002743D01*
X154424755Y-39011591D01*
X154517185Y-39247101D01*
X154521204Y-39255447D01*
X154647707Y-39474555D01*
X154652920Y-39482200D01*
X154686959Y-39524885D01*
X154698194Y-39532856D01*
X154710252Y-39526192D01*
X155734903Y-38501542D01*
X155741567Y-38489999D01*
X156458431Y-38489999D01*
X156465095Y-38501542D01*
X157489746Y-39526192D01*
X157501803Y-39532856D01*
X157513040Y-39524884D01*
X157547080Y-39482199D01*
X157552290Y-39474557D01*
X157678795Y-39255447D01*
X157682814Y-39247101D01*
X157775244Y-39011591D01*
X157777973Y-39002743D01*
X157834274Y-38756076D01*
X157835652Y-38746928D01*
X157854560Y-38494630D01*
X157854560Y-38485370D01*
X157835652Y-38233071D01*
X157834274Y-38223923D01*
X157777973Y-37977256D01*
X157775244Y-37968408D01*
X157682814Y-37732898D01*
X157678795Y-37724552D01*
X157552292Y-37505444D01*
X157547079Y-37497799D01*
X157513040Y-37455115D01*
X157501803Y-37447142D01*
X157489746Y-37453806D01*
X156465095Y-38478457D01*
X156458431Y-38489999D01*
X155741567Y-38489999D01*
X155734903Y-38478457D01*
X154710253Y-37453807D01*
X154698194Y-37447143D01*
X154686958Y-37455115D01*
X154652916Y-37497804D01*
X154647710Y-37505440D01*
X154521204Y-37724552D01*
X154517185Y-37732898D01*
X154424755Y-37968408D01*
X154422026Y-37977256D01*
X154365725Y-38223923D01*
X154364347Y-38233071D01*
X154345440Y-38485370D01*
X154345440Y-38494630D01*
X112993418Y-38494630D01*
X112977976Y-35869578D01*
X122524500Y-35869578D01*
X122524501Y-35872872D01*
X122524853Y-35876150D01*
X122524854Y-35876161D01*
X122530079Y-35924768D01*
X122530080Y-35924773D01*
X122530909Y-35932483D01*
X122533619Y-35939749D01*
X122533620Y-35939753D01*
X122567217Y-36029831D01*
X122581204Y-36067331D01*
X122586518Y-36074430D01*
X122586519Y-36074431D01*
X122659480Y-36171895D01*
X122667454Y-36182546D01*
X122782669Y-36268796D01*
X122917517Y-36319091D01*
X122977127Y-36325500D01*
X123922872Y-36325499D01*
X123982483Y-36319091D01*
X124117331Y-36268796D01*
X124232546Y-36182546D01*
X124318796Y-36067331D01*
X124369091Y-35932483D01*
X124375500Y-35872873D01*
X124375500Y-35769578D01*
X133574500Y-35769578D01*
X133574501Y-35772872D01*
X133574853Y-35776150D01*
X133574854Y-35776161D01*
X133580079Y-35824768D01*
X133580080Y-35824773D01*
X133580909Y-35832483D01*
X133583619Y-35839749D01*
X133583620Y-35839753D01*
X133610429Y-35911630D01*
X133631204Y-35967331D01*
X133717454Y-36082546D01*
X133832669Y-36168796D01*
X133967517Y-36219091D01*
X134027127Y-36225500D01*
X135472872Y-36225499D01*
X135532483Y-36219091D01*
X135667331Y-36168796D01*
X135782546Y-36082546D01*
X135868796Y-35967331D01*
X135919091Y-35832483D01*
X135925500Y-35772873D01*
X135925500Y-35769578D01*
X136824500Y-35769578D01*
X136824501Y-35772872D01*
X136824853Y-35776150D01*
X136824854Y-35776161D01*
X136830079Y-35824768D01*
X136830080Y-35824773D01*
X136830909Y-35832483D01*
X136833619Y-35839749D01*
X136833620Y-35839753D01*
X136860429Y-35911630D01*
X136881204Y-35967331D01*
X136967454Y-36082546D01*
X137082669Y-36168796D01*
X137217517Y-36219091D01*
X137277127Y-36225500D01*
X138722872Y-36225499D01*
X138782483Y-36219091D01*
X138917331Y-36168796D01*
X139032546Y-36082546D01*
X139118796Y-35967331D01*
X139169091Y-35832483D01*
X139175500Y-35772873D01*
X139175500Y-35650000D01*
X154344592Y-35650000D01*
X154344939Y-35654631D01*
X154361293Y-35872873D01*
X154364198Y-35911630D01*
X154365228Y-35916143D01*
X154365229Y-35916149D01*
X154401589Y-36075449D01*
X154422580Y-36167416D01*
X154424275Y-36171734D01*
X154424276Y-36171738D01*
X154516734Y-36407318D01*
X154516737Y-36407324D01*
X154518432Y-36411643D01*
X154520750Y-36415658D01*
X154520753Y-36415664D01*
X154594973Y-36544216D01*
X154649614Y-36638857D01*
X154813195Y-36843981D01*
X155005521Y-37022433D01*
X155009359Y-37025050D01*
X155010695Y-37026115D01*
X155041486Y-37062318D01*
X155044707Y-37072069D01*
X155060504Y-37096950D01*
X156088457Y-38124903D01*
X156100000Y-38131567D01*
X156111542Y-38124903D01*
X157139493Y-37096951D01*
X157155290Y-37072070D01*
X157158509Y-37062326D01*
X157189306Y-37026114D01*
X157190637Y-37025052D01*
X157194479Y-37022433D01*
X157386805Y-36843981D01*
X157550386Y-36638857D01*
X157681568Y-36411643D01*
X157777420Y-36167416D01*
X157835802Y-35911630D01*
X157855408Y-35650000D01*
X157835802Y-35388370D01*
X157777420Y-35132584D01*
X157681568Y-34888357D01*
X157550386Y-34661143D01*
X157386805Y-34456019D01*
X157194479Y-34277567D01*
X156977704Y-34129772D01*
X156973518Y-34127756D01*
X156745502Y-34017949D01*
X156745496Y-34017946D01*
X156741323Y-34015937D01*
X156736901Y-34014573D01*
X156736891Y-34014569D01*
X156495048Y-33939971D01*
X156495043Y-33939969D01*
X156490615Y-33938604D01*
X156486035Y-33937913D01*
X156486028Y-33937912D01*
X156235765Y-33900190D01*
X156235754Y-33900189D01*
X156231182Y-33899500D01*
X155968818Y-33899500D01*
X155964246Y-33900189D01*
X155964234Y-33900190D01*
X155713971Y-33937912D01*
X155713961Y-33937914D01*
X155709385Y-33938604D01*
X155704959Y-33939968D01*
X155704951Y-33939971D01*
X155463108Y-34014569D01*
X155463093Y-34014574D01*
X155458677Y-34015937D01*
X155454508Y-34017944D01*
X155454497Y-34017949D01*
X155226481Y-34127756D01*
X155226474Y-34127759D01*
X155222296Y-34129772D01*
X155218463Y-34132385D01*
X155218460Y-34132387D01*
X155009349Y-34274957D01*
X155005521Y-34277567D01*
X155002129Y-34280713D01*
X155002123Y-34280719D01*
X154816596Y-34452863D01*
X154813195Y-34456019D01*
X154810306Y-34459641D01*
X154810302Y-34459646D01*
X154652506Y-34657516D01*
X154649614Y-34661143D01*
X154647295Y-34665159D01*
X154647294Y-34665161D01*
X154520753Y-34884335D01*
X154520747Y-34884346D01*
X154518432Y-34888357D01*
X154516739Y-34892670D01*
X154516734Y-34892681D01*
X154424276Y-35128261D01*
X154424273Y-35128268D01*
X154422580Y-35132584D01*
X154421548Y-35137102D01*
X154421547Y-35137108D01*
X154365229Y-35383850D01*
X154365227Y-35383858D01*
X154364198Y-35388370D01*
X154344592Y-35650000D01*
X139175500Y-35650000D01*
X139175499Y-34729689D01*
X140679392Y-34729689D01*
X140687710Y-34740800D01*
X140812406Y-34834147D01*
X140819849Y-34838931D01*
X141063158Y-34971787D01*
X141071196Y-34975458D01*
X141330952Y-35072342D01*
X141339421Y-35074828D01*
X141610309Y-35133757D01*
X141619065Y-35135016D01*
X141895582Y-35154793D01*
X141904418Y-35154793D01*
X142180934Y-35135016D01*
X142189690Y-35133757D01*
X142460578Y-35074828D01*
X142469047Y-35072342D01*
X142728803Y-34975458D01*
X142736841Y-34971787D01*
X142980150Y-34838931D01*
X142987593Y-34834147D01*
X143112288Y-34740800D01*
X143120606Y-34729689D01*
X143113954Y-34717508D01*
X141911542Y-33515095D01*
X141900000Y-33508431D01*
X141888457Y-33515095D01*
X140686044Y-34717508D01*
X140679392Y-34729689D01*
X139175499Y-34729689D01*
X139175499Y-34327128D01*
X139169091Y-34267517D01*
X139118796Y-34132669D01*
X139032546Y-34017454D01*
X138946492Y-33953034D01*
X138906748Y-33902422D01*
X138897724Y-33838703D01*
X138921851Y-33779042D01*
X138999833Y-33675777D01*
X139005839Y-33666078D01*
X139097791Y-33481413D01*
X139101919Y-33470757D01*
X139146567Y-33313838D01*
X139147088Y-33302579D01*
X139136120Y-33300000D01*
X136863880Y-33300000D01*
X136852911Y-33302579D01*
X136853432Y-33313838D01*
X136898080Y-33470757D01*
X136902208Y-33481413D01*
X136994160Y-33666078D01*
X137000166Y-33675777D01*
X137078148Y-33779042D01*
X137102275Y-33838703D01*
X137093251Y-33902421D01*
X137053505Y-33953036D01*
X136974550Y-34012141D01*
X136974546Y-34012144D01*
X136967454Y-34017454D01*
X136962144Y-34024546D01*
X136962141Y-34024550D01*
X136886519Y-34125568D01*
X136886516Y-34125572D01*
X136881204Y-34132669D01*
X136878104Y-34140978D01*
X136878104Y-34140980D01*
X136833620Y-34260247D01*
X136833619Y-34260250D01*
X136830909Y-34267517D01*
X136830079Y-34275227D01*
X136830079Y-34275232D01*
X136824855Y-34323819D01*
X136824854Y-34323831D01*
X136824500Y-34327127D01*
X136824500Y-34330448D01*
X136824500Y-34330449D01*
X136824500Y-35769560D01*
X136824500Y-35769578D01*
X135925500Y-35769578D01*
X135925499Y-34327128D01*
X135919091Y-34267517D01*
X135868796Y-34132669D01*
X135782546Y-34017454D01*
X135696492Y-33953034D01*
X135656748Y-33902422D01*
X135647724Y-33838703D01*
X135671851Y-33779042D01*
X135749833Y-33675777D01*
X135755839Y-33666078D01*
X135847791Y-33481413D01*
X135851919Y-33470757D01*
X135896567Y-33313838D01*
X135897088Y-33302579D01*
X135886120Y-33300000D01*
X133613880Y-33300000D01*
X133602911Y-33302579D01*
X133603432Y-33313838D01*
X133648080Y-33470757D01*
X133652208Y-33481413D01*
X133744160Y-33666078D01*
X133750166Y-33675777D01*
X133828148Y-33779042D01*
X133852275Y-33838703D01*
X133843251Y-33902421D01*
X133803505Y-33953036D01*
X133724550Y-34012141D01*
X133724546Y-34012144D01*
X133717454Y-34017454D01*
X133712144Y-34024546D01*
X133712141Y-34024550D01*
X133636519Y-34125568D01*
X133636516Y-34125572D01*
X133631204Y-34132669D01*
X133628104Y-34140978D01*
X133628104Y-34140980D01*
X133583620Y-34260247D01*
X133583619Y-34260250D01*
X133580909Y-34267517D01*
X133580079Y-34275227D01*
X133580079Y-34275232D01*
X133574855Y-34323819D01*
X133574854Y-34323831D01*
X133574500Y-34327127D01*
X133574500Y-34330448D01*
X133574500Y-34330449D01*
X133574500Y-35769560D01*
X133574500Y-35769578D01*
X124375500Y-35769578D01*
X124375499Y-34927128D01*
X124369091Y-34867517D01*
X124318796Y-34732669D01*
X124232546Y-34617454D01*
X124117331Y-34531204D01*
X123982483Y-34480909D01*
X123974770Y-34480079D01*
X123974767Y-34480079D01*
X123926180Y-34474855D01*
X123926169Y-34474854D01*
X123922873Y-34474500D01*
X123919550Y-34474500D01*
X122980439Y-34474500D01*
X122980420Y-34474500D01*
X122977128Y-34474501D01*
X122973850Y-34474853D01*
X122973838Y-34474854D01*
X122925231Y-34480079D01*
X122925225Y-34480080D01*
X122917517Y-34480909D01*
X122910252Y-34483618D01*
X122910246Y-34483620D01*
X122790980Y-34528104D01*
X122790978Y-34528104D01*
X122782669Y-34531204D01*
X122775572Y-34536516D01*
X122775568Y-34536519D01*
X122674550Y-34612141D01*
X122674546Y-34612144D01*
X122667454Y-34617454D01*
X122662144Y-34624546D01*
X122662141Y-34624550D01*
X122586519Y-34725568D01*
X122586516Y-34725572D01*
X122581204Y-34732669D01*
X122578104Y-34740978D01*
X122578104Y-34740980D01*
X122533620Y-34860247D01*
X122533619Y-34860250D01*
X122530909Y-34867517D01*
X122530079Y-34875227D01*
X122530079Y-34875232D01*
X122524855Y-34923819D01*
X122524854Y-34923831D01*
X122524500Y-34927127D01*
X122524500Y-34930448D01*
X122524500Y-34930449D01*
X122524500Y-35869560D01*
X122524500Y-35869578D01*
X112977976Y-35869578D01*
X112962005Y-33154418D01*
X139895207Y-33154418D01*
X139914983Y-33430934D01*
X139916242Y-33439690D01*
X139975171Y-33710578D01*
X139977657Y-33719047D01*
X140074541Y-33978803D01*
X140078212Y-33986841D01*
X140211068Y-34230150D01*
X140215852Y-34237593D01*
X140309198Y-34362288D01*
X140320309Y-34370606D01*
X140332490Y-34363954D01*
X141534903Y-33161541D01*
X141541566Y-33150000D01*
X142258431Y-33150000D01*
X142265095Y-33161542D01*
X143467508Y-34363954D01*
X143479689Y-34370606D01*
X143490800Y-34362288D01*
X143584147Y-34237593D01*
X143588931Y-34230150D01*
X143721787Y-33986841D01*
X143725458Y-33978803D01*
X143822342Y-33719047D01*
X143824828Y-33710578D01*
X143883757Y-33439690D01*
X143885016Y-33430934D01*
X143904793Y-33154418D01*
X143904793Y-33145582D01*
X143885016Y-32869065D01*
X143883757Y-32860309D01*
X143824828Y-32589421D01*
X143822342Y-32580952D01*
X143725458Y-32321196D01*
X143721787Y-32313158D01*
X143588931Y-32069849D01*
X143584147Y-32062406D01*
X143490800Y-31937710D01*
X143479689Y-31929392D01*
X143467508Y-31936044D01*
X142265095Y-33138457D01*
X142258431Y-33150000D01*
X141541566Y-33150000D01*
X141541567Y-33149999D01*
X141534903Y-33138456D01*
X140329310Y-31932864D01*
X140320135Y-31926967D01*
X140311894Y-31934108D01*
X140215855Y-32062402D01*
X140211068Y-32069850D01*
X140078212Y-32313158D01*
X140074541Y-32321196D01*
X139977657Y-32580952D01*
X139975171Y-32589421D01*
X139916242Y-32860309D01*
X139914983Y-32869065D01*
X139895207Y-33145582D01*
X139895207Y-33154418D01*
X112962005Y-33154418D01*
X112959905Y-32797420D01*
X133602911Y-32797420D01*
X133613880Y-32800000D01*
X134483674Y-32800000D01*
X134496549Y-32796549D01*
X134500000Y-32783674D01*
X135000000Y-32783674D01*
X135003450Y-32796549D01*
X135016326Y-32800000D01*
X135886120Y-32800000D01*
X135897088Y-32797420D01*
X136852911Y-32797420D01*
X136863880Y-32800000D01*
X137733674Y-32800000D01*
X137746549Y-32796549D01*
X137750000Y-32783674D01*
X138250000Y-32783674D01*
X138253450Y-32796549D01*
X138266326Y-32800000D01*
X139136120Y-32800000D01*
X139147088Y-32797420D01*
X139146567Y-32786161D01*
X139101919Y-32629242D01*
X139097791Y-32618586D01*
X139005839Y-32433921D01*
X138999830Y-32424217D01*
X138875512Y-32259593D01*
X138867818Y-32251152D01*
X138715364Y-32112173D01*
X138706259Y-32105297D01*
X138530859Y-31996694D01*
X138520637Y-31991604D01*
X138328285Y-31917086D01*
X138317291Y-31913958D01*
X138263429Y-31903890D01*
X138252401Y-31904272D01*
X138250000Y-31915040D01*
X138250000Y-32783674D01*
X137750000Y-32783674D01*
X137750000Y-31915040D01*
X137747598Y-31904272D01*
X137736570Y-31903890D01*
X137682708Y-31913958D01*
X137671714Y-31917086D01*
X137479362Y-31991604D01*
X137469140Y-31996694D01*
X137293740Y-32105297D01*
X137284635Y-32112173D01*
X137132181Y-32251152D01*
X137124487Y-32259593D01*
X137000169Y-32424217D01*
X136994160Y-32433921D01*
X136902208Y-32618586D01*
X136898080Y-32629242D01*
X136853432Y-32786161D01*
X136852911Y-32797420D01*
X135897088Y-32797420D01*
X135896567Y-32786161D01*
X135851919Y-32629242D01*
X135847791Y-32618586D01*
X135755839Y-32433921D01*
X135749830Y-32424217D01*
X135625512Y-32259593D01*
X135617818Y-32251152D01*
X135465364Y-32112173D01*
X135456259Y-32105297D01*
X135280859Y-31996694D01*
X135270637Y-31991604D01*
X135078285Y-31917086D01*
X135067291Y-31913958D01*
X135013429Y-31903890D01*
X135002401Y-31904272D01*
X135000000Y-31915040D01*
X135000000Y-32783674D01*
X134500000Y-32783674D01*
X134500000Y-31915040D01*
X134497598Y-31904272D01*
X134486570Y-31903890D01*
X134432708Y-31913958D01*
X134421714Y-31917086D01*
X134229362Y-31991604D01*
X134219140Y-31996694D01*
X134043740Y-32105297D01*
X134034635Y-32112173D01*
X133882181Y-32251152D01*
X133874487Y-32259593D01*
X133750169Y-32424217D01*
X133744160Y-32433921D01*
X133652208Y-32618586D01*
X133648080Y-32629242D01*
X133603432Y-32786161D01*
X133602911Y-32797420D01*
X112959905Y-32797420D01*
X112956216Y-32170298D01*
X112938353Y-32040045D01*
X112921498Y-31978353D01*
X112870651Y-31857114D01*
X112793894Y-31757789D01*
X112792735Y-31756289D01*
X112792730Y-31756284D01*
X112790260Y-31753087D01*
X112744906Y-31707999D01*
X112741696Y-31705548D01*
X112741691Y-31705544D01*
X112646841Y-31633133D01*
X112646842Y-31633133D01*
X112640406Y-31628220D01*
X112632920Y-31625132D01*
X112522606Y-31579629D01*
X112522602Y-31579627D01*
X112518867Y-31578087D01*
X112514963Y-31577045D01*
X112514954Y-31577042D01*
X112489074Y-31570135D01*
X140676967Y-31570135D01*
X140682862Y-31579308D01*
X141888457Y-32784903D01*
X141900000Y-32791567D01*
X141911542Y-32784903D01*
X143113954Y-31582490D01*
X143120606Y-31570309D01*
X143112288Y-31559198D01*
X142987593Y-31465852D01*
X142980150Y-31461068D01*
X142736841Y-31328212D01*
X142728803Y-31324541D01*
X142469047Y-31227657D01*
X142460578Y-31225171D01*
X142189690Y-31166242D01*
X142180934Y-31164983D01*
X141904418Y-31145207D01*
X141895582Y-31145207D01*
X141619065Y-31164983D01*
X141610309Y-31166242D01*
X141339421Y-31225171D01*
X141330952Y-31227657D01*
X141071196Y-31324541D01*
X141063158Y-31328212D01*
X140819850Y-31461068D01*
X140812402Y-31465855D01*
X140684108Y-31561894D01*
X140676967Y-31570135D01*
X112489074Y-31570135D01*
X112460995Y-31562641D01*
X112460988Y-31562639D01*
X112457078Y-31561596D01*
X112453063Y-31561069D01*
X112453061Y-31561069D01*
X112330730Y-31545025D01*
X112330729Y-31545024D01*
X112326727Y-31544500D01*
X105424000Y-31544500D01*
X105419983Y-31545028D01*
X105419980Y-31545029D01*
X105297192Y-31561194D01*
X105297177Y-31561196D01*
X105293166Y-31561725D01*
X105289254Y-31562773D01*
X105289245Y-31562775D01*
X105235090Y-31577286D01*
X105235082Y-31577288D01*
X105231166Y-31578338D01*
X105227420Y-31579889D01*
X105227410Y-31579893D01*
X105116759Y-31625726D01*
X105116754Y-31625728D01*
X105109250Y-31628837D01*
X105102806Y-31633780D01*
X105102800Y-31633785D01*
X105007789Y-31706691D01*
X105007782Y-31706696D01*
X105004558Y-31709171D01*
X105001685Y-31712043D01*
X105001677Y-31712051D01*
X104962051Y-31751677D01*
X104962043Y-31751685D01*
X104959171Y-31754558D01*
X104956696Y-31757782D01*
X104956691Y-31757789D01*
X104883785Y-31852800D01*
X104883780Y-31852806D01*
X104878837Y-31859250D01*
X104875728Y-31866754D01*
X104875726Y-31866759D01*
X104829893Y-31977410D01*
X104829889Y-31977420D01*
X104828338Y-31981166D01*
X104827288Y-31985082D01*
X104827286Y-31985090D01*
X104812775Y-32039245D01*
X104812773Y-32039254D01*
X104811725Y-32043166D01*
X104811196Y-32047177D01*
X104811194Y-32047192D01*
X104795029Y-32169980D01*
X104794500Y-32174000D01*
X104794500Y-32178053D01*
X104794500Y-38170500D01*
X104777887Y-38232500D01*
X104732500Y-38277887D01*
X104670500Y-38294500D01*
X102827593Y-38294500D01*
X102823493Y-38295049D01*
X102823488Y-38295050D01*
X102698538Y-38311803D01*
X102698533Y-38311803D01*
X102694438Y-38312353D01*
X102690463Y-38313438D01*
X102690450Y-38313441D01*
X102635397Y-38328474D01*
X102635390Y-38328476D01*
X102631418Y-38329561D01*
X102627625Y-38331163D01*
X102627613Y-38331168D01*
X102515289Y-38378637D01*
X102507665Y-38381859D01*
X102501166Y-38386969D01*
X102501159Y-38386974D01*
X102405303Y-38462358D01*
X102405297Y-38462363D01*
X102402060Y-38464909D01*
X102399197Y-38467854D01*
X102399187Y-38467864D01*
X102373176Y-38494630D01*
X102356532Y-38511757D01*
X102354070Y-38515078D01*
X102354068Y-38515081D01*
X102281465Y-38613036D01*
X102281461Y-38613041D01*
X102276535Y-38619689D01*
X102273533Y-38627399D01*
X102273530Y-38627405D01*
X102229296Y-38741023D01*
X102227794Y-38744882D01*
X102226821Y-38748891D01*
X102226819Y-38748899D01*
X102213366Y-38804354D01*
X102213364Y-38804361D01*
X102212393Y-38808367D01*
X102211961Y-38812469D01*
X102211961Y-38812474D01*
X102207482Y-38855095D01*
X102198350Y-38941978D01*
X94626114Y-38941978D01*
X94607777Y-28379689D01*
X96629392Y-28379689D01*
X96637710Y-28390800D01*
X96762406Y-28484147D01*
X96769849Y-28488931D01*
X97013158Y-28621787D01*
X97021196Y-28625458D01*
X97280952Y-28722342D01*
X97289421Y-28724828D01*
X97560309Y-28783757D01*
X97569065Y-28785016D01*
X97845582Y-28804793D01*
X97854418Y-28804793D01*
X98130934Y-28785016D01*
X98139690Y-28783757D01*
X98410578Y-28724828D01*
X98419047Y-28722342D01*
X98678803Y-28625458D01*
X98686841Y-28621787D01*
X98930150Y-28488931D01*
X98937593Y-28484147D01*
X99062288Y-28390800D01*
X99070606Y-28379689D01*
X99063954Y-28367508D01*
X97861542Y-27165095D01*
X97850000Y-27158431D01*
X97838457Y-27165095D01*
X96636044Y-28367508D01*
X96629392Y-28379689D01*
X94607777Y-28379689D01*
X94605042Y-26804418D01*
X95845207Y-26804418D01*
X95864983Y-27080934D01*
X95866242Y-27089690D01*
X95925171Y-27360578D01*
X95927657Y-27369047D01*
X96024541Y-27628803D01*
X96028212Y-27636841D01*
X96161068Y-27880150D01*
X96165852Y-27887593D01*
X96259198Y-28012288D01*
X96270309Y-28020606D01*
X96282490Y-28013954D01*
X97484903Y-26811542D01*
X97491567Y-26800000D01*
X98208431Y-26800000D01*
X98215095Y-26811542D01*
X99417508Y-28013954D01*
X99429689Y-28020606D01*
X99440800Y-28012288D01*
X99534147Y-27887593D01*
X99538931Y-27880150D01*
X99671787Y-27636841D01*
X99675458Y-27628803D01*
X99772342Y-27369047D01*
X99774828Y-27360578D01*
X99833757Y-27089690D01*
X99835016Y-27080934D01*
X99854793Y-26804418D01*
X99854793Y-26795582D01*
X99835016Y-26519065D01*
X99833757Y-26510309D01*
X99774828Y-26239421D01*
X99772342Y-26230952D01*
X99675458Y-25971196D01*
X99671787Y-25963158D01*
X99538931Y-25719849D01*
X99534147Y-25712406D01*
X99440800Y-25587710D01*
X99429689Y-25579392D01*
X99417508Y-25586044D01*
X98215095Y-26788457D01*
X98208431Y-26800000D01*
X97491567Y-26800000D01*
X97484903Y-26788457D01*
X96279308Y-25582862D01*
X96270135Y-25576967D01*
X96261894Y-25584108D01*
X96165855Y-25712402D01*
X96161068Y-25719850D01*
X96028212Y-25963158D01*
X96024541Y-25971196D01*
X95927657Y-26230952D01*
X95925171Y-26239421D01*
X95866242Y-26510309D01*
X95864983Y-26519065D01*
X95845207Y-26795582D01*
X95845207Y-26804418D01*
X94605042Y-26804418D01*
X94602291Y-25220135D01*
X96626967Y-25220135D01*
X96632862Y-25229308D01*
X97838457Y-26434903D01*
X97850000Y-26441567D01*
X97861542Y-26434903D01*
X99063954Y-25232490D01*
X99070606Y-25220309D01*
X99062288Y-25209198D01*
X98937593Y-25115852D01*
X98930150Y-25111068D01*
X98686841Y-24978212D01*
X98678803Y-24974541D01*
X98419047Y-24877657D01*
X98410578Y-24875171D01*
X98139690Y-24816242D01*
X98130934Y-24814983D01*
X97854418Y-24795207D01*
X97845582Y-24795207D01*
X97569065Y-24814983D01*
X97560309Y-24816242D01*
X97289421Y-24875171D01*
X97280952Y-24877657D01*
X97021196Y-24974541D01*
X97013158Y-24978212D01*
X96769850Y-25111068D01*
X96762402Y-25115855D01*
X96634108Y-25211894D01*
X96626967Y-25220135D01*
X94602291Y-25220135D01*
X94600216Y-24024713D01*
X94616757Y-23962624D01*
X94662154Y-23917149D01*
X94724216Y-23900500D01*
X103446387Y-23900500D01*
X103511930Y-23919238D01*
G37*
%TD.AperFunction*%
%TD*%
M02*
