%TF.GenerationSoftware,KiCad,Pcbnew,(7.0.0)*%
%TF.CreationDate,2023-04-17T14:45:16+03:00*%
%TF.ProjectId,sensor_system,73656e73-6f72-45f7-9379-7374656d2e6b,rev?*%
%TF.SameCoordinates,Original*%
%TF.FileFunction,Soldermask,Top*%
%TF.FilePolarity,Negative*%
%FSLAX46Y46*%
G04 Gerber Fmt 4.6, Leading zero omitted, Abs format (unit mm)*
G04 Created by KiCad (PCBNEW (7.0.0)) date 2023-04-17 14:45:16*
%MOMM*%
%LPD*%
G01*
G04 APERTURE LIST*
G04 Aperture macros list*
%AMRoundRect*
0 Rectangle with rounded corners*
0 $1 Rounding radius*
0 $2 $3 $4 $5 $6 $7 $8 $9 X,Y pos of 4 corners*
0 Add a 4 corners polygon primitive as box body*
4,1,4,$2,$3,$4,$5,$6,$7,$8,$9,$2,$3,0*
0 Add four circle primitives for the rounded corners*
1,1,$1+$1,$2,$3*
1,1,$1+$1,$4,$5*
1,1,$1+$1,$6,$7*
1,1,$1+$1,$8,$9*
0 Add four rect primitives between the rounded corners*
20,1,$1+$1,$2,$3,$4,$5,0*
20,1,$1+$1,$4,$5,$6,$7,0*
20,1,$1+$1,$6,$7,$8,$9,0*
20,1,$1+$1,$8,$9,$2,$3,0*%
%AMFreePoly0*
4,1,21,-0.125000,1.200000,0.125000,1.200000,0.125000,1.700000,0.375000,1.700000,0.375000,1.200000,0.825000,1.200000,0.825000,-1.200000,0.375000,-1.200000,0.375000,-1.700000,0.125000,-1.700000,0.125000,-1.200000,-0.125000,-1.200000,-0.125000,-1.700000,-0.375000,-1.700000,-0.375000,-1.200000,-0.825000,-1.200000,-0.825000,1.200000,-0.375000,1.200000,-0.375000,1.700000,-0.125000,1.700000,
-0.125000,1.200000,-0.125000,1.200000,$1*%
%AMFreePoly1*
4,1,11,1.015000,1.170000,0.435000,0.575000,0.435000,-0.575000,1.015000,-1.170000,1.015000,-1.945000,0.125000,-1.945000,-0.435000,-1.395000,-0.435000,1.395000,0.125000,1.945000,1.015000,1.945000,1.015000,1.170000,1.015000,1.170000,$1*%
%AMFreePoly2*
4,1,11,0.435000,1.395000,0.435000,-1.395000,-0.125000,-1.945000,-1.015000,-1.945000,-1.015000,-1.170000,-0.435000,-0.575000,-0.435000,0.575000,-1.015000,1.170000,-1.015000,1.945000,-0.125000,1.945000,0.435000,1.395000,0.435000,1.395000,$1*%
G04 Aperture macros list end*
%ADD10R,0.850000X0.850000*%
%ADD11RoundRect,0.250000X0.262500X0.450000X-0.262500X0.450000X-0.262500X-0.450000X0.262500X-0.450000X0*%
%ADD12RoundRect,0.250000X-0.450000X0.262500X-0.450000X-0.262500X0.450000X-0.262500X0.450000X0.262500X0*%
%ADD13R,1.498600X0.304800*%
%ADD14RoundRect,0.225000X0.375000X-0.225000X0.375000X0.225000X-0.375000X0.225000X-0.375000X-0.225000X0*%
%ADD15RoundRect,0.250000X-0.262500X-0.450000X0.262500X-0.450000X0.262500X0.450000X-0.262500X0.450000X0*%
%ADD16RoundRect,0.250000X0.475000X-0.250000X0.475000X0.250000X-0.475000X0.250000X-0.475000X-0.250000X0*%
%ADD17RoundRect,0.225000X-0.225000X-0.375000X0.225000X-0.375000X0.225000X0.375000X-0.225000X0.375000X0*%
%ADD18RoundRect,0.225000X0.250000X-0.225000X0.250000X0.225000X-0.250000X0.225000X-0.250000X-0.225000X0*%
%ADD19C,3.000000*%
%ADD20R,0.500000X0.350000*%
%ADD21R,1.700000X1.700000*%
%ADD22O,1.700000X1.700000*%
%ADD23RoundRect,0.243750X-0.243750X-0.456250X0.243750X-0.456250X0.243750X0.456250X-0.243750X0.456250X0*%
%ADD24RoundRect,0.250000X0.450000X-0.262500X0.450000X0.262500X-0.450000X0.262500X-0.450000X-0.262500X0*%
%ADD25RoundRect,0.250000X0.250000X0.475000X-0.250000X0.475000X-0.250000X-0.475000X0.250000X-0.475000X0*%
%ADD26R,1.350000X1.350000*%
%ADD27O,1.350000X1.350000*%
%ADD28C,1.400000*%
%ADD29RoundRect,0.250000X-0.250000X-0.475000X0.250000X-0.475000X0.250000X0.475000X-0.250000X0.475000X0*%
%ADD30R,0.600000X0.240000*%
%ADD31FreePoly0,180.000000*%
%ADD32RoundRect,0.218750X-0.218750X-0.256250X0.218750X-0.256250X0.218750X0.256250X-0.218750X0.256250X0*%
%ADD33FreePoly1,270.000000*%
%ADD34FreePoly2,270.000000*%
%ADD35RoundRect,0.250000X0.350000X-0.850000X0.350000X0.850000X-0.350000X0.850000X-0.350000X-0.850000X0*%
%ADD36RoundRect,0.249997X2.650003X-2.950003X2.650003X2.950003X-2.650003X2.950003X-2.650003X-2.950003X0*%
%ADD37RoundRect,0.150000X-0.512500X-0.150000X0.512500X-0.150000X0.512500X0.150000X-0.512500X0.150000X0*%
%ADD38RoundRect,0.225000X-0.225000X-0.250000X0.225000X-0.250000X0.225000X0.250000X-0.225000X0.250000X0*%
%ADD39RoundRect,0.250000X0.300000X-0.300000X0.300000X0.300000X-0.300000X0.300000X-0.300000X-0.300000X0*%
%ADD40R,1.800000X1.800000*%
%ADD41C,1.800000*%
%ADD42RoundRect,0.112500X0.187500X0.112500X-0.187500X0.112500X-0.187500X-0.112500X0.187500X-0.112500X0*%
%ADD43RoundRect,0.250000X-1.050000X-0.550000X1.050000X-0.550000X1.050000X0.550000X-1.050000X0.550000X0*%
%ADD44RoundRect,0.218750X0.218750X0.256250X-0.218750X0.256250X-0.218750X-0.256250X0.218750X-0.256250X0*%
%ADD45RoundRect,0.150000X0.512500X0.150000X-0.512500X0.150000X-0.512500X-0.150000X0.512500X-0.150000X0*%
%ADD46RoundRect,0.150000X-0.825000X-0.150000X0.825000X-0.150000X0.825000X0.150000X-0.825000X0.150000X0*%
%ADD47R,2.000000X2.000000*%
%ADD48C,2.000000*%
%ADD49C,2.500000*%
G04 APERTURE END LIST*
D10*
%TO.C,TP1*%
X123449999Y-35399999D03*
%TD*%
D11*
%TO.C,R3*%
X107312500Y-32900000D03*
X105487500Y-32900000D03*
%TD*%
D12*
%TO.C,R17*%
X144800000Y-28687500D03*
X144800000Y-30512500D03*
%TD*%
D13*
%TO.C,U3*%
X140107399Y-42940599D03*
X140107399Y-42457999D03*
X140107399Y-41949999D03*
X140107399Y-41441999D03*
X140107399Y-40959399D03*
X135992599Y-40959399D03*
X135992599Y-41441999D03*
X135992599Y-41949999D03*
X135992599Y-42457999D03*
X135992599Y-42940599D03*
%TD*%
D14*
%TO.C,D3*%
X151400000Y-40900000D03*
X151400000Y-37600000D03*
%TD*%
D15*
%TO.C,C7*%
X111787500Y-39450000D03*
X113612500Y-39450000D03*
%TD*%
D16*
%TO.C,C11*%
X151700000Y-29050000D03*
X151700000Y-27150000D03*
%TD*%
D11*
%TO.C,R5*%
X144362500Y-36450000D03*
X142537500Y-36450000D03*
%TD*%
D17*
%TO.C,D4*%
X146700000Y-43650000D03*
X150000000Y-43650000D03*
%TD*%
D18*
%TO.C,C13*%
X116900000Y-41275000D03*
X116900000Y-39725000D03*
%TD*%
D15*
%TO.C,R12*%
X127087500Y-42650000D03*
X128912500Y-42650000D03*
%TD*%
D19*
%TO.C,*%
X97850000Y-50100000D03*
%TD*%
D18*
%TO.C,C15*%
X105900000Y-45975000D03*
X105900000Y-44425000D03*
%TD*%
D20*
%TO.C,U4*%
X147349999Y-29149999D03*
X147349999Y-28499999D03*
X147349999Y-27849999D03*
X147349999Y-27199999D03*
X149399999Y-27199999D03*
X149399999Y-27849999D03*
X149399999Y-28499999D03*
X149399999Y-29149999D03*
%TD*%
D15*
%TO.C,R2*%
X95700000Y-36825000D03*
X97525000Y-36825000D03*
%TD*%
D21*
%TO.C,SW1*%
X132659999Y-47149999D03*
D22*
X135199999Y-47149999D03*
X137739999Y-47149999D03*
%TD*%
D23*
%TO.C,D6*%
X146562500Y-38700000D03*
X148437500Y-38700000D03*
%TD*%
D24*
%TO.C,R9*%
X129550000Y-47112500D03*
X129550000Y-45287500D03*
%TD*%
D11*
%TO.C,R7*%
X144312500Y-41000000D03*
X142487500Y-41000000D03*
%TD*%
D25*
%TO.C,C10*%
X106450000Y-42000000D03*
X104550000Y-42000000D03*
%TD*%
D26*
%TO.C,TH1*%
X137999999Y-35049999D03*
D27*
X137999999Y-33049999D03*
%TD*%
D12*
%TO.C,R13*%
X154150000Y-48337500D03*
X154150000Y-50162500D03*
%TD*%
D15*
%TO.C,C6*%
X116187500Y-31800000D03*
X118012500Y-31800000D03*
%TD*%
D12*
%TO.C,C4*%
X109450000Y-31087500D03*
X109450000Y-32912500D03*
%TD*%
D28*
%TO.C,J2*%
X151050000Y-50850000D03*
X151050000Y-48310000D03*
%TD*%
D29*
%TO.C,C2*%
X111750000Y-37000000D03*
X113650000Y-37000000D03*
%TD*%
D11*
%TO.C,R6*%
X144362500Y-38700000D03*
X142537500Y-38700000D03*
%TD*%
D15*
%TO.C,R14*%
X146337500Y-47950000D03*
X148162500Y-47950000D03*
%TD*%
D19*
%TO.C,*%
X97850000Y-26800000D03*
%TD*%
D24*
%TO.C,R11*%
X131900000Y-39262500D03*
X131900000Y-37437500D03*
%TD*%
D18*
%TO.C,C14*%
X103900000Y-45975000D03*
X103900000Y-44425000D03*
%TD*%
D30*
%TO.C,U7*%
X110799999Y-46549999D03*
X110799999Y-46049999D03*
X110799999Y-45549999D03*
X110799999Y-45049999D03*
X110799999Y-44549999D03*
X107999999Y-44549999D03*
X107999999Y-45049999D03*
X107999999Y-45549999D03*
X107999999Y-46049999D03*
X107999999Y-46549999D03*
D31*
X109400000Y-45550000D03*
%TD*%
D32*
%TO.C,D7*%
X146762500Y-41000000D03*
X148337500Y-41000000D03*
%TD*%
D33*
%TO.C,L2*%
X114450000Y-43600000D03*
D34*
X114450000Y-47130000D03*
%TD*%
D16*
%TO.C,C12*%
X153900000Y-29050000D03*
X153900000Y-27150000D03*
%TD*%
D35*
%TO.C,Q2*%
X119590000Y-46800000D03*
D36*
X121870000Y-40500000D03*
D35*
X124150000Y-46800000D03*
%TD*%
D37*
%TO.C,U2*%
X111862500Y-31050000D03*
X111862500Y-32950000D03*
X114137500Y-32000000D03*
%TD*%
D15*
%TO.C,R4*%
X101687500Y-32800000D03*
X103512500Y-32800000D03*
%TD*%
D23*
%TO.C,D5*%
X146562500Y-36450000D03*
X148437500Y-36450000D03*
%TD*%
D24*
%TO.C,R15*%
X144800000Y-26962500D03*
X144800000Y-25137500D03*
%TD*%
D38*
%TO.C,C3*%
X96125000Y-45825000D03*
X97675000Y-45825000D03*
%TD*%
D39*
%TO.C,D8*%
X131950000Y-43950000D03*
X131950000Y-41150000D03*
%TD*%
D19*
%TO.C,*%
X141900000Y-33150000D03*
%TD*%
D40*
%TO.C,D9*%
X157899999Y-48229999D03*
D41*
X157900000Y-50770000D03*
%TD*%
D15*
%TO.C,R1*%
X96087500Y-43750000D03*
X97912500Y-43750000D03*
%TD*%
D42*
%TO.C,D1*%
X97662500Y-39825000D03*
X95562500Y-39825000D03*
%TD*%
D11*
%TO.C,R8*%
X137912500Y-38950000D03*
X136087500Y-38950000D03*
%TD*%
D43*
%TO.C,C9*%
X149300000Y-33350000D03*
X152900000Y-33350000D03*
%TD*%
D11*
%TO.C,R16*%
X110550000Y-41950000D03*
X108725000Y-41950000D03*
%TD*%
D26*
%TO.C,BT1*%
X134749999Y-35049999D03*
D27*
X134749999Y-33049999D03*
%TD*%
D44*
%TO.C,D10*%
X148187500Y-46050000D03*
X146612500Y-46050000D03*
%TD*%
D29*
%TO.C,C8*%
X116150000Y-33900000D03*
X118050000Y-33900000D03*
%TD*%
D15*
%TO.C,C5*%
X96037500Y-32700000D03*
X97862500Y-32700000D03*
%TD*%
D45*
%TO.C,Q1*%
X129400000Y-40350000D03*
X129400000Y-38450000D03*
X127125000Y-39400000D03*
%TD*%
D24*
%TO.C,R10*%
X127100000Y-47112500D03*
X127100000Y-45287500D03*
%TD*%
D15*
%TO.C,C1*%
X111787500Y-34850000D03*
X113612500Y-34850000D03*
%TD*%
D46*
%TO.C,U1*%
X103900000Y-35640000D03*
X103900000Y-36910000D03*
X103900000Y-38180000D03*
X103900000Y-39450000D03*
X108850000Y-39450000D03*
X108850000Y-38180000D03*
X108850000Y-36910000D03*
X108850000Y-35640000D03*
%TD*%
D47*
%TO.C,U5*%
X104609999Y-25629999D03*
D48*
X107150000Y-25630000D03*
X109690000Y-25630000D03*
X112230000Y-25630000D03*
X114770000Y-25630000D03*
X117310000Y-25630000D03*
X119850000Y-25630000D03*
X122390000Y-25630000D03*
X124930000Y-25630000D03*
X127470000Y-25630000D03*
X130010000Y-25630000D03*
X132550000Y-25630000D03*
X135090000Y-25630000D03*
X137630000Y-25630000D03*
X140170000Y-25630000D03*
X140170000Y-51030000D03*
X137630000Y-51030000D03*
X135090000Y-51030000D03*
X132550000Y-51030000D03*
X130010000Y-51030000D03*
X127470000Y-51030000D03*
X124930000Y-51030000D03*
X122390000Y-51030000D03*
X119850000Y-51030000D03*
X117310000Y-51030000D03*
X114770000Y-51030000D03*
X112230000Y-51030000D03*
X109690000Y-51030000D03*
X107150000Y-51030000D03*
X104610000Y-51030000D03*
%TD*%
D49*
%TO.C,J1*%
X156100000Y-38490000D03*
X156100000Y-35650000D03*
%TD*%
M02*
