%TF.GenerationSoftware,KiCad,Pcbnew,(7.0.0)*%
%TF.CreationDate,2023-04-17T14:45:23+03:00*%
%TF.ProjectId,sensor_system,73656e73-6f72-45f7-9379-7374656d2e6b,rev?*%
%TF.SameCoordinates,Original*%
%TF.FileFunction,Drillmap*%
%TF.FilePolarity,Positive*%
%FSLAX45Y45*%
G04 Gerber Fmt 4.5, Leading zero omitted, Abs format (unit mm)*
G04 Created by KiCad (PCBNEW (7.0.0)) date 2023-04-17 14:45:23*
%MOMM*%
%LPD*%
G01*
G04 APERTURE LIST*
%ADD10C,0.100000*%
%ADD11C,0.200000*%
G04 APERTURE END LIST*
D10*
X15970000Y-2390000D02*
X15970000Y-5270000D01*
X2260000Y-3830000D02*
X3260000Y-4985000D01*
X9460000Y-2390000D02*
X9175000Y-2685000D01*
X15970000Y-2390000D02*
X9460000Y-2390000D01*
X3260000Y-2680000D02*
X2260000Y-3830000D01*
X9175000Y-2685000D02*
X3260000Y-2680000D01*
X15970000Y-5270000D02*
X9465000Y-5270000D01*
X9185000Y-4980000D02*
X3260000Y-4985000D01*
X9465000Y-5270000D02*
X9185000Y-4980000D01*
D11*
X2502619Y-5568476D02*
X2502619Y-5368476D01*
X2502619Y-5368476D02*
X2550238Y-5368476D01*
X2550238Y-5368476D02*
X2578810Y-5378000D01*
X2578810Y-5378000D02*
X2597857Y-5397048D01*
X2597857Y-5397048D02*
X2607381Y-5416095D01*
X2607381Y-5416095D02*
X2616905Y-5454190D01*
X2616905Y-5454190D02*
X2616905Y-5482762D01*
X2616905Y-5482762D02*
X2607381Y-5520857D01*
X2607381Y-5520857D02*
X2597857Y-5539905D01*
X2597857Y-5539905D02*
X2578810Y-5558952D01*
X2578810Y-5558952D02*
X2550238Y-5568476D01*
X2550238Y-5568476D02*
X2502619Y-5568476D01*
X2702619Y-5568476D02*
X2702619Y-5435143D01*
X2702619Y-5473238D02*
X2712143Y-5454190D01*
X2712143Y-5454190D02*
X2721667Y-5444667D01*
X2721667Y-5444667D02*
X2740714Y-5435143D01*
X2740714Y-5435143D02*
X2759762Y-5435143D01*
X2826428Y-5568476D02*
X2826428Y-5435143D01*
X2826428Y-5368476D02*
X2816905Y-5378000D01*
X2816905Y-5378000D02*
X2826428Y-5387524D01*
X2826428Y-5387524D02*
X2835952Y-5378000D01*
X2835952Y-5378000D02*
X2826428Y-5368476D01*
X2826428Y-5368476D02*
X2826428Y-5387524D01*
X2950238Y-5568476D02*
X2931190Y-5558952D01*
X2931190Y-5558952D02*
X2921667Y-5539905D01*
X2921667Y-5539905D02*
X2921667Y-5368476D01*
X3055000Y-5568476D02*
X3035952Y-5558952D01*
X3035952Y-5558952D02*
X3026428Y-5539905D01*
X3026428Y-5539905D02*
X3026428Y-5368476D01*
X3251190Y-5568476D02*
X3251190Y-5368476D01*
X3251190Y-5368476D02*
X3317857Y-5511333D01*
X3317857Y-5511333D02*
X3384524Y-5368476D01*
X3384524Y-5368476D02*
X3384524Y-5568476D01*
X3565476Y-5568476D02*
X3565476Y-5463714D01*
X3565476Y-5463714D02*
X3555952Y-5444667D01*
X3555952Y-5444667D02*
X3536905Y-5435143D01*
X3536905Y-5435143D02*
X3498809Y-5435143D01*
X3498809Y-5435143D02*
X3479762Y-5444667D01*
X3565476Y-5558952D02*
X3546428Y-5568476D01*
X3546428Y-5568476D02*
X3498809Y-5568476D01*
X3498809Y-5568476D02*
X3479762Y-5558952D01*
X3479762Y-5558952D02*
X3470238Y-5539905D01*
X3470238Y-5539905D02*
X3470238Y-5520857D01*
X3470238Y-5520857D02*
X3479762Y-5501810D01*
X3479762Y-5501810D02*
X3498809Y-5492286D01*
X3498809Y-5492286D02*
X3546428Y-5492286D01*
X3546428Y-5492286D02*
X3565476Y-5482762D01*
X3660714Y-5435143D02*
X3660714Y-5635143D01*
X3660714Y-5444667D02*
X3679762Y-5435143D01*
X3679762Y-5435143D02*
X3717857Y-5435143D01*
X3717857Y-5435143D02*
X3736905Y-5444667D01*
X3736905Y-5444667D02*
X3746428Y-5454190D01*
X3746428Y-5454190D02*
X3755952Y-5473238D01*
X3755952Y-5473238D02*
X3755952Y-5530381D01*
X3755952Y-5530381D02*
X3746428Y-5549429D01*
X3746428Y-5549429D02*
X3736905Y-5558952D01*
X3736905Y-5558952D02*
X3717857Y-5568476D01*
X3717857Y-5568476D02*
X3679762Y-5568476D01*
X3679762Y-5568476D02*
X3660714Y-5558952D01*
X3841667Y-5549429D02*
X3851190Y-5558952D01*
X3851190Y-5558952D02*
X3841667Y-5568476D01*
X3841667Y-5568476D02*
X3832143Y-5558952D01*
X3832143Y-5558952D02*
X3841667Y-5549429D01*
X3841667Y-5549429D02*
X3841667Y-5568476D01*
X3841667Y-5444667D02*
X3851190Y-5454190D01*
X3851190Y-5454190D02*
X3841667Y-5463714D01*
X3841667Y-5463714D02*
X3832143Y-5454190D01*
X3832143Y-5454190D02*
X3841667Y-5444667D01*
X3841667Y-5444667D02*
X3841667Y-5463714D01*
M02*
